<svg id="圖層_1" data-name="圖層 1" xmlns="http://www.w3.org/2000/svg" viewBox="0 0 800 420"><defs><style>.cls-1,.cls-2{fill:#fff;}.cls-1{opacity:0;}.cls-2{opacity:0.8;}.cls-3{fill:#060001;}.cls-4{fill:#5a92e5;}.cls-5{fill:#94d3d6;}.cls-6{fill:#44acb7;}.cls-7,.cls-8{fill:#8fdfea;}.cls-7{opacity:0.3;}.cls-8{opacity:0.2;}.cls-9{fill:#13a2e2;}</style></defs><title>protractor</title><rect class="cls-1" width="800" height="420"/><path class="cls-2" d="M800,400.31C800,179.4,620.91.32,400,.32S0,179.4,0,400.31H0V420H800V400.31Z" transform="translate(0)"/><path d="M82.21,400.62l.22,5.27-.89,0-.09-2.13-7.32.31.75,2.16-1,0-1.12-3.15,8.61-.37-.09-2.13Z" transform="translate(0)"/><path d="M77.22,397.53A2.47,2.47,0,0,1,75,399.27a2,2,0,0,1-1.67-.75,3,3,0,0,1-.68-1.94,2.71,2.71,0,0,1,.56-1.78,1.88,1.88,0,0,1,1.53-.75,2.67,2.67,0,0,1,2.46,1.7h0a2.64,2.64,0,0,1,2.48-2.11,2.2,2.2,0,0,1,1.87.81,3.66,3.66,0,0,1,.71,2.27,3,3,0,0,1-.63,2,2.17,2.17,0,0,1-1.74.82,2.74,2.74,0,0,1-2.65-2Zm-2.33-2.43a1.27,1.27,0,0,0-1,.44,1.65,1.65,0,0,0-.35,1.13,1.69,1.69,0,0,0,.42,1.1,1.21,1.21,0,0,0,1,.45c.83,0,1.44-.54,1.84-1.58C76.3,395.59,75.68,395.08,74.89,395.1Zm2.83,1.59c.5,1.21,1.21,1.8,2.11,1.78A1.42,1.42,0,0,0,81,397.9a2.16,2.16,0,0,0,.4-1.39,2.08,2.08,0,0,0-.45-1.34,1.42,1.42,0,0,0-1.15-.5C78.85,394.69,78.16,395.36,77.72,396.69Z" transform="translate(0)"/><path d="M77.52,392.62a6.83,6.83,0,0,1-3.71-.87,2.58,2.58,0,0,1-1.23-2.35q0-2.94,4.81-2.85a6.68,6.68,0,0,1,3.58.86,2.59,2.59,0,0,1,1.22,2.35,2.41,2.41,0,0,1-1.25,2.17A6.37,6.37,0,0,1,77.52,392.62Zm0-1c2.54,0,3.83-.61,3.85-1.95s-1.26-2-3.84-2.06-4,.59-4.06,1.88S74.76,391.55,77.49,391.59Z" transform="translate(0)"/><path d="M84.65,348.8,84,354l-.89-.1.26-2.12-7.27-.87.39,2.25-1-.12-.61-3.29,8.57,1,.25-2.11Z" transform="translate(0)"/><path d="M76.7,340.56l8.4,5-.15,1-7.81-4.68-.67,4.71-.91-.12.85-6Z" transform="translate(0)"/><path d="M81.35,340.23a7,7,0,0,1-3.55-1.41,2.58,2.58,0,0,1-.87-2.51c.31-1.93,2-2.63,5.18-2.12a6.7,6.7,0,0,1,3.41,1.38,2.62,2.62,0,0,1,.87,2.51A2.42,2.42,0,0,1,84.83,340,6.46,6.46,0,0,1,81.35,340.23Zm.11-1c2.52.41,3.88,0,4.1-1.37s-1-2.18-3.5-2.59-4.08,0-4.29,1.26S78.78,338.76,81.46,339.2Z" transform="translate(0)"/><path d="M96.29,295.37l-1.52,5.06-.86-.26.62-2.05-7-2.11v2.29l-.93-.28,0-3.35,8.26,2.48.61-2Z" transform="translate(0)"/><path d="M90.47,286.58a3.33,3.33,0,0,0-.82,1.35,2.3,2.3,0,0,0,.43,2.28,5.29,5.29,0,0,0,2.63,1.63v0a2.23,2.23,0,0,1-.6-2.46,2.58,2.58,0,0,1,1.36-1.63,2.94,2.94,0,0,1,2.21-.05,3.1,3.1,0,0,1,1.85,1.47,2.75,2.75,0,0,1,.18,2.27A2.51,2.51,0,0,1,96,293.19a5.39,5.39,0,0,1-3.19-.23,6.84,6.84,0,0,1-3.37-2.14,3.2,3.2,0,0,1-.57-3.14,3.59,3.59,0,0,1,.74-1.39Zm3.63,5.64a2.69,2.69,0,0,0,1.75,0,1.67,1.67,0,0,0,1.07-1.11,1.69,1.69,0,0,0-.15-1.46,2.62,2.62,0,0,0-2.94-1,1.7,1.7,0,0,0-1,1.12,1.9,1.9,0,0,0,1.23,2.4Z" transform="translate(0)"/><path d="M94.52,286.36a7,7,0,0,1-3.26-2,2.59,2.59,0,0,1-.42-2.62q1-2.76,5.47-1.19a6.65,6.65,0,0,1,3.12,1.94,2.58,2.58,0,0,1,.42,2.62A2.44,2.44,0,0,1,98,286.77,6.44,6.44,0,0,1,94.52,286.36Zm.29-1c2.4.84,3.83.62,4.27-.64s-.56-2.31-3-3.16-4-.72-4.45.5S92.24,284.47,94.81,285.37Z" transform="translate(0)"/><path d="M117,244.78l-2.37,4.71-.8-.4,1-1.91-6.54-3.28-.4,2.25-.86-.44.55-3.3,7.71,3.87,1-1.91Z" transform="translate(0)"/><path d="M116.52,242.77a3.59,3.59,0,0,0,1.46-1.43,2.33,2.33,0,0,0,.26-1.7,1.94,1.94,0,0,0-1-1.26,1.79,1.79,0,0,0-1.58-.13,2.8,2.8,0,0,0-1.3,1.35c-.12.22-.33.66-.63,1.34l-4.09-2.17,2.1-4,.81.43-1.65,3.12,2.46,1.31c.15-.32.26-.56.35-.72a3.4,3.4,0,0,1,1.73-1.71,2.63,2.63,0,0,1,2.23.23,2.74,2.74,0,0,1,1.5,1.83,3.47,3.47,0,0,1-.41,2.48,3.71,3.71,0,0,1-1.24,1.52Z" transform="translate(0)"/><path d="M116.78,235.58a7,7,0,0,1-2.87-2.52,2.64,2.64,0,0,1,0-2.66c1-1.71,2.82-1.78,5.6-.23a6.75,6.75,0,0,1,2.74,2.44,2.61,2.61,0,0,1,0,2.66,2.43,2.43,0,0,1-2.12,1.32A6.53,6.53,0,0,1,116.78,235.58Zm.45-.92q3.34,1.86,4.32.1c.65-1.16-.16-2.37-2.41-3.63s-3.84-1.4-4.47-.27S114.85,233.33,117.23,234.66Z" transform="translate(0)"/><path d="M149.49,194l-3.21,4.18-.71-.55,1.3-1.69-5.81-4.46-.81,2.14-.77-.59,1.17-3.15,6.83,5.26,1.3-1.69Z" transform="translate(0)"/><path d="M152,186.78l-.76.94,1.95,1.57-.63.78-1.95-1.56L147.87,192l-.51-.42-2.17-7.12.79-1,4.66,3.74.76-.94ZM150,188l-3.2-2.57-.74-.62v0a7.73,7.73,0,0,1,.33.72l1.54,5Z" transform="translate(0)"/><path d="M151.05,184.89a6.9,6.9,0,0,1-2.33-3,2.59,2.59,0,0,1,.53-2.6c1.25-1.5,3.1-1.22,5.53.82A6.68,6.68,0,0,1,157,183a2.61,2.61,0,0,1-.53,2.61,2.44,2.44,0,0,1-2.34.89A6.53,6.53,0,0,1,151.05,184.89Zm.62-.82q2.93,2.46,4.22.91t-1.68-4c-2.06-1.73-3.5-2.09-4.34-1.1S149.59,182.32,151.67,184.07Z" transform="translate(0)"/><path d="M188.88,152.05,185,155.59l-.6-.67,1.58-1.43L181,148.06l-1.18,2-.65-.72,1.71-2.88,5.78,6.39,1.58-1.42Z" transform="translate(0)"/><path d="M188.91,150.08a3.46,3.46,0,0,0,2.14-.84,2.51,2.51,0,0,0,.87-1.41,1.58,1.58,0,0,0-.42-1.41q-1.22-1.41-3.22.33l-.59.51-.56-.65.56-.49c1.19-1,1.4-2,.64-2.86a1.52,1.52,0,0,0-2.42,0,3,3,0,0,0-1,1.73l-.66-.76a4.16,4.16,0,0,1,1.25-1.79,2.89,2.89,0,0,1,1.8-.75,2,2,0,0,1,1.6.74,2.31,2.31,0,0,1,.13,3h0a2.48,2.48,0,0,1,1.68-.52,2.07,2.07,0,0,1,1.46.75,2.53,2.53,0,0,1,.63,2.14,3.65,3.65,0,0,1-1.29,2.12,3.88,3.88,0,0,1-1.92,1Z" transform="translate(0)"/><path d="M192,143.41a7,7,0,0,1-1.76-3.39,2.58,2.58,0,0,1,1-2.47c1.5-1.25,3.27-.64,5.3,1.8a6.81,6.81,0,0,1,1.67,3.28,2.6,2.6,0,0,1-1,2.46,2.41,2.41,0,0,1-2.45.46A6.48,6.48,0,0,1,192,143.41Zm.75-.7q2.44,2.94,4,1.66c1-.85.71-2.27-.93-4.26s-3.08-2.69-4.08-1.86S191.06,140.61,192.79,142.71Z" transform="translate(0)"/><path d="M232.71,119.37l-4.46,2.82-.48-.76,1.8-1.14-3.91-6.18-1.5,1.72-.52-.82,2.18-2.55,4.61,7.29,1.8-1.14Z" transform="translate(0)"/><path d="M238.47,115.88l-4.82,2.9-.46-.78.93-3.74a10.16,10.16,0,0,0,.42-2.55,2.83,2.83,0,0,0-.4-1.27,1.72,1.72,0,0,0-1.06-.85,1.9,1.9,0,0,0-1.38.32,3.5,3.5,0,0,0-1.52,2.17l-.55-.92a4,4,0,0,1,1.74-2,2.75,2.75,0,0,1,2-.43,2.34,2.34,0,0,1,1.56,1.17,3.52,3.52,0,0,1,.48,1.73,11.56,11.56,0,0,1-.44,2.81l-.77,3v0L238,115.1Z" transform="translate(0)"/><path d="M237.3,111.39a7,7,0,0,1-1.15-3.64,2.61,2.61,0,0,1,1.4-2.27q2.53-1.45,4.91,2.69a6.62,6.62,0,0,1,1.08,3.51,2.61,2.61,0,0,1-1.39,2.26,2.44,2.44,0,0,1-2.5,0A6.59,6.59,0,0,1,237.3,111.39Zm.87-.56c1.27,2.21,2.48,3,3.65,2.31s1.08-2.11-.2-4.35-2.57-3.18-3.69-2.54S236.81,108.46,238.17,110.83Z" transform="translate(0)"/><path d="M284.12,93.63l-4.89,2-.34-.84,2-.79-2.73-6.79-1.78,1.42-.36-.9,2.6-2.11,3.21,8,2-.79Z" transform="translate(0)"/><path d="M290.59,91.18,285.65,93l-.31-.84,2-.75-2.58-6.85L282.94,86l-.34-.9L285.24,83l3,8.07,2-.75Z" transform="translate(0)"/><path d="M290.08,86.61a7,7,0,0,1-.47-3.79,2.6,2.6,0,0,1,1.78-2c1.85-.65,3.29.53,4.35,3.53a6.65,6.65,0,0,1,.43,3.64,2.59,2.59,0,0,1-1.78,2,2.42,2.42,0,0,1-2.47-.42A6.47,6.47,0,0,1,290.08,86.61Zm1-.39q1.26,3.6,3.17,2.93t.59-4.32q-1.33-3.8-3.17-3.15C290.33,82.13,290.13,83.65,291,86.22Z" transform="translate(0)"/><path d="M339.36,77.63l-5.17,1.05L334,77.8l2.09-.42-1.45-7.18-2,1.08-.19-1,2.94-1.61,1.71,8.45,2.08-.42Z" transform="translate(0)"/><path d="M339.61,73a6.9,6.9,0,0,1,.14-3.81,2.59,2.59,0,0,1,2.07-1.66c1.92-.35,3.17,1,3.73,4.18a6.71,6.71,0,0,1-.16,3.67,2.6,2.6,0,0,1-2.07,1.65,2.42,2.42,0,0,1-2.37-.81A6.51,6.51,0,0,1,339.61,73Zm1-.23q.67,3.77,2.66,3.4T344.55,72c-.48-2.65-1.35-3.86-2.63-3.63S340.13,70.12,340.61,72.8Z" transform="translate(0)"/><path d="M346.48,71.81a7,7,0,0,1,.21-3.81,2.63,2.63,0,0,1,2.12-1.62c1.92-.3,3.14,1.12,3.63,4.26a6.69,6.69,0,0,1-.24,3.67,2.6,2.6,0,0,1-2.11,1.61,2.41,2.41,0,0,1-2.34-.86A6.44,6.44,0,0,1,346.48,71.81Zm1-.21c.4,2.51,1.26,3.67,2.59,3.46s1.77-1.59,1.37-4.14-1.27-3.88-2.55-3.68S347.06,68.91,347.48,71.6Z" transform="translate(0)"/><path d="M394.11,70.79a3.44,3.44,0,0,0,1.67.41,2.29,2.29,0,0,0,2-1.07,5.11,5.11,0,0,0,.68-3,0,0,0,0,1,0,0,2.16,2.16,0,0,1-2.09,1.25,2.62,2.62,0,0,1-2-.79,2.91,2.91,0,0,1-.8-2.06,3.15,3.15,0,0,1,.79-2.23,2.78,2.78,0,0,1,2.16-.92,2.48,2.48,0,0,1,2.18,1.06,5.55,5.55,0,0,1,.8,3.14,6.86,6.86,0,0,1-.92,4,3.2,3.2,0,0,1-2.78,1.46,3.82,3.82,0,0,1-1.62-.28Zm.45-5.39A2.26,2.26,0,0,0,395.1,67a2,2,0,0,0,2.74,0,1.74,1.74,0,0,0,.5-1.28,2.79,2.79,0,0,0-.55-1.73,1.67,1.67,0,0,0-1.41-.68,1.7,1.7,0,0,0-1.33.63A2.22,2.22,0,0,0,394.56,65.4Z" transform="translate(0)"/><path d="M400.51,67.37a7.08,7.08,0,0,1,.87-3.72,2.65,2.65,0,0,1,2.36-1.23c1.95,0,2.9,1.64,2.85,4.82a6.61,6.61,0,0,1-.86,3.57A2.59,2.59,0,0,1,403.37,72a2.42,2.42,0,0,1-2.16-1.25A6.51,6.51,0,0,1,400.51,67.37Zm1,0c0,2.55.61,3.84,2,3.86s2-1.26,2.05-3.85-.58-4-1.88-4.06S401.59,64.61,401.54,67.33Z" transform="translate(0)"/><path d="M452.63,71.23a2.49,2.49,0,0,1-1.31-2.52,2,2,0,0,1,1.06-1.5,3,3,0,0,1,2-.31,2.73,2.73,0,0,1,1.64.88,1.89,1.89,0,0,1,.45,1.65,2.64,2.64,0,0,1-2.12,2.09v0A2.63,2.63,0,0,1,456,74.37a2.2,2.2,0,0,1-1.14,1.69,3.72,3.72,0,0,1-2.37.28,2.93,2.93,0,0,1-1.82-1,2.17,2.17,0,0,1-.48-1.85,2.76,2.76,0,0,1,2.44-2.25Zm.73.64c-1.28.27-2,.86-2.15,1.75a1.43,1.43,0,0,0,.35,1.25,2.16,2.16,0,0,0,1.3.66,2,2,0,0,0,1.39-.21,1.41,1.41,0,0,0,.71-1C455.11,73.35,454.58,72.55,453.36,71.87Zm2.09-2.48a1.33,1.33,0,0,0-.25-1.1,1.62,1.62,0,0,0-1-.55,1.71,1.71,0,0,0-1.16.2,1.22,1.22,0,0,0-.63.91,2,2,0,0,0,1.21,2.09C454.7,70.68,455.32,70.16,455.45,69.39Z" transform="translate(0)"/><path d="M457.35,72.47A6.92,6.92,0,0,1,458.84,69a2.6,2.6,0,0,1,2.53-.81q2.88.54,2,5.23a6.64,6.64,0,0,1-1.46,3.37,2.59,2.59,0,0,1-2.53.81,2.41,2.41,0,0,1-1.92-1.6A6.43,6.43,0,0,1,457.35,72.47Zm1,.14c-.48,2.5-.05,3.88,1.27,4.13s2.2-.9,2.68-3.44.11-4.08-1.17-4.32S458.88,69.93,458.37,72.61Z" transform="translate(0)"/><path d="M513,82.89l-6.57,7.23-1-.36,6.15-6.71-4.48-1.6.31-.86,5.67,2Z" transform="translate(0)"/><path d="M512.42,87.53a6.91,6.91,0,0,1,2.09-3.2,2.6,2.6,0,0,1,2.63-.35c1.83.7,2.17,2.53,1,5.51a6.72,6.72,0,0,1-2,3.06,2.6,2.6,0,0,1-2.63.34A2.41,2.41,0,0,1,511.9,91,6.39,6.39,0,0,1,512.42,87.53Zm1,.31q-1.36,3.57.51,4.29c1.24.48,2.33-.49,3.25-2.9s.84-4-.38-4.46S514.37,85.3,513.4,87.84Z" transform="translate(0)"/><path d="M564.51,108.08a3.52,3.52,0,0,0-1.15-1.09,2.33,2.33,0,0,0-2.33,0,5.4,5.4,0,0,0-2.14,2.24h0a2.23,2.23,0,0,1,2.53-.08,2.57,2.57,0,0,1,1.31,1.67,2.94,2.94,0,0,1-.4,2.17,3.1,3.1,0,0,1-1.82,1.5,2.75,2.75,0,0,1-2.26-.28,2.52,2.52,0,0,1-1.37-2.1,5.5,5.5,0,0,1,.88-3.08,6.86,6.86,0,0,1,2.8-2.85,3.17,3.17,0,0,1,3.18.09,3.65,3.65,0,0,1,1.21,1Zm-6.27,2.38a2.68,2.68,0,0,0-.37,1.71,1.76,1.76,0,0,0,2.33,1.43,2.27,2.27,0,0,0,1.19-1,2.31,2.31,0,0,0,.36-1.62,1.72,1.72,0,0,0-.91-1.17,1.9,1.9,0,0,0-2.6.7Z" transform="translate(0)"/><path d="M563.93,112.11a7,7,0,0,1,2.62-2.78,2.62,2.62,0,0,1,2.66.13q2.5,1.52,0,5.59a6.69,6.69,0,0,1-2.55,2.66,2.6,2.6,0,0,1-2.65-.13,2.41,2.41,0,0,1-1.24-2.17A6.44,6.44,0,0,1,563.93,112.11Zm.91.48c-1.32,2.18-1.4,3.62-.26,4.32s2.38-.08,3.72-2.29,1.53-3.78.42-4.46S566.25,110.26,564.84,112.59Z" transform="translate(0)"/><path d="M605.48,145.44a3.6,3.6,0,0,0,1.08,1.74,2.32,2.32,0,0,0,1.6.62,1.94,1.94,0,0,0,1.46-.74,1.83,1.83,0,0,0,.47-1.52,2.77,2.77,0,0,0-1-1.56q-.28-.24-1.17-.9l3-3.52,3.42,2.92-.59.7-2.69-2.3L609.23,143c.28.21.49.38.63.5a3.41,3.41,0,0,1,1.28,2.06,2.59,2.59,0,0,1-.71,2.12,2.76,2.76,0,0,1-2.11,1.07,3.47,3.47,0,0,1-2.33-.94,3.9,3.9,0,0,1-1.22-1.55Z" transform="translate(0)"/><path d="M612.45,147.26a7,7,0,0,1,3.09-2.24,2.6,2.6,0,0,1,2.58.61q2.19,2-1,5.51a6.64,6.64,0,0,1-3,2.14,2.6,2.6,0,0,1-2.58-.61,2.42,2.42,0,0,1-.82-2.36A6.39,6.39,0,0,1,612.45,147.26Zm.8.65c-1.7,1.9-2,3.3-1,4.19s2.35.37,4.07-1.56,2.2-3.44,1.23-4.3S615.07,145.88,613.25,147.91Z" transform="translate(0)"/><path d="M649.85,189.11l-.77-.94-1.94,1.58-.63-.77,1.93-1.59L645.62,184l.51-.42,7.42-.65.79,1-4.62,3.79.77.94Zm-.77-2.24,3.17-2.6.76-.6v0l-.78.18-5.24.48Z" transform="translate(0)"/><path d="M651.9,188.52a7,7,0,0,1,3.43-1.66,2.6,2.6,0,0,1,2.44,1q1.82,2.31-1.94,5.25a6.57,6.57,0,0,1-3.32,1.58,2.59,2.59,0,0,1-2.43-1.05,2.44,2.44,0,0,1-.4-2.47A6.59,6.59,0,0,1,651.9,188.52Zm.68.78c-2,1.58-2.59,2.89-1.77,3.95s2.25.77,4.29-.83,2.77-3,2-4S654.72,187.62,652.58,189.3Z" transform="translate(0)"/><path d="M677.58,231.66a3.51,3.51,0,0,0,.4,2.27,2.52,2.52,0,0,0,1.2,1.14,1.64,1.64,0,0,0,1.47-.13c1.08-.6,1.19-1.68.33-3.22l-.38-.67.75-.42.36.64c.76,1.37,1.66,1.77,2.67,1.2s1.12-1.31.53-2.35a3,3,0,0,0-1.5-1.3l.88-.49a4.12,4.12,0,0,1,1.5,1.59,2.79,2.79,0,0,1,.37,1.91,2,2,0,0,1-1,1.42,2.3,2.3,0,0,1-3-.49h0a2.47,2.47,0,0,1,.18,1.75,2.1,2.1,0,0,1-1,1.28A2.52,2.52,0,0,1,679,236a3.59,3.59,0,0,1-1.81-1.69,3.94,3.94,0,0,1-.6-2.08Z" transform="translate(0)"/><path d="M683.47,236a7,7,0,0,1,3.68-1,2.6,2.6,0,0,1,2.21,1.47c.92,1.73,0,3.34-2.83,4.83a6.74,6.74,0,0,1-3.55,1,2.61,2.61,0,0,1-2.21-1.47,2.42,2.42,0,0,1,.05-2.5A6.44,6.44,0,0,1,683.47,236Zm.53.89q-3.37,1.78-2.43,3.57t4.36-.06c2.38-1.26,3.26-2.47,2.65-3.61S686.41,235.65,684,236.93Z" transform="translate(0)"/><path d="M701.53,288.62l-1.83-5.31.85-.3,3.47,1.7a10.44,10.44,0,0,0,2.41.94,2.82,2.82,0,0,0,1.32-.13,1.69,1.69,0,0,0,1-.86,1.88,1.88,0,0,0,0-1.42,3.52,3.52,0,0,0-1.8-1.93l1-.35a4,4,0,0,1,1.64,2.13,2.78,2.78,0,0,1,0,2.05,2.29,2.29,0,0,1-1.47,1.28,3.36,3.36,0,0,1-1.79.11,11.08,11.08,0,0,1-2.65-1L701,284.15h0l1.43,4.17Z" transform="translate(0)"/><path d="M706.17,288.41A7,7,0,0,1,710,288a2.61,2.61,0,0,1,1.92,1.84c.59,1.86-.62,3.27-3.65,4.25a6.63,6.63,0,0,1-3.66.32,2.6,2.6,0,0,1-1.92-1.84,2.42,2.42,0,0,1,.49-2.44A6.42,6.42,0,0,1,706.17,288.41Zm.36,1q-3.63,1.17-3,3.09c.4,1.26,1.84,1.5,4.3.71s3.64-1.84,3.24-3.08S709.13,288.54,706.53,289.37Z" transform="translate(0)"/><path d="M714.63,343.56l-.81-5.22.89-.14.33,2.11,7.23-1.12-1-2.06,1-.15,1.47,3-8.52,1.31.33,2.11Z" transform="translate(0)"/><path d="M719.21,344a7,7,0,0,1,3.8.31,2.6,2.6,0,0,1,1.56,2.15q.39,2.91-4.34,3.53a6.65,6.65,0,0,1-3.66-.32,2.61,2.61,0,0,1-1.56-2.15,2.39,2.39,0,0,1,.92-2.32A6.47,6.47,0,0,1,719.21,344Zm.18,1c-2.52.33-3.7,1.17-3.52,2.5s1.54,1.8,4.1,1.46,3.92-1.17,3.74-2.46S722.09,344.63,719.39,345Z" transform="translate(0)"/><path d="M722.44,391.1a7,7,0,0,1,3.72.86,2.62,2.62,0,0,1,1.24,2.36q0,2.93-4.81,2.86a6.68,6.68,0,0,1-3.58-.85,2.62,2.62,0,0,1-1.23-2.35,2.42,2.42,0,0,1,1.24-2.17A6.5,6.5,0,0,1,722.44,391.1Zm0,1c-2.55,0-3.83.62-3.85,2s1.27,2,3.85,2,4-.59,4.06-1.89S725.2,392.17,722.48,392.13Z" transform="translate(0)"/><path d="M43.81,399.27a7.08,7.08,0,0,1-3.72-.87A2.6,2.6,0,0,1,38.86,396q0-2.93,4.82-2.85a6.64,6.64,0,0,1,3.57.86,2.63,2.63,0,0,1,1.23,2.36,2.44,2.44,0,0,1-1.25,2.16A6.51,6.51,0,0,1,43.81,399.27Zm0-1c2.55,0,3.83-.61,3.85-2s-1.25-2-3.84-2-4,.58-4.06,1.88S41.05,398.19,43.77,398.24Z" transform="translate(0)"/><path d="M53.38,340.33l-.85,5.2-.88-.14.34-2.11-7.22-1.18.29,2.27-1-.16-.46-3.32,8.51,1.39.34-2.1Z" transform="translate(0)"/><path d="M49.21,338.24a7,7,0,0,1-3.52-1.47,2.61,2.61,0,0,1-.82-2.53q.52-2.88,5.22-2a6.68,6.68,0,0,1,3.38,1.44,2.59,2.59,0,0,1,.82,2.52,2.41,2.41,0,0,1-1.59,1.93A6.41,6.41,0,0,1,49.21,338.24Zm.14-1c2.5.46,3.88,0,4.12-1.29s-.91-2.19-3.45-2.66-4.08-.1-4.32,1.18S46.67,336.72,49.35,337.22Z" transform="translate(0)"/><path d="M68.7,282l-1.85,5.3L66,287l-1.67-3.48A10.39,10.39,0,0,0,63,281.27a2.84,2.84,0,0,0-1.12-.72,1.69,1.69,0,0,0-1.35,0,1.92,1.92,0,0,0-.87,1.13,3.56,3.56,0,0,0,.22,2.63l-1-.35a4,4,0,0,1,0-2.69,2.77,2.77,0,0,1,1.27-1.61,2.31,2.31,0,0,1,2-.1,3.56,3.56,0,0,1,1.47,1,11,11,0,0,1,1.46,2.44l1.3,2.77h0l1.45-4.16Z" transform="translate(0)"/><path d="M65,279A7,7,0,0,1,61.8,277a2.6,2.6,0,0,1-.37-2.63q1-2.74,5.49-1.09a6.7,6.7,0,0,1,3.08,2,2.6,2.6,0,0,1,.37,2.63,2.43,2.43,0,0,1-1.9,1.62A6.43,6.43,0,0,1,65,279Zm.3-1q3.59,1.34,4.29-.55t-2.94-3.22c-2.52-.94-4-.8-4.46.42S62.77,277.07,65.32,278Z" transform="translate(0)"/><path d="M90,231a3.34,3.34,0,0,0,1.72-1.53,2.43,2.43,0,0,0,.34-1.61,1.6,1.6,0,0,0-.87-1.19c-1.08-.6-2.06-.13-2.92,1.41l-.38.68-.75-.42.37-.65c.76-1.37.63-2.34-.38-2.9s-1.7-.27-2.29.78a3,3,0,0,0-.31,2l-.88-.49a4,4,0,0,1,.57-2.11,2.76,2.76,0,0,1,1.43-1.32,2,2,0,0,1,1.76.15,2.3,2.3,0,0,1,1.15,2.8h0A2.48,2.48,0,0,1,90,225.47a2.13,2.13,0,0,1,1.63.21,2.51,2.51,0,0,1,1.32,1.8,3.63,3.63,0,0,1-.48,2.43,3.92,3.92,0,0,1-1.47,1.6Z" transform="translate(0)"/><path d="M90.79,223.41A7.08,7.08,0,0,1,88,220.83a2.59,2.59,0,0,1,.09-2.66c1-1.68,2.85-1.72,5.59-.12a6.67,6.67,0,0,1,2.69,2.51,2.58,2.58,0,0,1-.09,2.65,2.38,2.38,0,0,1-2.15,1.27A6.43,6.43,0,0,1,90.79,223.41Zm.48-.91c2.2,1.28,3.63,1.35,4.31.19s-.11-2.38-2.34-3.68-3.8-1.48-4.46-.36S88.92,221.12,91.27,222.5Z" transform="translate(0)"/><path d="M128.55,172.75l-.77.94,1.93,1.59-.64.77-1.93-1.59-2.82,3.43-.51-.42-2.08-7.15.8-1,4.61,3.8.77-.94Zm-2.05,1.19-3.16-2.61c-.22-.18-.47-.39-.73-.64l0,0c0,.09.16.33.33.73l1.47,5.05Z" transform="translate(0)"/><path d="M127.73,170.67a7,7,0,0,1-2.3-3A2.62,2.62,0,0,1,126,165c1.27-1.48,3.11-1.19,5.53.89a6.62,6.62,0,0,1,2.19,2.94,2.6,2.6,0,0,1-.56,2.6,2.41,2.41,0,0,1-2.34.86A6.37,6.37,0,0,1,127.73,170.67Zm.63-.81q2.91,2.49,4.21,1t-1.64-4q-3.06-2.62-4.32-1.15C125.71,166.67,126.3,168.08,128.36,169.86Z" transform="translate(0)"/><path d="M168.06,134.17a3.57,3.57,0,0,0,1.89-.8,2.33,2.33,0,0,0,.86-1.49,2,2,0,0,0-.51-1.55,1.82,1.82,0,0,0-1.43-.7,2.76,2.76,0,0,0-1.7.79c-.19.16-.54.5-1.07,1l-3-3.51,3.41-2.93.6.69-2.68,2.3,1.81,2.12c.26-.25.45-.43.59-.55a3.41,3.41,0,0,1,2.24-1,2.61,2.61,0,0,1,2,1,2.77,2.77,0,0,1,.73,2.25,3.5,3.5,0,0,1-1.29,2.17,3.76,3.76,0,0,1-1.71,1Z" transform="translate(0)"/><path d="M171.13,127.4a7,7,0,0,1-1.75-3.4,2.6,2.6,0,0,1,1-2.46c1.5-1.25,3.27-.64,5.29,1.81a6.77,6.77,0,0,1,1.67,3.28,2.6,2.6,0,0,1-1,2.46,2.43,2.43,0,0,1-2.46.46A6.59,6.59,0,0,1,171.13,127.4Zm.76-.7c1.63,2,3,2.52,4,1.66s.72-2.26-.93-4.25-3.07-2.7-4.07-1.88S170.16,124.6,171.89,126.7Z" transform="translate(0)"/><path d="M217.84,89.8a3.4,3.4,0,0,0-1.5.48,2.34,2.34,0,0,0-1.18,2,5.32,5.32,0,0,0,.91,3h0A2.21,2.21,0,0,1,217.26,93a2.56,2.56,0,0,1,2.09-.33,3,3,0,0,1,1.7,1.42,3.08,3.08,0,0,1,.43,2.32,2.78,2.78,0,0,1-1.36,1.83,2.52,2.52,0,0,1-2.5.17,5.49,5.49,0,0,1-2.25-2.27,6.82,6.82,0,0,1-1.12-3.84,3.17,3.17,0,0,1,1.63-2.73,3.67,3.67,0,0,1,1.47-.57Zm-1,6.63a2.53,2.53,0,0,0,1.31,1.16,1.76,1.76,0,0,0,2.38-1.32,2.24,2.24,0,0,0-.34-1.56,2.29,2.29,0,0,0-1.23-1.1,1.78,1.78,0,0,0-1.47.21,1.85,1.85,0,0,0-.87,1.17A1.78,1.78,0,0,0,216.87,96.43Z" transform="translate(0)"/><path d="M221.28,92.16a7,7,0,0,1-1.15-3.64,2.64,2.64,0,0,1,1.41-2.26c1.69-1,3.33-.07,4.9,2.7a6.62,6.62,0,0,1,1.08,3.51,2.6,2.6,0,0,1-1.4,2.25,2.39,2.39,0,0,1-2.5,0A6.4,6.4,0,0,1,221.28,92.16Zm.87-.55q1.89,3.31,3.64,2.32t-.19-4.36q-2-3.5-3.68-2.54C220.72,87.72,220.8,89.24,222.15,91.61Z" transform="translate(0)"/><path d="M276.89,61.15l-.36,9.76-1,.36.38-9.1-4.46,1.66-.32-.85,5.64-2.1Z" transform="translate(0)"/><path d="M279.65,65a7,7,0,0,1-.46-3.79,2.61,2.61,0,0,1,1.79-2q2.76-1,4.33,3.54a6.78,6.78,0,0,1,.43,3.65,2.63,2.63,0,0,1-1.79,2,2.42,2.42,0,0,1-2.46-.43A6.48,6.48,0,0,1,279.65,65Zm1-.39c.84,2.4,1.89,3.39,3.16,2.94s1.46-1.87.6-4.31-1.94-3.6-3.16-3.17S279.71,62,280.61,64.6Z" transform="translate(0)"/><path d="M333.81,49.85a2.47,2.47,0,0,1-2.08-1.92,2,2,0,0,1,.47-1.78,3.07,3.07,0,0,1,1.8-1,2.75,2.75,0,0,1,1.85.27,1.92,1.92,0,0,1,1,1.39,2.67,2.67,0,0,1-1.28,2.7v0a2.66,2.66,0,0,1,2.48,2.11,2.21,2.21,0,0,1-.51,2,3.66,3.66,0,0,1-2.13,1.07,2.94,2.94,0,0,1-2-.3,2.21,2.21,0,0,1-1.09-1.58,2.76,2.76,0,0,1,1.53-3Zm2-2.7a1.33,1.33,0,0,0-.6-.94,1.62,1.62,0,0,0-1.17-.16,1.67,1.67,0,0,0-1,.59,1.24,1.24,0,0,0-.28,1.06c.15.81.77,1.33,1.86,1.55C335.57,48.63,336,47.93,335.83,47.15Zm-1.12,3.05c-1.11.7-1.58,1.49-1.41,2.38a1.42,1.42,0,0,0,.75,1.06,2.15,2.15,0,0,0,1.44.17,2,2,0,0,0,1.24-.67,1.38,1.38,0,0,0,.31-1.21C336.87,51,336.09,50.42,334.71,50.2Z" transform="translate(0)"/><path d="M338.91,49.36a7,7,0,0,1,.2-3.81,2.62,2.62,0,0,1,2.1-1.63c1.93-.32,3.15,1.1,3.66,4.23a6.72,6.72,0,0,1-.21,3.67,2.6,2.6,0,0,1-2.1,1.63,2.42,2.42,0,0,1-2.35-.85A6.41,6.41,0,0,1,338.91,49.36Zm1-.22c.42,2.52,1.28,3.67,2.61,3.45s1.76-1.6,1.34-4.15-1.29-3.87-2.57-3.66S339.48,46.46,339.92,49.14Z" transform="translate(0)"/><path d="M393.33,47.55A3.27,3.27,0,0,0,395,48a2.29,2.29,0,0,0,2-1.07,5.11,5.11,0,0,0,.68-3h0a2.15,2.15,0,0,1-2.09,1.25,2.55,2.55,0,0,1-2-.79,2.9,2.9,0,0,1-.81-2.06,3.16,3.16,0,0,1,.79-2.23,2.83,2.83,0,0,1,2.16-.92,2.46,2.46,0,0,1,2.18,1.07,5.52,5.52,0,0,1,.8,3.13,6.84,6.84,0,0,1-.92,4A3.21,3.21,0,0,1,395,48.82a3.82,3.82,0,0,1-1.62-.29Zm.44-5.38a2.3,2.3,0,0,0,.54,1.55,1.88,1.88,0,0,0,3.25-1.27,2.86,2.86,0,0,0-.56-1.73,1.66,1.66,0,0,0-1.41-.68,1.7,1.7,0,0,0-1.33.63A2.22,2.22,0,0,0,393.77,42.17Z" transform="translate(0)"/><path d="M400,44.12a6.89,6.89,0,0,1,.87-3.72,2.63,2.63,0,0,1,2.36-1.23q2.93,0,2.85,4.82a6.7,6.7,0,0,1-.87,3.57,2.59,2.59,0,0,1-2.35,1.23,2.43,2.43,0,0,1-2.17-1.25A6.51,6.51,0,0,1,400,44.12Zm1,0c0,2.55.61,3.84,1.95,3.86s2-1.26,2.06-3.85-.59-4-1.88-4.06S401.05,41.36,401,44.08Z" transform="translate(0)"/><path d="M455.92,53l-5.22-.79.13-.88,2.11.31,1.1-7.23-2.26.32.14-1,3.32-.5-1.3,8.53,2.11.32Z" transform="translate(0)"/><path d="M457.93,48.83a7,7,0,0,1,1.43-3.54,2.63,2.63,0,0,1,2.52-.85q2.89.5,2.08,5.2a6.71,6.71,0,0,1-1.4,3.4,2.6,2.6,0,0,1-2.52.84,2.42,2.42,0,0,1-2-1.56A6.55,6.55,0,0,1,457.93,48.83Zm1,.12c-.44,2.51,0,3.88,1.33,4.11s2.19-.93,2.63-3.48,0-4.08-1.24-4.3S459.42,46.27,459,49Z" transform="translate(0)"/><path d="M465.07,50.08a7,7,0,0,1,1.51-3.51,2.58,2.58,0,0,1,2.53-.8c1.92.37,2.58,2.11,2,5.24a6.61,6.61,0,0,1-1.47,3.36,2.59,2.59,0,0,1-2.53.8,2.4,2.4,0,0,1-1.91-1.61A6.5,6.5,0,0,1,465.07,50.08Zm1,.14q-.74,3.75,1.25,4.13c1.3.26,2.2-.89,2.69-3.42s.13-4.09-1.14-4.33S466.61,47.54,466.1,50.22Z" transform="translate(0)"/><path d="M515.55,68l-5-1.69.29-.85,2,.68,2.34-6.93-2.28-.08.31-.92,3.35.09-2.76,8.17,2,.68Z" transform="translate(0)"/><path d="M522.26,70.44l-5-1.79.3-.84,2,.72,2.49-6.88-2.28-.13.33-.91,3.35.16-2.94,8.11,2,.72Z" transform="translate(0)"/><path d="M525.08,66.73a6.9,6.9,0,0,1,2.1-3.19,2.62,2.62,0,0,1,2.64-.35q2.73,1.05,1,5.51a6.72,6.72,0,0,1-2,3,2.59,2.59,0,0,1-2.64.34,2.41,2.41,0,0,1-1.6-1.91A6.49,6.49,0,0,1,525.08,66.73Zm1,.32q-1.37,3.56.51,4.29c1.24.47,2.33-.49,3.25-2.9s.85-4-.36-4.47S527,64.5,526.06,67.05Z" transform="translate(0)"/><path d="M571.61,93.25,567,90.7l.43-.78,1.87,1,3.52-6.42-2.23-.48.47-.84,3.28.67-4.15,7.56,1.86,1Z" transform="translate(0)"/><path d="M577.67,96.72l-4.87-2.8.46-.79,3.73-1a10,10,0,0,0,2.43-.87,2.85,2.85,0,0,0,.92-1,1.64,1.64,0,0,0,.22-1.33,1.88,1.88,0,0,0-.95-1.06,3.48,3.48,0,0,0-2.62-.27l.53-.93a4,4,0,0,1,2.64.53,2.76,2.76,0,0,1,1.35,1.55,2.32,2.32,0,0,1-.27,1.93A3.52,3.52,0,0,1,580,92a11.37,11.37,0,0,1-2.67,1l-3,.77v0l3.82,2.2Z" transform="translate(0)"/><path d="M581.24,93.64a7,7,0,0,1,2.62-2.78,2.62,2.62,0,0,1,2.65.12c1.68,1,1.69,2.88,0,5.6A6.64,6.64,0,0,1,584,99.23a2.6,2.6,0,0,1-2.66-.12,2.41,2.41,0,0,1-1.24-2.17A6.44,6.44,0,0,1,581.24,93.64Zm.91.48c-1.32,2.18-1.4,3.62-.26,4.31s2.38-.07,3.72-2.28,1.52-3.79.41-4.46S583.56,91.79,582.15,94.12Z" transform="translate(0)"/><path d="M622.44,127.87l-4.11-3.3.56-.7,1.67,1.34,4.58-5.71-2.11-.86.6-.75,3.12,1.23-5.4,6.72,1.66,1.33Z" transform="translate(0)"/><path d="M624.59,127.75a3.43,3.43,0,0,0,1.17,2,2.56,2.56,0,0,0,1.53.64,1.6,1.6,0,0,0,1.32-.64q1.2-1.42-.83-3.13l-.6-.5.56-.66.56.48c1.21,1,2.18,1.07,2.93.17s.58-1.62-.34-2.39A3,3,0,0,0,629,123l.65-.77a4.16,4.16,0,0,1,2,1,2.78,2.78,0,0,1,1,1.65,2,2,0,0,1-.47,1.7,2.3,2.3,0,0,1-3,.61h0a2.5,2.5,0,0,1,.79,1.57,2.06,2.06,0,0,1-.51,1.56,2.51,2.51,0,0,1-2,1,3.58,3.58,0,0,1-2.29-.94,3.93,3.93,0,0,1-1.3-1.74Z" transform="translate(0)"/><path d="M631.84,129.92a7,7,0,0,1,3.06-2.28,2.62,2.62,0,0,1,2.6.58q2.21,1.92-.93,5.52a6.64,6.64,0,0,1-3,2.17,2.58,2.58,0,0,1-2.59-.58,2.43,2.43,0,0,1-.85-2.35A6.54,6.54,0,0,1,631.84,129.92Zm.81.63c-1.67,1.92-2,3.32-1,4.21s2.36.34,4.06-1.61,2.16-3.46,1.18-4.32S634.44,128.5,632.65,130.55Z" transform="translate(0)"/><path d="M664.46,168.45,661,164.51l.67-.6L663,165.5l5.46-4.87-2-1.19.73-.65,2.87,1.73-6.44,5.74,1.42,1.59Z" transform="translate(0)"/><path d="M671.21,172.47l-.78-.92-1.9,1.62-.66-.76,1.9-1.63-2.89-3.37.51-.43,7.4-.81.81,1L671.05,171l.79.92Zm-.81-2.23,3.11-2.66c.22-.19.47-.39.75-.61v0c-.09,0-.35.1-.78.19l-5.22.59Z" transform="translate(0)"/><path d="M673.4,172a7,7,0,0,1,3.4-1.74,2.59,2.59,0,0,1,2.46,1q1.86,2.26-1.82,5.29a6.71,6.71,0,0,1-3.28,1.65,2.59,2.59,0,0,1-2.46-1,2.4,2.4,0,0,1-.45-2.46A6.41,6.41,0,0,1,673.4,172Zm.7.76q-3,2.43-1.68,4t4.26-.92c2.08-1.7,2.71-3.06,1.88-4.06S676.2,171.05,674.1,172.78Z" transform="translate(0)"/><path d="M702.42,220.66l-2.73-4.51.77-.47,1.1,1.83,6.26-3.8-1.7-1.53.83-.5,2.51,2.22-7.37,4.47,1.1,1.82Z" transform="translate(0)"/><path d="M704.48,221.55a3.55,3.55,0,0,0,.45,2,2.27,2.27,0,0,0,1.3,1.12,1.93,1.93,0,0,0,1.61-.21,1.76,1.76,0,0,0,.95-1.27,2.77,2.77,0,0,0-.45-1.82c-.12-.21-.39-.63-.8-1.24l4-2.32,2.25,3.89-.79.46-1.77-3.06-2.41,1.4.43.67a3.46,3.46,0,0,1,.52,2.38,2.58,2.58,0,0,1-1.37,1.76,2.73,2.73,0,0,1-2.35.31,3.49,3.49,0,0,1-1.89-1.66,3.84,3.84,0,0,1-.63-1.86Z" transform="translate(0)"/><path d="M710.58,225.83a7,7,0,0,1,3.66-1.09,2.6,2.6,0,0,1,2.24,1.43c.95,1.71,0,3.33-2.76,4.87a6.68,6.68,0,0,1-3.53,1,2.59,2.59,0,0,1-2.23-1.44,2.42,2.42,0,0,1,0-2.49A6.54,6.54,0,0,1,710.58,225.83Zm.55.88q-3.35,1.84-2.37,3.61t4.35-.13c2.36-1.3,3.22-2.51,2.59-3.65S713.51,225.39,711.13,226.71Z" transform="translate(0)"/><path d="M729.14,276.06l-1.91-4.92.84-.32.77,2,6.82-2.64-1.4-1.8.9-.35,2.08,2.62-8,3.12.77,2Z" transform="translate(0)"/><path d="M739.22,279.65a3.46,3.46,0,0,0-.18-1.57,2.32,2.32,0,0,0-1.75-1.53,5.37,5.37,0,0,0-3.08.33v0a2.2,2.2,0,0,1,2,1.57,2.53,2.53,0,0,1-.07,2.11,3,3,0,0,1-1.71,1.41,3.15,3.15,0,0,1-2.36,0,2.76,2.76,0,0,1-1.54-1.68,2.51,2.51,0,0,1,.3-2.49,5.49,5.49,0,0,1,2.66-1.78,6.77,6.77,0,0,1,4-.38,3.17,3.17,0,0,1,2.38,2.12,3.57,3.57,0,0,1,.28,1.55Zm-6.33-2.21a2.59,2.59,0,0,0-1.38,1.07,1.64,1.64,0,0,0-.17,1.53,1.7,1.7,0,0,0,1,1.06,2.24,2.24,0,0,0,1.59,0,2.31,2.31,0,0,0,1.32-1,1.71,1.71,0,0,0,.06-1.47,1.8,1.8,0,0,0-1-1.08A1.85,1.85,0,0,0,732.89,277.44Z" transform="translate(0)"/><path d="M736.25,282.55a7,7,0,0,1,3.79-.44,2.59,2.59,0,0,1,2,1.8q.94,2.77-3.57,4.31a6.72,6.72,0,0,1-3.65.4,2.61,2.61,0,0,1-1.95-1.81,2.39,2.39,0,0,1,.45-2.45A6.36,6.36,0,0,1,736.25,282.55Zm.38.95c-2.41.83-3.4,1.87-3,3.14s1.87,1.47,4.31.64,3.61-1.91,3.19-3.14S739.21,282.63,736.63,283.5Z" transform="translate(0)"/><path d="M745.71,335.28l-1-5.18.88-.17L746,332l7.18-1.4-1.06-2,.95-.19,1.59,2.95L746.18,333l.41,2.09Z" transform="translate(0)"/><path d="M755.86,340.91l-9.52-2.14-.18-1,8.87,2-.82-4.69.91-.16,1,5.93Z" transform="translate(0)"/><path d="M751.58,342.92a6.92,6.92,0,0,1,3.81.24,2.59,2.59,0,0,1,1.61,2.12q.43,2.89-4.27,3.61a6.58,6.58,0,0,1-3.67-.25,2.58,2.58,0,0,1-1.6-2.12,2.39,2.39,0,0,1,.87-2.34A6.4,6.4,0,0,1,751.58,342.92Zm.21,1c-2.52.39-3.67,1.25-3.47,2.57s1.58,1.78,4.13,1.39,3.89-1.25,3.69-2.54S754.48,343.52,751.79,343.93Z" transform="translate(0)"/><path d="M751.65,393.39l-.15-5.28.9,0,.06,2.13,7.31-.2-.71-2.17,1,0L761.1,391l-8.62.23.06,2.13Z" transform="translate(0)"/><path d="M756.58,396.76a2.5,2.5,0,0,1,2.25-1.74,2.07,2.07,0,0,1,1.67.76,3,3,0,0,1,.66,2,2.74,2.74,0,0,1-.56,1.77,1.91,1.91,0,0,1-1.54.75,2.69,2.69,0,0,1-2.45-1.71h0a2.66,2.66,0,0,1-2.49,2.1,2.23,2.23,0,0,1-1.87-.83,3.65,3.65,0,0,1-.69-2.27,2.92,2.92,0,0,1,.63-2,2.19,2.19,0,0,1,1.74-.81,2.75,2.75,0,0,1,2.65,2Zm-.49.83c-.5-1.21-1.21-1.81-2.11-1.79a1.44,1.44,0,0,0-1.17.56,2.2,2.2,0,0,0-.41,1.4,2.05,2.05,0,0,0,.45,1.33,1.39,1.39,0,0,0,1.15.51C754.94,399.59,755.64,398.92,756.09,397.59Zm2.82,1.61a1.32,1.32,0,0,0,1-.44,1.62,1.62,0,0,0,.35-1.12,1.64,1.64,0,0,0-.41-1.11,1.25,1.25,0,0,0-1-.46c-.83,0-1.44.54-1.84,1.58C757.49,398.7,758.12,399.21,758.91,399.2Z" transform="translate(0)"/><path d="M756.18,401.89a7,7,0,0,1,3.72.85,2.62,2.62,0,0,1,1.24,2.36q0,2.92-4.81,2.86a6.62,6.62,0,0,1-3.57-.85,2.59,2.59,0,0,1-1.24-2.35,2.43,2.43,0,0,1,1.24-2.17A6.51,6.51,0,0,1,756.18,401.89Zm0,1c-2.55,0-3.83.62-3.85,2s1.27,2,3.85,2.05,4-.6,4.06-1.9S758.94,403,756.22,402.92Z" transform="translate(0)"/><path class="cls-3" d="M380.25,16.14l-.8-15.3-.73.05.8,15.3Z" transform="translate(0)"/><path class="cls-3" d="M387,15.89,386.42.58l-.74,0,.54,15.31Z" transform="translate(0)"/><path class="cls-3" d="M393.66,15.73,393.39.41h-.73l.26,15.32Z" transform="translate(0)"/><path class="cls-3" d="M400,15.65h.37V.33h-.74V15.65Z" transform="translate(0)"/><path class="cls-3" d="M15.42,392.87.1,392.61c0,.24,0,.49,0,.73l15.32.27C15.41,393.36,15.41,393.12,15.42,392.87Z" transform="translate(0)"/><path class="cls-3" d="M15.61,386.16.3,385.63l0,.73,15.31.54Z" transform="translate(0)"/><path class="cls-3" d="M15.89,379.45l-15.3-.8c0,.25,0,.49,0,.74l15.3.8C15.86,379.94,15.88,379.7,15.89,379.45Z" transform="translate(0)"/><path class="cls-3" d="M16.32,372.75,1,371.69c0,.24,0,.49-.05.73l15.29,1.07C16.29,373.25,16.3,373,16.32,372.75Z" transform="translate(0)"/><path class="cls-3" d="M17.49,359.38l-15.24-1.6c0,.24,0,.49-.08.73l15.24,1.6C17.43,359.87,17.47,359.63,17.49,359.38Z" transform="translate(0)"/><path class="cls-3" d="M18.25,352.71l-15.2-1.87-.09.74,15.21,1.86C18.2,353.2,18.22,353,18.25,352.71Z" transform="translate(0)"/><path class="cls-3" d="M19.15,346.06,4,343.92c0,.25-.07.49-.11.74l15.18,2.13C19.08,346.54,19.12,346.3,19.15,346.06Z" transform="translate(0)"/><path class="cls-3" d="M20.14,339.42,5,337c0,.24-.08.48-.12.73L20,340.15Z" transform="translate(0)"/><path class="cls-3" d="M22.49,326.2l-15-2.93c0,.25-.09.49-.13.73l15,2.92C22.39,326.68,22.44,326.44,22.49,326.2Z" transform="translate(0)"/><path class="cls-3" d="M23.83,319.62l-15-3.19c-.05.24-.11.48-.16.73l15,3.18C23.72,320.1,23.78,319.86,23.83,319.62Z" transform="translate(0)"/><path class="cls-3" d="M25.27,313.06l-14.94-3.45c-.05.24-.11.48-.16.72l14.93,3.45C25.16,313.54,25.21,313.3,25.27,313.06Z" transform="translate(0)"/><path class="cls-3" d="M26.86,306.54,12,302.83l-.18.72,14.87,3.71Z" transform="translate(0)"/><path class="cls-3" d="M30.34,293.57l-14.73-4.22-.21.71,14.73,4.22Z" transform="translate(0)"/><path class="cls-3" d="M32.26,287.14,17.6,282.66l-.21.71,14.66,4.48Z" transform="translate(0)"/><path class="cls-3" d="M34.3,280.74,19.73,276c-.08.23-.16.47-.23.7l14.57,4.74Z" transform="translate(0)"/><path class="cls-3" d="M36.44,274.38l-14.49-5c-.08.23-.17.46-.25.7l14.49,5C36.27,274.84,36.36,274.61,36.44,274.38Z" transform="translate(0)"/><path class="cls-3" d="M41.05,261.77l-14.3-5.49-.27.69,14.31,5.49C40.88,262.23,41,262,41.05,261.77Z" transform="translate(0)"/><path class="cls-3" d="M43.53,255.53l-14.21-5.74c-.09.23-.18.46-.28.69l14.21,5.74Z" transform="translate(0)"/><path class="cls-3" d="M46.1,249.33l-14.11-6c-.09.23-.19.45-.29.68l14.11,6C45.9,249.78,46,249.56,46.1,249.33Z" transform="translate(0)"/><path class="cls-3" d="M48.79,243.18l-14-6.23c-.1.22-.19.45-.29.68l14,6.23Z" transform="translate(0)"/><path class="cls-3" d="M54.51,231l-13.78-6.72-.33.66,13.78,6.72C54.28,231.48,54.4,231.26,54.51,231Z" transform="translate(0)"/><path class="cls-3" d="M57.5,225l-13.66-7-.33.66,13.65,7C57.28,225.47,57.38,225.25,57.5,225Z" transform="translate(0)"/><path class="cls-3" d="M60.63,219.09,47.1,211.9c-.12.21-.23.43-.35.65l13.53,7.19C60.4,219.53,60.51,219.31,60.63,219.09Z" transform="translate(0)"/><path class="cls-3" d="M63.85,213.2l-13.4-7.43-.36.65,13.4,7.43Z" transform="translate(0)"/><path class="cls-3" d="M70.58,201.59,57.44,193.7c-.12.21-.24.42-.37.63l13.13,7.89Z" transform="translate(0)"/><path class="cls-3" d="M74.12,195.88l-13-8.12-.39.63,13,8.12C73.86,196.3,74,196.09,74.12,195.88Z" transform="translate(0)"/><path class="cls-3" d="M77.74,190.23l-12.85-8.34c-.14.2-.28.41-.41.62l12.85,8.34C77.46,190.64,77.6,190.44,77.74,190.23Z" transform="translate(0)"/><path class="cls-3" d="M81.44,184.64l-12.7-8.57c-.14.2-.29.4-.42.61L81,185.25Z" transform="translate(0)"/><path class="cls-3" d="M89.18,173.68l-12.39-9-.44.6,12.4,9Z" transform="translate(0)"/><path class="cls-3" d="M93.18,168.29,81,159.07l-.45.58,12.23,9.22Z" transform="translate(0)"/><path class="cls-3" d="M97.26,163l-12.07-9.43-.45.59,12.08,9.43C97,163.36,97.11,163.16,97.26,163Z" transform="translate(0)"/><path class="cls-3" d="M101.47,157.74l-11.91-9.65-.46.58L101,158.31Z" transform="translate(0)"/><path class="cls-3" d="M110.11,147.47,98.55,137.42c-.16.18-.33.36-.49.55L109.62,148C109.78,147.84,110,147.66,110.11,147.47Z" transform="translate(0)"/><path class="cls-3" d="M114.57,142.45,103.18,132.2c-.17.18-.33.37-.49.55L114.08,143C114.24,142.82,114.4,142.63,114.57,142.45Z" transform="translate(0)"/><path class="cls-3" d="M119.12,137.52l-11.21-10.44-.5.54,11.21,10.44Z" transform="translate(0)"/><path class="cls-3" d="M123.74,132.66l-11-10.64-.51.53,11,10.64Z" transform="translate(0)"/><path class="cls-3" d="M133.24,123.19l-10.64-11-.53.51,10.64,11Z" transform="translate(0)"/><path class="cls-3" d="M138.12,118.58l-10.45-11.2-.54.5,10.45,11.21Z" transform="translate(0)"/><path class="cls-3" d="M143.07,114.05l-10.25-11.38-.55.49,10.25,11.38Z" transform="translate(0)"/><path class="cls-3" d="M148.09,109.6,138,98l-.56.49,10.06,11.56Z" transform="translate(0)"/><path class="cls-3" d="M158.39,101,148.75,89.1l-.58.46,9.65,11.91Z" transform="translate(0)"/><path class="cls-3" d="M163.64,96.82,154.2,84.75l-.58.45,9.43,12.07Z" transform="translate(0)"/><path class="cls-3" d="M169,92.74l-9.22-12.23-.59.44,9.22,12.24Z" transform="translate(0)"/><path class="cls-3" d="M174.37,88.77l-9-12.4-.6.44,9,12.39Z" transform="translate(0)"/><path class="cls-3" d="M185.35,81.06l-8.57-12.7-.61.41,8.57,12.7Z" transform="translate(0)"/><path class="cls-3" d="M191,77.37l-8.34-12.85-.62.41,8.35,12.85Z" transform="translate(0)"/><path class="cls-3" d="M196.62,73.78l-8.12-13-.63.4,8.12,13Z" transform="translate(0)"/><path class="cls-3" d="M214,63.57l-7.43-13.4-.64.36,7.43,13.4Z" transform="translate(0)"/><path class="cls-3" d="M219.86,60.38l-7.19-13.54-.66.35,7.2,13.53C219.42,60.6,219.64,60.49,219.86,60.38Z" transform="translate(0)"/><path class="cls-3" d="M225.81,57.27l-7-13.66-.66.33,6.95,13.66C225.36,57.48,225.59,57.38,225.81,57.27Z" transform="translate(0)"/><path class="cls-3" d="M231.81,54.28,225.1,40.51l-.67.33,6.72,13.77Z" transform="translate(0)"/><path class="cls-3" d="M244,48.62l-6.23-14-.68.3,6.24,14Z" transform="translate(0)"/><path class="cls-3" d="M250.13,45.94l-6-14.11-.68.29,6,14.11Z" transform="translate(0)"/><path class="cls-3" d="M256.34,43.39l-5.74-14.2-.69.27,5.74,14.21Z" transform="translate(0)"/><path class="cls-3" d="M262.58,41l-5.49-14.31-.69.26,5.49,14.31Z" transform="translate(0)"/><path class="cls-3" d="M275.19,36.36l-5-14.49-.69.25,5,14.49Z" transform="translate(0)"/><path class="cls-3" d="M281.56,34.25l-4.73-14.57-.7.23,4.73,14.57Z" transform="translate(0)"/><path class="cls-3" d="M288,32.24l-4.48-14.66c-.23.08-.47.14-.7.21l4.48,14.66Z" transform="translate(0)"/><path class="cls-3" d="M294.39,30.33l-4.22-14.74-.71.22,4.23,14.73Z" transform="translate(0)"/><path class="cls-3" d="M307.37,26.9,303.66,12l-.72.18,3.71,14.87Z" transform="translate(0)"/><path class="cls-3" d="M313.89,25.33,310.44,10.4l-.72.15,3.45,14.94Z" transform="translate(0)"/><path class="cls-3" d="M320.44,23.9l-3.18-15-.72.16,3.18,15Z" transform="translate(0)"/><path class="cls-3" d="M327,22.59l-2.92-15-.73.14,2.93,15Z" transform="translate(0)"/><path class="cls-3" d="M340.24,20.27l-2.4-15.13-.73.12,2.4,15.13Z" transform="translate(0)"/><path class="cls-3" d="M346.88,19.31,344.74,4.14l-.73.1,2.14,15.18Z" transform="translate(0)"/><path class="cls-3" d="M353.53,18.45,351.66,3.24l-.73.08,1.86,15.21Z" transform="translate(0)"/><path class="cls-3" d="M360.19,17.69l-1.6-15.24-.73.08,1.6,15.24Z" transform="translate(0)"/><path class="cls-3" d="M373.56,16.57,372.49,1.28l-.73.05,1.06,15.28Z" transform="translate(0)"/><path class="cls-3" d="M202.34,70.27l-7.9-13.14-.63.38,7.89,13.14Z" transform="translate(0)"/><path class="cls-4" d="M16.86,366.06,1.59,364.73l-.06.73,15.26,1.34C16.81,366.55,16.84,366.31,16.86,366.06Z" transform="translate(0)"/><path class="cls-4" d="M28.55,300l-14.8-4c-.06.24-.13.47-.19.71l14.8,4C28.42,300.52,28.49,300.28,28.55,300Z" transform="translate(0)"/><path class="cls-4" d="M51.6,237.09l-13.88-6.48c-.11.22-.21.45-.32.67l13.89,6.48Z" transform="translate(0)"/><path class="cls-4" d="M85.26,179.12l-12.55-8.79-.42.61,12.55,8.79Z" transform="translate(0)"/><path class="cls-4" d="M128.44,127.88,117.61,117l-.53.52,10.84,10.83Z" transform="translate(0)"/><path class="cls-4" d="M179.83,84.87,171,72.32l-.61.42,8.79,12.55C179.42,85.15,179.63,85,179.83,84.87Z" transform="translate(0)"/><path class="cls-4" d="M237.88,51.41,231.4,37.52l-.67.31,6.48,13.89Z" transform="translate(0)"/><path class="cls-4" d="M300.87,28.57l-4-14.81-.71.2,4,14.8Z" transform="translate(0)"/><path class="cls-4" d="M366.87,17.08,365.54,1.82l-.74.06,1.34,15.27Z" transform="translate(0)"/><path class="cls-4" d="M0,399.58c0,.25,0,.49,0,.74H34.62c0-.25,0-.49,0-.74Z" transform="translate(0)"/><path class="cls-4" d="M40.24,336.14l-34.09-6c-.05.24-.08.48-.12.73l34.09,6Z" transform="translate(0)"/><path class="cls-4" d="M56.8,274.64,24.27,262.8c-.09.23-.16.47-.25.7l32.54,11.84Z" transform="translate(0)"/><path class="cls-4" d="M83.88,217l-30-17.31-.37.63,30,17.32C83.62,217.43,83.75,217.22,83.88,217Z" transform="translate(0)"/><path class="cls-4" d="M120.53,165,94,142.72l-.48.56,26.52,22.25C120.21,165.34,120.37,165.16,120.53,165Z" transform="translate(0)"/><path class="cls-4" d="M165.61,120,143.36,93.52l-.56.48,22.25,26.52Z" transform="translate(0)"/><path class="cls-4" d="M217.76,83.56l-17.31-30-.64.38,17.31,30C217.34,83.82,217.55,83.69,217.76,83.56Z" transform="translate(0)"/><path class="cls-4" d="M275.47,56.72,263.62,24.18l-.69.25L274.77,57Z" transform="translate(0)"/><path class="cls-4" d="M337,40.37l-6-34.1-.73.13,6,34.09Z" transform="translate(0)"/><path class="cls-4" d="M400,34.94h.37V.32h-.74V34.94Z" transform="translate(0)"/><path class="cls-3" d="M419.74,16.14l.81-15.3.73.05-.8,15.3Z" transform="translate(0)"/><path class="cls-3" d="M413,15.89,413.58.58l.73,0-.53,15.31Z" transform="translate(0)"/><path class="cls-3" d="M406.34,15.73,406.6.41h.74l-.26,15.32Z" transform="translate(0)"/><path class="cls-3" d="M400,15.65h-.37V.33h.74V15.65Z" transform="translate(0)"/><path class="cls-3" d="M784.58,392.87l15.32-.26c0,.24,0,.49,0,.73l-15.32.27C784.59,393.36,784.59,393.12,784.58,392.87Z" transform="translate(0)"/><path class="cls-3" d="M784.39,386.16l15.31-.53,0,.73-15.31.54Z" transform="translate(0)"/><path class="cls-3" d="M784.11,379.45l15.3-.8c0,.25,0,.49.05.74l-15.3.8C784.14,379.94,784.12,379.7,784.11,379.45Z" transform="translate(0)"/><path class="cls-3" d="M783.68,372.75,799,371.69c0,.24,0,.49,0,.73l-15.28,1.07C783.71,373.25,783.7,373,783.68,372.75Z" transform="translate(0)"/><path class="cls-3" d="M782.51,359.38l15.24-1.6c0,.24,0,.49.08.73l-15.24,1.6C782.56,359.87,782.53,359.63,782.51,359.38Z" transform="translate(0)"/><path class="cls-3" d="M781.74,352.71,797,350.84l.09.74-15.21,1.86Z" transform="translate(0)"/><path class="cls-3" d="M780.85,346.06,796,343.92c0,.25.07.49.1.74L781,346.79C780.92,346.54,780.88,346.3,780.85,346.06Z" transform="translate(0)"/><path class="cls-3" d="M779.86,339.42,795,337c0,.24.09.48.12.73L780,340.15Z" transform="translate(0)"/><path class="cls-3" d="M777.51,326.2l15-2.93c0,.25.09.49.13.73l-15,2.92C777.61,326.68,777.56,326.44,777.51,326.2Z" transform="translate(0)"/><path class="cls-3" d="M776.17,319.62l15-3.19c.05.24.1.48.16.73l-15,3.18C776.28,320.1,776.22,319.86,776.17,319.62Z" transform="translate(0)"/><path class="cls-3" d="M774.73,313.06l14.93-3.45c.06.24.12.48.17.72l-14.93,3.45C774.84,313.54,774.79,313.3,774.73,313.06Z" transform="translate(0)"/><path class="cls-3" d="M773.14,306.54,788,302.83c.06.24.12.48.17.72l-14.86,3.71Z" transform="translate(0)"/><path class="cls-3" d="M769.66,293.57l14.73-4.22.21.71-14.73,4.22C769.8,294,769.72,293.81,769.66,293.57Z" transform="translate(0)"/><path class="cls-3" d="M767.74,287.14l14.66-4.48.21.71L768,287.85Z" transform="translate(0)"/><path class="cls-3" d="M765.7,280.74,780.27,276c.08.23.15.47.23.7l-14.57,4.74C765.85,281.21,765.77,281,765.7,280.74Z" transform="translate(0)"/><path class="cls-3" d="M763.56,274.38l14.49-5c.08.23.17.46.25.7l-14.49,5C763.73,274.84,763.64,274.61,763.56,274.38Z" transform="translate(0)"/><path class="cls-3" d="M759,261.77l14.3-5.49c.09.23.18.46.26.69l-14.3,5.49C759.12,262.23,759,262,759,261.77Z" transform="translate(0)"/><path class="cls-3" d="M756.47,255.53l14.21-5.74c.09.23.18.46.28.69l-14.21,5.74C756.65,256,756.56,255.76,756.47,255.53Z" transform="translate(0)"/><path class="cls-3" d="M753.9,249.33l14.1-6,.3.68-14.11,6C754.1,249.78,754,249.56,753.9,249.33Z" transform="translate(0)"/><path class="cls-3" d="M751.21,243.18l14-6.23c.1.22.19.45.29.68l-14,6.23Z" transform="translate(0)"/><path class="cls-3" d="M745.49,231l13.78-6.72.33.66-13.78,6.72Z" transform="translate(0)"/><path class="cls-3" d="M742.5,225l13.66-7,.33.66-13.65,7C742.72,225.47,742.61,225.25,742.5,225Z" transform="translate(0)"/><path class="cls-3" d="M739.37,219.09l13.53-7.19c.12.21.23.43.35.65l-13.54,7.19Z" transform="translate(0)"/><path class="cls-3" d="M736.15,213.2l13.4-7.43.36.65-13.4,7.43Z" transform="translate(0)"/><path class="cls-3" d="M729.42,201.59l13.13-7.89.38.63-13.13,7.89Z" transform="translate(0)"/><path class="cls-3" d="M725.88,195.88l13-8.12.39.63-13,8.12Z" transform="translate(0)"/><path class="cls-3" d="M722.26,190.23l12.85-8.34c.14.2.28.41.41.62l-12.85,8.34Z" transform="translate(0)"/><path class="cls-3" d="M718.56,184.64l12.7-8.57.42.61L719,185.25Z" transform="translate(0)"/><path class="cls-3" d="M710.82,173.68l12.39-9,.44.6-12.4,9Z" transform="translate(0)"/><path class="cls-3" d="M706.82,168.29l12.23-9.22.45.58-12.23,9.22Z" transform="translate(0)"/><path class="cls-3" d="M702.73,163l12.08-9.43.45.59-12.08,9.43Z" transform="translate(0)"/><path class="cls-3" d="M698.53,157.74l11.91-9.65c.15.19.3.39.46.58L699,158.31Z" transform="translate(0)"/><path class="cls-3" d="M689.89,147.47l11.56-10.05c.16.18.33.36.49.55L690.38,148C690.22,147.84,690.05,147.66,689.89,147.47Z" transform="translate(0)"/><path class="cls-3" d="M685.43,142.45l11.39-10.25.49.55L685.92,143C685.76,142.82,685.6,142.63,685.43,142.45Z" transform="translate(0)"/><path class="cls-3" d="M680.88,137.52l11.21-10.44.5.54-11.21,10.44Z" transform="translate(0)"/><path class="cls-3" d="M676.25,132.66l11-10.64.51.53-11,10.64Z" transform="translate(0)"/><path class="cls-3" d="M666.76,123.19l10.64-11,.53.51-10.64,11Z" transform="translate(0)"/><path class="cls-3" d="M661.88,118.58l10.45-11.2.54.5-10.45,11.21Z" transform="translate(0)"/><path class="cls-3" d="M656.93,114.05l10.25-11.38.55.49-10.25,11.38Z" transform="translate(0)"/><path class="cls-3" d="M651.91,109.6,662,98l.56.49-10.06,11.56Z" transform="translate(0)"/><path class="cls-3" d="M641.61,101l9.64-11.91.58.46-9.65,11.91Z" transform="translate(0)"/><path class="cls-3" d="M636.36,96.82l9.44-12.07.58.45L637,97.27Z" transform="translate(0)"/><path class="cls-3" d="M631,92.74l9.22-12.23.59.44-9.23,12.24Z" transform="translate(0)"/><path class="cls-3" d="M625.63,88.77l9-12.4.6.44-9,12.39Z" transform="translate(0)"/><path class="cls-3" d="M614.65,81.06l8.57-12.7.61.41-8.57,12.7Z" transform="translate(0)"/><path class="cls-3" d="M609.05,77.37l8.34-12.85.62.41-8.35,12.85Z" transform="translate(0)"/><path class="cls-3" d="M603.38,73.78l8.12-13,.63.4-8.12,13Z" transform="translate(0)"/><path class="cls-3" d="M586,63.57l7.43-13.4.64.36-7.43,13.4Z" transform="translate(0)"/><path class="cls-3" d="M580.14,60.38l7.19-13.54.66.35-7.2,13.53C580.58,60.6,580.36,60.49,580.14,60.38Z" transform="translate(0)"/><path class="cls-3" d="M574.19,57.27l7-13.66.66.33-7,13.66C574.64,57.48,574.41,57.38,574.19,57.27Z" transform="translate(0)"/><path class="cls-3" d="M568.19,54.28l6.71-13.77.66.33-6.71,13.77Z" transform="translate(0)"/><path class="cls-3" d="M556,48.62l6.23-14,.68.3-6.24,14Z" transform="translate(0)"/><path class="cls-3" d="M549.87,45.94l6-14.11.68.29-6,14.11Z" transform="translate(0)"/><path class="cls-3" d="M543.66,43.39l5.74-14.2.69.27-5.75,14.21Z" transform="translate(0)"/><path class="cls-3" d="M537.41,41l5.5-14.31.69.26-5.5,14.31Z" transform="translate(0)"/><path class="cls-3" d="M524.8,36.36l5-14.49.7.25-5,14.49Z" transform="translate(0)"/><path class="cls-3" d="M518.43,34.25l4.74-14.57.7.23-4.73,14.57Z" transform="translate(0)"/><path class="cls-3" d="M512,32.24l4.48-14.66c.23.08.47.14.7.21l-4.48,14.66Z" transform="translate(0)"/><path class="cls-3" d="M505.6,30.33l4.23-14.74.71.22-4.23,14.73C506.08,30.47,505.84,30.39,505.6,30.33Z" transform="translate(0)"/><path class="cls-3" d="M492.63,26.9,496.34,12l.72.18-3.71,14.87Z" transform="translate(0)"/><path class="cls-3" d="M486.11,25.33l3.45-14.93.72.15-3.45,14.94Z" transform="translate(0)"/><path class="cls-3" d="M479.55,23.9l3.19-15,.72.16-3.18,15Z" transform="translate(0)"/><path class="cls-3" d="M473,22.59l2.92-15,.72.14-2.92,15Z" transform="translate(0)"/><path class="cls-3" d="M459.76,20.27l2.4-15.13.73.12-2.4,15.13Z" transform="translate(0)"/><path class="cls-3" d="M453.12,19.31l2.14-15.17.73.1-2.14,15.18Z" transform="translate(0)"/><path class="cls-3" d="M446.47,18.45l1.87-15.21.73.08L447.2,18.53Z" transform="translate(0)"/><path class="cls-3" d="M439.81,17.69l1.6-15.24.73.08-1.6,15.24Z" transform="translate(0)"/><path class="cls-3" d="M426.44,16.57l1.07-15.29.73.05-1.06,15.28Z" transform="translate(0)"/><path class="cls-3" d="M597.66,70.27l7.9-13.14.63.38L598.3,70.65Z" transform="translate(0)"/><path class="cls-4" d="M783.14,366.06l15.26-1.33c0,.24.05.49.07.73l-15.26,1.34C783.19,366.55,783.16,366.31,783.14,366.06Z" transform="translate(0)"/><path class="cls-4" d="M771.45,300l14.8-4c.06.24.13.47.19.71l-14.8,4C771.57,300.52,771.51,300.28,771.45,300Z" transform="translate(0)"/><path class="cls-4" d="M748.39,237.09l13.89-6.48c.11.22.21.45.32.67l-13.89,6.48C748.6,237.53,748.5,237.31,748.39,237.09Z" transform="translate(0)"/><path class="cls-4" d="M714.74,179.12l12.55-8.79.42.61-12.55,8.79C715,179.53,714.88,179.32,714.74,179.12Z" transform="translate(0)"/><path class="cls-4" d="M671.56,127.88,682.39,117l.53.52-10.84,10.83Z" transform="translate(0)"/><path class="cls-4" d="M620.17,84.87,629,72.32l.61.42-8.79,12.55C620.58,85.15,620.37,85,620.17,84.87Z" transform="translate(0)"/><path class="cls-4" d="M562.12,51.41l6.48-13.89.67.31-6.48,13.89Z" transform="translate(0)"/><path class="cls-4" d="M499.13,28.57l4-14.81.71.2-4,14.8Z" transform="translate(0)"/><path class="cls-4" d="M433.13,17.08l1.33-15.26.74.06-1.34,15.27Z" transform="translate(0)"/><path class="cls-4" d="M800,399.58c0,.25,0,.49,0,.74H765.38c0-.25,0-.49,0-.74Z" transform="translate(0)"/><path class="cls-4" d="M759.76,336.14l34.09-6c0,.24.08.48.12.73l-34.09,6Z" transform="translate(0)"/><path class="cls-4" d="M743.19,274.64l32.54-11.84c.09.23.16.47.25.7l-32.54,11.84C743.36,275.11,743.28,274.88,743.19,274.64Z" transform="translate(0)"/><path class="cls-4" d="M716.12,217l30-17.31.37.63-30,17.32C716.38,217.43,716.25,217.22,716.12,217Z" transform="translate(0)"/><path class="cls-4" d="M679.47,165,706,142.72l.48.56-26.52,22.25C679.78,165.34,679.62,165.16,679.47,165Z" transform="translate(0)"/><path class="cls-4" d="M634.39,120l22.25-26.52.56.48L635,120.52Z" transform="translate(0)"/><path class="cls-4" d="M582.24,83.56l17.31-30,.64.38-17.32,30Z" transform="translate(0)"/><path class="cls-4" d="M524.53,56.72l11.84-32.54.7.25L525.23,57Z" transform="translate(0)"/><path class="cls-4" d="M463,40.37l6-34.1.73.13-6,34.09Z" transform="translate(0)"/><path class="cls-4" d="M400,34.94h-.37V.32h.74V34.94Z" transform="translate(0)"/><path class="cls-5" d="M800,417.54V400.31h0C800,179.4,620.91.32,400,.32S0,179.4,0,400.31V420H800v-2.46Zm-797.54,0V400.31C2.47,181.11,180.8,2.78,400,2.78S797.53,181.11,797.54,400.31v17.23Z" transform="translate(0)"/><path class="cls-6" d="M87.44,399.58c0,.25,0,.49,0,.74H372.87c0-.25,0-.49,0-.74Z" transform="translate(0)"/><path class="cls-6" d="M92.26,345.31l-.12.73,281.14,49.57c.05-.24.08-.48.13-.72Z" transform="translate(0)"/><path class="cls-6" d="M106.45,292.71c-.08.23-.16.47-.25.7l268.29,97.65.27-.69Z" transform="translate(0)"/><path class="cls-6" d="M129.62,243.42c-.12.21-.25.42-.37.64L376.48,386.8l.38-.64Z" transform="translate(0)"/><path class="cls-6" d="M161,198.92c-.16.18-.32.37-.47.56L379.16,383l.49-.56Z" transform="translate(0)"/><path class="cls-6" d="M199.56,160.5,199,161,382.47,379.63l.56-.47Z" transform="translate(0)"/><path class="cls-6" d="M244.17,129.31l-.63.38L386.28,376.92l.64-.37Z" transform="translate(0)"/><path class="cls-6" d="M293.54,106.37l-.7.24,97.65,268.3.7-.25Z" transform="translate(0)"/><path class="cls-6" d="M346.14,92.39l-.72.12L395,373.66l.73-.13Z" transform="translate(0)"/><path class="cls-6" d="M399.63,87.76h0V373.2h0Z" transform="translate(0)"/><path class="cls-6" d="M400,87.75Z" transform="translate(0)"/><path class="cls-6" d="M712.57,400.32c0-.25,0-.49,0-.74H427.11c0,.25,0,.49,0,.74Z" transform="translate(0)"/><path class="cls-6" d="M707.86,346l-.12-.73L426.59,394.89c0,.24.08.48.13.72Z" transform="translate(0)"/><path class="cls-6" d="M693.8,293.41c-.09-.23-.17-.47-.25-.7L425.24,390.37l.27.69Z" transform="translate(0)"/><path class="cls-6" d="M670.75,244.06c-.12-.22-.25-.43-.37-.64L423.14,386.16l.38.64Z" transform="translate(0)"/><path class="cls-6" d="M639.48,199.48c-.15-.19-.31-.38-.47-.56L420.35,382.39c.16.19.33.37.48.56Z" transform="translate(0)"/><path class="cls-6" d="M601,161l-.56-.48L417,379.16c.2.15.39.31.57.47Z" transform="translate(0)"/><path class="cls-6" d="M556.46,129.69l-.63-.38L413.08,376.55l.64.37Z" transform="translate(0)"/><path class="cls-6" d="M507.16,106.61l-.7-.24L408.81,374.66l.7.25Z" transform="translate(0)"/><path class="cls-6" d="M454.58,92.51l-.72-.12L404.28,373.53l.73.13Z" transform="translate(0)"/><path class="cls-6" d="M400.37,373.2h0V87.76h0Z" transform="translate(0)"/><path class="cls-6" d="M400,87.75h0Z" transform="translate(0)"/><path class="cls-6" d="M399.63,373.2h.74V87.76h-.74Z" transform="translate(0)"/><path class="cls-7" d="M400,117.22c-156.35,0-283.1,126.75-283.1,283.1h46.8C163.7,269.82,269.49,164,400,164s236.31,105.8,236.31,236.3H683.1C683.1,244,556.35,117.22,400,117.22Z" transform="translate(0)"/><path class="cls-8" d="M400,182.32c-120.4,0-218,97.6-218,218H372.87c0-.25,0-.49,0-.74a27.38,27.38,0,0,1,.39-4c.05-.24.08-.48.13-.72a27.11,27.11,0,0,1,1.08-3.83l.27-.69a27.94,27.94,0,0,1,1.72-3.57l.38-.64a27.13,27.13,0,0,1,2.3-3.21l.49-.56a26.25,26.25,0,0,1,2.82-2.76l.56-.47a28,28,0,0,1,3.25-2.24l.64-.37a26.83,26.83,0,0,1,3.57-1.64l.7-.25a28.28,28.28,0,0,1,3.8-1l.73-.13a27.86,27.86,0,0,1,3.91-.33h.74a27.86,27.86,0,0,1,3.91.33l.73.13a26.86,26.86,0,0,1,3.8,1l.7.25a26.83,26.83,0,0,1,3.57,1.64l.64.37a27,27,0,0,1,3.24,2.24c.2.15.39.31.57.47a26.25,26.25,0,0,1,2.82,2.76c.16.19.33.37.48.56a26.11,26.11,0,0,1,2.31,3.21l.38.64a27.94,27.94,0,0,1,1.72,3.57l.27.69a27.11,27.11,0,0,1,1.08,3.83c0,.24.08.48.13.72a27.38,27.38,0,0,1,.39,4c0,.25,0,.49,0,.74H618C618,279.92,520.4,182.32,400,182.32Z" transform="translate(0)"/><path class="cls-9" d="M400,87.75h-.37V400.32h.74V87.76Z" transform="translate(0)"/><path class="cls-9" d="M712.56,399.58H87.44c0,.25,0,.49,0,.74H712.57C712.57,400.07,712.56,399.83,712.56,399.58Z" transform="translate(0)"/></svg>