<svg width="390" height="205" viewBox="0 0 390 205" fill="none" xmlns="http://www.w3.org/2000/svg">
<g clip-path="url(#clip0_38_266)">
<path opacity="0.8" d="M390 195.151C390 87.4575 302.694 0.156006 195 0.156006C87.3064 0.156006 0 87.4575 0 195.151V204.75H390V195.151Z" fill="white"/>
<path d="M40.0773 195.302L40.1846 197.871H39.7507L39.7068 196.833L36.1383 196.984L36.504 198.037H36.0165L35.4705 196.501L39.6678 196.321L39.624 195.283L40.0773 195.302Z" fill="black"/>
<path d="M37.6448 193.796C37.5726 194.031 37.4302 194.238 37.2367 194.39C37.0432 194.541 36.808 194.63 36.5626 194.644C36.4076 194.652 36.2528 194.624 36.1112 194.56C35.9696 194.496 35.8453 194.4 35.7485 194.278C35.53 194.012 35.4126 193.677 35.417 193.333C35.4024 193.02 35.4991 192.713 35.69 192.465C35.7767 192.35 35.8895 192.256 36.0191 192.193C36.1487 192.129 36.2915 192.097 36.4358 192.099C36.6956 192.102 36.9486 192.182 37.1624 192.33C37.3761 192.478 37.5407 192.686 37.6351 192.928C37.6926 192.646 37.843 192.392 38.0621 192.205C38.2813 192.019 38.5566 191.911 38.8441 191.9C39.0166 191.887 39.1896 191.916 39.3484 191.985C39.5071 192.054 39.6469 192.16 39.7557 192.294C39.9911 192.614 40.1129 193.004 40.1018 193.401C40.1201 193.752 40.011 194.099 39.7947 194.376C39.6936 194.503 39.5644 194.606 39.4173 194.675C39.2702 194.744 39.1091 194.779 38.9465 194.776C38.6541 194.777 38.3694 194.682 38.136 194.506C37.9027 194.33 37.7335 194.082 37.6546 193.801L37.6448 193.796ZM36.509 192.611C36.4169 192.608 36.3253 192.626 36.241 192.663C36.1566 192.701 36.0816 192.756 36.0215 192.826C35.8985 192.982 35.8377 193.178 35.8508 193.377C35.8526 193.574 35.9253 193.764 36.0556 193.913C36.1138 193.985 36.1883 194.043 36.2731 194.081C36.3578 194.119 36.4503 194.137 36.5431 194.132C36.9477 194.132 37.2451 193.869 37.4401 193.362C37.1963 192.85 36.8941 192.602 36.509 192.611ZM37.8886 193.386C38.1323 193.976 38.4785 194.264 38.9172 194.254C39.0276 194.257 39.1369 194.233 39.2361 194.184C39.3353 194.136 39.4216 194.065 39.4876 193.976C39.6285 193.779 39.6974 193.54 39.6826 193.299C39.688 193.062 39.6104 192.831 39.4632 192.645C39.3947 192.565 39.3085 192.501 39.2113 192.458C39.1141 192.416 39.0085 192.397 38.9026 192.402C38.4395 192.411 38.1031 192.738 37.8886 193.386Z" fill="black"/>
<path d="M37.791 191.402C37.1601 191.435 36.5328 191.288 35.9823 190.978C35.788 190.859 35.6296 190.69 35.524 190.488C35.4184 190.287 35.3696 190.06 35.3827 189.833C35.3827 188.877 36.1643 188.414 37.7276 188.443C38.3371 188.417 38.9418 188.562 39.4728 188.862C39.6659 188.982 39.823 189.152 39.9277 189.353C40.0323 189.555 40.0807 189.781 40.0676 190.008C40.0727 190.223 40.0186 190.436 39.9111 190.622C39.8036 190.809 39.647 190.962 39.4582 191.066C38.9446 191.331 38.3672 191.447 37.791 191.402ZM37.791 190.915C39.0292 190.915 39.6581 190.617 39.6678 189.964C39.6776 189.311 39.0536 188.989 37.7958 188.96C36.5381 188.931 35.8458 189.248 35.8166 189.876C35.7873 190.505 36.4455 190.881 37.7763 190.9L37.791 190.915Z" fill="black"/>
<path d="M41.2668 170.04L40.9499 172.575L40.516 172.526L40.6428 171.493L37.0987 171.069L37.2888 172.166L36.8013 172.107L36.5039 170.503L40.6818 170.991L40.8037 169.962L41.2668 170.04Z" fill="black"/>
<path d="M37.3912 166.023L41.4862 168.46L41.4131 168.948L37.6057 166.667L37.2791 168.963L36.8354 168.904L37.2498 165.979L37.3912 166.023Z" fill="black"/>
<path d="M39.6582 165.862C39.0288 165.798 38.4296 165.56 37.9276 165.175C37.7526 165.028 37.6206 164.837 37.5459 164.622C37.4712 164.406 37.4565 164.174 37.5035 163.951C37.6546 163.01 38.4785 162.669 40.0287 162.918C40.6347 162.982 41.2106 163.215 41.6911 163.59C41.8644 163.738 41.9952 163.929 42.0697 164.144C42.1443 164.36 42.16 164.591 42.1152 164.814C42.0844 165.024 41.9974 165.222 41.8636 165.387C41.7297 165.551 41.5539 165.677 41.3547 165.75C40.8102 165.942 40.2233 165.981 39.6582 165.862ZM39.7118 165.375C40.9403 165.574 41.6033 165.375 41.7106 164.707C41.8178 164.039 41.2231 163.644 40.0043 163.444C38.7856 163.244 38.0153 163.444 37.9129 164.058C37.8106 164.673 38.4053 165.145 39.7118 165.36V165.375Z" fill="black"/>
<path d="M46.9414 143.993L46.2004 146.46L45.7812 146.333L46.0834 145.333L42.6709 144.305V145.421L42.2175 145.285V143.652L46.2443 144.861L46.5417 143.886L46.9414 143.993Z" fill="black"/>
<path d="M44.1042 139.708C43.9201 139.892 43.783 140.118 43.7045 140.366C43.6378 140.553 43.622 140.755 43.6589 140.95C43.6957 141.145 43.7838 141.327 43.9141 141.477C44.2527 141.864 44.6992 142.141 45.1962 142.272C45.0316 142.125 44.9155 141.932 44.8633 141.718C44.811 141.504 44.8251 141.279 44.9037 141.073C44.9516 140.901 45.0354 140.741 45.1497 140.604C45.264 140.467 45.4062 140.356 45.5667 140.278C45.909 140.13 46.2955 140.121 46.6441 140.254C47.0276 140.364 47.3518 140.622 47.546 140.97C47.6388 141.138 47.6946 141.323 47.7098 141.514C47.7249 141.705 47.699 141.897 47.6337 142.077C47.5791 142.279 47.4738 142.463 47.3279 142.612C47.182 142.761 47.0003 142.871 46.8001 142.93C46.2823 143.051 45.7401 143.012 45.245 142.818C44.6058 142.641 44.0338 142.278 43.6021 141.775C43.4259 141.566 43.3075 141.315 43.2587 141.047C43.21 140.778 43.2326 140.501 43.3242 140.244C43.3929 139.994 43.5161 139.763 43.685 139.566L44.1042 139.708ZM45.8739 142.457C46.1503 142.552 46.4506 142.552 46.727 142.457C46.851 142.416 46.9632 142.345 47.054 142.251C47.1448 142.156 47.2115 142.042 47.2486 141.916C47.2907 141.8 47.306 141.675 47.2933 141.552C47.2807 141.429 47.2404 141.31 47.1755 141.204C47.0198 140.981 46.7967 140.813 46.5389 140.725C46.281 140.638 46.0019 140.635 45.7422 140.717C45.6246 140.765 45.5195 140.839 45.4349 140.933C45.3504 141.028 45.2888 141.141 45.2547 141.263C45.2168 141.379 45.2023 141.502 45.2119 141.623C45.2216 141.745 45.2552 141.864 45.311 141.973C45.3667 142.081 45.4434 142.178 45.5367 142.257C45.6299 142.336 45.7379 142.396 45.8544 142.433L45.8739 142.457Z" fill="black"/>
<path d="M46.0786 139.6C45.4686 139.429 44.9183 139.092 44.4894 138.625C44.3432 138.451 44.247 138.24 44.211 138.015C44.1749 137.79 44.2004 137.56 44.2846 137.348C44.6096 136.451 45.4985 136.258 46.9512 136.768C47.537 136.934 48.0641 137.262 48.4722 137.714C48.6188 137.888 48.7153 138.099 48.7514 138.324C48.7874 138.549 48.7617 138.78 48.677 138.991C48.613 139.194 48.4955 139.377 48.3368 139.519C48.1781 139.662 47.9841 139.759 47.7751 139.8C47.202 139.892 46.6148 139.823 46.0786 139.6ZM46.22 139.113C47.39 139.522 48.0871 139.415 48.3016 138.801C48.5161 138.187 48.0286 137.675 46.8391 137.26C45.6496 136.846 44.8891 136.909 44.6697 137.504C44.4503 138.099 44.9671 138.679 46.22 139.118V139.113Z" fill="black"/>
<path d="M57.0376 119.33L55.8822 121.626L55.4922 121.431L55.9797 120.5L52.7915 118.901L52.5965 119.998L52.1772 119.784L52.4454 118.175L56.204 120.061L56.6915 119.13L57.0376 119.33Z" fill="black"/>
<path d="M56.8035 118.35C57.1032 118.192 57.3505 117.95 57.5152 117.653C57.6616 117.403 57.7069 117.107 57.642 116.825C57.6094 116.693 57.549 116.57 57.4649 116.464C57.3808 116.359 57.2749 116.272 57.1545 116.21C57.0396 116.141 56.9103 116.1 56.7767 116.089C56.6432 116.078 56.5088 116.098 56.3842 116.147C56.1036 116.287 55.8798 116.519 55.7505 116.805C55.692 116.912 55.5896 117.127 55.4433 117.458L53.4495 116.4L54.4732 114.45L54.8681 114.66L54.0637 116.181L55.263 116.82C55.3361 116.664 55.3897 116.547 55.4336 116.469C55.6023 116.096 55.9027 115.799 56.277 115.635C56.4552 115.572 56.6451 115.55 56.8331 115.569C57.021 115.589 57.2023 115.649 57.3641 115.747C57.5449 115.832 57.7044 115.956 57.831 116.11C57.9575 116.265 58.0479 116.445 58.0953 116.639C58.1821 117.053 58.1108 117.484 57.8955 117.848C57.7641 118.145 57.5553 118.401 57.291 118.589L56.8035 118.35Z" fill="black"/>
<path d="M56.9303 114.845C56.3591 114.573 55.8747 114.148 55.5312 113.617C55.4164 113.42 55.356 113.196 55.356 112.968C55.356 112.741 55.4164 112.517 55.5312 112.32C56.0187 111.486 56.906 111.452 58.2612 112.208C58.8077 112.473 59.2701 112.885 59.597 113.397C59.7132 113.594 59.7746 113.818 59.7746 114.046C59.7746 114.274 59.7132 114.498 59.597 114.694C59.4991 114.885 59.3512 115.045 59.1692 115.159C58.9872 115.272 58.7778 115.334 58.5635 115.338C57.9844 115.325 57.4198 115.155 56.9303 114.845ZM57.1497 114.397C58.2352 115.001 58.9372 115.017 59.2557 114.445C59.5726 113.88 59.1777 113.29 58.0808 112.676C56.984 112.062 56.2088 111.993 55.9017 112.544C55.5946 113.095 55.9895 113.748 57.1497 114.397Z" fill="black"/>
<path d="M72.8765 94.575L71.3116 96.6128L70.9655 96.3447L71.5992 95.5208L68.7668 93.3465L68.372 94.3898L67.9966 94.1022L68.567 92.5665L71.8966 95.1308L72.5303 94.3069L72.8765 94.575Z" fill="black"/>
<path d="M74.0999 91.0553L73.7294 91.5135L74.68 92.2789L74.3729 92.6591L73.4223 91.8986L72.0865 93.6L71.8379 93.3953L70.78 89.9243L71.1652 89.4368L73.4369 91.26L73.8074 90.8018L74.0999 91.0553ZM73.1249 91.65L71.5649 90.3971L71.2042 90.0949C71.2637 90.2091 71.3174 90.3262 71.365 90.4459L72.1158 92.8834L73.1249 91.65Z" fill="black"/>
<path d="M73.637 90.1339C73.129 89.7623 72.7354 89.2555 72.5011 88.6714C72.4258 88.4564 72.4101 88.2252 72.4556 88.002C72.5011 87.7789 72.6061 87.5722 72.7595 87.4039C73.3688 86.6726 74.2707 86.8091 75.4553 87.8036C75.9397 88.1639 76.3144 88.6517 76.5376 89.2125C76.6127 89.4283 76.6284 89.6602 76.5829 89.8841C76.5374 90.108 76.4325 90.3155 76.2792 90.4849C76.146 90.6535 75.9696 90.7829 75.7687 90.8593C75.5679 90.9357 75.3501 90.9562 75.1385 90.9188C74.5762 90.7976 74.0574 90.5263 73.637 90.1339ZM73.9392 89.7341C74.8915 90.5336 75.5772 90.6815 75.9965 90.1778C76.4157 89.674 76.1427 89.024 75.1775 88.2278C74.1732 87.3844 73.4712 87.2089 73.0617 87.6915C72.6522 88.1741 72.9252 88.881 73.9392 89.7341Z" fill="black"/>
<path d="M92.0791 74.1244L90.1876 75.8501L89.8951 75.5235L90.6653 74.8264L88.2376 72.1792L87.6623 73.1542L87.3455 72.8032L88.1791 71.3992L90.9968 74.5144L91.7671 73.8221L92.0791 74.1244Z" fill="black"/>
<path d="M92.0935 73.164C92.4778 73.1504 92.8459 73.0059 93.1368 72.7545C93.3519 72.58 93.5014 72.3376 93.5609 72.0671C93.5851 71.9445 93.5791 71.8179 93.5434 71.6981C93.5077 71.5784 93.4435 71.4691 93.3562 71.3797C92.9597 70.9215 92.4364 70.9751 91.7864 71.5406L91.4988 71.7892L91.2258 71.4724L91.4988 71.2335C92.0789 70.746 92.1813 70.2585 91.8108 69.8392C91.7417 69.7483 91.6524 69.6746 91.5501 69.6239C91.4478 69.5731 91.3351 69.5467 91.2209 69.5467C91.1067 69.5467 90.994 69.5731 90.8917 69.6239C90.7894 69.6746 90.7002 69.7483 90.631 69.8392C90.3769 70.0564 90.2049 70.354 90.1435 70.6826L89.8218 70.3121C89.9436 69.9722 90.154 69.6709 90.4312 69.4395C90.6725 69.2196 90.9826 69.0904 91.3087 69.0739C91.4576 69.0704 91.6053 69.1011 91.7405 69.1637C91.8758 69.2262 91.9948 69.3189 92.0886 69.4346C92.2718 69.6308 92.3788 69.886 92.3904 70.1542C92.402 70.4223 92.3175 70.6858 92.152 70.8971C92.3849 70.7154 92.6762 70.6252 92.971 70.6436C93.1083 70.6528 93.2423 70.69 93.3647 70.7529C93.4871 70.8157 93.5953 70.903 93.6828 71.0092C93.8103 71.1481 93.9043 71.3143 93.9575 71.4952C94.0108 71.676 94.0218 71.8667 93.9899 72.0525C93.9074 72.4599 93.6849 72.8255 93.361 73.086C93.1016 73.334 92.777 73.5031 92.425 73.5735L92.0935 73.164Z" fill="black"/>
<path d="M93.6 69.9124C93.1663 69.4517 92.8693 68.8795 92.742 68.2598C92.706 68.0337 92.7323 67.8021 92.8182 67.5899C92.9041 67.3777 93.0463 67.193 93.2295 67.0556C93.9607 66.4463 94.8236 66.7436 95.8132 67.9331C96.2262 68.3813 96.5079 68.9345 96.6274 69.5321C96.6614 69.7574 96.634 69.9876 96.5483 70.1987C96.4625 70.4097 96.3214 70.5937 96.1399 70.7314C95.9801 70.8741 95.7844 70.9704 95.5739 71.0099C95.3634 71.0494 95.1461 71.0307 94.9455 70.9556C94.41 70.7376 93.9446 70.3767 93.6 69.9124ZM93.9656 69.5711C94.7586 70.5266 95.4086 70.7964 95.9156 70.3804C96.4031 69.966 96.2617 69.2738 95.4622 68.3036C94.6627 67.3335 93.9607 66.9922 93.4732 67.3969C92.9857 67.8015 93.1417 68.5474 93.9851 69.5711H93.9656Z" fill="black"/>
<path d="M113.446 58.1928L111.272 59.5676L111.038 59.1971L111.915 58.6413L110.009 55.6286L109.278 56.4671L109.024 56.0673L110.087 54.8242L112.335 58.3781L113.212 57.8223L113.446 58.1928Z" fill="black"/>
<path d="M116.254 56.4915L113.904 57.9052L113.68 57.525L114.133 55.7017C114.254 55.2978 114.323 54.88 114.338 54.4586C114.323 54.2397 114.257 54.0274 114.143 53.8395C114.09 53.739 114.016 53.6504 113.927 53.5791C113.839 53.5079 113.736 53.4555 113.626 53.4251C113.39 53.3884 113.149 53.4443 112.954 53.5811C112.578 53.823 112.312 54.2029 112.213 54.639L111.945 54.1905C112.108 53.7785 112.407 53.4346 112.793 53.2155C113.079 53.0228 113.428 52.9478 113.768 53.0059C113.928 53.0407 114.079 53.1096 114.21 53.2081C114.342 53.3065 114.45 53.4321 114.528 53.5762C114.678 53.8324 114.759 54.123 114.762 54.4196C114.747 54.8833 114.675 55.3434 114.548 55.7895L114.172 57.252L116.025 56.1112L116.254 56.4915Z" fill="black"/>
<path d="M115.684 54.3026C115.336 53.7745 115.142 53.1602 115.123 52.5281C115.127 52.2994 115.192 52.0758 115.312 51.8811C115.432 51.6863 115.603 51.5276 115.806 51.4215C116.628 50.9503 117.426 51.3874 118.199 52.7329C118.533 53.2422 118.715 53.8354 118.726 54.444C118.722 54.6715 118.656 54.8936 118.537 55.0874C118.418 55.2812 118.249 55.4395 118.048 55.5458C117.864 55.6557 117.653 55.7137 117.439 55.7137C117.224 55.7137 117.014 55.6557 116.829 55.5458C116.343 55.2411 115.948 54.8119 115.684 54.3026ZM116.108 54.0296C116.727 55.107 117.317 55.4921 117.887 55.1558C118.458 54.8194 118.414 54.1271 117.79 53.0351C117.166 51.9431 116.537 51.4849 115.991 51.7969C115.445 52.1089 115.445 52.8743 116.108 54.0296Z" fill="black"/>
<path d="M138.509 45.6446L136.125 46.6196L135.959 46.2101L136.934 45.825L135.603 42.5149L134.735 43.2071L134.56 42.7684L135.827 41.7397L137.392 45.6397L138.367 45.2546L138.509 45.6446Z" fill="black"/>
<path d="M141.663 44.4503L139.254 45.3375L139.103 44.928L140.078 44.5624L138.821 41.223L137.933 41.925L137.768 41.4863L139.055 40.4625L140.517 44.3966L141.492 44.031L141.663 44.4503Z" fill="black"/>
<path d="M141.414 42.2224C141.168 41.6396 141.088 41 141.185 40.3747C141.227 40.1488 141.331 39.9387 141.484 39.767C141.636 39.5952 141.833 39.4683 142.053 39.3997C142.954 39.0829 143.656 39.6581 144.173 41.1206C144.408 41.6808 144.481 42.2957 144.383 42.8951C144.341 43.1213 144.238 43.3316 144.085 43.5034C143.932 43.6753 143.735 43.8021 143.515 43.8701C143.315 43.9491 143.097 43.9718 142.884 43.9357C142.672 43.8996 142.474 43.8061 142.311 43.6654C141.886 43.2755 141.575 42.7764 141.414 42.2224ZM141.901 42.0322C142.311 43.2022 142.826 43.6784 143.447 43.4606C144.068 43.2429 144.163 42.5409 143.734 41.3546C143.302 40.1196 142.787 39.6077 142.189 39.819C141.536 40.0384 141.438 40.7794 141.862 42.0322H141.901Z" fill="black"/>
<path d="M165.438 37.8446L162.918 38.3565L162.825 37.9275L163.844 37.7227L163.137 34.2225L162.162 34.749L162.069 34.2615L163.503 33.4766L164.336 37.596L165.35 37.3912L165.438 37.8446Z" fill="black"/>
<path d="M165.56 35.5875C165.408 34.9742 165.431 34.3305 165.628 33.7301C165.708 33.5168 165.844 33.3289 166.021 33.1865C166.199 33.044 166.412 32.9522 166.637 32.9209C167.573 32.7502 168.183 33.4084 168.456 34.9586C168.597 35.5506 168.57 36.1702 168.378 36.7477C168.297 36.9599 168.161 37.1465 167.983 37.288C167.806 37.4295 167.593 37.5207 167.369 37.5521C167.158 37.5979 166.939 37.5854 166.736 37.5158C166.532 37.4462 166.351 37.3222 166.213 37.1572C165.857 36.7032 165.631 36.1604 165.56 35.5875ZM166.047 35.4754C166.265 36.7006 166.697 37.2531 167.344 37.1329C167.991 37.0126 168.199 36.335 167.968 35.1C167.734 33.8081 167.31 33.2182 166.686 33.3304C166.062 33.4425 165.813 34.1835 166.047 35.49V35.4754Z" fill="black"/>
<path d="M168.909 35.0074C168.77 34.3907 168.806 33.7477 169.011 33.15C169.097 32.9382 169.239 32.7532 169.42 32.6143C169.602 32.4755 169.818 32.3878 170.045 32.3603C170.981 32.214 171.576 32.9063 171.814 34.437C171.943 35.0326 171.903 35.6524 171.697 36.2261C171.612 36.4373 171.472 36.6216 171.291 36.7597C171.11 36.8978 170.895 36.9846 170.669 37.011C170.458 37.0518 170.241 37.0342 170.04 36.9603C169.839 36.8865 169.662 36.759 169.528 36.5918C169.18 36.1307 168.966 35.5824 168.909 35.0074ZM169.396 34.905C169.591 36.1286 170.011 36.6941 170.659 36.5918C171.307 36.4894 171.522 35.8166 171.327 34.5735C171.132 33.3304 170.708 32.682 170.084 32.7795C169.46 32.877 169.192 33.5936 169.396 34.905Z" fill="black"/>
<path d="M195.249 32.8429C195.221 32.2109 195.368 31.5836 195.673 31.0294C195.795 30.8368 195.965 30.68 196.167 30.5747C196.369 30.4694 196.596 30.4194 196.823 30.4297C197.774 30.4297 198.237 31.2292 198.213 32.7795C198.24 33.3876 198.095 33.991 197.793 34.5199C197.671 34.711 197.5 34.8657 197.298 34.9677C197.095 35.0698 196.869 35.1155 196.643 35.1C196.429 35.1037 196.217 35.0489 196.032 34.9415C195.846 34.8342 195.694 34.6783 195.59 34.4906C195.33 33.9821 195.212 33.4128 195.249 32.8429ZM195.736 32.8429C195.736 34.086 196.034 34.7149 196.711 34.7246C197.389 34.7344 197.686 34.1104 197.711 32.8477C197.735 31.5851 197.428 30.8978 196.794 30.8685C196.16 30.8393 195.775 31.4974 195.751 32.8234L195.736 32.8429Z" fill="black"/>
<path d="M220.657 34.7246C220.438 34.6094 220.26 34.4299 220.145 34.2103C220.031 33.9908 219.987 33.7416 220.018 33.4961C220.04 33.3418 220.098 33.1949 220.188 33.0677C220.278 32.9404 220.397 32.8366 220.535 32.7649C220.833 32.6031 221.178 32.5497 221.51 32.6137C221.819 32.6587 222.102 32.8105 222.31 33.0427C222.407 33.1501 222.477 33.2789 222.516 33.4187C222.554 33.5585 222.558 33.7052 222.529 33.8471C222.479 34.1012 222.354 34.3344 222.17 34.5161C221.985 34.6979 221.75 34.8198 221.496 34.866C221.768 34.9714 221.996 35.1666 222.142 35.4192C222.288 35.6718 222.344 35.9668 222.3 36.2554C222.281 36.4273 222.22 36.5921 222.123 36.7356C222.026 36.879 221.896 36.9969 221.744 37.0792C221.385 37.2504 220.978 37.2984 220.589 37.2157C220.243 37.167 219.928 36.9936 219.702 36.7282C219.596 36.6057 219.521 36.4608 219.48 36.3045C219.439 36.1481 219.435 35.9846 219.468 35.8264C219.52 35.5393 219.664 35.277 219.879 35.0792C220.094 34.8813 220.367 34.7586 220.657 34.7295V34.7246ZM221.013 35.0366C220.389 35.1682 220.038 35.4559 219.965 35.8897C219.943 35.9976 219.947 36.109 219.977 36.2149C220.007 36.3208 220.061 36.4182 220.135 36.4991C220.303 36.6766 220.527 36.7903 220.769 36.8209C221 36.8699 221.241 36.8335 221.447 36.7185C221.538 36.6685 221.616 36.5988 221.676 36.5143C221.736 36.4299 221.776 36.3331 221.793 36.231C221.866 35.7581 221.608 35.3681 221.013 35.0366ZM222.032 33.8276C222.052 33.7348 222.052 33.6386 222.031 33.5459C222.01 33.4533 221.968 33.3664 221.91 33.2914C221.785 33.1458 221.612 33.0505 221.422 33.0232C221.228 32.9878 221.028 33.0223 220.857 33.1207C220.774 33.1652 220.704 33.2286 220.65 33.3057C220.597 33.3828 220.562 33.4714 220.55 33.5644C220.524 33.7753 220.567 33.989 220.674 34.1729C220.78 34.3568 220.944 34.5009 221.14 34.5832C221.666 34.4565 221.968 34.203 222.032 33.8276Z" fill="black"/>
<path d="M222.958 35.3291C223.039 34.7088 223.29 34.1231 223.685 33.6375C223.836 33.4668 224.03 33.3401 224.247 33.2706C224.464 33.2011 224.696 33.1915 224.918 33.2426C225.854 33.4181 226.179 34.268 225.893 35.7922C225.815 36.3959 225.568 36.9653 225.181 37.4351C225.03 37.6061 224.836 37.7332 224.619 37.8027C224.402 37.8722 224.17 37.8817 223.948 37.83C223.735 37.798 223.536 37.7083 223.371 37.5708C223.206 37.4333 223.082 37.2531 223.012 37.05C222.834 36.4926 222.815 35.8965 222.958 35.3291ZM223.446 35.3973C223.212 36.6161 223.421 37.2888 224.065 37.4107C224.708 37.5326 225.137 36.972 225.371 35.7337C225.605 34.4955 225.425 33.7447 224.801 33.6277C224.177 33.5107 223.704 34.0908 223.455 35.3973H223.446Z" fill="black"/>
<path d="M250.088 40.4088L246.885 43.9335L246.397 43.758L249.395 40.4869L247.211 39.7068L247.362 39.2876L250.127 40.2626L250.088 40.4088Z" fill="black"/>
<path d="M249.805 42.6709C249.991 42.0654 250.344 41.5247 250.824 41.1109C251.002 40.9699 251.216 40.8797 251.441 40.8497C251.667 40.8197 251.896 40.851 252.106 40.9402C252.998 41.2815 253.164 42.1736 252.593 43.6264C252.412 44.2042 252.075 44.7205 251.618 45.1181C251.439 45.2582 251.225 45.3476 251 45.3767C250.774 45.4059 250.545 45.3738 250.336 45.2839C250.134 45.216 249.954 45.0943 249.816 44.932C249.678 44.7697 249.586 44.5728 249.551 44.3625C249.476 43.786 249.564 43.2 249.805 42.6709ZM250.292 42.822C249.85 43.9822 249.933 44.6794 250.541 44.9134C251.145 45.1474 251.677 44.6745 252.125 43.4996C252.574 42.3247 252.535 41.5496 251.94 41.3254C251.345 41.1011 250.755 41.5837 250.282 42.822H250.292Z" fill="black"/>
<path d="M275.199 52.689C275.054 52.4716 274.863 52.2898 274.638 52.1576C274.465 52.0579 274.269 52.0054 274.07 52.0054C273.871 52.0054 273.675 52.0579 273.502 52.1576C273.055 52.4119 272.692 52.7915 272.459 53.2496C272.636 53.1189 272.849 53.0451 273.069 53.0381C273.29 53.0312 273.507 53.0913 273.692 53.2106C273.85 53.293 273.989 53.4083 274.099 53.5487C274.21 53.6891 274.288 53.8514 274.331 54.0247C274.406 54.3893 274.336 54.7687 274.136 55.0826C273.948 55.4337 273.629 55.6965 273.249 55.8139C273.066 55.8711 272.873 55.8886 272.683 55.865C272.493 55.8415 272.31 55.7775 272.147 55.6774C271.956 55.5798 271.794 55.434 271.676 55.2544C271.559 55.0748 271.491 54.8677 271.479 54.6536C271.47 54.1216 271.619 53.599 271.908 53.1521C272.215 52.5638 272.69 52.0802 273.273 51.7627C273.512 51.6328 273.782 51.5684 274.054 51.5761C274.326 51.5838 274.592 51.6633 274.823 51.8066C275.053 51.9244 275.254 52.0907 275.413 52.2941L275.199 52.689ZM272.142 53.8492C271.99 54.0991 271.927 54.3926 271.962 54.6829C271.978 54.8095 272.023 54.9308 272.092 55.0379C272.162 55.145 272.255 55.2352 272.363 55.302C272.472 55.3688 272.595 55.4105 272.722 55.424C272.849 55.4375 272.977 55.4224 273.097 55.38C273.342 55.2908 273.548 55.1182 273.678 54.8925C273.832 54.6601 273.894 54.3786 273.853 54.1027C273.826 53.9806 273.773 53.866 273.696 53.7673C273.619 53.6686 273.521 53.5883 273.409 53.5324C273.304 53.4713 273.187 53.4317 273.066 53.4158C272.945 53.3999 272.823 53.408 272.705 53.4397C272.587 53.4714 272.477 53.5261 272.38 53.6005C272.283 53.675 272.203 53.7678 272.142 53.8736V53.8492Z" fill="black"/>
<path d="M274.916 54.6536C275.208 54.0922 275.65 53.623 276.193 53.2984C276.395 53.1921 276.622 53.1419 276.85 53.153C277.078 53.1642 277.299 53.2362 277.49 53.3617C278.302 53.8557 278.302 54.7641 277.49 56.0869C277.205 56.627 276.774 57.0763 276.247 57.3836C276.046 57.49 275.82 57.5403 275.592 57.5291C275.365 57.518 275.145 57.4458 274.955 57.3203C274.767 57.216 274.611 57.0623 274.505 56.8758C274.398 56.6893 274.345 56.4771 274.35 56.2624C274.387 55.6842 274.583 55.1274 274.916 54.6536ZM275.36 54.8876C274.716 55.9504 274.677 56.6524 275.233 56.9936C275.789 57.3349 276.393 56.9546 277.046 55.8773C277.7 54.7999 277.792 54.0345 277.251 53.703C276.71 53.3715 276.047 53.7517 275.36 54.8876Z" fill="black"/>
<path d="M295.172 70.902C295.261 71.2298 295.444 71.5245 295.698 71.7503C295.91 71.947 296.189 72.0552 296.478 72.0525C296.616 72.0479 296.751 72.0132 296.874 71.9509C296.997 71.8886 297.105 71.8001 297.19 71.6918C297.281 71.5935 297.349 71.4758 297.389 71.3475C297.429 71.2192 297.439 71.0836 297.419 70.9508C297.349 70.6488 297.176 70.3803 296.931 70.1903C296.84 70.1123 296.65 69.966 296.361 69.7515L297.824 68.0355L299.491 69.459L299.203 69.8003L297.892 68.679L297 69.7125C297.136 69.8149 297.239 69.8978 297.307 69.9563C297.631 70.2032 297.853 70.5606 297.931 70.9605C297.954 71.1477 297.935 71.3377 297.875 71.5165C297.815 71.6954 297.716 71.8585 297.585 71.994C297.463 72.1518 297.307 72.2804 297.129 72.3706C296.951 72.4609 296.755 72.5104 296.556 72.5156C296.133 72.5101 295.728 72.3467 295.42 72.0574C295.16 71.8606 294.956 71.6004 294.825 71.3018L295.172 70.902Z" fill="black"/>
<path d="M298.569 71.7893C298.961 71.2928 299.482 70.9147 300.076 70.6973C300.293 70.6295 300.524 70.6213 300.745 70.6736C300.967 70.7259 301.17 70.8368 301.333 70.9946C302.045 71.6446 301.883 72.54 300.846 73.6808C300.467 74.1595 299.96 74.5212 299.383 74.724C299.166 74.7918 298.935 74.8 298.714 74.7477C298.492 74.6954 298.289 74.5845 298.126 74.4266C297.961 74.2894 297.836 74.1097 297.766 73.907C297.695 73.7042 297.682 73.4861 297.726 73.2761C297.863 72.7116 298.155 72.1965 298.569 71.7893ZM298.959 72.1061C298.131 73.0324 297.984 73.7149 298.472 74.1488C298.959 74.5826 299.617 74.3291 300.456 73.3883C301.294 72.4474 301.528 71.7113 301.055 71.292C300.583 70.8728 299.847 71.1165 298.959 72.1061Z" fill="black"/>
<path d="M316.802 92.1911L316.427 91.7328L315.481 92.5031L315.174 92.1277L316.114 91.3526L314.74 89.7L314.988 89.4952L318.606 89.1783L318.991 89.6658L316.738 91.5135L317.114 91.9717L316.802 92.1911ZM316.427 91.0991L317.972 89.8316L318.342 89.5391L317.962 89.6269L315.408 89.8608L316.427 91.0991Z" fill="black"/>
<path d="M317.801 91.9035C318.273 91.4843 318.852 91.2042 319.474 91.0943C319.697 91.0621 319.925 91.0903 320.135 91.176C320.344 91.2617 320.526 91.4018 320.663 91.5818C321.255 92.3325 320.939 93.1856 319.717 94.1411C319.262 94.5467 318.701 94.8139 318.099 94.9114C317.874 94.9405 317.645 94.9083 317.436 94.8182C317.228 94.7282 317.047 94.5835 316.914 94.3995C316.776 94.2351 316.685 94.0364 316.651 93.8244C316.616 93.6124 316.64 93.395 316.719 93.1954C316.958 92.6761 317.332 92.2302 317.801 91.9035ZM318.133 92.2838C317.158 93.054 316.87 93.6926 317.27 94.2094C317.67 94.7261 318.367 94.5848 319.361 93.8048C320.356 93.0248 320.712 92.3423 320.336 91.8548C319.961 91.3673 319.176 91.4648 318.133 92.2838Z" fill="black"/>
<path d="M330.32 112.934C330.259 113.315 330.328 113.704 330.515 114.041C330.642 114.287 330.848 114.483 331.1 114.597C331.216 114.643 331.342 114.661 331.466 114.65C331.591 114.639 331.711 114.599 331.817 114.533C332.343 114.241 332.397 113.714 331.978 112.963L331.792 112.637L332.158 112.432L332.334 112.744C332.704 113.412 333.143 113.607 333.635 113.329C334.128 113.051 334.181 112.69 333.894 112.183C333.729 111.895 333.471 111.672 333.162 111.55L333.591 111.311C333.9 111.499 334.153 111.766 334.323 112.086C334.493 112.365 334.557 112.695 334.503 113.017C334.479 113.162 334.423 113.299 334.338 113.419C334.254 113.539 334.144 113.638 334.015 113.709C333.784 113.854 333.508 113.91 333.239 113.866C332.97 113.822 332.726 113.681 332.553 113.47C332.686 113.734 332.717 114.038 332.641 114.324C332.605 114.455 332.543 114.578 332.46 114.685C332.376 114.792 332.272 114.881 332.153 114.948C331.986 115.056 331.794 115.122 331.596 115.14C331.397 115.158 331.197 115.127 331.013 115.05C330.63 114.889 330.317 114.597 330.13 114.226C329.94 113.922 329.839 113.571 329.838 113.212L330.32 112.934Z" fill="black"/>
<path d="M333.192 115.05C333.733 114.725 334.354 114.556 334.986 114.563C335.213 114.574 335.433 114.647 335.623 114.773C335.812 114.899 335.964 115.074 336.063 115.279C336.512 116.123 336.063 116.907 334.683 117.634C334.163 117.954 333.564 118.123 332.953 118.121C332.726 118.109 332.506 118.036 332.316 117.91C332.127 117.784 331.975 117.61 331.875 117.405C331.768 117.219 331.714 117.007 331.718 116.792C331.722 116.577 331.785 116.368 331.9 116.186C332.216 115.694 332.664 115.301 333.192 115.05ZM333.45 115.484C332.355 116.062 331.96 116.643 332.265 117.224C332.571 117.806 333.279 117.796 334.391 117.195C335.551 116.581 335.98 115.991 335.683 115.435C335.385 114.879 334.625 114.879 333.45 115.503V115.484Z" fill="black"/>
<path d="M341.996 140.702L341.104 138.114L341.518 137.967L343.21 138.796C343.581 138.997 343.976 139.151 344.385 139.254C344.601 139.285 344.822 139.263 345.028 139.191C345.133 139.157 345.231 139.103 345.314 139.031C345.398 138.959 345.467 138.871 345.516 138.772C345.606 138.55 345.606 138.301 345.516 138.08C345.356 137.664 345.042 137.327 344.638 137.139L345.126 136.968C345.504 137.212 345.786 137.578 345.925 138.006C346.052 138.327 346.052 138.685 345.925 139.006C345.859 139.156 345.76 139.29 345.637 139.398C345.513 139.506 345.366 139.585 345.209 139.63C344.928 139.726 344.626 139.745 344.336 139.683C343.886 139.577 343.452 139.413 343.044 139.196L341.738 138.523L342.435 140.556L341.996 140.702Z" fill="black"/>
<path d="M344.258 140.6C344.849 140.36 345.496 140.291 346.125 140.4C346.347 140.452 346.551 140.563 346.716 140.72C346.881 140.878 347 141.077 347.061 141.297C347.349 142.204 346.759 142.891 345.282 143.369C344.714 143.588 344.095 143.642 343.497 143.525C343.275 143.473 343.071 143.363 342.906 143.205C342.741 143.047 342.622 142.848 342.561 142.628C342.49 142.427 342.474 142.21 342.516 142C342.558 141.791 342.657 141.596 342.8 141.438C343.201 141.031 343.705 140.741 344.258 140.6ZM344.433 141.087C343.254 141.468 342.766 141.97 342.971 142.594C343.166 143.208 343.868 143.325 345.067 142.94C346.266 142.555 346.842 142.043 346.647 141.438C346.452 140.834 345.701 140.663 344.433 141.068V141.087Z" fill="black"/>
<path d="M348.382 167.486L347.987 164.941L348.421 164.873L348.582 165.901L352.107 165.355L351.619 164.351L352.107 164.278L352.823 165.74L348.67 166.379L348.831 167.408L348.382 167.486Z" fill="black"/>
<path d="M350.615 167.7C351.235 167.578 351.876 167.63 352.467 167.851C352.677 167.941 352.858 168.086 352.992 168.271C353.125 168.455 353.207 168.672 353.228 168.899C353.355 169.845 352.649 170.419 351.112 170.62C350.515 170.737 349.896 170.683 349.328 170.464C349.119 170.374 348.938 170.228 348.804 170.044C348.671 169.86 348.589 169.643 348.567 169.416C348.531 169.204 348.553 168.987 348.632 168.787C348.711 168.588 348.844 168.414 349.016 168.285C349.485 167.947 350.038 167.745 350.615 167.7ZM350.703 168.188C349.474 168.348 348.899 168.758 348.987 169.406C349.074 170.055 349.737 170.284 350.985 170.118C352.233 169.952 352.896 169.548 352.809 168.919C352.721 168.29 352.019 168.007 350.703 168.188Z" fill="black"/>
<path d="M352.19 190.661C352.821 190.63 353.449 190.775 354.003 191.08C354.197 191.201 354.356 191.371 354.463 191.573C354.569 191.775 354.619 192.003 354.608 192.231C354.608 193.183 353.826 193.648 352.263 193.625C351.654 193.653 351.049 193.51 350.517 193.211C350.325 193.091 350.167 192.921 350.062 192.72C349.956 192.518 349.907 192.292 349.918 192.065C349.913 191.851 349.966 191.639 350.073 191.452C350.179 191.266 350.335 191.112 350.522 191.007C351.036 190.742 351.613 190.622 352.19 190.661ZM352.19 191.149C350.946 191.149 350.322 191.451 350.313 192.124C350.303 192.796 350.932 193.099 352.19 193.099C353.447 193.099 354.14 192.811 354.169 192.177C354.198 191.544 353.535 191.183 352.209 191.163L352.19 191.149Z" fill="black"/>
<path d="M21.3573 194.644C20.7254 194.672 20.098 194.525 19.5438 194.22C19.3464 194.098 19.1861 193.925 19.0804 193.719C18.9747 193.513 18.9276 193.281 18.9442 193.05C18.9442 192.098 19.7274 191.635 21.2939 191.661C21.9019 191.634 22.5051 191.779 23.0343 192.08C23.2275 192.201 23.385 192.371 23.4904 192.574C23.5958 192.776 23.6453 193.003 23.6339 193.23C23.6365 193.444 23.5813 193.655 23.474 193.841C23.3668 194.026 23.2115 194.179 23.0245 194.283C22.5121 194.554 21.9356 194.678 21.3573 194.644ZM21.3573 194.157C22.6004 194.157 23.2244 193.859 23.2342 193.182C23.2439 192.504 22.6248 192.207 21.3622 192.207C20.0995 192.207 19.4122 192.489 19.3829 193.123C19.3537 193.757 20.0118 194.118 21.3378 194.142L21.3573 194.157Z" fill="black"/>
<path d="M26.0226 165.911L25.6083 168.446L25.1793 168.378L25.345 167.349L21.8253 166.774L21.9666 167.88L21.4791 167.802L21.2549 166.184L25.4035 166.862L25.5693 165.838L26.0226 165.911Z" fill="black"/>
<path d="M23.9898 164.892C23.3624 164.817 22.7684 164.568 22.2738 164.175C22.1027 164.024 21.9753 163.83 21.905 163.613C21.8347 163.396 21.824 163.165 21.874 162.942C22.043 162.006 22.8913 161.681 24.4188 161.967C25.0228 162.042 25.5937 162.286 26.0665 162.669C26.2376 162.819 26.365 163.012 26.4354 163.228C26.5058 163.444 26.5164 163.676 26.4663 163.897C26.4355 164.11 26.3469 164.31 26.2103 164.476C26.0736 164.642 25.894 164.767 25.6911 164.838C25.1399 165.013 24.5509 165.032 23.9898 164.892ZM24.058 164.404C25.2768 164.629 25.9495 164.404 26.0665 163.776C26.1835 163.147 25.6229 162.708 24.3846 162.479C23.1464 162.25 22.3956 162.43 22.2786 163.054C22.1616 163.678 22.7515 164.151 24.058 164.395V164.404Z" fill="black"/>
<path d="M33.4914 137.475L32.5895 140.059L32.1751 139.912L31.361 138.216C31.1919 137.825 30.9741 137.456 30.7126 137.119C30.561 136.961 30.3739 136.84 30.1666 136.768C30.0628 136.723 29.9508 136.7 29.8376 136.7C29.7243 136.7 29.6123 136.723 29.5085 136.768C29.3016 136.89 29.1498 137.088 29.0844 137.319C28.9545 137.744 28.9929 138.203 29.1916 138.601L28.7041 138.43C28.5527 138.006 28.5527 137.543 28.7041 137.119C28.8025 136.788 29.0241 136.507 29.3232 136.334C29.4717 136.253 29.6364 136.207 29.8052 136.199C29.974 136.19 30.1425 136.22 30.2982 136.285C30.5745 136.385 30.8211 136.553 31.0149 136.773C31.3026 137.137 31.5418 137.537 31.7266 137.962L32.3604 139.313L33.0672 137.285L33.4914 137.475Z" fill="black"/>
<path d="M31.6875 136.013C31.088 135.836 30.5484 135.499 30.1275 135.038C29.985 134.86 29.893 134.647 29.8612 134.421C29.8295 134.196 29.8592 133.966 29.9471 133.755C30.2721 132.865 31.1642 132.688 32.6235 133.224C33.205 133.403 33.7251 133.741 34.125 134.199C34.2675 134.377 34.3595 134.59 34.3912 134.815C34.423 135.041 34.3933 135.271 34.3054 135.481C34.2369 135.684 34.1145 135.865 33.9514 136.004C33.7883 136.143 33.5905 136.235 33.3791 136.271C32.8022 136.343 32.2165 136.254 31.6875 136.013ZM31.8337 135.525C33.0005 135.961 33.6976 135.871 33.9251 135.257C34.1526 134.643 33.6749 134.119 32.4919 133.687C31.2634 133.229 30.5419 133.297 30.3176 133.892C30.0934 134.487 30.6004 135.072 31.8435 135.525H31.8337Z" fill="black"/>
<path d="M43.8751 112.612C44.2341 112.471 44.5313 112.207 44.7136 111.867C44.8584 111.632 44.917 111.355 44.8793 111.082C44.8603 110.958 44.8119 110.841 44.7381 110.74C44.6642 110.639 44.5672 110.557 44.4552 110.502C43.9287 110.209 43.451 110.438 43.0317 111.189L42.8465 111.52L42.4808 111.316L42.6612 110.999C43.0317 110.331 42.9683 109.858 42.476 109.585C41.9836 109.312 41.6472 109.453 41.3596 109.965C41.1978 110.263 41.1444 110.608 41.2085 110.94L40.7795 110.701C40.7748 110.339 40.871 109.983 41.0573 109.673C41.2039 109.381 41.4517 109.152 41.7545 109.029C41.8935 108.975 42.0432 108.953 42.192 108.966C42.3407 108.979 42.4846 109.025 42.6125 109.102C42.8553 109.224 43.0459 109.429 43.149 109.68C43.2521 109.931 43.2606 110.211 43.1731 110.467C43.3283 110.201 43.5794 110.004 43.8751 109.917C44.0077 109.88 44.1463 109.87 44.2827 109.888C44.4191 109.906 44.5506 109.95 44.6697 110.019C44.8374 110.106 44.9827 110.23 45.0944 110.382C45.206 110.534 45.2809 110.71 45.3132 110.896C45.3765 111.307 45.2937 111.726 45.0792 112.081C44.9186 112.403 44.6702 112.674 44.3626 112.861L43.8751 112.612Z" fill="black"/>
<path d="M44.2602 108.912C43.7006 108.625 43.2303 108.19 42.9 107.655C42.7893 107.455 42.7349 107.229 42.7427 107C42.7504 106.772 42.8199 106.55 42.9439 106.358C43.4314 105.539 44.3333 105.519 45.669 106.299C46.2122 106.576 46.6667 107 46.9804 107.523C47.0907 107.722 47.1449 107.947 47.1371 108.175C47.1294 108.403 47.0601 108.624 46.9365 108.815C46.8363 109.005 46.6853 109.164 46.5002 109.273C46.3151 109.382 46.1033 109.438 45.8884 109.434C45.3078 109.414 44.7441 109.234 44.2602 108.912ZM44.4942 108.469C45.5667 109.093 46.2638 109.127 46.5953 108.561C46.9268 107.996 46.5417 107.401 45.4545 106.767C44.3674 106.134 43.602 106.046 43.2803 106.592C42.9585 107.138 43.3485 107.796 44.4942 108.469Z" fill="black"/>
<path d="M62.668 84.2156L62.2926 84.6739L63.2335 85.449L62.9215 85.8244L61.9806 85.0493L60.6059 86.7214L60.3573 86.5166L59.3433 83.031L59.7333 82.5435L61.9806 84.396L62.356 83.9378L62.668 84.2156ZM61.6686 84.7958L60.1281 83.5234C60.0209 83.4356 59.899 83.3333 59.7723 83.2114C59.7723 83.2553 59.8503 83.3723 59.9331 83.5673L60.6498 86.0291L61.6686 84.7958Z" fill="black"/>
<path d="M62.2684 83.2016C61.7676 82.8262 61.3797 82.3202 61.1471 81.7391C61.0693 81.5176 61.0541 81.2789 61.1031 81.0492C61.1521 80.8196 61.2635 80.6079 61.425 80.4375C62.0441 79.716 62.9411 79.8573 64.1209 80.8713C64.6046 81.2391 64.9746 81.7359 65.1885 82.3046C65.2613 82.5209 65.2744 82.7528 65.2263 82.9759C65.1783 83.199 65.0709 83.405 64.9155 83.5721C64.7816 83.7393 64.6046 83.8668 64.4035 83.9407C64.2025 84.0146 63.985 84.0321 63.7747 83.9913C63.2089 83.8734 62.6872 83.5999 62.2684 83.2016ZM62.5755 82.8067C63.5212 83.616 64.2054 83.7785 64.6279 83.2942C65.0504 82.81 64.7838 82.16 63.8283 81.3442C62.8338 80.4927 62.1319 80.3059 61.7224 80.7836C61.2836 81.2516 61.5712 81.939 62.5755 82.8067Z" fill="black"/>
<path d="M81.9292 65.4079C82.2679 65.3708 82.5883 65.2352 82.8506 65.0179C83.0779 64.8381 83.2279 64.5782 83.2699 64.2915C83.2839 64.1551 83.2689 64.0174 83.2261 63.8872C83.1833 63.757 83.1135 63.6373 83.0212 63.5359C82.9385 63.4299 82.8327 63.3441 82.712 63.285C82.5912 63.2258 82.4586 63.1949 82.3241 63.1946C82.0114 63.2224 81.7182 63.3586 81.4954 63.5797C81.4027 63.6577 81.2321 63.8235 80.9737 64.0672L79.5112 62.3561L81.1736 60.9277L81.4661 61.2641L80.1596 62.3854L81.042 63.4189C81.1687 63.297 81.2614 63.2092 81.3296 63.1507C81.6205 62.8584 82.0097 62.6846 82.4216 62.6632C82.6101 62.6672 82.7953 62.713 82.964 62.7973C83.1326 62.8816 83.2804 63.0023 83.3966 63.1507C83.5332 63.2959 83.636 63.4696 83.6975 63.6593C83.759 63.8489 83.7778 64.0498 83.7525 64.2476C83.6818 64.6662 83.4575 65.0434 83.1236 65.3055C82.8943 65.5396 82.6064 65.7079 82.29 65.793L81.9292 65.4079Z" fill="black"/>
<path d="M83.4259 62.1075C82.9932 61.6449 82.6978 61.071 82.5728 60.45C82.5388 60.2247 82.5661 59.9945 82.6519 59.7834C82.7377 59.5724 82.8788 59.3884 83.0603 59.2508C83.7916 58.6414 84.6544 58.9388 85.6392 60.1331C86.053 60.5807 86.3348 61.1342 86.4533 61.7321C86.4873 61.9574 86.46 62.1876 86.3742 62.3987C86.2884 62.6097 86.1473 62.7937 85.9658 62.9314C85.805 63.074 85.6085 63.1703 85.3973 63.2098C85.186 63.2493 84.968 63.2306 84.7666 63.1556C84.2336 62.9331 83.7705 62.571 83.4259 62.1075ZM83.7964 61.7663C84.591 62.7413 85.2589 62.9948 85.7464 62.5755C86.2339 62.1563 86.0974 61.4738 85.2931 60.5036C84.4887 59.5335 83.7964 59.1874 83.3089 59.5871C82.8214 59.9869 82.953 60.7425 83.7964 61.7663Z" fill="black"/>
<path d="M106.197 43.7775C105.938 43.7972 105.688 43.8774 105.466 44.0115C105.293 44.1099 105.15 44.2516 105.049 44.4226C104.948 44.5936 104.893 44.788 104.89 44.9865C104.888 45.5075 105.043 46.0171 105.334 46.449C105.303 46.2264 105.342 45.9995 105.446 45.8002C105.55 45.6009 105.714 45.4391 105.914 45.3375C106.063 45.2396 106.231 45.1746 106.406 45.1469C106.582 45.1191 106.762 45.1293 106.933 45.1766C107.288 45.2932 107.584 45.5409 107.762 45.8689C107.869 46.0344 107.943 46.2194 107.979 46.4135C108.015 46.6076 108.013 46.8068 107.971 46.9999C107.93 47.187 107.85 47.3633 107.736 47.517C107.621 47.6708 107.476 47.7986 107.308 47.892C107.13 48.0109 106.924 48.0811 106.71 48.0957C106.496 48.1102 106.282 48.0686 106.09 47.9749C105.622 47.723 105.241 47.3378 104.993 46.8683C104.628 46.3129 104.438 45.6608 104.447 44.9963C104.45 44.7241 104.526 44.4577 104.665 44.224C104.805 43.9903 105.004 43.7976 105.241 43.6654C105.457 43.5219 105.702 43.4271 105.958 43.3875L106.197 43.7775ZM105.709 47.0096C105.848 47.2681 106.075 47.4686 106.348 47.5751C106.466 47.6219 106.593 47.6419 106.72 47.6337C106.846 47.6256 106.969 47.5894 107.08 47.5279C107.191 47.4663 107.287 47.3809 107.361 47.2778C107.435 47.1747 107.486 47.0565 107.508 46.9316C107.548 46.6664 107.489 46.3957 107.343 46.1711C107.216 45.9241 107.003 45.7329 106.743 45.6349C106.623 45.5994 106.497 45.5901 106.373 45.6078C106.25 45.6254 106.131 45.6696 106.026 45.7373C105.921 45.7986 105.829 45.8809 105.756 45.9789C105.683 46.077 105.631 46.1888 105.602 46.3076C105.572 46.4266 105.567 46.5507 105.588 46.6717C105.609 46.7927 105.655 46.9079 105.724 47.0096H105.709Z" fill="black"/>
<path d="M107.874 44.928C107.526 44.3998 107.332 43.7855 107.313 43.1535C107.32 42.9254 107.387 42.7031 107.508 42.5095C107.629 42.3159 107.799 42.1579 108.001 42.0517C108.825 41.5642 109.624 42.0176 110.39 43.368C110.723 43.8773 110.905 44.4705 110.916 45.0791C110.911 45.3063 110.845 45.528 110.725 45.721C110.605 45.914 110.435 46.0711 110.234 46.176C110.05 46.2885 109.839 46.348 109.624 46.348C109.409 46.348 109.198 46.2885 109.015 46.176C108.527 45.8729 108.132 45.441 107.874 44.928ZM108.298 44.6598C108.912 45.7356 109.504 46.1126 110.073 45.7908C110.641 45.4691 110.611 44.7606 109.98 43.6653C109.33 42.5278 108.732 42.1151 108.186 42.4271C107.601 42.7635 107.64 43.5045 108.298 44.6598Z" fill="black"/>
<path d="M134.984 29.8106L134.808 34.5686L134.321 34.7441L134.506 30.3079L132.332 31.1171L132.176 30.7028L134.925 29.679L134.984 29.8106Z" fill="black"/>
<path d="M136.329 31.6875C136.085 31.1043 136.007 30.4646 136.105 29.8399C136.149 29.6135 136.253 29.4033 136.406 29.2316C136.56 29.0599 136.758 28.9331 136.978 28.8649C137.875 28.5399 138.578 29.1151 139.089 30.5906C139.321 31.1531 139.393 31.7689 139.298 32.37C139.254 32.5959 139.149 32.8056 138.996 32.9772C138.842 33.1487 138.645 33.2758 138.426 33.345C138.226 33.4224 138.008 33.4437 137.797 33.4068C137.586 33.3699 137.388 33.276 137.226 33.1354C136.8 32.744 136.49 32.2431 136.329 31.6875ZM136.817 31.4974C137.226 32.6674 137.738 33.15 138.357 32.9306C138.976 32.7112 139.069 32.019 138.65 30.8295C138.231 29.64 137.704 29.0745 137.109 29.2841C136.515 29.4937 136.359 30.225 136.797 31.4925L136.817 31.4974Z" fill="black"/>
<path d="M162.732 24.3019C162.488 24.2686 162.259 24.161 162.078 23.9936C161.897 23.8261 161.771 23.607 161.718 23.3659C161.684 23.2135 161.687 23.0551 161.727 22.9041C161.767 22.7531 161.843 22.6139 161.947 22.4981C162.175 22.2395 162.485 22.0673 162.825 22.0106C163.132 21.9478 163.451 21.9944 163.727 22.1423C163.855 22.2098 163.966 22.3061 164.05 22.4237C164.135 22.5413 164.191 22.6769 164.214 22.8199C164.253 23.0765 164.215 23.3389 164.104 23.5735C163.993 23.808 163.814 24.004 163.59 24.1361C163.877 24.1494 164.152 24.2577 164.371 24.4438C164.589 24.63 164.74 24.8836 164.799 25.1648C164.84 25.3352 164.839 25.5132 164.796 25.6831C164.753 25.853 164.668 26.0097 164.551 26.1398C164.273 26.4246 163.907 26.6083 163.512 26.6614C163.18 26.7295 162.835 26.6776 162.537 26.5151C162.397 26.435 162.276 26.3241 162.184 26.1907C162.092 26.0574 162.031 25.905 162.006 25.7449C161.951 25.453 161.995 25.1512 162.13 24.8867C162.265 24.6222 162.484 24.4097 162.752 24.2824L162.732 24.3019ZM163.707 22.9856C163.695 22.8926 163.662 22.8035 163.611 22.7244C163.561 22.6453 163.494 22.578 163.415 22.5274C163.241 22.4305 163.038 22.4027 162.844 22.4494C162.653 22.4839 162.48 22.5859 162.357 22.737C162.296 22.8069 162.252 22.8899 162.229 22.9795C162.205 23.0691 162.202 23.1629 162.22 23.2538C162.294 23.6486 162.596 23.9021 163.127 24.0094C163.59 23.7071 163.8 23.3659 163.717 22.9856H163.707ZM163.161 24.4725C162.62 24.8138 162.391 25.1989 162.474 25.6328C162.489 25.7418 162.531 25.8455 162.594 25.9354C162.658 26.0252 162.742 26.0987 162.84 26.1495C163.057 26.2576 163.305 26.2869 163.542 26.2324C163.776 26.2005 163.991 26.0844 164.146 25.9058C164.216 25.8262 164.266 25.7314 164.292 25.6289C164.318 25.5264 164.32 25.4192 164.297 25.3159C164.224 24.8625 163.844 24.5798 163.171 24.4725H163.161Z" fill="black"/>
<path d="M165.219 24.063C165.079 23.4468 165.112 22.8038 165.316 22.2056C165.4 21.9939 165.54 21.8085 165.72 21.6688C165.9 21.5291 166.114 21.4401 166.34 21.411C167.281 21.255 167.876 21.9472 168.124 23.4731C168.257 24.0674 168.222 24.687 168.022 25.2622C167.938 25.4746 167.799 25.6604 167.619 25.8003C167.439 25.9401 167.224 26.0288 166.998 26.0569C166.788 26.0986 166.57 26.082 166.368 26.009C166.166 25.936 165.988 25.8093 165.852 25.6425C165.499 25.1848 165.28 24.638 165.219 24.063ZM165.706 23.9557C165.911 25.1842 166.33 25.7449 166.979 25.6376C167.627 25.5304 167.837 24.8576 167.632 23.6145C167.427 22.3714 167.003 21.7279 166.379 21.8302C165.755 21.9326 165.497 22.6492 165.711 23.9557H165.706Z" fill="black"/>
<path d="M191.748 23.1806C191.995 23.3255 192.276 23.4013 192.562 23.4C192.756 23.4052 192.948 23.3598 193.119 23.2684C193.29 23.1769 193.434 23.0425 193.537 22.8784C193.796 22.4365 193.911 21.9258 193.869 21.4159C193.781 21.6085 193.636 21.7699 193.454 21.8787C193.272 21.9875 193.062 22.0386 192.85 22.0252C192.669 22.0359 192.488 22.007 192.32 21.9405C192.152 21.874 192 21.7714 191.875 21.6401C191.616 21.3707 191.474 21.0097 191.48 20.6359C191.463 20.2373 191.601 19.8476 191.865 19.5487C191.999 19.403 192.161 19.2875 192.343 19.2101C192.525 19.1328 192.721 19.0953 192.918 19.1002C193.125 19.0878 193.332 19.1293 193.519 19.2208C193.705 19.3122 193.864 19.4504 193.981 19.6219C194.26 20.0802 194.396 20.6116 194.371 21.1477C194.425 21.8283 194.268 22.509 193.923 23.0977C193.775 23.3214 193.572 23.5035 193.334 23.6264C193.096 23.7493 192.83 23.809 192.562 23.7997C192.292 23.8106 192.023 23.7623 191.773 23.6584L191.748 23.1806ZM191.963 20.5579C191.955 20.8335 192.048 21.1026 192.226 21.3135C192.351 21.4468 192.514 21.5396 192.692 21.5799C192.871 21.6202 193.057 21.6061 193.228 21.5395C193.398 21.4729 193.545 21.3569 193.648 21.2062C193.752 21.0556 193.809 20.8773 193.81 20.6944C193.814 20.391 193.718 20.0949 193.537 19.851C193.459 19.7435 193.355 19.6569 193.235 19.5991C193.115 19.5413 192.983 19.5139 192.85 19.5195C192.726 19.5188 192.603 19.5461 192.491 19.5993C192.379 19.6524 192.28 19.7301 192.202 19.8266C192.035 20.0329 191.95 20.2931 191.963 20.5579Z" fill="black"/>
<path d="M195 21.5085C194.968 20.8761 195.115 20.2474 195.424 19.695C195.545 19.5017 195.716 19.3443 195.918 19.2389C196.12 19.1335 196.347 19.0839 196.575 19.0954C197.527 19.0954 197.99 19.8786 197.964 21.4451C197.988 22.0534 197.841 22.6562 197.54 23.1855C197.421 23.3794 197.251 23.5375 197.05 23.6431C196.848 23.7486 196.621 23.7977 196.394 23.7851C196.179 23.7891 195.967 23.7345 195.781 23.6272C195.594 23.5198 195.441 23.3638 195.336 23.1757C195.075 22.6609 194.958 22.0845 195 21.5085ZM195.487 21.5085C195.487 22.7516 195.785 23.3805 196.438 23.3902C197.091 23.4 197.413 22.776 197.442 21.5134C197.472 20.2507 197.155 19.5634 196.526 19.5341C195.897 19.5049 195.512 20.163 195.487 21.489V21.5085Z" fill="black"/>
<path d="M222.261 25.8375L219.716 25.4524L219.78 25.0234L220.808 25.1745L221.345 21.6499L220.243 21.8059L220.311 21.3184L221.93 21.0746L221.296 25.233L222.324 25.389L222.261 25.8375Z" fill="black"/>
<path d="M223.241 23.8046C223.309 23.1759 223.55 22.5784 223.938 22.0789C224.087 21.9068 224.28 21.7778 224.496 21.7049C224.712 21.6321 224.943 21.6181 225.166 21.6645C226.106 21.827 226.444 22.672 226.18 24.1995C226.112 24.8048 225.875 25.3788 225.498 25.857C225.349 26.0294 225.156 26.1584 224.94 26.2305C224.724 26.3025 224.492 26.315 224.269 26.2665C224.053 26.2423 223.847 26.1585 223.674 26.0242C223.502 25.8899 223.371 25.7105 223.294 25.506C223.123 24.9542 223.104 24.3661 223.241 23.8046ZM223.728 23.8631C223.514 25.0867 223.728 25.7546 224.377 25.8667C225.025 25.9789 225.444 25.4134 225.659 24.1702C225.873 22.9271 225.659 22.1812 225.054 22.074C224.45 21.9667 223.967 22.5566 223.762 23.8875L223.728 23.8631Z" fill="black"/>
<path d="M226.722 24.414C226.804 23.7864 227.059 23.1939 227.458 22.7029C227.609 22.5322 227.803 22.4058 228.021 22.3372C228.238 22.2685 228.47 22.2601 228.691 22.3129C229.627 22.4932 229.949 23.3415 229.666 24.8674C229.587 25.47 229.338 26.0379 228.95 26.5054C228.798 26.6756 228.604 26.8017 228.387 26.8703C228.17 26.939 227.938 26.9476 227.716 26.8954C227.504 26.8626 227.305 26.7721 227.141 26.6336C226.976 26.4952 226.853 26.3142 226.785 26.1105C226.61 25.5613 226.588 24.9747 226.722 24.414ZM227.209 24.4822C226.969 25.701 227.172 26.3721 227.819 26.4956C228.452 26.6224 228.891 26.0617 229.13 24.8284C229.369 23.595 229.193 22.8345 228.574 22.7175C227.955 22.6005 227.472 23.1757 227.224 24.4822H227.209Z" fill="black"/>
<path d="M251.331 33.15L248.893 32.3261L249.034 31.9118L250.009 32.2433L251.15 28.8649L250.039 28.8259L250.19 28.3774L251.823 28.4213L250.477 32.4041L251.452 32.7356L251.331 33.15Z" fill="black"/>
<path d="M254.602 34.3395L252.164 33.4669L252.311 33.0574L253.286 33.4084L254.499 30.0544L253.388 29.991L253.549 29.5474L255.182 29.6254L253.749 33.579L254.724 33.93L254.602 34.3395Z" fill="black"/>
<path d="M255.976 32.5308C256.165 31.9265 256.519 31.3874 257 30.9757C257.18 30.8348 257.394 30.7447 257.62 30.7147C257.847 30.6847 258.077 30.7159 258.287 30.8051C259.174 31.1463 259.337 32.0417 258.775 33.4912C258.589 34.0584 258.252 34.5641 257.8 34.9537C257.62 35.0952 257.406 35.1854 257.179 35.2146C256.952 35.2438 256.722 35.2109 256.513 35.1195C256.31 35.0501 256.131 34.9266 255.993 34.7625C255.856 34.5984 255.766 34.3999 255.733 34.1883C255.664 33.624 255.748 33.0514 255.976 32.5308ZM256.464 32.6868C256.019 33.8438 256.102 34.541 256.713 34.7782C257.317 35.0073 257.848 34.5393 258.297 33.3645C258.745 32.1896 258.711 31.4145 258.121 31.1853C257.532 30.9562 256.912 31.4437 256.454 32.6868H256.464Z" fill="black"/>
<path d="M278.66 45.4594L276.413 44.2162L276.622 43.836L277.534 44.3235L279.25 41.1937L278.163 40.9597L278.392 40.5502L279.991 40.8769L277.968 44.5624L278.874 45.0499L278.66 45.4594Z" fill="black"/>
<path d="M281.614 47.151L279.24 45.786L279.464 45.4009L281.283 44.9134C281.694 44.8238 282.092 44.6812 282.467 44.4893C282.654 44.3653 282.808 44.1981 282.916 44.0018C282.979 43.9075 283.021 43.8009 283.039 43.6891C283.058 43.5773 283.052 43.4629 283.023 43.3534C282.942 43.1271 282.776 42.9415 282.56 42.8367C282.168 42.6271 281.709 42.5799 281.283 42.705L281.541 42.2517C281.987 42.1865 282.442 42.2778 282.828 42.51C283.136 42.6678 283.372 42.9384 283.486 43.2657C283.534 43.4226 283.547 43.5881 283.524 43.7506C283.501 43.9131 283.443 44.0686 283.354 44.2065C283.213 44.4701 283.004 44.6919 282.75 44.85C282.338 45.0665 281.901 45.2303 281.448 45.3375L279.986 45.7129L281.848 46.7854L281.614 47.151Z" fill="black"/>
<path d="M283.354 45.6495C283.646 45.0881 284.089 44.6188 284.632 44.2942C284.833 44.1881 285.059 44.1376 285.286 44.1479C285.513 44.1582 285.733 44.2289 285.924 44.3527C286.743 44.8402 286.748 45.7567 285.924 47.0827C285.644 47.6192 285.221 48.0668 284.7 48.3746C284.499 48.4827 284.272 48.5343 284.044 48.524C283.815 48.5137 283.594 48.4419 283.403 48.3161C283.215 48.2119 283.06 48.0582 282.953 47.8717C282.847 47.6852 282.793 47.473 282.799 47.2582C282.832 46.6811 283.025 46.1243 283.354 45.6495ZM283.798 45.8835C283.155 46.9462 283.116 47.6482 283.671 47.9846C284.227 48.321 284.832 47.9505 285.485 46.8731C286.138 45.7957 286.226 45.0255 285.685 44.6989C285.144 44.3722 284.486 44.7476 283.798 45.8835Z" fill="black"/>
<path d="M303.439 62.3366L301.436 60.7279L301.709 60.3866L302.523 61.0399L304.756 58.2562L303.727 57.837L304.02 57.4714L305.541 58.071L302.908 61.347L303.717 61.9954L303.439 62.3366Z" fill="black"/>
<path d="M304.488 62.2782C304.559 62.6595 304.761 63.0042 305.058 63.2532C305.265 63.437 305.528 63.5468 305.804 63.5652C305.928 63.5682 306.052 63.5415 306.164 63.4873C306.276 63.433 306.373 63.3527 306.447 63.2532C306.837 62.7917 306.703 62.283 306.043 61.7273L305.75 61.4835L306.023 61.1618L306.296 61.3958C306.886 61.8833 307.359 61.9174 307.725 61.4787C308.09 61.0399 308.007 60.6889 307.559 60.3135C307.302 60.0934 306.976 59.9694 306.638 59.9625L306.954 59.5872C307.318 59.6576 307.655 59.8262 307.929 60.0747C308.183 60.276 308.356 60.5613 308.417 60.879C308.445 61.0255 308.438 61.1764 308.399 61.32C308.359 61.4637 308.287 61.5963 308.188 61.7078C308.023 61.9282 307.783 62.0803 307.513 62.1351C307.244 62.19 306.963 62.1437 306.725 62.0052C306.942 62.2053 307.079 62.4772 307.11 62.7705C307.123 62.9076 307.108 63.0458 307.065 63.1766C307.022 63.3074 306.953 63.4281 306.862 63.531C306.748 63.6821 306.601 63.8048 306.432 63.8894C306.262 63.9739 306.076 64.0182 305.887 64.0185C305.472 64.0034 305.076 63.8409 304.77 63.5603C304.484 63.3427 304.264 63.0487 304.137 62.712L304.488 62.2782Z" fill="black"/>
<path d="M308.022 63.336C308.407 62.8345 308.923 62.4497 309.514 62.2245C309.731 62.154 309.963 62.143 310.186 62.1928C310.409 62.2425 310.615 62.3511 310.781 62.5072C311.5 63.1312 311.349 64.0282 310.328 65.1982C309.951 65.6824 309.443 66.0493 308.866 66.2561C308.649 66.3278 308.417 66.3394 308.195 66.2896C307.973 66.2398 307.768 66.1305 307.603 65.9734C307.437 65.8378 307.31 65.6597 307.237 65.4579C307.164 65.2561 307.147 65.0383 307.189 64.8277C307.325 64.2639 307.614 63.7481 308.022 63.336ZM308.417 63.6431C307.603 64.5791 307.442 65.2616 307.93 65.6955C308.417 66.1294 309.08 65.8612 309.909 64.9106C310.738 63.96 310.962 63.2239 310.484 62.8046C310.006 62.3854 309.29 62.6437 308.417 63.6431Z" fill="black"/>
<path d="M323.924 82.1193L322.238 80.1986L322.564 79.9061L323.213 80.6812L325.874 78.3071L324.899 77.727L325.255 77.4101L326.654 78.2535L323.515 81.0517L324.207 81.8269L323.924 82.1193Z" fill="black"/>
<path d="M327.215 84.0791L326.835 83.6306L325.908 84.4204L325.587 84.0499L326.513 83.2552L325.104 81.6124L325.353 81.4027L328.96 81.0079L329.355 81.4954L327.137 83.3625L327.522 83.811L327.215 84.0791ZM326.82 82.992L328.336 81.6953C328.443 81.6026 328.565 81.5051 328.702 81.3979C328.658 81.3979 328.531 81.4466 328.321 81.4905L325.777 81.7781L326.82 82.992Z" fill="black"/>
<path d="M328.283 83.85C328.746 83.4191 329.32 83.1254 329.94 83.0018C330.165 82.9672 330.396 82.9943 330.607 83.0801C330.818 83.166 331.002 83.3073 331.139 83.4893C331.744 84.2238 331.448 85.0834 330.252 86.0681C329.804 86.4797 329.25 86.7583 328.653 86.8725C328.428 86.9071 328.197 86.88 327.986 86.7942C327.775 86.7083 327.591 86.567 327.454 86.385C327.311 86.2246 327.214 86.0278 327.176 85.8162C327.137 85.6047 327.157 85.3865 327.234 85.1858C327.454 84.6523 327.817 84.19 328.283 83.85ZM328.624 84.2205C327.649 85.0103 327.376 85.6603 327.805 86.1705C328.234 86.6808 328.926 86.5313 329.882 85.722C330.896 84.8933 331.203 84.2303 330.798 83.7428C330.393 83.2553 329.648 83.3869 328.624 84.2303V84.2205Z" fill="black"/>
<path d="M342.43 107.572L341.099 105.373L341.474 105.144L342.01 106.036L345.062 104.184L344.233 103.438L344.638 103.194L345.862 104.276L342.269 106.455L342.805 107.343L342.43 107.572Z" fill="black"/>
<path d="M343.434 108.006C343.41 108.345 343.486 108.684 343.653 108.981C343.785 109.239 344.013 109.435 344.287 109.527C344.418 109.568 344.555 109.58 344.691 109.562C344.826 109.544 344.957 109.497 345.072 109.424C345.192 109.364 345.297 109.277 345.377 109.17C345.458 109.062 345.512 108.937 345.535 108.805C345.567 108.493 345.49 108.179 345.316 107.918C345.257 107.815 345.126 107.611 344.926 107.313L346.876 106.182L347.973 108.079L347.588 108.303L346.725 106.811L345.55 107.494L345.759 107.82C345.982 108.164 346.072 108.576 346.013 108.981C345.973 109.164 345.892 109.337 345.777 109.486C345.661 109.634 345.513 109.755 345.345 109.839C345.178 109.948 344.988 110.019 344.789 110.045C344.591 110.071 344.389 110.052 344.199 109.99C343.802 109.844 343.474 109.555 343.278 109.181C343.099 108.91 342.993 108.598 342.971 108.274L343.434 108.006Z" fill="black"/>
<path d="M346.408 110.092C346.942 109.753 347.559 109.569 348.192 109.561C348.42 109.568 348.642 109.637 348.834 109.759C349.026 109.882 349.182 110.054 349.284 110.258C349.747 111.091 349.284 111.881 347.938 112.632C347.422 112.952 346.826 113.121 346.218 113.119C345.99 113.111 345.769 113.042 345.577 112.918C345.386 112.795 345.232 112.622 345.131 112.417C345.021 112.234 344.962 112.024 344.962 111.811C344.962 111.597 345.021 111.387 345.131 111.204C345.448 110.725 345.89 110.341 346.408 110.092ZM346.676 110.521C345.587 111.119 345.202 111.706 345.521 112.281C345.839 112.856 346.546 112.835 347.641 112.218C348.792 111.584 349.211 110.994 348.904 110.438C348.597 109.882 347.836 109.878 346.676 110.521Z" fill="black"/>
<path d="M355.456 134.579L354.525 132.181L354.934 132.025L355.31 133L358.634 131.713L357.952 130.835L358.391 130.665L359.405 131.942L355.505 133.463L355.88 134.438L355.456 134.579Z" fill="black"/>
<path d="M360.37 136.329C360.4 136.071 360.37 135.809 360.282 135.564C360.218 135.376 360.105 135.207 359.956 135.076C359.806 134.946 359.624 134.856 359.429 134.818C358.923 134.723 358.401 134.779 357.927 134.979C358.149 134.99 358.362 135.069 358.537 135.207C358.711 135.344 358.839 135.532 358.902 135.744C358.971 135.908 359.004 136.085 358.998 136.262C358.992 136.44 358.948 136.614 358.868 136.773C358.688 137.1 358.39 137.346 358.035 137.46C357.666 137.609 357.253 137.609 356.884 137.46C356.708 137.385 356.55 137.273 356.42 137.132C356.291 136.991 356.193 136.823 356.133 136.641C356.049 136.444 356.018 136.228 356.044 136.015C356.07 135.802 356.151 135.599 356.28 135.427C356.616 135.016 357.067 134.714 357.576 134.56C358.193 134.302 358.873 134.237 359.526 134.374C359.794 134.429 360.042 134.553 360.246 134.735C360.45 134.916 360.602 135.149 360.687 135.408C360.788 135.647 360.834 135.905 360.823 136.164L360.37 136.329ZM357.284 135.252C357.006 135.343 356.768 135.527 356.611 135.774C356.537 135.882 356.491 136.006 356.477 136.136C356.462 136.266 356.48 136.398 356.528 136.519C356.566 136.636 356.629 136.743 356.714 136.833C356.798 136.922 356.901 136.992 357.016 137.036C357.265 137.131 357.541 137.131 357.791 137.036C358.058 136.959 358.287 136.785 358.434 136.549C358.492 136.439 358.525 136.318 358.53 136.194C358.535 136.07 358.512 135.946 358.464 135.832C358.424 135.715 358.36 135.607 358.276 135.517C358.192 135.426 358.09 135.354 357.976 135.306C357.87 135.251 357.754 135.219 357.635 135.21C357.516 135.2 357.397 135.215 357.284 135.252Z" fill="black"/>
<path d="M358.922 137.743C359.506 137.502 360.146 137.428 360.77 137.529C360.997 137.572 361.208 137.676 361.38 137.831C361.552 137.986 361.678 138.185 361.745 138.406C362.05 139.306 361.47 140.007 360.004 140.507C359.441 140.736 358.825 140.804 358.225 140.702C358.002 140.654 357.796 140.547 357.629 140.391C357.461 140.236 357.339 140.039 357.274 139.82C357.197 139.62 357.177 139.403 357.216 139.192C357.255 138.981 357.351 138.785 357.494 138.626C357.879 138.206 358.374 137.9 358.922 137.743ZM359.107 138.206C357.932 138.611 357.45 139.118 357.645 139.737C357.84 140.356 358.556 140.454 359.746 140.049C360.935 139.644 361.506 139.118 361.301 138.518C361.096 137.919 360.365 137.782 359.107 138.206Z" fill="black"/>
<path d="M363.534 163.449L363.046 160.924L363.475 160.841L363.675 161.85L367.175 161.167L366.659 160.192L367.122 160.1L367.897 161.538L363.763 162.337L363.963 163.356L363.534 163.449Z" fill="black"/>
<path d="M368.482 166.194L363.841 165.15L363.753 164.663L368.077 165.638L367.677 163.351L368.121 163.273L368.608 166.164L368.482 166.194Z" fill="black"/>
<path d="M366.395 167.174C367.013 167.038 367.657 167.078 368.253 167.291C368.465 167.376 368.65 167.517 368.788 167.699C368.926 167.881 369.012 168.097 369.037 168.324C369.177 169.263 368.483 169.85 366.956 170.084C366.36 170.214 365.739 170.172 365.167 169.962C364.955 169.877 364.771 169.735 364.634 169.553C364.496 169.371 364.411 169.155 364.387 168.929C364.345 168.718 364.363 168.5 364.438 168.298C364.513 168.097 364.642 167.92 364.811 167.788C365.272 167.44 365.82 167.228 366.395 167.174ZM366.498 167.661C365.269 167.851 364.708 168.27 364.806 168.914C364.903 169.557 365.576 169.782 366.819 169.592C368.062 169.401 368.716 168.982 368.618 168.353C368.521 167.724 367.809 167.466 366.498 167.666V167.661Z" fill="black"/>
<path d="M366.429 191.778L366.356 189.204H366.795L366.824 190.242L370.388 190.144L370.042 189.087H370.529L371.036 190.612L366.834 190.725L366.863 191.763L366.429 191.778Z" fill="black"/>
<path d="M368.833 193.421C368.908 193.184 369.053 192.977 369.249 192.825C369.445 192.674 369.682 192.585 369.93 192.572C370.085 192.567 370.239 192.598 370.38 192.662C370.521 192.727 370.646 192.823 370.744 192.943C370.965 193.218 371.08 193.565 371.066 193.918C371.078 194.228 370.981 194.534 370.793 194.781C370.705 194.896 370.591 194.989 370.46 195.052C370.33 195.116 370.187 195.148 370.042 195.146C369.783 195.141 369.531 195.059 369.318 194.91C369.106 194.762 368.942 194.554 368.847 194.313C368.787 194.594 368.635 194.847 368.416 195.032C368.196 195.217 367.921 195.324 367.634 195.336C367.46 195.347 367.287 195.315 367.129 195.245C366.97 195.174 366.831 195.067 366.722 194.932C366.49 194.611 366.371 194.221 366.386 193.825C366.364 193.473 366.473 193.126 366.693 192.85C366.795 192.724 366.924 192.623 367.071 192.555C367.218 192.486 367.379 192.452 367.541 192.455C367.833 192.455 368.117 192.55 368.351 192.726C368.584 192.902 368.753 193.149 368.833 193.43V193.421ZM368.594 193.825C368.35 193.235 368.004 192.943 367.565 192.952C367.455 192.95 367.347 192.974 367.248 193.021C367.149 193.069 367.062 193.139 366.995 193.225C366.853 193.424 366.782 193.664 366.795 193.908C366.79 194.143 366.867 194.373 367.014 194.556C367.082 194.639 367.168 194.705 367.265 194.748C367.362 194.791 367.469 194.811 367.575 194.805C368.033 194.8 368.375 194.473 368.594 193.825ZM369.969 194.61C370.061 194.611 370.152 194.593 370.236 194.556C370.32 194.519 370.395 194.464 370.456 194.396C370.579 194.241 370.64 194.046 370.627 193.85C370.63 193.651 370.559 193.458 370.427 193.308C370.368 193.236 370.294 193.179 370.209 193.14C370.125 193.101 370.032 193.082 369.939 193.084C369.535 193.084 369.237 193.347 369.042 193.854C369.276 194.366 369.584 194.615 369.969 194.61Z" fill="black"/>
<path d="M368.638 195.921C369.269 195.889 369.897 196.032 370.451 196.336C370.646 196.456 370.804 196.626 370.911 196.828C371.017 197.031 371.067 197.258 371.056 197.486C371.056 198.435 370.274 198.9 368.711 198.88C368.103 198.909 367.5 198.765 366.971 198.466C366.776 198.348 366.617 198.178 366.51 197.977C366.404 197.775 366.354 197.548 366.366 197.32C366.362 197.106 366.415 196.894 366.522 196.708C366.628 196.522 366.783 196.368 366.971 196.263C367.485 195.999 368.061 195.881 368.638 195.921ZM368.638 196.409C367.395 196.409 366.771 196.711 366.761 197.384C366.751 198.057 367.38 198.359 368.638 198.383C369.896 198.408 370.588 198.091 370.617 197.457C370.646 196.823 369.983 196.462 368.657 196.423L368.638 196.409Z" fill="black"/>
<path d="M185.372 7.86823L184.982 0.409485L184.626 0.43386L185.016 7.89261L185.372 7.86823Z" fill="#060001"/>
<path d="M188.663 7.7464L188.38 0.282776H188.019L188.282 7.7464H188.663Z" fill="#060001"/>
<path d="M191.909 7.66839L191.778 0.19989H191.422L191.549 7.66839H191.909Z" fill="#060001"/>
<path d="M195 7.62939H195.18V0.160889H194.82V7.62939H195Z" fill="#060001"/>
<path d="M7.51733 191.524L0.0488281 191.397C0.0488281 191.514 0.0488281 191.636 0.0488281 191.753L7.51733 191.885C7.51245 191.763 7.51245 191.646 7.51733 191.524Z" fill="#060001"/>
<path d="M7.60987 188.253L0.14624 187.995V188.35L7.60987 188.614V188.253Z" fill="#060001"/>
<path d="M7.74635 184.982L0.287598 184.592C0.287598 184.714 0.287598 184.831 0.287598 184.953L7.74635 185.343C7.73172 185.221 7.74147 185.104 7.74635 184.982Z" fill="#060001"/>
<path d="M7.95601 181.716L0.48751 181.199C0.48751 181.316 0.48751 181.438 0.463135 181.555L7.91701 182.076C7.94138 181.959 7.94626 181.837 7.95601 181.716Z" fill="#060001"/>
<path d="M8.52636 175.198L1.09686 174.418C1.09686 174.535 1.09686 174.657 1.05786 174.774L8.48736 175.554C8.49711 175.437 8.51661 175.32 8.52636 175.198Z" fill="#060001"/>
<path d="M8.89699 171.946L1.48699 171.034L1.44312 171.395L8.85799 172.302C8.87262 172.185 8.88237 172.087 8.89699 171.946Z" fill="#060001"/>
<path d="M9.33573 168.704L1.95011 167.661C1.95011 167.783 1.91598 167.9 1.89648 168.022L9.29673 169.06C9.30161 168.938 9.32111 168.821 9.33573 168.704Z" fill="#060001"/>
<path d="M9.81816 165.467L2.43741 164.287C2.43741 164.404 2.39841 164.521 2.37891 164.643L9.74991 165.823L9.81816 165.467Z" fill="#060001"/>
<path d="M10.9638 159.023L3.65127 157.594C3.65127 157.716 3.60739 157.833 3.58789 157.95L10.9004 159.374C10.915 159.257 10.9394 159.14 10.9638 159.023Z" fill="#060001"/>
<path d="M11.6171 155.815L4.30456 154.26C4.28019 154.377 4.25094 154.494 4.22656 154.616L11.5391 156.166C11.5634 156.049 11.5927 155.932 11.6171 155.815Z" fill="#060001"/>
<path d="M12.319 152.617L5.03576 150.935C5.01139 151.052 4.98214 151.169 4.95776 151.286L12.2361 152.968C12.2654 152.851 12.2898 152.734 12.319 152.617Z" fill="#060001"/>
<path d="M13.0942 149.438L5.84996 147.63L5.76221 147.981L13.0113 149.789L13.0942 149.438Z" fill="#060001"/>
<path d="M14.7908 143.115L7.60994 141.058L7.50757 141.404L14.6884 143.461L14.7908 143.115Z" fill="#060001"/>
<path d="M15.7267 139.981L8.57991 137.797L8.47754 138.143L15.6243 140.327L15.7267 139.981Z" fill="#060001"/>
<path d="M16.7213 136.861L9.61847 134.55C9.57947 134.662 9.54047 134.779 9.50635 134.891L16.6092 137.202L16.7213 136.861Z" fill="#060001"/>
<path d="M17.7646 133.76L10.7007 131.323C10.6617 131.435 10.6179 131.547 10.5789 131.664L17.6427 134.101C17.6817 133.984 17.7256 133.872 17.7646 133.76Z" fill="#060001"/>
<path d="M20.0118 127.613L13.0406 124.937L12.9089 125.273L19.8851 127.949C19.9289 127.837 19.9874 127.725 20.0118 127.613Z" fill="#060001"/>
<path d="M21.2209 124.571L14.2935 121.773C14.2496 121.885 14.2057 121.997 14.157 122.109L21.0844 124.907L21.2209 124.571Z" fill="#060001"/>
<path d="M22.4739 121.548L15.5952 118.623C15.5514 118.735 15.5026 118.843 15.4539 118.955L22.3325 121.88C22.3764 121.768 22.4251 121.66 22.4739 121.548Z" fill="#060001"/>
<path d="M23.7852 118.55L16.9602 115.513C16.9115 115.62 16.8676 115.733 16.8188 115.845L23.6438 118.882L23.7852 118.55Z" fill="#060001"/>
<path d="M26.5737 112.612L19.8559 109.336L19.6951 109.658L26.4128 112.934C26.4616 112.846 26.5201 112.739 26.5737 112.612Z" fill="#060001"/>
<path d="M28.0313 109.688L21.3721 106.275L21.2112 106.597L27.8656 110.009C27.9241 109.917 27.9728 109.809 28.0313 109.688Z" fill="#060001"/>
<path d="M29.557 106.806L22.9612 103.301C22.9027 103.404 22.849 103.511 22.7905 103.618L29.3864 107.123C29.4449 107.021 29.4985 106.914 29.557 106.806Z" fill="#060001"/>
<path d="M31.1269 103.935L24.5944 100.313L24.4189 100.63L30.9514 104.252L31.1269 103.935Z" fill="#060001"/>
<path d="M34.4077 98.2751L28.0019 94.4288C27.9434 94.5311 27.8849 94.6335 27.8215 94.7359L34.2224 98.5823L34.4077 98.2751Z" fill="#060001"/>
<path d="M36.1336 95.4915L29.7961 91.533L29.606 91.8401L35.9435 95.7986C36.0068 95.6963 36.0751 95.5939 36.1336 95.4915Z" fill="#060001"/>
<path d="M37.8983 92.7371L31.634 88.6714C31.5657 88.7689 31.4975 88.8713 31.4341 88.9736L37.6985 93.0394C37.7618 92.937 37.8301 92.8395 37.8983 92.7371Z" fill="#060001"/>
<path d="M39.7019 90.012L33.5107 85.8341C33.4424 85.9316 33.3693 86.0291 33.3059 86.1315L39.4874 90.3094L39.7019 90.012Z" fill="#060001"/>
<path d="M43.4753 84.669L37.4352 80.2815L37.2207 80.574L43.2657 84.9615L43.4753 84.669Z" fill="#060001"/>
<path d="M45.4252 82.0414L39.4874 77.5466L39.2681 77.8294L45.2302 82.3241L45.4252 82.0414Z" fill="#060001"/>
<path d="M47.4143 79.4625L41.5302 74.8654L41.3108 75.153L47.1998 79.7501C47.2875 79.638 47.3412 79.5405 47.4143 79.4625Z" fill="#060001"/>
<path d="M49.4667 76.8982L43.6605 72.1938L43.4363 72.4766L49.2375 77.1761L49.4667 76.8982Z" fill="#060001"/>
<path d="M53.6786 71.8916L48.0431 66.9922C47.9651 67.08 47.8822 67.1678 47.8042 67.2604L53.4397 72.15C53.5177 72.072 53.625 71.9843 53.6786 71.8916Z" fill="#060001"/>
<path d="M55.8528 69.4444L50.3002 64.4475C50.2173 64.5353 50.1393 64.6279 50.0613 64.7156L55.6139 69.7125C55.6919 69.6248 55.7699 69.5321 55.8528 69.4444Z" fill="#060001"/>
<path d="M58.0709 67.041L52.6061 61.9515L52.3623 62.2147L57.8272 67.3042L58.0709 67.041Z" fill="#060001"/>
<path d="M60.3233 64.6717L54.9608 59.4847L54.7122 59.7431L60.0747 64.9301L60.3233 64.6717Z" fill="#060001"/>
<path d="M64.9544 60.0551L59.7674 54.6926L59.509 54.9412L64.696 60.3037L64.9544 60.0551Z" fill="#060001"/>
<path d="M67.3335 57.8078L62.2391 52.3478L61.9758 52.5915L67.0702 58.0564L67.3335 57.8078Z" fill="#060001"/>
<path d="M69.7467 55.5994L64.7498 50.0516L64.4817 50.2905L69.4786 55.8383L69.7467 55.5994Z" fill="#060001"/>
<path d="M72.1938 53.43L67.275 47.775L67.002 48.0139L71.9062 53.6494L72.1938 53.43Z" fill="#060001"/>
<path d="M77.2152 49.2375L72.5157 43.4363L72.2329 43.6605L76.9373 49.4667L77.2152 49.2375Z" fill="#060001"/>
<path d="M79.7744 47.1997L75.1724 41.3156L74.8896 41.535L79.4868 47.4191L79.7744 47.1997Z" fill="#060001"/>
<path d="M82.3876 45.2108L77.8928 39.2487L77.6052 39.4632L82.1 45.4302L82.3876 45.2108Z" fill="#060001"/>
<path d="M85.0054 43.2753L80.6179 37.2303L80.3254 37.4448L84.7129 43.485L85.0054 43.2753Z" fill="#060001"/>
<path d="M90.3581 39.5167L86.1802 33.3255L85.8828 33.5254L90.0607 39.7166L90.3581 39.5167Z" fill="#060001"/>
<path d="M93.1124 37.7179L89.0466 31.4535L88.7444 31.6534L92.815 37.9177L93.1124 37.7179Z" fill="#060001"/>
<path d="M95.8523 35.9677L91.8938 29.6302L91.5867 29.8252L95.5452 36.1627L95.8523 35.9677Z" fill="#060001"/>
<path d="M104.325 30.9904L100.703 24.4579L100.391 24.6334L104.013 31.1659L104.325 30.9904Z" fill="#060001"/>
<path d="M107.182 29.4352L103.677 22.8345L103.355 23.0051L106.865 29.601C106.967 29.5425 107.075 29.4888 107.182 29.4352Z" fill="#060001"/>
<path d="M110.082 27.9191L106.67 21.2599L106.348 21.4208L109.736 28.08C109.863 28.0215 109.975 27.9728 110.082 27.9191Z" fill="#060001"/>
<path d="M113.007 26.4615L109.736 19.7486L109.41 19.9095L112.686 26.6223L113.007 26.4615Z" fill="#060001"/>
<path d="M118.95 23.7023L115.913 16.8773L115.581 17.0235L118.623 23.8485L118.95 23.7023Z" fill="#060001"/>
<path d="M121.938 22.3958L119.013 15.5172L118.682 15.6585L121.607 22.5372L121.938 22.3958Z" fill="#060001"/>
<path d="M124.966 21.1526L122.167 14.2301L121.831 14.3617L124.629 21.2891L124.966 21.1526Z" fill="#060001"/>
<path d="M128.008 19.9875L125.331 13.0114L124.995 13.1381L127.672 20.1142L128.008 19.9875Z" fill="#060001"/>
<path d="M134.155 17.7255L131.718 10.6616L131.381 10.7835L133.819 17.8474L134.155 17.7255Z" fill="#060001"/>
<path d="M137.26 16.6969L134.955 9.59399L134.613 9.70612L136.919 16.809L137.26 16.6969Z" fill="#060001"/>
<path d="M140.4 15.717L138.216 8.57025C138.104 8.60925 137.987 8.6385 137.875 8.67263L140.059 15.8194L140.4 15.717Z" fill="#060001"/>
<path d="M143.515 14.7858L141.458 7.6001L141.112 7.70735L143.174 14.8882L143.515 14.7858Z" fill="#060001"/>
<path d="M149.843 13.1137L148.034 5.84998L147.683 5.93773L149.492 13.1869L149.843 13.1137Z" fill="#060001"/>
<path d="M153.021 12.3484L151.34 5.07001L150.989 5.14313L152.67 12.4264L153.021 12.3484Z" fill="#060001"/>
<path d="M156.214 11.6512L154.664 4.33875L154.313 4.41675L155.863 11.7292L156.214 11.6512Z" fill="#060001"/>
<path d="M159.412 11.0126L157.989 3.70013L157.633 3.76838L159.061 11.0809L159.412 11.0126Z" fill="#060001"/>
<path d="M165.867 9.88161L164.697 2.50574L164.341 2.56424L165.511 9.94011L165.867 9.88161Z" fill="#060001"/>
<path d="M169.104 9.41362L168.061 2.01825L167.705 2.067L168.748 9.46725L169.104 9.41362Z" fill="#060001"/>
<path d="M172.346 8.9944L171.434 1.57953L171.078 1.61853L171.985 9.0334L172.346 8.9944Z" fill="#060001"/>
<path d="M175.593 8.6239L174.813 1.1944L174.457 1.2334L175.237 8.6629L175.593 8.6239Z" fill="#060001"/>
<path d="M182.11 8.0779L181.589 0.624023L181.233 0.648398L181.75 8.0974L182.11 8.0779Z" fill="#060001"/>
<path d="M98.6408 34.2566L94.7895 27.8509L94.4824 28.0361L98.3288 34.4419L98.6408 34.2566Z" fill="#060001"/>
<path d="M8.21922 178.454L0.7751 177.806L0.74585 178.162L8.1851 178.815C8.19485 178.693 8.20947 178.576 8.21922 178.454Z" fill="#5A92E5"/>
<path d="M13.9182 146.25L6.70322 144.3C6.67397 144.417 6.63985 144.529 6.6106 144.646L13.8256 146.596C13.8548 146.503 13.889 146.386 13.9182 146.25Z" fill="#5A92E5"/>
<path d="M25.1549 115.581L18.3884 112.422C18.3348 112.53 18.286 112.642 18.2324 112.749L25.0038 115.908L25.1549 115.581Z" fill="#5A92E5"/>
<path d="M41.5643 87.321L35.4462 83.0359L35.2415 83.3333L41.3596 87.6184L41.5643 87.321Z" fill="#5A92E5"/>
<path d="M62.6144 62.3415L57.3348 57.0375L57.0764 57.291L62.3609 62.5706L62.6144 62.3415Z" fill="#5A92E5"/>
<path d="M87.6672 41.3741L83.3626 35.256L83.0652 35.4607L87.3503 41.5789C87.4673 41.5106 87.5697 41.4375 87.6672 41.3741Z" fill="#5A92E5"/>
<path d="M115.967 25.0624L112.808 18.291L112.481 18.4421L115.64 25.2135L115.967 25.0624Z" fill="#5A92E5"/>
<path d="M146.674 13.9279L144.724 6.70801L144.378 6.80551L146.328 14.0205L146.674 13.9279Z" fill="#5A92E5"/>
<path d="M178.849 8.32652L178.201 0.887268L177.84 0.916518L178.493 8.36064L178.849 8.32652Z" fill="#5A92E5"/>
<path d="M0 194.795C0 194.917 0 195.034 0 195.156H16.8772C16.8772 195.034 16.8772 194.917 16.8772 194.795H0Z" fill="#5A92E5"/>
<path d="M19.6171 163.868L2.9982 160.943C2.97382 161.06 2.9592 161.177 2.9397 161.299L19.5586 164.224L19.6171 163.868Z" fill="#5A92E5"/>
<path d="M27.69 133.887L11.8316 128.115C11.7877 128.227 11.7536 128.344 11.7097 128.456L27.573 134.228L27.69 133.887Z" fill="#5A92E5"/>
<path d="M40.8916 105.788L26.2666 97.3489L26.0862 97.656L40.7112 106.1C40.7648 105.997 40.8282 105.895 40.8916 105.788Z" fill="#5A92E5"/>
<path d="M58.7584 80.4375L45.8251 69.576L45.5911 69.849L58.5196 80.6959C58.6024 80.6032 58.6804 80.5155 58.7584 80.4375Z" fill="#5A92E5"/>
<path d="M80.7349 58.5L69.888 45.591L69.615 45.825L80.4619 58.7535L80.7349 58.5Z" fill="#5A92E5"/>
<path d="M106.158 40.7355L97.7195 26.1105L97.4075 26.2957L105.846 40.9207C105.953 40.8622 106.056 40.7988 106.158 40.7355Z" fill="#5A92E5"/>
<path d="M134.292 27.651L128.515 11.7877L128.178 11.9096L133.95 27.7875L134.292 27.651Z" fill="#5A92E5"/>
<path d="M164.287 19.6804L161.362 3.05664L161.007 3.12002L163.932 19.7389L164.287 19.6804Z" fill="#5A92E5"/>
<path d="M195 17.0333H195.18V0.156006H194.82V17.0333H195Z" fill="#5A92E5"/>
<path d="M204.623 7.86823L205.018 0.409485L205.374 0.43386L204.984 7.89261L204.623 7.86823Z" fill="#060001"/>
<path d="M201.337 7.7464L201.62 0.282776H201.976L201.718 7.7464H201.337Z" fill="#060001"/>
<path d="M198.091 7.66839L198.218 0.19989H198.578L198.452 7.66839H198.091Z" fill="#060001"/>
<path d="M195 7.62939H194.82V0.160889H195.18V7.62939H195Z" fill="#060001"/>
<path d="M382.483 191.524L389.951 191.397C389.951 191.514 389.951 191.636 389.951 191.753L382.483 191.885C382.488 191.763 382.488 191.646 382.483 191.524Z" fill="#060001"/>
<path d="M382.39 188.253L389.854 187.995V188.35L382.39 188.614V188.253Z" fill="#060001"/>
<path d="M382.254 184.982L389.712 184.592C389.712 184.714 389.712 184.831 389.737 184.953L382.278 185.343C382.268 185.221 382.259 185.104 382.254 184.982Z" fill="#060001"/>
<path d="M382.044 181.716L389.512 181.199C389.512 181.316 389.512 181.438 389.512 181.555L382.063 182.076C382.059 181.959 382.054 181.837 382.044 181.716Z" fill="#060001"/>
<path d="M381.474 175.198L388.903 174.418C388.903 174.535 388.903 174.657 388.942 174.774L381.513 175.554C381.498 175.437 381.483 175.32 381.474 175.198Z" fill="#060001"/>
<path d="M381.098 171.946L388.537 171.034L388.581 171.395L381.166 172.302L381.098 171.946Z" fill="#060001"/>
<path d="M380.664 168.704L388.05 167.661C388.05 167.783 388.084 167.9 388.099 168.022L380.737 169.06C380.698 168.938 380.679 168.821 380.664 168.704Z" fill="#060001"/>
<path d="M380.182 165.467L387.562 164.287C387.562 164.404 387.606 164.521 387.621 164.643L380.25 165.823L380.182 165.467Z" fill="#060001"/>
<path d="M379.036 159.023L386.349 157.594C386.349 157.716 386.393 157.833 386.412 157.95L379.1 159.374C379.085 159.257 379.061 159.14 379.036 159.023Z" fill="#060001"/>
<path d="M378.383 155.815L385.695 154.26C385.72 154.377 385.744 154.494 385.773 154.616L378.461 156.166C378.436 156.049 378.407 155.932 378.383 155.815Z" fill="#060001"/>
<path d="M377.681 152.617L384.959 150.935C384.989 151.052 385.018 151.169 385.042 151.286L377.764 152.968C377.735 152.851 377.71 152.734 377.681 152.617Z" fill="#060001"/>
<path d="M376.906 149.438L384.15 147.63C384.179 147.747 384.208 147.864 384.233 147.981L376.989 149.789L376.906 149.438Z" fill="#060001"/>
<path d="M375.209 143.115L382.39 141.058L382.492 141.404L375.312 143.461C375.277 143.325 375.238 143.232 375.209 143.115Z" fill="#060001"/>
<path d="M374.273 139.981L381.42 137.797L381.522 138.143L374.4 140.327L374.273 139.981Z" fill="#060001"/>
<path d="M373.279 136.861L380.382 134.55C380.421 134.662 380.455 134.779 380.494 134.891L373.391 137.202C373.352 137.09 373.313 136.987 373.279 136.861Z" fill="#060001"/>
<path d="M372.236 133.76L379.299 131.323C379.338 131.435 379.382 131.547 379.421 131.664L372.357 134.101C372.318 133.984 372.275 133.872 372.236 133.76Z" fill="#060001"/>
<path d="M370.012 127.613L376.984 124.937C377.028 125.049 377.071 125.161 377.11 125.273L370.139 127.949C370.071 127.837 370.012 127.725 370.012 127.613Z" fill="#060001"/>
<path d="M368.779 124.571L375.706 121.773C375.75 121.885 375.794 121.997 375.843 122.109L368.916 124.907C368.867 124.8 368.823 124.683 368.779 124.571Z" fill="#060001"/>
<path d="M367.526 121.548L374.4 118.623L374.546 118.955L367.668 121.88C367.624 121.768 367.575 121.66 367.526 121.548Z" fill="#060001"/>
<path d="M366.215 118.55L373.04 115.513C373.089 115.62 373.132 115.733 373.181 115.845L366.356 118.882L366.215 118.55Z" fill="#060001"/>
<path d="M363.426 112.612L370.144 109.336L370.305 109.658L363.587 112.934L363.426 112.612Z" fill="#060001"/>
<path d="M361.969 109.688L368.628 106.275L368.789 106.597L362.135 110.009C362.076 109.917 362.022 109.809 361.969 109.688Z" fill="#060001"/>
<path d="M360.443 106.806L367.039 103.301C367.097 103.404 367.151 103.511 367.209 103.618L360.609 107.123L360.443 106.806Z" fill="#060001"/>
<path d="M358.873 103.935L365.406 100.313L365.581 100.63L359.049 104.252L358.873 103.935Z" fill="#060001"/>
<path d="M355.592 98.2751L361.993 94.4288L362.178 94.7359L355.778 98.5823L355.592 98.2751Z" fill="#060001"/>
<path d="M353.866 95.4915L360.204 91.533L360.394 91.8401L354.057 95.7986L353.866 95.4915Z" fill="#060001"/>
<path d="M352.102 92.7371L358.366 88.6714C358.434 88.7689 358.503 88.8713 358.566 88.9736L352.302 93.0394L352.102 92.7371Z" fill="#060001"/>
<path d="M350.298 90.012L356.489 85.8341L356.694 86.1315L350.513 90.3094L350.298 90.012Z" fill="#060001"/>
<path d="M346.525 84.669L352.565 80.2815L352.779 80.574L346.734 84.9615L346.525 84.669Z" fill="#060001"/>
<path d="M344.575 82.0414L350.537 77.5466L350.756 77.8294L344.794 82.3241L344.575 82.0414Z" fill="#060001"/>
<path d="M342.581 79.4625L348.47 74.8654L348.689 75.153L342.8 79.7501L342.581 79.4625Z" fill="#060001"/>
<path d="M340.533 76.8982L346.34 72.1938C346.413 72.2865 346.486 72.384 346.564 72.4766L340.763 77.1761L340.533 76.8982Z" fill="#060001"/>
<path d="M336.321 71.8916L341.957 66.9922C342.035 67.08 342.118 67.1678 342.196 67.2604L336.56 72.15C336.482 72.072 336.399 71.9843 336.321 71.8916Z" fill="#060001"/>
<path d="M334.147 69.4444L339.7 64.4475L339.939 64.7156L334.386 69.7125C334.308 69.6248 334.23 69.5321 334.147 69.4444Z" fill="#060001"/>
<path d="M331.929 67.041L337.394 61.9515L337.638 62.2147L332.173 67.3042L331.929 67.041Z" fill="#060001"/>
<path d="M329.672 64.6717L335.034 59.4847L335.283 59.7431L329.921 64.9301L329.672 64.6717Z" fill="#060001"/>
<path d="M325.045 60.0551L330.232 54.6926L330.491 54.9412L325.304 60.3037L325.045 60.0551Z" fill="#060001"/>
<path d="M322.667 57.8078L327.761 52.3478L328.024 52.5915L322.93 58.0564L322.667 57.8078Z" fill="#060001"/>
<path d="M320.253 55.5994L325.25 50.0516L325.518 50.2905L320.522 55.8383L320.253 55.5994Z" fill="#060001"/>
<path d="M317.806 53.43L322.725 47.775L322.998 48.0139L318.094 53.6494L317.806 53.43Z" fill="#060001"/>
<path d="M312.785 49.2375L317.484 43.4314L317.767 43.6556L313.063 49.4618L312.785 49.2375Z" fill="#060001"/>
<path d="M310.226 47.1997L314.828 41.3156L315.11 41.535L310.538 47.4191L310.226 47.1997Z" fill="#060001"/>
<path d="M307.613 45.2108L312.107 39.2487L312.395 39.4632L307.895 45.4302L307.613 45.2108Z" fill="#060001"/>
<path d="M304.995 43.2753L309.382 37.2303L309.675 37.4448L305.287 43.485L304.995 43.2753Z" fill="#060001"/>
<path d="M299.642 39.5167L303.82 33.3255L304.117 33.5254L299.939 39.7166L299.642 39.5167Z" fill="#060001"/>
<path d="M296.912 37.7179L300.978 31.4535L301.28 31.6534L297.209 37.9177L296.912 37.7179Z" fill="#060001"/>
<path d="M294.148 35.9677L298.106 29.6302L298.413 29.8252L294.455 36.1627L294.148 35.9677Z" fill="#060001"/>
<path d="M285.675 30.9904L289.297 24.4579L289.609 24.6334L285.987 31.1659L285.675 30.9904Z" fill="#060001"/>
<path d="M282.818 29.4352L286.323 22.8345L286.645 23.0051L283.135 29.601C283.033 29.5425 282.926 29.4888 282.818 29.4352Z" fill="#060001"/>
<path d="M279.918 27.9191L283.33 21.2599L283.652 21.4208L280.239 28.08C280.137 28.0215 280.025 27.9728 279.918 27.9191Z" fill="#060001"/>
<path d="M276.993 26.4615L280.264 19.7486L280.586 19.9095L277.314 26.6223L276.993 26.4615Z" fill="#060001"/>
<path d="M271.05 23.7023L274.087 16.8773L274.419 17.0235L271.377 23.8485L271.05 23.7023Z" fill="#060001"/>
<path d="M268.062 22.3958L270.987 15.5172L271.318 15.6585L268.393 22.5372L268.062 22.3958Z" fill="#060001"/>
<path d="M265.034 21.1526L267.832 14.2301L268.169 14.3617L265.366 21.2891L265.034 21.1526Z" fill="#060001"/>
<path d="M261.987 19.9875L264.669 13.0114L265.005 13.1381L262.324 20.1142L261.987 19.9875Z" fill="#060001"/>
<path d="M255.84 17.7255L258.278 10.6616L258.619 10.7835L256.181 17.8474L255.84 17.7255Z" fill="#060001"/>
<path d="M252.735 16.6969L255.045 9.59399L255.387 9.70612L253.081 16.809L252.735 16.6969Z" fill="#060001"/>
<path d="M249.6 15.717L251.784 8.57025C251.896 8.60925 252.013 8.6385 252.125 8.67263L249.941 15.8194L249.6 15.717Z" fill="#060001"/>
<path d="M246.48 14.7858L248.542 7.6001L248.888 7.70735L246.826 14.8882C246.714 14.8541 246.597 14.8151 246.48 14.7858Z" fill="#060001"/>
<path d="M240.157 13.1137L241.966 5.84998L242.317 5.93773L240.508 13.1869L240.157 13.1137Z" fill="#060001"/>
<path d="M236.979 12.3484L238.66 5.07001L239.011 5.14313L237.33 12.4264L236.979 12.3484Z" fill="#060001"/>
<path d="M233.781 11.6512L235.336 4.33875L235.687 4.41675L234.136 11.7292L233.781 11.6512Z" fill="#060001"/>
<path d="M230.587 11.0126L232.011 3.70013L232.362 3.76838L230.938 11.0809L230.587 11.0126Z" fill="#060001"/>
<path d="M224.133 9.88161L225.303 2.50574L225.659 2.56424L224.489 9.94011L224.133 9.88161Z" fill="#060001"/>
<path d="M220.896 9.41362L221.939 2.01825L222.295 2.067L221.252 9.46725L220.896 9.41362Z" fill="#060001"/>
<path d="M217.654 8.9944L218.566 1.57953L218.922 1.61853L218.01 9.0334L217.654 8.9944Z" fill="#060001"/>
<path d="M214.407 8.6239L215.187 1.1944L215.543 1.2334L214.763 8.6629L214.407 8.6239Z" fill="#060001"/>
<path d="M207.889 8.0779L208.411 0.624023L208.767 0.648398L208.25 8.0974L207.889 8.0779Z" fill="#060001"/>
<path d="M291.359 34.2566L295.21 27.8509L295.518 28.0361L291.671 34.4419L291.359 34.2566Z" fill="#060001"/>
<path d="M381.781 178.454L389.22 177.806C389.22 177.923 389.244 178.045 389.254 178.162L381.815 178.815C381.805 178.693 381.791 178.576 381.781 178.454Z" fill="#5A92E5"/>
<path d="M376.082 146.25L383.297 144.3C383.326 144.417 383.36 144.529 383.389 144.646L376.174 146.596C376.14 146.503 376.111 146.386 376.082 146.25Z" fill="#5A92E5"/>
<path d="M364.84 115.581L371.611 112.422C371.665 112.53 371.714 112.642 371.767 112.749L364.996 115.908C364.942 115.796 364.894 115.689 364.84 115.581Z" fill="#5A92E5"/>
<path d="M348.436 87.321L354.554 83.0359L354.759 83.3333L348.641 87.6184C348.563 87.5209 348.504 87.4185 348.436 87.321Z" fill="#5A92E5"/>
<path d="M327.385 62.3415L332.665 57.0375L332.923 57.291L327.639 62.5706L327.385 62.3415Z" fill="#5A92E5"/>
<path d="M302.333 41.3741L306.637 35.256L306.935 35.4607L302.65 41.5789C302.533 41.5106 302.43 41.4375 302.333 41.3741Z" fill="#5A92E5"/>
<path d="M274.033 25.0624L277.192 18.291L277.519 18.4421L274.36 25.2135L274.033 25.0624Z" fill="#5A92E5"/>
<path d="M243.326 13.9279L245.276 6.70801L245.622 6.80551L243.672 14.0205L243.326 13.9279Z" fill="#5A92E5"/>
<path d="M211.151 8.32652L211.799 0.887268L212.16 0.916518L211.507 8.36064L211.151 8.32652Z" fill="#5A92E5"/>
<path d="M390 194.795C390 194.917 390 195.034 390 195.156H373.123C373.123 195.034 373.123 194.917 373.123 194.795H390Z" fill="#5A92E5"/>
<path d="M370.383 163.868L387.002 160.943C387.002 161.06 387.041 161.177 387.06 161.299L370.442 164.224L370.383 163.868Z" fill="#5A92E5"/>
<path d="M362.305 133.887L378.168 128.115C378.212 128.227 378.246 128.344 378.29 128.456L362.427 134.228C362.388 134.116 362.349 134.004 362.305 133.887Z" fill="#5A92E5"/>
<path d="M349.108 105.788L363.733 97.3489L363.914 97.656L349.289 106.1C349.235 105.997 349.172 105.895 349.108 105.788Z" fill="#5A92E5"/>
<path d="M331.242 80.4375L344.175 69.576L344.409 69.849L331.481 80.6959C331.393 80.6032 331.315 80.5155 331.242 80.4375Z" fill="#5A92E5"/>
<path d="M309.265 58.5L320.112 45.5715L320.385 45.8055L309.563 58.7535L309.265 58.5Z" fill="#5A92E5"/>
<path d="M283.842 40.7355L292.281 26.1105L292.593 26.2957L284.149 40.9207L283.842 40.7355Z" fill="#5A92E5"/>
<path d="M255.708 27.651L261.48 11.7877L261.822 11.9096L256.05 27.7875L255.708 27.651Z" fill="#5A92E5"/>
<path d="M225.712 19.6804L228.637 3.05664L228.993 3.12002L226.068 19.7389L225.712 19.6804Z" fill="#5A92E5"/>
<path d="M195 17.0333H194.82V0.156006H195.18V17.0333H195Z" fill="#5A92E5"/>
<path d="M390 203.551V195.151C390 87.4575 302.694 0.156006 195 0.156006C87.3064 0.156006 0 87.4575 0 195.151V204.75H390V203.551ZM1.19925 203.551V195.151C1.20413 88.2911 88.14 1.35526 195 1.35526C301.86 1.35526 388.796 88.2911 388.801 195.151V203.551H1.19925Z" fill="#94D3D6"/>
<path d="M42.627 194.795C42.627 194.917 42.627 195.034 42.627 195.156H181.774C181.774 195.034 181.774 194.917 181.774 194.795H42.627Z" fill="#44ACB7"/>
<path d="M44.9767 168.339L44.9182 168.695L181.974 192.86C181.998 192.743 182.013 192.626 182.037 192.509L44.9767 168.339Z" fill="#44ACB7"/>
<path d="M51.8943 142.696C51.8553 142.808 51.8163 142.925 51.7725 143.037L182.564 190.642L182.695 190.305L51.8943 142.696Z" fill="#44ACB7"/>
<path d="M63.1896 118.667C63.1311 118.77 63.0678 118.872 63.0093 118.979L183.534 188.565L183.719 188.253L63.1896 118.667Z" fill="#44ACB7"/>
<path d="M78.4874 96.9735C78.4094 97.0613 78.3314 97.1539 78.2583 97.2465L184.84 186.713L185.079 186.44L78.4874 96.9735Z" fill="#44ACB7"/>
<path d="M97.2854 78.2438L97.0125 78.4875L186.454 185.07L186.727 184.841L97.2854 78.2438Z" fill="#44ACB7"/>
<path d="M119.033 63.0386L118.726 63.2239L188.312 183.749L188.624 183.568L119.033 63.0386Z" fill="#44ACB7"/>
<path d="M143.101 51.8553L142.76 51.9723L190.364 182.769L190.705 182.647L143.101 51.8553Z" fill="#44ACB7"/>
<path d="M168.743 45.0401L168.392 45.0986L192.563 182.159L192.918 182.096L168.743 45.0401Z" fill="#44ACB7"/>
<path d="M347.378 195.156C347.378 195.034 347.378 194.917 347.378 194.795H208.216C208.216 194.917 208.216 195.034 208.216 195.156H347.378Z" fill="#44ACB7"/>
<path d="M345.082 168.675L345.023 168.319L207.963 192.509C207.963 192.626 208.002 192.743 208.026 192.86L345.082 168.675Z" fill="#44ACB7"/>
<path d="M338.227 143.037C338.184 142.925 338.145 142.808 338.106 142.696L207.304 190.305L207.436 190.642L338.227 143.037Z" fill="#44ACB7"/>
<path d="M326.991 118.979C326.932 118.872 326.869 118.77 326.81 118.667L206.281 188.253L206.466 188.565L326.991 118.979Z" fill="#44ACB7"/>
<path d="M311.747 97.2465C311.673 97.1539 311.595 97.0613 311.517 96.9735L204.921 186.415C204.999 186.508 205.082 186.596 205.155 186.688L311.747 97.2465Z" fill="#44ACB7"/>
<path d="M292.988 78.4875L292.715 78.2535L203.288 184.84C203.385 184.914 203.478 184.992 203.565 185.07L292.988 78.4875Z" fill="#44ACB7"/>
<path d="M271.274 63.2239L270.967 63.0386L201.376 183.568L201.688 183.749L271.274 63.2239Z" fill="#44ACB7"/>
<path d="M247.241 51.9723L246.899 51.8553L199.295 182.647L199.636 182.769L247.241 51.9723Z" fill="#44ACB7"/>
<path d="M221.608 45.0986L221.257 45.0401L197.086 182.096L197.442 182.159L221.608 45.0986Z" fill="#44ACB7"/>
<path d="M194.82 181.935H195.18V42.783H194.82V181.935Z" fill="#44ACB7"/>
<path opacity="0.3" d="M195 57.1448C118.779 57.1448 56.9888 118.935 56.9888 195.156H79.8038C79.8038 131.537 131.376 79.95 195 79.95C258.624 79.95 310.201 131.528 310.201 195.146H333.011C333.011 118.95 271.221 57.1448 195 57.1448Z" fill="#8FDFEA"/>
<path opacity="0.2" d="M195 88.881C136.305 88.881 88.7251 136.461 88.7251 195.156H181.774C181.774 195.034 181.774 194.917 181.774 194.795C181.79 194.141 181.853 193.49 181.964 192.845C181.989 192.728 182.003 192.611 182.028 192.494C182.157 191.86 182.333 191.236 182.554 190.627L182.686 190.291C182.924 189.691 183.204 189.11 183.524 188.55L183.71 188.238C184.045 187.69 184.42 187.167 184.831 186.673L185.07 186.4C185.494 185.918 185.953 185.468 186.444 185.055L186.717 184.826C187.219 184.425 187.749 184.06 188.302 183.734L188.614 183.553C189.174 183.245 189.755 182.978 190.354 182.754L190.695 182.632C191.301 182.427 191.92 182.264 192.548 182.145L192.904 182.081C193.535 181.983 194.172 181.929 194.81 181.92H195.171C195.809 181.929 196.446 181.983 197.077 182.081L197.433 182.145C198.061 182.262 198.68 182.425 199.285 182.632L199.626 182.754C200.225 182.978 200.807 183.245 201.367 183.553L201.679 183.734C202.231 184.059 202.759 184.424 203.258 184.826C203.356 184.899 203.448 184.977 203.536 185.055C204.028 185.468 204.487 185.918 204.911 186.4C204.989 186.493 205.072 186.581 205.145 186.673C205.559 187.166 205.936 187.689 206.271 188.238L206.456 188.55C206.777 189.11 207.057 189.691 207.295 190.291L207.426 190.627C207.647 191.236 207.823 191.86 207.953 192.494C207.953 192.611 207.992 192.728 208.016 192.845C208.127 193.49 208.191 194.141 208.206 194.795C208.206 194.917 208.206 195.034 208.206 195.156H301.275C301.275 136.461 253.695 88.881 195 88.881Z" fill="#8FDFEA"/>
<path d="M195 42.7781H194.82V195.156H195.18V42.783L195 42.7781Z" fill="#13A2E2"/>
<path d="M347.373 194.795H42.627C42.627 194.917 42.627 195.034 42.627 195.156H347.378C347.378 195.034 347.373 194.917 347.373 194.795Z" fill="#13A2E2"/>
</g>
<defs>
<clipPath id="clip0_38_266">
<rect width="390" height="204.75" fill="white"/>
</clipPath>
</defs>
</svg>
