<svg width="400" height="51" viewBox="0 0 400 51" fill="none" xmlns="http://www.w3.org/2000/svg">
<g clip-path="url(#clip0_38_571)">
<path opacity="0.8" d="M0 0L376.421 0C382.675 0 388.672 2.4842 393.094 6.90611C397.516 11.328 400 17.3254 400 23.5789V26.9474C400 33.2009 397.516 39.1983 393.094 43.6202C388.672 48.0421 382.675 50.5263 376.421 50.5263L0 50.5263L0 0Z" fill="white"/>
<path d="M376.421 0L0 0L0 50.5263L376.421 50.5263C382.675 50.5263 388.672 48.0421 393.094 43.6202C397.516 39.1983 400 33.2009 400 26.9474V23.5789C400 17.3254 397.516 11.328 393.094 6.90611C388.672 2.4842 382.675 0 376.421 0V0ZM399.368 26.9474C399.362 33.0313 396.942 38.8642 392.64 43.1662C388.338 47.4682 382.505 49.8881 376.421 49.8947L0.631579 49.8947L0.631579 0.631579L376.421 0.631579C382.505 0.638266 388.338 3.05808 392.64 7.36009C396.942 11.6621 399.362 17.495 399.368 23.5789V26.9474Z" fill="#4CC0CC"/>
<path d="M153.79 33.5284C153.572 33.4179 153.331 33.3602 153.086 33.36C152.898 33.3556 152.712 33.4012 152.547 33.4922C152.382 33.5832 152.244 33.7163 152.147 33.8779C151.901 34.301 151.782 34.7866 151.806 35.2758C151.889 35.0837 152.029 34.9215 152.206 34.8109C152.384 34.7003 152.591 34.6466 152.8 34.6568C152.968 34.6495 153.135 34.6784 153.291 34.7416C153.446 34.8048 153.586 34.9009 153.701 35.0232C153.934 35.2903 154.055 35.6374 154.038 35.9916C154.05 36.3704 153.914 36.739 153.659 37.019C153.538 37.1549 153.388 37.2629 153.221 37.3355C153.054 37.4082 152.873 37.4439 152.691 37.44C152.488 37.449 152.287 37.4051 152.107 37.3129C151.927 37.2206 151.774 37.083 151.663 36.9137C151.406 36.4776 151.283 35.9752 151.31 35.4695C151.284 34.8377 151.445 34.2124 151.773 33.6716C151.908 33.4519 152.098 33.2716 152.325 33.1489C152.552 33.0262 152.807 32.9654 153.065 32.9726C153.309 32.9619 153.552 33.0051 153.777 33.099L153.79 33.5284ZM151.84 35.9411C151.831 36.2196 151.917 36.4928 152.084 36.7158C152.158 36.8122 152.252 36.8911 152.359 36.9465C152.467 37.0019 152.586 37.0326 152.707 37.0362C152.828 37.0399 152.948 37.0164 153.059 36.9675C153.17 36.9186 153.268 36.8456 153.347 36.7537C153.508 36.5551 153.591 36.3056 153.583 36.0505C153.597 35.7863 153.515 35.5259 153.352 35.3179C153.273 35.2308 153.176 35.1622 153.067 35.117C152.959 35.0719 152.842 35.0514 152.724 35.0568C152.609 35.055 152.495 35.0769 152.388 35.1211C152.282 35.1652 152.185 35.2308 152.105 35.3137C152.02 35.394 151.952 35.4913 151.906 35.5994C151.861 35.7074 151.838 35.8238 151.84 35.9411Z" fill="#231815"/>
<path d="M177.061 33.1705L175.339 37.3558H174.859L176.484 33.4568H174.291V33.0358H177.061V33.1705Z" fill="#231815"/>
<path d="M12.08 35.28C12.0428 34.6796 12.1725 34.0807 12.4547 33.5495C12.5642 33.3638 12.7217 33.2112 12.9107 33.1074C13.0996 33.0037 13.313 32.9528 13.5284 32.96C14.4238 32.96 14.8729 33.6982 14.8758 35.1747C14.9132 35.7598 14.7847 36.3436 14.5052 36.8589C14.3955 37.0441 14.2378 37.1962 14.0489 37.2992C13.8599 37.4022 13.6466 37.4523 13.4315 37.4442C13.2283 37.4508 13.0272 37.4017 12.8498 37.3023C12.6724 37.2028 12.5256 37.0568 12.4252 36.88C12.1648 36.3887 12.0453 35.835 12.08 35.28ZM12.5558 35.2547C12.5558 36.4393 12.8645 37.0316 13.4821 37.0316C14.0996 37.0316 14.4056 36.4309 14.4 35.2295C14.4 33.9832 14.101 33.36 13.5031 33.36C12.9052 33.36 12.5894 33.9916 12.5558 35.2547Z" fill="#231815"/>
<path d="M38.3159 37.3558H35.8822V36.9348H36.8632V33.5411L35.8569 33.8442V33.3937L37.3306 32.9348V36.939H38.3159V37.3558Z" fill="#231815"/>
<path d="M60.8885 37.3558H58.3032V36.9347L59.5664 35.6716C59.8609 35.4009 60.1198 35.0938 60.3369 34.7579C60.4322 34.5716 60.4813 34.3651 60.4801 34.1558C60.4866 34.0481 60.4709 33.9401 60.4339 33.8387C60.397 33.7373 60.3396 33.6446 60.2653 33.5663C60.0916 33.4205 59.8686 33.3467 59.6422 33.36C59.2195 33.3729 58.8188 33.5513 58.5264 33.8568V33.36C58.8549 33.0864 59.2694 32.9374 59.6969 32.9389C60.0236 32.9233 60.3435 33.035 60.5895 33.2505C60.703 33.3583 60.7919 33.4894 60.85 33.6347C60.9082 33.7801 60.9342 33.9363 60.9264 34.0926C60.9249 34.3758 60.8478 34.6534 60.7032 34.8968C60.4662 35.2678 60.1833 35.6073 59.8611 35.9074L58.8548 36.901H60.8843L60.8885 37.3558Z" fill="#231815"/>
<path d="M81.6169 36.6779C81.8979 36.909 82.2511 37.0342 82.6148 37.0316C82.8767 37.043 83.1344 36.9626 83.3433 36.8042C83.4351 36.7293 83.508 36.6339 83.5563 36.5257C83.6046 36.4175 83.6268 36.2994 83.6212 36.1811C83.6212 35.6084 83.2001 35.3179 82.4043 35.3179H82.0464V34.9179H82.3875C83.1075 34.9179 83.4696 34.6484 83.4696 34.1095C83.4696 33.5705 83.1917 33.36 82.6275 33.36C82.319 33.3664 82.022 33.4778 81.7854 33.6758V33.2084C82.0819 33.0374 82.4199 32.9514 82.7622 32.96C83.0678 32.949 83.367 33.0493 83.6043 33.2421C83.7146 33.3325 83.8024 33.4472 83.8608 33.5773C83.9193 33.7073 83.9468 33.8491 83.9412 33.9916C83.9537 34.2486 83.8728 34.5015 83.7134 34.7036C83.5539 34.9056 83.3267 35.043 83.0738 35.0905C83.3524 35.1033 83.6164 35.2188 83.8148 35.4148C83.9073 35.5083 83.98 35.6195 84.0285 35.7418C84.077 35.864 84.1003 35.9948 84.0969 36.1263C84.1039 36.3047 84.0695 36.4823 83.9965 36.6451C83.9234 36.808 83.8137 36.9518 83.6759 37.0653C83.3661 37.3094 82.9794 37.4348 82.5854 37.419C82.247 37.4364 81.9108 37.356 81.6169 37.1874V36.6779Z" fill="#231815"/>
<path d="M107.326 36.2105H106.766V37.3726H106.303V36.2105H104.261V35.9032L106.194 33.0484H106.766V35.8274H107.326V36.2105ZM106.303 35.8274V33.9074C106.303 33.7726 106.303 33.6253 106.303 33.4569C106.255 33.5711 106.201 33.6822 106.139 33.7895L104.783 35.8105L106.303 35.8274Z" fill="#231815"/>
<path d="M127.849 36.7453C128.113 36.9266 128.425 37.0262 128.745 37.0316C129.019 37.0425 129.286 36.9475 129.491 36.7663C129.586 36.6773 129.661 36.5688 129.71 36.4481C129.76 36.3275 129.782 36.1976 129.777 36.0674C129.784 35.9401 129.761 35.8129 129.712 35.6955C129.662 35.5781 129.587 35.4734 129.491 35.3895C129.248 35.2116 128.949 35.1265 128.649 35.1495C128.535 35.1495 128.312 35.1495 127.971 35.1832V33.0316H130.042V33.4526H128.421V34.7453H128.792C129.177 34.7224 129.557 34.844 129.857 35.0863C129.989 35.2083 130.092 35.3581 130.159 35.5248C130.226 35.6916 130.255 35.8712 130.244 36.0505C130.253 36.2403 130.22 36.4296 130.147 36.605C130.075 36.7805 129.964 36.9376 129.823 37.0653C129.517 37.323 129.124 37.4553 128.724 37.4358C128.419 37.4566 128.114 37.3956 127.84 37.259L127.849 36.7453Z" fill="#231815"/>
<path d="M314.24 37.3558H311.81V36.9347H312.796V33.541L311.785 33.8442V33.3937L313.259 32.9347V36.9389H314.24V37.3558Z" fill="#231815"/>
<path d="M314.985 36.6779C315.266 36.909 315.619 37.0342 315.983 37.0316C316.245 37.043 316.503 36.9626 316.712 36.8042C316.803 36.7293 316.876 36.6339 316.925 36.5257C316.973 36.4175 316.995 36.2994 316.99 36.1811C316.99 35.6084 316.569 35.3179 315.773 35.3179H315.415V34.9179H315.756C316.476 34.9179 316.838 34.6484 316.838 34.1095C316.838 33.5705 316.56 33.36 315.996 33.36C315.687 33.3664 315.39 33.4778 315.154 33.6758V33.2084C315.449 33.0379 315.786 32.952 316.126 32.96C316.432 32.949 316.731 33.0493 316.968 33.2421C317.078 33.3331 317.165 33.448 317.224 33.5779C317.282 33.7078 317.31 33.8493 317.305 33.9916C317.318 34.2486 317.237 34.5015 317.078 34.7036C316.918 34.9056 316.691 35.043 316.438 35.0905C316.716 35.1041 316.98 35.2195 317.179 35.4148C317.272 35.5083 317.344 35.6195 317.393 35.7418C317.441 35.864 317.464 35.9948 317.461 36.1263C317.469 36.3048 317.435 36.4826 317.362 36.6456C317.288 36.8085 317.178 36.9522 317.04 37.0653C316.732 37.3097 316.347 37.4353 315.954 37.419C315.615 37.4364 315.279 37.356 314.985 37.1874V36.6779Z" fill="#231815"/>
<path d="M336.863 37.3558H334.438V36.9347H335.419V33.541L334.413 33.8442V33.3937L335.886 32.9347V36.9389H336.863V37.3558Z" fill="#231815"/>
<path d="M340.32 36.2105H339.76V37.3726H339.297V36.2105H337.263V35.9032L339.196 33.0484H339.768V35.8274H340.328L340.32 36.2105ZM339.297 35.8274V33.9074C339.297 33.7726 339.297 33.6253 339.297 33.4569C339.249 33.5711 339.194 33.6822 339.133 33.7895L337.773 35.8105L339.297 35.8274Z" fill="#231815"/>
<path d="M359.655 37.3558H357.229V36.9347H358.21V33.541L357.204 33.8442V33.3937L358.678 32.9347V36.9389H359.655V37.3558Z" fill="#231815"/>
<path d="M360.505 36.7453C360.77 36.926 361.082 37.0255 361.402 37.0316C361.676 37.0439 361.943 36.9487 362.147 36.7663C362.243 36.678 362.319 36.5696 362.368 36.4488C362.418 36.328 362.44 36.1978 362.434 36.0674C362.44 35.9401 362.418 35.8129 362.368 35.6955C362.319 35.5781 362.243 35.4734 362.147 35.3895C361.904 35.2116 361.605 35.1265 361.305 35.1495C361.191 35.1495 360.968 35.1495 360.627 35.1832V33.0316H362.699V33.4526H361.074V34.7453H361.44C361.826 34.7229 362.207 34.8444 362.509 35.0863C362.64 35.209 362.742 35.3591 362.808 35.5257C362.875 35.6924 362.903 35.8715 362.893 36.0505C362.901 36.2403 362.868 36.4296 362.796 36.605C362.723 36.7805 362.612 36.9376 362.471 37.0653C362.165 37.323 361.772 37.4553 361.373 37.4358C361.067 37.4566 360.762 37.3956 360.488 37.259L360.505 36.7453Z" fill="#231815"/>
<path d="M198.151 35.0779C197.929 35.0033 197.735 34.8625 197.595 34.6743C197.455 34.4861 197.376 34.2597 197.368 34.0253C197.364 33.8775 197.395 33.7308 197.458 33.597C197.521 33.4632 197.614 33.346 197.73 33.2547C197.987 33.0533 198.306 32.9489 198.631 32.96C198.926 32.9537 199.213 33.0505 199.444 33.2337C199.551 33.3212 199.636 33.4321 199.693 33.5576C199.749 33.6832 199.777 33.8201 199.772 33.9579C199.766 34.2029 199.686 34.4404 199.543 34.6398C199.401 34.8393 199.202 34.9918 198.973 35.0779C199.237 35.1412 199.473 35.2904 199.644 35.5022C199.814 35.714 199.91 35.9765 199.916 36.2484C199.921 36.4097 199.888 36.57 199.82 36.7163C199.752 36.8626 199.651 36.9908 199.524 37.0905C199.218 37.3097 198.847 37.4181 198.471 37.3979C198.143 37.4073 197.823 37.2965 197.57 37.0863C197.454 36.9865 197.361 36.8615 197.299 36.7209C197.237 36.5802 197.207 36.4273 197.213 36.2737C197.214 35.9966 197.307 35.7277 197.477 35.5086C197.647 35.2894 197.884 35.1322 198.151 35.0611V35.0779ZM198.53 35.3137C197.97 35.5369 197.688 35.8611 197.688 36.2821C197.683 36.3865 197.703 36.4907 197.746 36.5859C197.789 36.6811 197.855 36.7646 197.937 36.8295C198.121 36.9663 198.347 37.0361 198.577 37.0274C198.799 37.0358 199.016 36.9657 199.191 36.8295C199.271 36.7661 199.334 36.6851 199.376 36.5931C199.419 36.501 199.439 36.4003 199.436 36.299C199.438 35.8611 199.137 35.5326 198.53 35.3137ZM199.293 34.0169C199.297 33.9276 199.281 33.8386 199.248 33.7558C199.214 33.673 199.164 33.5983 199.099 33.5369C198.956 33.4161 198.772 33.3544 198.585 33.3642C198.398 33.3596 198.215 33.4241 198.071 33.5453C198.001 33.5999 197.945 33.6703 197.907 33.7508C197.869 33.8312 197.85 33.9195 197.853 34.0084C197.853 34.3916 198.088 34.6779 198.564 34.8758C199.048 34.6695 199.293 34.3832 199.293 34.0169Z" fill="#231815"/>
<path d="M220.514 36.8295C220.746 36.9612 221.009 37.0309 221.276 37.0316C221.457 37.0375 221.637 36.9964 221.798 36.9123C221.959 36.8282 222.095 36.7039 222.194 36.5516C222.439 36.1392 222.555 35.6623 222.526 35.1832C222.439 35.3633 222.3 35.513 222.126 35.6129C221.953 35.7127 221.753 35.7581 221.554 35.7432C221.382 35.7506 221.211 35.7209 221.052 35.6563C220.893 35.5916 220.749 35.4934 220.632 35.3684C220.393 35.1051 220.266 34.7593 220.278 34.4042C220.265 34.0254 220.401 33.6567 220.657 33.3768C220.783 33.2389 220.938 33.1298 221.11 33.0571C221.282 32.9845 221.468 32.9499 221.655 32.9558C221.851 32.9469 222.046 32.9892 222.221 33.0785C222.396 33.1678 222.545 33.3011 222.653 33.4653C222.91 33.9087 223.03 34.4187 222.998 34.9305C223.034 35.5742 222.876 36.214 222.543 36.7663C222.404 36.9779 222.211 37.1496 221.986 37.2648C221.76 37.3799 221.508 37.4345 221.255 37.4232C221 37.4283 220.748 37.3795 220.514 37.28V36.8295ZM220.754 34.3284C220.74 34.5913 220.826 34.8497 220.994 35.0526C221.104 35.1929 221.256 35.2946 221.428 35.3428C221.6 35.3911 221.782 35.3836 221.95 35.3212C222.117 35.2589 222.26 35.1451 222.358 34.9962C222.457 34.8472 222.505 34.6709 222.497 34.4926C222.508 34.2041 222.424 33.92 222.257 33.6842C222.184 33.5875 222.09 33.5083 221.983 33.4525C221.875 33.3967 221.756 33.3656 221.635 33.3616C221.514 33.3576 221.394 33.3807 221.283 33.4292C221.172 33.4777 221.073 33.5505 220.994 33.6421C220.833 33.834 220.747 34.078 220.754 34.3284Z" fill="#231815"/>
<path d="M244.476 37.3558H242.046V36.9347H243.032V33.541L242.025 33.8442V33.3937L243.495 32.9347V36.9389H244.476V37.3558Z" fill="#231815"/>
<path d="M245.09 35.28C245.053 34.6796 245.183 34.0807 245.465 33.5495C245.575 33.3638 245.732 33.2112 245.921 33.1074C246.11 33.0037 246.323 32.9528 246.539 32.96C247.44 32.96 247.886 33.6968 247.886 35.1747C247.923 35.7592 247.796 36.3424 247.52 36.8589C247.409 37.0441 247.251 37.1961 247.061 37.2991C246.871 37.402 246.658 37.4522 246.442 37.4442C246.239 37.4509 246.039 37.4019 245.862 37.3024C245.685 37.2029 245.539 37.0568 245.44 36.88C245.178 36.3891 245.057 35.8354 245.09 35.28ZM245.566 35.2547C245.566 36.4393 245.875 37.0316 246.493 37.0316C247.11 37.0316 247.416 36.4309 247.41 35.2295C247.41 33.9832 247.111 33.36 246.514 33.36C245.916 33.36 245.6 33.9916 245.566 35.2547Z" fill="#231815"/>
<path d="M267.478 37.3558H265.048V36.9347H266.03V33.541L265.023 33.8442V33.3937L266.497 32.9347V36.9389H267.478V37.3558Z" fill="#231815"/>
<path d="M270.787 37.3558H268.362V36.9347H269.343V33.541L268.337 33.8442V33.3937L269.811 32.9347V36.9389H270.787V37.3558Z" fill="#231815"/>
<path d="M291.023 37.3558H288.598V36.9347H289.579V33.541L288.573 33.8442V33.3937L290.046 32.9347V36.9389H291.023V37.3558Z" fill="#231815"/>
<path d="M294.253 37.3558H291.667V36.9347L292.931 35.6716C293.223 35.3999 293.48 35.093 293.697 34.7579C293.792 34.5716 293.841 34.3651 293.84 34.1558C293.847 34.0481 293.831 33.9401 293.794 33.8387C293.757 33.7373 293.7 33.6446 293.625 33.5663C293.452 33.4201 293.229 33.3463 293.002 33.36C292.582 33.3762 292.184 33.556 291.895 33.861V33.36C292.223 33.0864 292.638 32.9374 293.065 32.9389C293.392 32.9233 293.712 33.035 293.958 33.2505C294.072 33.3576 294.162 33.4886 294.22 33.6341C294.278 33.7796 294.304 33.9362 294.295 34.0926C294.293 34.3751 294.217 34.6523 294.076 34.8968C293.837 35.2664 293.554 35.6058 293.234 35.9074L292.211 36.9179H294.24L294.253 37.3558Z" fill="#231815"/>
<path d="M131.747 0.18103L131.537 0.18103V6.31577H131.747V0.18103Z" fill="#9E9D9D"/>
<path d="M134.059 0.18103L133.848 0.18103V6.31577H134.059V0.18103Z" fill="#9E9D9D"/>
<path d="M136.375 0.18103L136.164 0.18103V6.31577H136.375V0.18103Z" fill="#9E9D9D"/>
<path d="M138.686 0.18103L138.476 0.18103V6.31577H138.686V0.18103Z" fill="#9E9D9D"/>
<path d="M143.318 0.18103L143.107 0.18103V6.31577H143.318V0.18103Z" fill="#9E9D9D"/>
<path d="M145.629 0.18103L145.419 0.18103V6.31577H145.629V0.18103Z" fill="#9E9D9D"/>
<path d="M147.945 0.18103L147.735 0.18103V6.31577H147.945V0.18103Z" fill="#9E9D9D"/>
<path d="M150.257 0.18103L150.046 0.18103V6.31577H150.257V0.18103Z" fill="#9E9D9D"/>
<path d="M154.884 0.18103L154.674 0.18103V6.31577H154.884V0.18103Z" fill="#9E9D9D"/>
<path d="M157.2 0.18103L156.99 0.18103V6.31577H157.2V0.18103Z" fill="#9E9D9D"/>
<path d="M159.516 0.18103L159.305 0.18103V6.31577H159.516V0.18103Z" fill="#9E9D9D"/>
<path d="M161.827 0.18103L161.617 0.18103V6.31577H161.827V0.18103Z" fill="#9E9D9D"/>
<path d="M166.455 0.18103L166.244 0.18103V6.31577H166.455V0.18103Z" fill="#9E9D9D"/>
<path d="M168.771 0.18103L168.56 0.18103V6.31577H168.771V0.18103Z" fill="#9E9D9D"/>
<path d="M171.082 0.18103L170.872 0.18103V6.31577H171.082V0.18103Z" fill="#9E9D9D"/>
<path d="M173.398 0.18103L173.188 0.18103V6.31577H173.398V0.18103Z" fill="#9E9D9D"/>
<path d="M39.1873 0.18103L38.9768 0.18103V6.31577H39.1873V0.18103Z" fill="#9E9D9D"/>
<path d="M41.5033 0.18103L41.2927 0.18103V6.31577H41.5033V0.18103Z" fill="#9E9D9D"/>
<path d="M43.8148 0.18103L43.6042 0.18103V6.31577H43.8148V0.18103Z" fill="#9E9D9D"/>
<path d="M46.1304 0.18103L45.9199 0.18103V6.31577H46.1304V0.18103Z" fill="#9E9D9D"/>
<path d="M50.7579 0.18103L50.5474 0.18103V6.31577H50.7579V0.18103Z" fill="#9E9D9D"/>
<path d="M53.0738 0.18103L52.8633 0.18103V6.31577H53.0738V0.18103Z" fill="#9E9D9D"/>
<path d="M55.3853 0.18103L55.1748 0.18103V6.31577H55.3853V0.18103Z" fill="#9E9D9D"/>
<path d="M57.701 0.18103L57.4905 0.18103V6.31577H57.701V0.18103Z" fill="#9E9D9D"/>
<path d="M62.3284 0.18103L62.1179 0.18103V6.31577H62.3284V0.18103Z" fill="#9E9D9D"/>
<path d="M64.64 0.18103L64.4294 0.18103V6.31577H64.64V0.18103Z" fill="#9E9D9D"/>
<path d="M66.9559 0.18103L66.7454 0.18103V6.31577H66.9559V0.18103Z" fill="#9E9D9D"/>
<path d="M69.2674 0.18103L69.0569 0.18103V6.31577H69.2674V0.18103Z" fill="#9E9D9D"/>
<path d="M73.899 0.18103L73.6885 0.18103V6.31577H73.899V0.18103Z" fill="#9E9D9D"/>
<path d="M76.2105 0.18103L76 0.18103V6.31577H76.2105V0.18103Z" fill="#9E9D9D"/>
<path d="M78.5262 0.18103L78.3157 0.18103V6.31577H78.5262V0.18103Z" fill="#9E9D9D"/>
<path d="M80.838 0.18103L80.6274 0.18103V6.31577H80.838V0.18103Z" fill="#9E9D9D"/>
<path d="M85.4652 0.18103L85.2546 0.18103V6.31577H85.4652V0.18103Z" fill="#9E9D9D"/>
<path d="M87.7811 0.18103L87.5706 0.18103V6.31577H87.7811V0.18103Z" fill="#9E9D9D"/>
<path d="M90.0968 0.18103L89.8862 0.18103V6.31577H90.0968V0.18103Z" fill="#9E9D9D"/>
<path d="M92.4085 0.18103L92.198 0.18103V6.31577H92.4085V0.18103Z" fill="#9E9D9D"/>
<path d="M97.0357 0.18103L96.8252 0.18103V6.31577H97.0357V0.18103Z" fill="#9E9D9D"/>
<path d="M99.3516 0.18103L99.1411 0.18103V6.31577H99.3516V0.18103Z" fill="#9E9D9D"/>
<path d="M101.663 0.18103L101.453 0.18103V6.31577H101.663V0.18103Z" fill="#9E9D9D"/>
<path d="M103.979 0.18103L103.768 0.18103V6.31577H103.979V0.18103Z" fill="#9E9D9D"/>
<path d="M108.606 0.18103L108.396 0.18103V6.31577H108.606V0.18103Z" fill="#9E9D9D"/>
<path d="M110.922 0.18103L110.712 0.18103V6.31577H110.922V0.18103Z" fill="#9E9D9D"/>
<path d="M113.234 0.18103L113.023 0.18103V6.31577H113.234V0.18103Z" fill="#9E9D9D"/>
<path d="M115.549 0.18103L115.339 0.18103V6.31577H115.549V0.18103Z" fill="#9E9D9D"/>
<path d="M120.177 0.18103L119.966 0.18103V6.31577H120.177V0.18103Z" fill="#9E9D9D"/>
<path d="M122.488 0.18103L122.278 0.18103V6.31577H122.488V0.18103Z" fill="#9E9D9D"/>
<path d="M124.804 0.18103L124.594 0.18103V6.31577H124.804V0.18103Z" fill="#9E9D9D"/>
<path d="M127.12 0.18103L126.909 0.18103V6.31577H127.12V0.18103Z" fill="#9E9D9D"/>
<path d="M16.0506 0.18103L15.8401 0.18103L15.8401 6.31577H16.0506V0.18103Z" fill="#9E9D9D"/>
<path d="M18.3621 0.18103L18.1516 0.18103V6.31577H18.3621V0.18103Z" fill="#9E9D9D"/>
<path d="M20.6778 0.18103L20.4673 0.18103V6.31577H20.6778V0.18103Z" fill="#9E9D9D"/>
<path d="M22.9896 0.18103L22.7791 0.18103V6.31577H22.9896V0.18103Z" fill="#9E9D9D"/>
<path d="M27.6168 0.18103L27.4062 0.18103V6.31577H27.6168V0.18103Z" fill="#9E9D9D"/>
<path d="M29.9327 0.18103L29.7222 0.18103V6.31577H29.9327V0.18103Z" fill="#9E9D9D"/>
<path d="M32.2442 0.18103L32.0337 0.18103V6.31577H32.2442V0.18103Z" fill="#9E9D9D"/>
<path d="M34.5599 0.18103L34.3494 0.18103V6.31577H34.5599V0.18103Z" fill="#9E9D9D"/>
<path d="M293.722 0L293.512 0V6.13474H293.722V0Z" fill="#9E9D9D"/>
<path d="M296.038 0L295.827 0V6.13474H296.038V0Z" fill="#9E9D9D"/>
<path d="M298.349 0L298.139 0V6.13474H298.349V0Z" fill="#9E9D9D"/>
<path d="M300.665 0L300.455 0V6.13474H300.665V0Z" fill="#9E9D9D"/>
<path d="M305.293 0L305.082 0V6.13474H305.293V0Z" fill="#9E9D9D"/>
<path d="M307.608 0L307.398 0V6.13474H307.608V0Z" fill="#9E9D9D"/>
<path d="M309.92 0L309.709 0V6.13474H309.92V0Z" fill="#9E9D9D"/>
<path d="M312.236 0L312.025 0V6.13474H312.236V0Z" fill="#9E9D9D"/>
<path d="M316.863 0L316.653 0V6.13474H316.863V0Z" fill="#9E9D9D"/>
<path d="M319.175 0L318.964 0V6.13474H319.175V0Z" fill="#9E9D9D"/>
<path d="M321.491 0L321.28 0V6.13474H321.491V0Z" fill="#9E9D9D"/>
<path d="M323.806 0L323.596 0V6.13474H323.806V0Z" fill="#9E9D9D"/>
<path d="M328.434 0L328.223 0V6.13474H328.434V0Z" fill="#9E9D9D"/>
<path d="M330.745 0L330.535 0V6.13474H330.745V0Z" fill="#9E9D9D"/>
<path d="M333.061 0L332.851 0V6.13474H333.061V0Z" fill="#9E9D9D"/>
<path d="M335.373 0L335.162 0V6.13474H335.373V0Z" fill="#9E9D9D"/>
<path d="M201.166 0L200.956 0V6.13474H201.166V0Z" fill="#9E9D9D"/>
<path d="M203.478 0L203.267 0V6.13474H203.478V0Z" fill="#9E9D9D"/>
<path d="M205.794 0L205.583 0V6.13474H205.794V0Z" fill="#9E9D9D"/>
<path d="M208.105 0L207.895 0V6.13474H208.105V0Z" fill="#9E9D9D"/>
<path d="M212.737 0L212.526 0V6.13474H212.737V0Z" fill="#9E9D9D"/>
<path d="M215.048 0L214.838 0V6.13474H215.048V0Z" fill="#9E9D9D"/>
<path d="M217.364 0L217.154 0V6.13474H217.364V0Z" fill="#9E9D9D"/>
<path d="M219.676 0L219.465 0V6.13474H219.676V0Z" fill="#9E9D9D"/>
<path d="M224.303 0L224.093 0V6.13474H224.303V0Z" fill="#9E9D9D"/>
<path d="M226.619 0L226.408 0V6.13474H226.619V0Z" fill="#9E9D9D"/>
<path d="M228.93 0L228.72 0V6.13474H228.93V0Z" fill="#9E9D9D"/>
<path d="M231.246 0L231.036 0V6.13474H231.246V0Z" fill="#9E9D9D"/>
<path d="M235.874 0L235.663 0V6.13474H235.874V0Z" fill="#9E9D9D"/>
<path d="M238.19 0L237.979 0V6.13474H238.19V0Z" fill="#9E9D9D"/>
<path d="M240.501 0L240.291 0V6.13474H240.501V0Z" fill="#9E9D9D"/>
<path d="M242.817 0L242.606 0V6.13474H242.817V0Z" fill="#9E9D9D"/>
<path d="M247.444 0L247.234 0V6.13474H247.444V0Z" fill="#9E9D9D"/>
<path d="M249.76 0L249.55 0V6.13474H249.76V0Z" fill="#9E9D9D"/>
<path d="M252.072 0L251.861 0V6.13474H252.072V0Z" fill="#9E9D9D"/>
<path d="M254.387 0L254.177 0V6.13474H254.387V0Z" fill="#9E9D9D"/>
<path d="M259.015 0L258.804 0V6.13474H259.015V0Z" fill="#9E9D9D"/>
<path d="M261.326 0L261.116 0V6.13474H261.326V0Z" fill="#9E9D9D"/>
<path d="M263.642 0L263.432 0V6.13474H263.642V0Z" fill="#9E9D9D"/>
<path d="M265.954 0L265.743 0V6.13474H265.954V0Z" fill="#9E9D9D"/>
<path d="M270.585 0L270.375 0V6.13474H270.585V0Z" fill="#9E9D9D"/>
<path d="M272.897 0L272.686 0V6.13474H272.897V0Z" fill="#9E9D9D"/>
<path d="M275.213 0L275.002 0V6.13474H275.213V0Z" fill="#9E9D9D"/>
<path d="M277.524 0L277.314 0V6.13474H277.524V0Z" fill="#9E9D9D"/>
<path d="M282.151 0L281.941 0V6.13474H282.151V0Z" fill="#9E9D9D"/>
<path d="M284.467 0L284.257 0V6.13474H284.467V0Z" fill="#9E9D9D"/>
<path d="M286.783 0L286.573 0V6.13474H286.783V0Z" fill="#9E9D9D"/>
<path d="M289.095 0L288.884 0V6.13474H289.095V0Z" fill="#9E9D9D"/>
<path d="M178.025 0L177.815 0V6.13474H178.025V0Z" fill="#9E9D9D"/>
<path d="M180.341 0L180.131 0V6.13474H180.341V0Z" fill="#9E9D9D"/>
<path d="M182.653 0L182.442 0V6.13474H182.653V0Z" fill="#9E9D9D"/>
<path d="M184.968 0L184.758 0V6.13474H184.968V0Z" fill="#9E9D9D"/>
<path d="M189.596 0L189.385 0V6.13474H189.596V0Z" fill="#9E9D9D"/>
<path d="M191.907 0L191.697 0V6.13474H191.907V0Z" fill="#9E9D9D"/>
<path d="M194.223 0L194.013 0V6.13474H194.223V0Z" fill="#9E9D9D"/>
<path d="M196.539 0L196.328 0V6.13474H196.539V0Z" fill="#9E9D9D"/>
<path d="M340.004 0L339.794 0V6.13474H340.004V0Z" fill="#9E9D9D"/>
<path d="M342.316 0L342.105 0V6.13474H342.316V0Z" fill="#9E9D9D"/>
<path d="M344.632 0L344.421 0V6.13474H344.632V0Z" fill="#9E9D9D"/>
<path d="M346.943 0L346.733 0V6.13474H346.943V0Z" fill="#9E9D9D"/>
<path d="M351.57 0L351.36 0V6.13474H351.57V0Z" fill="#9E9D9D"/>
<path d="M353.886 0L353.676 0V6.13474H353.886V0Z" fill="#9E9D9D"/>
<path d="M356.202 0L355.992 0V6.13474H356.202V0Z" fill="#9E9D9D"/>
<path d="M358.514 0L358.303 0V6.13474H358.514V0Z" fill="#9E9D9D"/>
<path d="M349.364 0L348.943 0V10.5263H349.364V0Z" fill="#9E9D9D"/>
<path d="M141.107 0L140.686 0V10.5263H141.107V0Z" fill="#9E9D9D"/>
<path d="M152.741 0L152.194 0V10.5263H152.741V0Z" fill="#37B5BC"/>
<path d="M164.248 0L163.827 0V10.5263H164.248V0Z" fill="#9E9D9D"/>
<path d="M175.878 0L175.331 0V10.5263H175.878V0Z" fill="#37B5BC"/>
<path d="M37.0442 0L36.4968 0V10.5263H37.0442V0Z" fill="#37B5BC"/>
<path d="M48.5473 0L48.1262 0V10.5263H48.5473V0Z" fill="#9E9D9D"/>
<path d="M60.1812 0L59.6338 0V10.5263H60.1812V0Z" fill="#37B5BC"/>
<path d="M71.6884 0L71.2673 0V10.5263H71.6884V0Z" fill="#9E9D9D"/>
<path d="M83.322 0L82.7747 0V10.5263H83.322V0Z" fill="#37B5BC"/>
<path d="M94.8295 0L94.4084 0V10.5263H94.8295V0Z" fill="#9E9D9D"/>
<path d="M106.463 0L105.916 0V10.5263H106.463V0Z" fill="#37B5BC"/>
<path d="M117.966 0L117.545 0V10.5263H117.966V0Z" fill="#9E9D9D"/>
<path d="M129.6 0L129.053 0V10.5263H129.6V0Z" fill="#37B5BC"/>
<path d="M25.4106 0L24.9895 0V10.5263H25.4106V0Z" fill="#9E9D9D"/>
<path d="M13.9031 0.197876L13.3557 0.197876L13.3557 10.2147H13.9031L13.9031 0.197876Z" fill="#37B5BC"/>
<path d="M303.086 0L302.665 0V10.5263H303.086V0Z" fill="#9E9D9D"/>
<path d="M314.716 0L314.168 0V10.5263H314.716V0Z" fill="#37B5BC"/>
<path d="M326.223 0L325.802 0V10.5263H326.223V0Z" fill="#9E9D9D"/>
<path d="M337.836 0L337.331 0V10.5263H337.836V0Z" fill="#002CE5"/>
<path d="M199.019 0L198.472 0V10.5263H199.019V0Z" fill="#37B5BC"/>
<path d="M210.526 0L210.105 0V10.5263H210.526V0Z" fill="#9E9D9D"/>
<path d="M222.16 0L221.613 0V10.5263H222.16V0Z" fill="#37B5BC"/>
<path d="M233.667 0L233.246 0V10.5263H233.667V0Z" fill="#9E9D9D"/>
<path d="M245.297 0L244.75 0V10.5263H245.297V0Z" fill="#37B5BC"/>
<path d="M256.804 0L256.383 0V10.5263H256.804V0Z" fill="#9E9D9D"/>
<path d="M268.438 0L267.891 0V10.5263H268.438V0Z" fill="#37B5BC"/>
<path d="M279.945 0L279.524 0V10.5263H279.945V0Z" fill="#9E9D9D"/>
<path d="M291.579 0L291.031 0V10.5263H291.579V0Z" fill="#37B5BC"/>
<path d="M187.385 0L186.964 0V10.5263H187.385V0Z" fill="#9E9D9D"/>
<path d="M337.857 0L337.31 0V10.5263H337.857V0Z" fill="#37B5BC"/>
<path d="M360.998 0L360.45 0V10.5263H360.998V0Z" fill="#37B5BC"/>
<path d="M131.747 44.2105H131.537V50.3453H131.747V44.2105Z" fill="#9E9D9D"/>
<path d="M134.059 44.2105H133.848V50.3453H134.059V44.2105Z" fill="#9E9D9D"/>
<path d="M136.375 44.2105H136.164V50.3453H136.375V44.2105Z" fill="#9E9D9D"/>
<path d="M138.686 44.2105H138.476V50.3453H138.686V44.2105Z" fill="#9E9D9D"/>
<path d="M143.318 44.2105H143.107V50.3453H143.318V44.2105Z" fill="#9E9D9D"/>
<path d="M145.629 44.2105H145.419V50.3453H145.629V44.2105Z" fill="#9E9D9D"/>
<path d="M147.945 44.2105H147.735V50.3453H147.945V44.2105Z" fill="#9E9D9D"/>
<path d="M150.257 44.2105H150.046V50.3453H150.257V44.2105Z" fill="#9E9D9D"/>
<path d="M154.884 44.2105H154.674V50.3453H154.884V44.2105Z" fill="#9E9D9D"/>
<path d="M157.2 44.2105H156.99V50.3453H157.2V44.2105Z" fill="#9E9D9D"/>
<path d="M159.516 44.2105H159.305V50.3453H159.516V44.2105Z" fill="#9E9D9D"/>
<path d="M161.827 44.2105H161.617V50.3453H161.827V44.2105Z" fill="#9E9D9D"/>
<path d="M166.455 44.2105H166.244V50.3453H166.455V44.2105Z" fill="#9E9D9D"/>
<path d="M168.771 44.2105H168.56V50.3453H168.771V44.2105Z" fill="#9E9D9D"/>
<path d="M171.082 44.2105H170.872V50.3453H171.082V44.2105Z" fill="#9E9D9D"/>
<path d="M173.398 44.2105H173.188V50.3453H173.398V44.2105Z" fill="#9E9D9D"/>
<path d="M39.1873 44.2105H38.9768V50.3453H39.1873V44.2105Z" fill="#9E9D9D"/>
<path d="M41.5033 44.2105H41.2927V50.3453H41.5033V44.2105Z" fill="#9E9D9D"/>
<path d="M43.8148 44.2105H43.6042V50.3453H43.8148V44.2105Z" fill="#9E9D9D"/>
<path d="M46.1304 44.2105H45.9199V50.3453H46.1304V44.2105Z" fill="#9E9D9D"/>
<path d="M50.7579 44.2105H50.5474V50.3453H50.7579V44.2105Z" fill="#9E9D9D"/>
<path d="M53.0738 44.2105H52.8633V50.3453H53.0738V44.2105Z" fill="#9E9D9D"/>
<path d="M55.3853 44.2105H55.1748V50.3453H55.3853V44.2105Z" fill="#9E9D9D"/>
<path d="M57.701 44.2105H57.4905V50.3453H57.701V44.2105Z" fill="#9E9D9D"/>
<path d="M62.3284 44.2105H62.1179V50.3453H62.3284V44.2105Z" fill="#9E9D9D"/>
<path d="M64.64 44.2105H64.4294V50.3453H64.64V44.2105Z" fill="#9E9D9D"/>
<path d="M66.9559 44.2105H66.7454V50.3453H66.9559V44.2105Z" fill="#9E9D9D"/>
<path d="M69.2674 44.2105H69.0569V50.3453H69.2674V44.2105Z" fill="#9E9D9D"/>
<path d="M73.899 44.2105H73.6885V50.3453H73.899V44.2105Z" fill="#9E9D9D"/>
<path d="M76.2105 44.2105H76V50.3453H76.2105V44.2105Z" fill="#9E9D9D"/>
<path d="M78.5262 44.2105H78.3157V50.3453H78.5262V44.2105Z" fill="#9E9D9D"/>
<path d="M80.838 44.2105H80.6274V50.3453H80.838V44.2105Z" fill="#9E9D9D"/>
<path d="M85.4652 44.2105H85.2546V50.3453H85.4652V44.2105Z" fill="#9E9D9D"/>
<path d="M87.7811 44.2105H87.5706V50.3453H87.7811V44.2105Z" fill="#9E9D9D"/>
<path d="M90.0968 44.2105H89.8862V50.3453H90.0968V44.2105Z" fill="#9E9D9D"/>
<path d="M92.4085 44.2105H92.198V50.3453H92.4085V44.2105Z" fill="#9E9D9D"/>
<path d="M97.0357 44.2105H96.8252V50.3453H97.0357V44.2105Z" fill="#9E9D9D"/>
<path d="M99.3516 44.2105H99.1411V50.3453H99.3516V44.2105Z" fill="#9E9D9D"/>
<path d="M101.663 44.2105H101.453V50.3453H101.663V44.2105Z" fill="#9E9D9D"/>
<path d="M103.979 44.2105H103.768V50.3453H103.979V44.2105Z" fill="#9E9D9D"/>
<path d="M108.606 44.2105H108.396V50.3453H108.606V44.2105Z" fill="#9E9D9D"/>
<path d="M110.922 44.2105H110.712V50.3453H110.922V44.2105Z" fill="#9E9D9D"/>
<path d="M113.234 44.2105H113.023V50.3453H113.234V44.2105Z" fill="#9E9D9D"/>
<path d="M115.549 44.2105H115.339V50.3453H115.549V44.2105Z" fill="#9E9D9D"/>
<path d="M120.177 44.2105H119.966V50.3453H120.177V44.2105Z" fill="#9E9D9D"/>
<path d="M122.488 44.2105H122.278V50.3453H122.488V44.2105Z" fill="#9E9D9D"/>
<path d="M124.804 44.2105H124.594V50.3453H124.804V44.2105Z" fill="#9E9D9D"/>
<path d="M127.12 44.2105H126.909V50.3453H127.12V44.2105Z" fill="#9E9D9D"/>
<path d="M16.0506 44.2105H15.8401L15.8401 50.3453H16.0506V44.2105Z" fill="#9E9D9D"/>
<path d="M18.3621 44.2105H18.1516V50.3453H18.3621V44.2105Z" fill="#9E9D9D"/>
<path d="M20.6778 44.2105H20.4673V50.3453H20.6778V44.2105Z" fill="#9E9D9D"/>
<path d="M22.9896 44.2105H22.7791V50.3453H22.9896V44.2105Z" fill="#9E9D9D"/>
<path d="M27.6168 44.2105H27.4062V50.3453H27.6168V44.2105Z" fill="#9E9D9D"/>
<path d="M29.9327 44.2105H29.7222V50.3453H29.9327V44.2105Z" fill="#9E9D9D"/>
<path d="M32.2442 44.2105H32.0337V50.3453H32.2442V44.2105Z" fill="#9E9D9D"/>
<path d="M34.5599 44.2105H34.3494V50.3453H34.5599V44.2105Z" fill="#9E9D9D"/>
<path d="M293.722 44.3916H293.512V50.5263H293.722V44.3916Z" fill="#9E9D9D"/>
<path d="M296.038 44.3916H295.827V50.5263H296.038V44.3916Z" fill="#9E9D9D"/>
<path d="M298.349 44.3916H298.139V50.5263H298.349V44.3916Z" fill="#9E9D9D"/>
<path d="M300.665 44.3916H300.455V50.5263H300.665V44.3916Z" fill="#9E9D9D"/>
<path d="M305.293 44.3916H305.082V50.5263H305.293V44.3916Z" fill="#9E9D9D"/>
<path d="M307.608 44.3916H307.398V50.5263H307.608V44.3916Z" fill="#9E9D9D"/>
<path d="M309.92 44.3916H309.709V50.5263H309.92V44.3916Z" fill="#9E9D9D"/>
<path d="M312.236 44.3916H312.025V50.5263H312.236V44.3916Z" fill="#9E9D9D"/>
<path d="M316.863 44.3916H316.653V50.5263H316.863V44.3916Z" fill="#9E9D9D"/>
<path d="M319.175 44.3916H318.964V50.5263H319.175V44.3916Z" fill="#9E9D9D"/>
<path d="M321.491 44.3916H321.28V50.5263H321.491V44.3916Z" fill="#9E9D9D"/>
<path d="M323.806 44.3916H323.596V50.5263H323.806V44.3916Z" fill="#9E9D9D"/>
<path d="M328.434 44.3916H328.223V50.5263H328.434V44.3916Z" fill="#9E9D9D"/>
<path d="M330.745 44.3916H330.535V50.5263H330.745V44.3916Z" fill="#9E9D9D"/>
<path d="M333.061 44.3916H332.851V50.5263H333.061V44.3916Z" fill="#9E9D9D"/>
<path d="M335.373 44.3916H335.162V50.5263H335.373V44.3916Z" fill="#9E9D9D"/>
<path d="M201.166 44.3916H200.956V50.5263H201.166V44.3916Z" fill="#9E9D9D"/>
<path d="M203.478 44.3916H203.267V50.5263H203.478V44.3916Z" fill="#9E9D9D"/>
<path d="M205.794 44.3916H205.583V50.5263H205.794V44.3916Z" fill="#9E9D9D"/>
<path d="M208.105 44.3916H207.895V50.5263H208.105V44.3916Z" fill="#9E9D9D"/>
<path d="M212.737 44.3916H212.526V50.5263H212.737V44.3916Z" fill="#9E9D9D"/>
<path d="M215.048 44.3916H214.838V50.5263H215.048V44.3916Z" fill="#9E9D9D"/>
<path d="M217.364 44.3916H217.154V50.5263H217.364V44.3916Z" fill="#9E9D9D"/>
<path d="M219.676 44.3916H219.465V50.5263H219.676V44.3916Z" fill="#9E9D9D"/>
<path d="M224.303 44.3916H224.093V50.5263H224.303V44.3916Z" fill="#9E9D9D"/>
<path d="M226.619 44.3916H226.408V50.5263H226.619V44.3916Z" fill="#9E9D9D"/>
<path d="M228.93 44.3916H228.72V50.5263H228.93V44.3916Z" fill="#9E9D9D"/>
<path d="M231.246 44.3916H231.036V50.5263H231.246V44.3916Z" fill="#9E9D9D"/>
<path d="M235.874 44.3916H235.663V50.5263H235.874V44.3916Z" fill="#9E9D9D"/>
<path d="M238.19 44.3916H237.979V50.5263H238.19V44.3916Z" fill="#9E9D9D"/>
<path d="M240.501 44.3916H240.291V50.5263H240.501V44.3916Z" fill="#9E9D9D"/>
<path d="M242.817 44.3916H242.606V50.5263H242.817V44.3916Z" fill="#9E9D9D"/>
<path d="M247.444 44.3916H247.234V50.5263H247.444V44.3916Z" fill="#9E9D9D"/>
<path d="M249.76 44.3916H249.55V50.5263H249.76V44.3916Z" fill="#9E9D9D"/>
<path d="M252.072 44.3916H251.861V50.5263H252.072V44.3916Z" fill="#9E9D9D"/>
<path d="M254.387 44.3916H254.177V50.5263H254.387V44.3916Z" fill="#9E9D9D"/>
<path d="M259.015 44.3916H258.804V50.5263H259.015V44.3916Z" fill="#9E9D9D"/>
<path d="M261.326 44.3916H261.116V50.5263H261.326V44.3916Z" fill="#9E9D9D"/>
<path d="M263.642 44.3916H263.432V50.5263H263.642V44.3916Z" fill="#9E9D9D"/>
<path d="M265.954 44.3916H265.743V50.5263H265.954V44.3916Z" fill="#9E9D9D"/>
<path d="M270.585 44.3916H270.375V50.5263H270.585V44.3916Z" fill="#9E9D9D"/>
<path d="M272.897 44.3916H272.686V50.5263H272.897V44.3916Z" fill="#9E9D9D"/>
<path d="M275.213 44.3916H275.002V50.5263H275.213V44.3916Z" fill="#9E9D9D"/>
<path d="M277.524 44.3916H277.314V50.5263H277.524V44.3916Z" fill="#9E9D9D"/>
<path d="M282.151 44.3916H281.941V50.5263H282.151V44.3916Z" fill="#9E9D9D"/>
<path d="M284.467 44.3916H284.257V50.5263H284.467V44.3916Z" fill="#9E9D9D"/>
<path d="M286.783 44.3916H286.573V50.5263H286.783V44.3916Z" fill="#9E9D9D"/>
<path d="M289.095 44.3916H288.884V50.5263H289.095V44.3916Z" fill="#9E9D9D"/>
<path d="M178.025 44.3916H177.815V50.5263H178.025V44.3916Z" fill="#9E9D9D"/>
<path d="M180.341 44.3916H180.131V50.5263H180.341V44.3916Z" fill="#9E9D9D"/>
<path d="M182.653 44.3916H182.442V50.5263H182.653V44.3916Z" fill="#9E9D9D"/>
<path d="M184.968 44.3916H184.758V50.5263H184.968V44.3916Z" fill="#9E9D9D"/>
<path d="M189.596 44.3916H189.385V50.5263H189.596V44.3916Z" fill="#9E9D9D"/>
<path d="M191.907 44.3916H191.697V50.5263H191.907V44.3916Z" fill="#9E9D9D"/>
<path d="M194.223 44.3916H194.013V50.5263H194.223V44.3916Z" fill="#9E9D9D"/>
<path d="M196.539 44.3916H196.328V50.5263H196.539V44.3916Z" fill="#9E9D9D"/>
<path d="M340.004 44.3916H339.794V50.5263H340.004V44.3916Z" fill="#9E9D9D"/>
<path d="M342.316 44.3916H342.105V50.5263H342.316V44.3916Z" fill="#9E9D9D"/>
<path d="M344.632 44.3916H344.421V50.5263H344.632V44.3916Z" fill="#9E9D9D"/>
<path d="M346.943 44.3916H346.733V50.5263H346.943V44.3916Z" fill="#9E9D9D"/>
<path d="M351.57 44.3916H351.36V50.5263H351.57V44.3916Z" fill="#9E9D9D"/>
<path d="M353.886 44.3916H353.676V50.5263H353.886V44.3916Z" fill="#9E9D9D"/>
<path d="M356.202 44.3916H355.992V50.5263H356.202V44.3916Z" fill="#9E9D9D"/>
<path d="M358.514 44.3916H358.303V50.5263H358.514V44.3916Z" fill="#9E9D9D"/>
<path d="M349.364 40H348.943V50.5263H349.364V40Z" fill="#9E9D9D"/>
<path d="M141.107 40H140.686V50.5263H141.107V40Z" fill="#9E9D9D"/>
<path d="M152.741 40H152.194V50.5263H152.741V40Z" fill="#37B5BC"/>
<path d="M164.248 40H163.827V50.5263H164.248V40Z" fill="#9E9D9D"/>
<path d="M175.878 40H175.331V50.5263H175.878V40Z" fill="#37B5BC"/>
<path d="M37.0442 40H36.4968V50.5263H37.0442V40Z" fill="#37B5BC"/>
<path d="M48.5473 40H48.1262V50.5263H48.5473V40Z" fill="#9E9D9D"/>
<path d="M60.1812 40H59.6338V50.5263H60.1812V40Z" fill="#37B5BC"/>
<path d="M71.6884 40H71.2673V50.5263H71.6884V40Z" fill="#9E9D9D"/>
<path d="M83.322 40H82.7747V50.5263H83.322V40Z" fill="#37B5BC"/>
<path d="M94.8295 40H94.4084V50.5263H94.8295V40Z" fill="#9E9D9D"/>
<path d="M106.463 40H105.916V50.5263H106.463V40Z" fill="#37B5BC"/>
<path d="M117.966 40H117.545V50.5263H117.966V40Z" fill="#9E9D9D"/>
<path d="M129.6 40H129.053V50.5263H129.6V40Z" fill="#37B5BC"/>
<path d="M25.4106 40H24.9895V50.5263H25.4106V40Z" fill="#9E9D9D"/>
<path d="M13.9031 40.3158H13.3557L13.3557 50.3284H13.9031L13.9031 40.3158Z" fill="#37B5BC"/>
<path d="M303.086 40H302.665V50.5263H303.086V40Z" fill="#9E9D9D"/>
<path d="M314.716 40H314.168V50.5263H314.716V40Z" fill="#37B5BC"/>
<path d="M326.223 40H325.802V50.5263H326.223V40Z" fill="#9E9D9D"/>
<path d="M337.836 40H337.331V50.5263H337.836V40Z" fill="#002CE5"/>
<path d="M199.019 40H198.472V50.5263H199.019V40Z" fill="#37B5BC"/>
<path d="M210.526 40H210.105V50.5263H210.526V40Z" fill="#9E9D9D"/>
<path d="M222.16 40H221.613V50.5263H222.16V40Z" fill="#37B5BC"/>
<path d="M233.667 40H233.246V50.5263H233.667V40Z" fill="#9E9D9D"/>
<path d="M245.297 40H244.75V50.5263H245.297V40Z" fill="#37B5BC"/>
<path d="M256.804 40H256.383V50.5263H256.804V40Z" fill="#9E9D9D"/>
<path d="M268.438 40H267.891V50.5263H268.438V40Z" fill="#37B5BC"/>
<path d="M279.945 40H279.524V50.5263H279.945V40Z" fill="#9E9D9D"/>
<path d="M291.579 40H291.031V50.5263H291.579V40Z" fill="#37B5BC"/>
<path d="M187.385 40H186.964V50.5263H187.385V40Z" fill="#9E9D9D"/>
<path d="M337.857 40H337.31V50.5263H337.857V40Z" fill="#37B5BC"/>
<path d="M360.998 40H360.45V50.5263H360.998V40Z" fill="#37B5BC"/>
<path d="M153.79 13.4442C153.572 13.3324 153.331 13.2733 153.086 13.2716C152.898 13.2672 152.711 13.3133 152.546 13.405C152.381 13.4968 152.243 13.631 152.147 13.7937C151.901 14.2168 151.782 14.7024 151.806 15.1916C151.888 14.9984 152.027 14.835 152.205 14.7235C152.383 14.612 152.591 14.5579 152.8 14.5684C152.968 14.5616 153.136 14.5912 153.291 14.6551C153.447 14.7191 153.587 14.8159 153.701 14.939C153.935 15.2057 154.056 15.5531 154.038 15.9074C154.051 16.285 153.915 16.6526 153.659 16.9306C153.538 17.0665 153.388 17.1745 153.221 17.2471C153.054 17.3198 152.873 17.3555 152.691 17.3516C152.488 17.3614 152.287 17.318 152.107 17.2256C151.926 17.1332 151.773 16.9952 151.663 16.8253C151.404 16.3915 151.281 15.8899 151.31 15.3853C151.283 14.7534 151.444 14.1279 151.773 13.5874C151.907 13.3671 152.098 13.1864 152.325 13.0636C152.552 12.9408 152.807 12.8804 153.065 12.8884C153.309 12.8772 153.551 12.9189 153.777 13.0105L153.79 13.4442ZM151.84 15.8527C151.83 16.1313 151.917 16.4047 152.084 16.6274C152.158 16.7238 152.252 16.8027 152.359 16.8581C152.467 16.9135 152.586 16.9442 152.707 16.9478C152.828 16.9515 152.948 16.928 153.059 16.8791C153.17 16.8302 153.268 16.7572 153.347 16.6653C153.508 16.4686 153.592 16.2202 153.583 15.9663C153.598 15.7007 153.516 15.4388 153.352 15.2295C153.273 15.1424 153.176 15.0738 153.067 15.0286C152.959 14.9835 152.842 14.9629 152.724 14.9684C152.609 14.9684 152.494 14.9914 152.387 15.0359C152.28 15.0804 152.183 15.1457 152.102 15.2279C152.021 15.3101 151.956 15.4077 151.913 15.5149C151.869 15.6221 151.847 15.7369 151.848 15.8527H151.84Z" fill="#231815"/>
<path d="M177.061 13.0821L175.339 17.2632H174.859L176.484 13.3684H174.291V12.9474H177.061V13.0821Z" fill="#231815"/>
<path d="M12.0801 15.1958C12.0459 14.5983 12.1755 14.0029 12.4548 13.4737C12.5645 13.2885 12.7222 13.1364 12.9112 13.0334C13.1001 12.9304 13.3134 12.8803 13.5285 12.8884C14.4239 12.8884 14.873 13.6267 14.8758 15.1032C14.9095 15.6812 14.7812 16.2572 14.5053 16.7663C14.3963 16.9521 14.2387 17.1047 14.0496 17.2078C13.8605 17.3109 13.6469 17.3606 13.4316 17.3516C13.2287 17.359 13.0277 17.3108 12.8503 17.2121C12.6729 17.1133 12.5259 16.9679 12.4253 16.7916C12.1667 16.3012 12.0473 15.7493 12.0801 15.1958ZM12.5558 15.1579C12.5558 16.3425 12.8646 16.9333 13.4822 16.9305C14.0997 16.9277 14.4057 16.3368 14.4001 15.1579C14.4001 13.8947 14.1011 13.2842 13.5032 13.2842C12.9053 13.2842 12.5558 13.8947 12.5558 15.1579Z" fill="#231815"/>
<path d="M38.3159 17.2632H35.8822V16.8421H36.8632V13.4737L35.8569 13.7811V13.3095L37.3306 12.8505V16.8421H38.3159V17.2632Z" fill="#231815"/>
<path d="M60.8885 17.2632H58.3032V16.8421L59.5664 15.579C59.8618 15.3092 60.1209 15.002 60.3369 14.6653C60.4322 14.4805 60.4813 14.2753 60.4801 14.0674C60.4874 13.9596 60.472 13.8515 60.435 13.7499C60.3981 13.6484 60.3402 13.5558 60.2653 13.4779C60.0924 13.3306 59.8688 13.2565 59.6422 13.2716C59.2194 13.2841 58.8185 13.4626 58.5264 13.7684V13.2716C58.8582 13.0068 59.2724 12.8668 59.6969 12.8758C60.023 12.859 60.3429 12.9692 60.5895 13.1832C60.7026 13.2913 60.7912 13.4224 60.8493 13.5677C60.9074 13.713 60.9337 13.869 60.9264 14.0253C60.9247 14.3071 60.8477 14.5833 60.7032 14.8253C60.4684 15.1978 60.1852 15.5376 59.8611 15.8358L58.859 16.8421H60.8885V17.2632Z" fill="#231815"/>
<path d="M81.6169 16.5937C81.8983 16.8235 82.2515 16.9472 82.6148 16.9431C82.876 16.954 83.133 16.8753 83.3433 16.72C83.4351 16.6451 83.508 16.5497 83.5563 16.4414C83.6046 16.3332 83.6268 16.2152 83.6212 16.0968C83.6212 15.52 83.2001 15.2294 82.4043 15.2294H82.0464V14.8337H82.3875C83.1075 14.8337 83.4696 14.5642 83.4696 14.0252C83.4696 13.4863 83.1917 13.2716 82.6275 13.2716C82.319 13.2779 82.022 13.3893 81.7854 13.5873V13.1242C82.0812 12.9512 82.4197 12.8651 82.7622 12.8758C83.0673 12.8636 83.3664 12.9623 83.6043 13.1537C83.7146 13.244 83.8024 13.3588 83.8608 13.4888C83.9193 13.6188 83.9468 13.7607 83.9412 13.9031C83.9537 14.1602 83.8728 14.4131 83.7134 14.6151C83.5539 14.8171 83.3267 14.9546 83.0738 15.0021C83.3524 15.0149 83.6164 15.1304 83.8148 15.3263C83.9068 15.4193 83.9792 15.5298 84.0277 15.6513C84.0761 15.7729 84.0997 15.9029 84.0969 16.0337C84.1039 16.2126 84.0695 16.3908 83.9965 16.5544C83.9235 16.7179 83.8138 16.8625 83.6759 16.9768C83.3656 17.2194 82.9789 17.3433 82.5854 17.3263C82.247 17.3437 81.9108 17.2633 81.6169 17.0947V16.5937Z" fill="#231815"/>
<path d="M107.326 16.1095H106.766V17.2632H106.303V16.1095H104.261V15.8021L106.194 12.9474H106.766V15.7221H107.326V16.1095ZM106.303 15.7221V13.819C106.303 13.6884 106.303 13.5369 106.303 13.3727C106.255 13.4853 106.2 13.595 106.139 13.7011L104.783 15.7221H106.303Z" fill="#231815"/>
<path d="M127.849 16.6569C128.112 16.8401 128.424 16.9398 128.745 16.9432C129.018 16.9536 129.284 16.8603 129.491 16.6821C129.586 16.5929 129.66 16.4844 129.71 16.3638C129.759 16.2432 129.782 16.1134 129.777 15.9832C129.784 15.8559 129.761 15.7287 129.712 15.6113C129.662 15.4939 129.587 15.3892 129.491 15.3053C129.248 15.1274 128.949 15.0423 128.649 15.0653C128.535 15.0653 128.312 15.0653 127.971 15.099V12.9474H130.042V13.3684H128.421V14.6611H128.792C129.177 14.6382 129.557 14.7598 129.857 15.0021C129.989 15.1233 130.092 15.2723 130.159 15.4384C130.226 15.6044 130.255 15.7834 130.244 15.9621C130.254 16.1519 130.221 16.3413 130.148 16.5168C130.075 16.6923 129.964 16.8494 129.823 16.9769C129.517 17.2346 129.124 17.3669 128.724 17.3474C128.419 17.3682 128.114 17.3072 127.84 17.1705L127.849 16.6569Z" fill="#231815"/>
<path d="M314.24 17.2632H311.81V16.8421H312.796V13.4737L311.785 13.7811V13.3095L313.259 12.8505V16.8421H314.24V17.2632Z" fill="#231815"/>
<path d="M314.985 16.5937C315.267 16.8236 315.62 16.9473 315.983 16.9432C316.244 16.9541 316.501 16.8753 316.712 16.72C316.803 16.6451 316.876 16.5497 316.925 16.4415C316.973 16.3332 316.995 16.2152 316.99 16.0968C316.99 15.52 316.569 15.2295 315.773 15.2295H315.415V14.8337H315.756C316.476 14.8337 316.838 14.5642 316.838 14.0253C316.838 13.4863 316.56 13.2716 315.996 13.2716C315.687 13.278 315.39 13.3894 315.154 13.5874V13.1242C315.448 12.9518 315.785 12.8657 316.126 12.8758C316.431 12.8655 316.73 12.964 316.968 13.1537C317.078 13.2447 317.165 13.3595 317.224 13.4894C317.282 13.6193 317.31 13.7608 317.305 13.9032C317.318 14.1602 317.237 14.4131 317.078 14.6151C316.918 14.8171 316.691 14.9546 316.438 15.0021C316.716 15.0157 316.98 15.1311 317.179 15.3263C317.271 15.4193 317.343 15.5299 317.392 15.6514C317.44 15.7729 317.464 15.9029 317.461 16.0337C317.469 16.2128 317.435 16.3912 317.362 16.5548C317.289 16.7185 317.178 16.8629 317.04 16.9768C316.732 17.2201 316.346 17.3442 315.954 17.3263C315.615 17.3437 315.279 17.2633 314.985 17.0947V16.5937Z" fill="#231815"/>
<path d="M336.863 17.2632H334.438V16.8421H335.419V13.4737L334.413 13.7811V13.3095L335.886 12.8505V16.8421H336.863V17.2632Z" fill="#231815"/>
<path d="M340.32 16.1095H339.76V17.2632H339.297V16.1095H337.263V15.8021L339.196 12.9474H339.768V15.7221H340.328L340.32 16.1095ZM339.297 15.7221V13.819C339.297 13.6884 339.297 13.5369 339.297 13.3727C339.249 13.4853 339.194 13.595 339.133 13.7011L337.773 15.7221H339.297Z" fill="#231815"/>
<path d="M359.655 17.2632H357.229V16.8421H358.21V13.4737L357.204 13.7811V13.3095L358.678 12.8505V16.8421H359.655V17.2632Z" fill="#231815"/>
<path d="M360.505 16.6569C360.769 16.8394 361.081 16.9391 361.402 16.9432C361.675 16.9548 361.941 16.8614 362.147 16.6821C362.243 16.5935 362.318 16.485 362.368 16.3643C362.417 16.2435 362.44 16.1135 362.434 15.9832C362.44 15.8559 362.418 15.7287 362.368 15.6113C362.319 15.4939 362.243 15.3892 362.147 15.3053C361.904 15.1274 361.605 15.0423 361.305 15.0653C361.191 15.0653 360.968 15.0653 360.627 15.099V12.9474H362.699V13.3684H361.074V14.6611H361.44C361.826 14.6387 362.207 14.7602 362.509 15.0021C362.64 15.124 362.742 15.2733 362.808 15.4393C362.875 15.6052 362.903 15.7838 362.893 15.9621C362.902 16.1519 362.869 16.3413 362.796 16.5168C362.723 16.6923 362.612 16.8494 362.471 16.9769C362.165 17.2346 361.772 17.3669 361.373 17.3474C361.067 17.3682 360.762 17.3072 360.488 17.1705L360.505 16.6569Z" fill="#231815"/>
<path d="M198.151 14.9895C197.929 14.9154 197.734 14.7747 197.594 14.5864C197.454 14.3982 197.375 14.1714 197.368 13.9369C197.365 13.7892 197.396 13.6427 197.459 13.509C197.522 13.3754 197.615 13.258 197.73 13.1663C197.988 12.9679 198.307 12.8652 198.631 12.8758C198.926 12.8662 199.215 12.9634 199.444 13.1495C199.551 13.236 199.636 13.346 199.693 13.4709C199.75 13.5958 199.777 13.7323 199.773 13.8695C199.766 14.1147 199.686 14.3523 199.544 14.5519C199.401 14.7515 199.202 14.9039 198.973 14.9895C199.237 15.0534 199.472 15.2028 199.643 15.4145C199.814 15.6262 199.909 15.8883 199.916 16.16C199.924 16.3247 199.893 16.4889 199.824 16.639C199.756 16.7891 199.653 16.9208 199.524 17.0232C199.217 17.2387 198.846 17.3454 198.471 17.3263C198.144 17.3373 197.823 17.228 197.57 17.019C197.453 16.9183 197.361 16.7926 197.299 16.6512C197.237 16.5098 197.207 16.3564 197.213 16.2021C197.214 15.925 197.307 15.6561 197.477 15.437C197.647 15.2179 197.884 15.0606 198.151 14.9895ZM198.53 15.2295C197.97 15.4526 197.688 15.7726 197.688 16.1937C197.683 16.2982 197.703 16.4024 197.746 16.4977C197.789 16.5929 197.854 16.6764 197.937 16.7411C198.12 16.8813 198.346 16.9528 198.577 16.9432C198.799 16.9523 199.018 16.8805 199.191 16.7411C199.271 16.679 199.335 16.5989 199.377 16.5074C199.42 16.4159 199.44 16.3156 199.436 16.2147C199.44 15.7769 199.158 15.4442 198.53 15.2295ZM199.293 13.9326C199.297 13.8428 199.281 13.7531 199.248 13.6696C199.215 13.5861 199.164 13.5107 199.099 13.4484C198.955 13.3295 198.772 13.2681 198.585 13.2758C198.398 13.2712 198.215 13.3356 198.071 13.4569C198.002 13.512 197.946 13.5825 197.908 13.6628C197.87 13.7431 197.851 13.8312 197.853 13.92C197.853 14.3032 198.088 14.5937 198.564 14.7874C199.048 14.5811 199.293 14.3158 199.293 13.9326Z" fill="#231815"/>
<path d="M220.514 16.7411C220.746 16.8728 221.009 16.9424 221.276 16.9432C221.457 16.9491 221.637 16.908 221.798 16.8239C221.959 16.7398 222.095 16.6155 222.194 16.4632C222.441 16.0512 222.557 15.574 222.526 15.0947C222.439 15.2753 222.3 15.4255 222.127 15.5261C221.953 15.6267 221.754 15.673 221.554 15.659C221.383 15.6646 221.213 15.6334 221.055 15.5672C220.897 15.5011 220.756 15.4017 220.64 15.2758C220.401 15.013 220.274 14.6669 220.286 14.3116C220.275 13.933 220.41 13.5646 220.665 13.2842C220.791 13.146 220.946 13.0368 221.118 12.9641C221.29 12.8914 221.476 12.857 221.663 12.8632C221.859 12.8543 222.055 12.8965 222.229 12.9859C222.404 13.0752 222.553 13.2085 222.661 13.3726C222.919 13.8146 223.039 14.3232 223.006 14.8337C223.044 15.4775 222.885 16.1176 222.552 16.6695C222.412 16.8811 222.22 17.0528 221.994 17.1679C221.768 17.2831 221.516 17.3376 221.263 17.3263C221.009 17.3336 220.756 17.2847 220.522 17.1832L220.514 16.7411ZM220.754 14.2442C220.74 14.5071 220.826 14.7655 220.994 14.9684C221.075 15.0593 221.176 15.1307 221.289 15.1773C221.402 15.224 221.524 15.2447 221.646 15.2379C221.759 15.2402 221.871 15.2198 221.976 15.1778C222.081 15.1359 222.177 15.0733 222.257 14.9937C222.335 14.9169 222.396 14.8251 222.438 14.7237C222.479 14.6223 222.499 14.5136 222.497 14.4042C222.507 14.1171 222.423 13.8345 222.257 13.6C222.185 13.5019 222.091 13.4215 221.984 13.3647C221.876 13.308 221.757 13.2764 221.635 13.2723C221.514 13.2683 221.393 13.2919 221.282 13.3413C221.171 13.3908 221.072 13.4648 220.994 13.5579C220.832 13.7494 220.747 13.9937 220.754 14.2442Z" fill="#231815"/>
<path d="M244.476 17.2632H242.046V16.8421H243.032V13.4737L242.025 13.7811V13.3095L243.495 12.8505V16.8421H244.476V17.2632Z" fill="#231815"/>
<path d="M245.09 15.1958C245.059 14.5976 245.191 14.0021 245.474 13.4737C245.583 13.2885 245.741 13.1364 245.93 13.0334C246.119 12.9304 246.332 12.8803 246.547 12.8884C247.448 12.8884 247.895 13.6253 247.895 15.1032C247.927 15.6806 247.801 16.256 247.528 16.7663C247.418 16.9521 247.26 17.1046 247.07 17.2077C246.88 17.3107 246.666 17.3604 246.45 17.3516C246.248 17.3592 246.048 17.311 245.871 17.2122C245.694 17.1134 245.548 16.9679 245.448 16.7916C245.185 16.3025 245.061 15.7505 245.09 15.1958ZM245.566 15.1705C245.566 16.3551 245.875 16.946 246.493 16.9432C247.11 16.9404 247.416 16.3453 247.41 15.1579C247.41 13.8947 247.112 13.2842 246.514 13.2842C245.916 13.2842 245.566 13.8947 245.566 15.1579V15.1705Z" fill="#231815"/>
<path d="M267.478 17.2632H265.048V16.8421H266.03V13.4737L265.023 13.7811V13.3095L266.497 12.8505V16.8421H267.478V17.2632Z" fill="#231815"/>
<path d="M270.787 17.2632H268.362V16.8421H269.343V13.4737L268.337 13.7811V13.3095L269.811 12.8505V16.8421H270.787V17.2632Z" fill="#231815"/>
<path d="M291.023 17.2632H288.598V16.8421H289.579V13.4737L288.573 13.7811V13.3095L290.046 12.8505V16.8421H291.023V17.2632Z" fill="#231815"/>
<path d="M294.253 17.2632H291.667V16.8421L292.931 15.579C293.224 15.3083 293.481 15.0012 293.697 14.6653C293.792 14.4805 293.841 14.2753 293.84 14.0674C293.847 13.9596 293.832 13.8515 293.795 13.7499C293.758 13.6484 293.7 13.5558 293.625 13.4779C293.453 13.3298 293.229 13.2556 293.002 13.2716C292.582 13.2862 292.185 13.4646 291.895 13.7684V13.2716C292.227 13.0068 292.641 12.8668 293.065 12.8758C293.391 12.859 293.711 12.9692 293.958 13.1832C294.072 13.2906 294.161 13.4216 294.219 13.5671C294.277 13.7125 294.303 13.8689 294.295 14.0253C294.293 14.3065 294.217 14.5823 294.076 14.8253C293.839 15.1965 293.556 15.5361 293.234 15.8358L292.211 16.8421H294.24L294.253 17.2632Z" fill="#231815"/>
<path d="M388.16 29.4737C390.485 29.4737 392.371 27.5886 392.371 25.2632C392.371 22.9378 390.485 21.0526 388.16 21.0526C385.835 21.0526 383.949 22.9378 383.949 25.2632C383.949 27.5886 385.835 29.4737 388.16 29.4737Z" fill="#4CC0CC"/>
</g>
<defs>
<clipPath id="clip0_38_571">
<rect width="400" height="50.5263" fill="white"/>
</clipPath>
</defs>
</svg>
