<svg id="圖層_1" data-name="圖層 1" xmlns="http://www.w3.org/2000/svg" viewBox="0 0 950 120"><defs><style>.cls-1,.cls-2{fill:#fff;}.cls-1{opacity:0;}.cls-2{opacity:0.8;}.cls-3{fill:#4cc0cc;}.cls-4{fill:#231815;}.cls-5{fill:#9e9d9d;}.cls-6{fill:#37b5bc;}.cls-7{fill:#002ce5;}</style></defs><title>ruler</title><rect class="cls-1" width="950" height="120"/><path class="cls-2" d="M0,0H894a56,56,0,0,1,56,56v8a56,56,0,0,1-56,56H0a0,0,0,0,1,0,0V0A0,0,0,0,1,0,0Z"/><path class="cls-3" d="M894,0H0V120H894a56,56,0,0,0,56-56V56A56,56,0,0,0,894,0Zm54.5,64A54.56,54.56,0,0,1,894,118.5H1.5V1.5H894A54.56,54.56,0,0,1,948.5,56Z" transform="translate(0 0)"/><path class="cls-4" d="M365.25,79.63a3.7,3.7,0,0,0-1.67-.4,2.53,2.53,0,0,0-2.23,1.23,6,6,0,0,0-.81,3.32h0a2.44,2.44,0,0,1,2.36-1.47,2.77,2.77,0,0,1,2.14.87,3.26,3.26,0,0,1,.8,2.3,3.45,3.45,0,0,1-.9,2.44,3,3,0,0,1-2.3,1,2.77,2.77,0,0,1-2.44-1.25,6.11,6.11,0,0,1-.84-3.43,7.65,7.65,0,0,1,1.1-4.27,3.49,3.49,0,0,1,3.07-1.66,3.94,3.94,0,0,1,1.69.3Zm-4.63,5.73a2.91,2.91,0,0,0,.58,1.84,1.93,1.93,0,0,0,3,.09,2.53,2.53,0,0,0,.56-1.67,2.59,2.59,0,0,0-.55-1.74,1.89,1.89,0,0,0-1.49-.62,2,2,0,0,0-1.47.61A2,2,0,0,0,360.62,85.36Z" transform="translate(0 0)"/><path class="cls-4" d="M420.52,78.78l-4.09,9.94h-1.14l3.86-9.26h-5.21v-1h6.58Z" transform="translate(0 0)"/><path class="cls-4" d="M28.69,83.79a7.74,7.74,0,0,1,.89-4.11,2.85,2.85,0,0,1,2.55-1.4q3.19,0,3.2,5.26a7.4,7.4,0,0,1-.88,4,2.84,2.84,0,0,1-2.55,1.39,2.65,2.65,0,0,1-2.39-1.34A7.16,7.16,0,0,1,28.69,83.79Zm1.13-.06q0,4.22,2.2,4.22t2.18-4.28q0-4.44-2.13-4.44T29.82,83.73Z" transform="translate(0 0)"/><path class="cls-4" d="M91,88.72H85.22v-1h2.33V79.66l-2.39.72V79.31l3.5-1.09v9.51H91Z" transform="translate(0 0)"/><path class="cls-4" d="M144.61,88.72h-6.14v-1l3-3a11.22,11.22,0,0,0,1.83-2.17,3.1,3.1,0,0,0,.34-1.43,1.87,1.87,0,0,0-.51-1.4,2.11,2.11,0,0,0-1.48-.49A3.83,3.83,0,0,0,139,80.41V79.23a4.32,4.32,0,0,1,2.78-1,3,3,0,0,1,2.12.74,2.58,2.58,0,0,1,.8,2,3.78,3.78,0,0,1-.53,1.91,12.41,12.41,0,0,1-2,2.4l-2.39,2.36v0h4.82Z" transform="translate(0 0)"/><path class="cls-4" d="M193.84,87.11a3.69,3.69,0,0,0,2.37.84,2.67,2.67,0,0,0,1.73-.54,1.8,1.8,0,0,0,.66-1.48c0-1.36-1-2.05-2.89-2.05h-.85v-.95h.81c1.71,0,2.57-.64,2.57-1.92s-.66-1.78-2-1.78a3.22,3.22,0,0,0-2,.75V78.87a4.42,4.42,0,0,1,2.32-.59,3,3,0,0,1,2,.67,2.19,2.19,0,0,1,.8,1.78,2.53,2.53,0,0,1-2.06,2.61v0a2.68,2.68,0,0,1,1.76.77,2.32,2.32,0,0,1,.67,1.69,2.75,2.75,0,0,1-1,2.23,3.93,3.93,0,0,1-2.59.84,4.19,4.19,0,0,1-2.3-.55Z" transform="translate(0 0)"/><path class="cls-4" d="M254.9,86h-1.33v2.76h-1.1V86h-4.85v-.73l4.59-6.78h1.36v6.6h1.33Zm-2.43-.91V80.53c0-.32,0-.67,0-1.07h0a7,7,0,0,1-.39.79l-3.22,4.8Z" transform="translate(0 0)"/><path class="cls-4" d="M303.64,87.27a3.88,3.88,0,0,0,2.13.68,2.52,2.52,0,0,0,1.77-.63,2.15,2.15,0,0,0,.68-1.66,2,2,0,0,0-.68-1.61,3,3,0,0,0-2-.57c-.27,0-.8,0-1.61.08V78.45h4.92v1H305v3.07l.88,0a3.68,3.68,0,0,1,2.53.81,2.88,2.88,0,0,1,.92,2.29,3.06,3.06,0,0,1-1,2.41,3.77,3.77,0,0,1-2.61.88,4.08,4.08,0,0,1-2.1-.42Z" transform="translate(0 0)"/><path class="cls-4" d="M746.32,88.72h-5.77v-1h2.34V79.66l-2.4.72V79.31l3.5-1.09v9.51h2.33Z" transform="translate(0 0)"/><path class="cls-4" d="M748.09,87.11a3.69,3.69,0,0,0,2.37.84,2.67,2.67,0,0,0,1.73-.54,1.8,1.8,0,0,0,.66-1.48c0-1.36-1-2.05-2.89-2.05h-.85v-.95h.81c1.71,0,2.57-.64,2.57-1.92s-.66-1.78-2-1.78a3.22,3.22,0,0,0-2,.75V78.87a4.41,4.41,0,0,1,2.31-.59,3,3,0,0,1,2,.67,2.22,2.22,0,0,1,.8,1.78,2.53,2.53,0,0,1-2.06,2.61v0a2.7,2.7,0,0,1,1.76.77,2.32,2.32,0,0,1,.67,1.69,2.73,2.73,0,0,1-1,2.23,3.89,3.89,0,0,1-2.58.84,4.19,4.19,0,0,1-2.3-.55Z" transform="translate(0 0)"/><path class="cls-4" d="M800.05,88.72h-5.76v-1h2.33V79.66l-2.39.72V79.31l3.5-1.09v9.51h2.32Z" transform="translate(0 0)"/><path class="cls-4" d="M808.26,86h-1.33v2.76h-1.1V86H801v-.73l4.59-6.78h1.36v6.6h1.33Zm-2.43-.91V80.53c0-.32,0-.67,0-1.07h0a7,7,0,0,1-.39.79l-3.23,4.8Z" transform="translate(0 0)"/><path class="cls-4" d="M854.18,88.72h-5.76v-1h2.33V79.66l-2.39.72V79.31l3.5-1.09v9.51h2.32Z" transform="translate(0 0)"/><path class="cls-4" d="M856.2,87.27a3.91,3.91,0,0,0,2.13.68,2.49,2.49,0,0,0,1.77-.63,2.11,2.11,0,0,0,.68-1.66,2,2,0,0,0-.68-1.61,3,3,0,0,0-2-.57c-.27,0-.8,0-1.61.08V78.45h4.92v1h-3.86v3.07l.87,0a3.72,3.72,0,0,1,2.54.81,2.9,2.9,0,0,1,.91,2.29,3.06,3.06,0,0,1-1,2.41,3.77,3.77,0,0,1-2.61.88,4.08,4.08,0,0,1-2.1-.42Z" transform="translate(0 0)"/><path class="cls-4" d="M470.61,83.31a2.73,2.73,0,0,1-1.86-2.5,2.25,2.25,0,0,1,.86-1.83,3.28,3.28,0,0,1,2.14-.7,3,3,0,0,1,1.93.65,2.14,2.14,0,0,1,.78,1.72,2.93,2.93,0,0,1-1.9,2.66v0a2.92,2.92,0,0,1,2.24,2.78,2.44,2.44,0,0,1-.93,2,3.93,3.93,0,0,1-2.5.73,3.2,3.2,0,0,1-2.14-.74,2.43,2.43,0,0,1-.85-1.93,3,3,0,0,1,2.23-2.88Zm.9.56c-1.33.53-2,1.3-2,2.3a1.56,1.56,0,0,0,.59,1.3,2.4,2.4,0,0,0,1.52.47,2.24,2.24,0,0,0,1.46-.47,1.55,1.55,0,0,0,.58-1.26Q473.67,84.65,471.51,83.87Zm1.81-3.08a1.48,1.48,0,0,0-.46-1.14,1.75,1.75,0,0,0-1.22-.41,1.82,1.82,0,0,0-1.22.43,1.35,1.35,0,0,0-.52,1.1c0,.91.56,1.59,1.69,2.06C472.74,82.34,473.32,81.66,473.32,80.79Z" transform="translate(0 0)"/><path class="cls-4" d="M523.72,87.47a3.69,3.69,0,0,0,1.81.48,2.5,2.5,0,0,0,2.18-1.14,5.68,5.68,0,0,0,.79-3.25h0a2.37,2.37,0,0,1-2.31,1.33A2.84,2.84,0,0,1,524,84a3.25,3.25,0,0,1-.84-2.29,3.45,3.45,0,0,1,.9-2.44,3.08,3.08,0,0,1,2.37-1,2.69,2.69,0,0,1,2.37,1.21,6.15,6.15,0,0,1,.82,3.48,7.62,7.62,0,0,1-1.08,4.36,3.48,3.48,0,0,1-3.06,1.56,4.28,4.28,0,0,1-1.76-.34Zm.57-5.94a2.5,2.5,0,0,0,.57,1.72,2,2,0,0,0,3.57-1.33,3.12,3.12,0,0,0-.57-1.92,1.93,1.93,0,0,0-3-.1A2.44,2.44,0,0,0,524.29,81.53Z" transform="translate(0 0)"/><path class="cls-4" d="M580.63,88.72h-5.77v-1h2.34V79.66l-2.39.72V79.31l3.49-1.09v9.51h2.33Z" transform="translate(0 0)"/><path class="cls-4" d="M582.09,83.79a7.74,7.74,0,0,1,.89-4.11,2.85,2.85,0,0,1,2.55-1.4c2.14,0,3.2,1.75,3.2,5.26a7.5,7.5,0,0,1-.87,4,2.86,2.86,0,0,1-2.56,1.39,2.63,2.63,0,0,1-2.38-1.34A7.16,7.16,0,0,1,582.09,83.79Zm1.13-.06q0,4.22,2.2,4.22t2.18-4.28q0-4.44-2.13-4.44T583.22,83.73Z" transform="translate(0 0)"/><path class="cls-4" d="M635.26,88.72h-5.77v-1h2.33V79.66l-2.39.72V79.31l3.5-1.09v9.51h2.33Z" transform="translate(0 0)"/><path class="cls-4" d="M643.12,88.72h-5.76v-1h2.33V79.66l-2.39.72V79.31l3.5-1.09v9.51h2.32Z" transform="translate(0 0)"/><path class="cls-4" d="M691.18,88.72h-5.76v-1h2.33V79.66l-2.39.72V79.31l3.5-1.09v9.51h2.32Z" transform="translate(0 0)"/><path class="cls-4" d="M698.85,88.72h-6.14v-1l3-3a11.44,11.44,0,0,0,1.82-2.17,3.1,3.1,0,0,0,.34-1.43,1.87,1.87,0,0,0-.51-1.4,2.1,2.1,0,0,0-1.48-.49,3.83,3.83,0,0,0-2.63,1.19V79.23a4.32,4.32,0,0,1,2.78-1,3,3,0,0,1,2.12.74,2.54,2.54,0,0,1,.8,2,3.87,3.87,0,0,1-.52,1.91,12.94,12.94,0,0,1-2,2.4L694,87.68v0h4.82Z" transform="translate(0 0)"/><rect class="cls-5" x="312.4" y="0.43" width="0.5" height="14.57"/><rect class="cls-5" x="317.89" y="0.43" width="0.5" height="14.57"/><rect class="cls-5" x="323.39" y="0.43" width="0.5" height="14.57"/><rect class="cls-5" x="328.88" y="0.43" width="0.5" height="14.57"/><rect class="cls-5" x="339.88" y="0.43" width="0.5" height="14.57"/><rect class="cls-5" x="345.37" y="0.43" width="0.5" height="14.57"/><rect class="cls-5" x="350.87" y="0.43" width="0.5" height="14.57"/><rect class="cls-5" x="356.36" y="0.43" width="0.5" height="14.57"/><rect class="cls-5" x="367.35" y="0.43" width="0.5" height="14.57"/><rect class="cls-5" x="372.85" y="0.43" width="0.5" height="14.57"/><rect class="cls-5" x="378.35" y="0.43" width="0.5" height="14.57"/><rect class="cls-5" x="383.84" y="0.43" width="0.5" height="14.57"/><rect class="cls-5" x="394.83" y="0.43" width="0.5" height="14.57"/><rect class="cls-5" x="400.33" y="0.43" width="0.5" height="14.57"/><rect class="cls-5" x="405.82" y="0.43" width="0.5" height="14.57"/><rect class="cls-5" x="411.32" y="0.43" width="0.5" height="14.57"/><rect class="cls-5" x="92.57" y="0.43" width="0.5" height="14.57"/><rect class="cls-5" x="98.07" y="0.43" width="0.5" height="14.57"/><rect class="cls-5" x="103.56" y="0.43" width="0.5" height="14.57"/><rect class="cls-5" x="109.06" y="0.43" width="0.5" height="14.57"/><rect class="cls-5" x="120.05" y="0.43" width="0.5" height="14.57"/><rect class="cls-5" x="125.55" y="0.43" width="0.5" height="14.57"/><rect class="cls-5" x="131.04" y="0.43" width="0.5" height="14.57"/><rect class="cls-5" x="136.54" y="0.43" width="0.5" height="14.57"/><rect class="cls-5" x="147.53" y="0.43" width="0.5" height="14.57"/><rect class="cls-5" x="153.02" y="0.43" width="0.5" height="14.57"/><rect class="cls-5" x="158.52" y="0.43" width="0.5" height="14.57"/><rect class="cls-5" x="164.01" y="0.43" width="0.5" height="14.57"/><rect class="cls-5" x="175.01" y="0.43" width="0.5" height="14.57"/><rect class="cls-5" x="180.5" y="0.43" width="0.5" height="14.57"/><rect class="cls-5" x="186" y="0.43" width="0.5" height="14.57"/><rect class="cls-5" x="191.49" y="0.43" width="0.5" height="14.57"/><rect class="cls-5" x="202.48" y="0.43" width="0.5" height="14.57"/><rect class="cls-5" x="207.98" y="0.43" width="0.5" height="14.57"/><rect class="cls-5" x="213.48" y="0.43" width="0.5" height="14.57"/><rect class="cls-5" x="218.97" y="0.43" width="0.5" height="14.57"/><rect class="cls-5" x="229.96" y="0.43" width="0.5" height="14.57"/><rect class="cls-5" x="235.46" y="0.43" width="0.5" height="14.57"/><rect class="cls-5" x="240.95" y="0.43" width="0.5" height="14.57"/><rect class="cls-5" x="246.45" y="0.43" width="0.5" height="14.57"/><rect class="cls-5" x="257.44" y="0.43" width="0.5" height="14.57"/><rect class="cls-5" x="262.94" y="0.43" width="0.5" height="14.57"/><rect class="cls-5" x="268.43" y="0.43" width="0.5" height="14.57"/><rect class="cls-5" x="273.93" y="0.43" width="0.5" height="14.57"/><rect class="cls-5" x="284.92" y="0.43" width="0.5" height="14.57"/><rect class="cls-5" x="290.41" y="0.43" width="0.5" height="14.57"/><rect class="cls-5" x="295.91" y="0.43" width="0.5" height="14.57"/><rect class="cls-5" x="301.41" y="0.43" width="0.5" height="14.57"/><rect class="cls-5" x="37.62" y="0.43" width="0.5" height="14.57"/><rect class="cls-5" x="43.11" y="0.43" width="0.5" height="14.57"/><rect class="cls-5" x="48.61" y="0.43" width="0.5" height="14.57"/><rect class="cls-5" x="54.1" y="0.43" width="0.5" height="14.57"/><rect class="cls-5" x="65.09" y="0.43" width="0.5" height="14.57"/><rect class="cls-5" x="70.59" y="0.43" width="0.5" height="14.57"/><rect class="cls-5" x="76.08" y="0.43" width="0.5" height="14.57"/><rect class="cls-5" x="81.58" y="0.43" width="0.5" height="14.57"/><rect class="cls-5" x="697.09" width="0.5" height="14.57"/><rect class="cls-5" x="702.59" width="0.5" height="14.57"/><rect class="cls-5" x="708.08" width="0.5" height="14.57"/><rect class="cls-5" x="713.58" width="0.5" height="14.57"/><rect class="cls-5" x="724.57" width="0.5" height="14.57"/><rect class="cls-5" x="730.07" width="0.5" height="14.57"/><rect class="cls-5" x="735.56" width="0.5" height="14.57"/><rect class="cls-5" x="741.06" width="0.5" height="14.57"/><rect class="cls-5" x="752.05" width="0.5" height="14.57"/><rect class="cls-5" x="757.54" width="0.5" height="14.57"/><rect class="cls-5" x="763.04" width="0.5" height="14.57"/><rect class="cls-5" x="768.54" width="0.5" height="14.57"/><rect class="cls-5" x="779.53" width="0.5" height="14.57"/><rect class="cls-5" x="785.02" width="0.5" height="14.57"/><rect class="cls-5" x="790.52" width="0.5" height="14.57"/><rect class="cls-5" x="796.01" width="0.5" height="14.57"/><rect class="cls-5" x="477.27" width="0.5" height="14.57"/><rect class="cls-5" x="482.76" width="0.5" height="14.57"/><rect class="cls-5" x="488.26" width="0.5" height="14.57"/><rect class="cls-5" x="493.75" width="0.5" height="14.57"/><rect class="cls-5" x="504.75" width="0.5" height="14.57"/><rect class="cls-5" x="510.24" width="0.5" height="14.57"/><rect class="cls-5" x="515.74" width="0.5" height="14.57"/><rect class="cls-5" x="521.23" width="0.5" height="14.57"/><rect class="cls-5" x="532.22" width="0.5" height="14.57"/><rect class="cls-5" x="537.72" width="0.5" height="14.57"/><rect class="cls-5" x="543.21" width="0.5" height="14.57"/><rect class="cls-5" x="548.71" width="0.5" height="14.57"/><rect class="cls-5" x="559.7" width="0.5" height="14.57"/><rect class="cls-5" x="565.2" width="0.5" height="14.57"/><rect class="cls-5" x="570.69" width="0.5" height="14.57"/><rect class="cls-5" x="576.19" width="0.5" height="14.57"/><rect class="cls-5" x="587.18" width="0.5" height="14.57"/><rect class="cls-5" x="592.68" width="0.5" height="14.57"/><rect class="cls-5" x="598.17" width="0.5" height="14.57"/><rect class="cls-5" x="603.67" width="0.5" height="14.57"/><rect class="cls-5" x="614.66" width="0.5" height="14.57"/><rect class="cls-5" x="620.15" width="0.5" height="14.57"/><rect class="cls-5" x="625.65" width="0.5" height="14.57"/><rect class="cls-5" x="631.14" width="0.5" height="14.57"/><rect class="cls-5" x="642.14" width="0.5" height="14.57"/><rect class="cls-5" x="647.63" width="0.5" height="14.57"/><rect class="cls-5" x="653.13" width="0.5" height="14.57"/><rect class="cls-5" x="658.62" width="0.5" height="14.57"/><rect class="cls-5" x="669.61" width="0.5" height="14.57"/><rect class="cls-5" x="675.11" width="0.5" height="14.57"/><rect class="cls-5" x="680.61" width="0.5" height="14.57"/><rect class="cls-5" x="686.1" width="0.5" height="14.57"/><rect class="cls-5" x="422.31" width="0.5" height="14.57"/><rect class="cls-5" x="427.81" width="0.5" height="14.57"/><rect class="cls-5" x="433.3" width="0.5" height="14.57"/><rect class="cls-5" x="438.8" width="0.5" height="14.57"/><rect class="cls-5" x="449.79" width="0.5" height="14.57"/><rect class="cls-5" x="455.28" width="0.5" height="14.57"/><rect class="cls-5" x="460.78" width="0.5" height="14.57"/><rect class="cls-5" x="466.28" width="0.5" height="14.57"/><rect class="cls-5" x="807.01" width="0.5" height="14.57"/><rect class="cls-5" x="812.5" width="0.5" height="14.57"/><rect class="cls-5" x="818" width="0.5" height="14.57"/><rect class="cls-5" x="823.49" width="0.5" height="14.57"/><rect class="cls-5" x="834.48" width="0.5" height="14.57"/><rect class="cls-5" x="839.98" width="0.5" height="14.57"/><rect class="cls-5" x="845.48" width="0.5" height="14.57"/><rect class="cls-5" x="850.97" width="0.5" height="14.57"/><rect class="cls-5" x="828.74" width="1" height="25"/><rect class="cls-5" x="334.13" width="1" height="25"/><rect class="cls-6" x="361.46" width="1.3" height="25"/><rect class="cls-5" x="389.09" width="1" height="25"/><rect class="cls-6" x="416.41" width="1.3" height="25"/><rect class="cls-6" x="86.68" width="1.3" height="25"/><rect class="cls-5" x="114.3" width="1" height="25"/><rect class="cls-6" x="141.63" width="1.3" height="25"/><rect class="cls-5" x="169.26" width="1" height="25"/><rect class="cls-6" x="196.59" width="1.3" height="25"/><rect class="cls-5" x="224.22" width="1" height="25"/><rect class="cls-6" x="251.55" width="1.3" height="25"/><rect class="cls-5" x="279.17" width="1" height="25"/><rect class="cls-6" x="306.5" width="1.3" height="25"/><rect class="cls-5" x="59.35" width="1" height="25"/><rect class="cls-6" x="31.72" y="0.47" width="1.3" height="23.79"/><rect class="cls-5" x="718.83" width="1" height="25"/><rect class="cls-6" x="746.15" width="1.3" height="25"/><rect class="cls-5" x="773.78" width="1" height="25"/><rect class="cls-7" x="801.16" width="1.2" height="25"/><rect class="cls-6" x="471.37" width="1.3" height="25"/><rect class="cls-5" x="499" width="1" height="25"/><rect class="cls-6" x="526.33" width="1.3" height="25"/><rect class="cls-5" x="553.96" width="1" height="25"/><rect class="cls-6" x="581.28" width="1.3" height="25"/><rect class="cls-5" x="608.91" width="1" height="25"/><rect class="cls-6" x="636.24" width="1.3" height="25"/><rect class="cls-5" x="663.87" width="1" height="25"/><rect class="cls-6" x="691.2" width="1.3" height="25"/><rect class="cls-5" x="444.04" width="1" height="25"/><rect class="cls-6" x="801.11" width="1.3" height="25"/><rect class="cls-6" x="856.07" width="1.3" height="25"/><rect class="cls-5" x="312.4" y="105" width="0.5" height="14.57"/><rect class="cls-5" x="317.89" y="105" width="0.5" height="14.57"/><rect class="cls-5" x="323.39" y="105" width="0.5" height="14.57"/><rect class="cls-5" x="328.88" y="105" width="0.5" height="14.57"/><rect class="cls-5" x="339.88" y="105" width="0.5" height="14.57"/><rect class="cls-5" x="345.37" y="105" width="0.5" height="14.57"/><rect class="cls-5" x="350.87" y="105" width="0.5" height="14.57"/><rect class="cls-5" x="356.36" y="105" width="0.5" height="14.57"/><rect class="cls-5" x="367.35" y="105" width="0.5" height="14.57"/><rect class="cls-5" x="372.85" y="105" width="0.5" height="14.57"/><rect class="cls-5" x="378.35" y="105" width="0.5" height="14.57"/><rect class="cls-5" x="383.84" y="105" width="0.5" height="14.57"/><rect class="cls-5" x="394.83" y="105" width="0.5" height="14.57"/><rect class="cls-5" x="400.33" y="105" width="0.5" height="14.57"/><rect class="cls-5" x="405.82" y="105" width="0.5" height="14.57"/><rect class="cls-5" x="411.32" y="105" width="0.5" height="14.57"/><rect class="cls-5" x="92.57" y="105" width="0.5" height="14.57"/><rect class="cls-5" x="98.07" y="105" width="0.5" height="14.57"/><rect class="cls-5" x="103.56" y="105" width="0.5" height="14.57"/><rect class="cls-5" x="109.06" y="105" width="0.5" height="14.57"/><rect class="cls-5" x="120.05" y="105" width="0.5" height="14.57"/><rect class="cls-5" x="125.55" y="105" width="0.5" height="14.57"/><rect class="cls-5" x="131.04" y="105" width="0.5" height="14.57"/><rect class="cls-5" x="136.54" y="105" width="0.5" height="14.57"/><rect class="cls-5" x="147.53" y="105" width="0.5" height="14.57"/><rect class="cls-5" x="153.02" y="105" width="0.5" height="14.57"/><rect class="cls-5" x="158.52" y="105" width="0.5" height="14.57"/><rect class="cls-5" x="164.01" y="105" width="0.5" height="14.57"/><rect class="cls-5" x="175.01" y="105" width="0.5" height="14.57"/><rect class="cls-5" x="180.5" y="105" width="0.5" height="14.57"/><rect class="cls-5" x="186" y="105" width="0.5" height="14.57"/><rect class="cls-5" x="191.49" y="105" width="0.5" height="14.57"/><rect class="cls-5" x="202.48" y="105" width="0.5" height="14.57"/><rect class="cls-5" x="207.98" y="105" width="0.5" height="14.57"/><rect class="cls-5" x="213.48" y="105" width="0.5" height="14.57"/><rect class="cls-5" x="218.97" y="105" width="0.5" height="14.57"/><rect class="cls-5" x="229.96" y="105" width="0.5" height="14.57"/><rect class="cls-5" x="235.46" y="105" width="0.5" height="14.57"/><rect class="cls-5" x="240.95" y="105" width="0.5" height="14.57"/><rect class="cls-5" x="246.45" y="105" width="0.5" height="14.57"/><rect class="cls-5" x="257.44" y="105" width="0.5" height="14.57"/><rect class="cls-5" x="262.94" y="105" width="0.5" height="14.57"/><rect class="cls-5" x="268.43" y="105" width="0.5" height="14.57"/><rect class="cls-5" x="273.93" y="105" width="0.5" height="14.57"/><rect class="cls-5" x="284.92" y="105" width="0.5" height="14.57"/><rect class="cls-5" x="290.41" y="105" width="0.5" height="14.57"/><rect class="cls-5" x="295.91" y="105" width="0.5" height="14.57"/><rect class="cls-5" x="301.41" y="105" width="0.5" height="14.57"/><rect class="cls-5" x="37.62" y="105" width="0.5" height="14.57"/><rect class="cls-5" x="43.11" y="105" width="0.5" height="14.57"/><rect class="cls-5" x="48.61" y="105" width="0.5" height="14.57"/><rect class="cls-5" x="54.1" y="105" width="0.5" height="14.57"/><rect class="cls-5" x="65.09" y="105" width="0.5" height="14.57"/><rect class="cls-5" x="70.59" y="105" width="0.5" height="14.57"/><rect class="cls-5" x="76.08" y="105" width="0.5" height="14.57"/><rect class="cls-5" x="81.58" y="105" width="0.5" height="14.57"/><rect class="cls-5" x="697.09" y="105.43" width="0.5" height="14.57"/><rect class="cls-5" x="702.59" y="105.43" width="0.5" height="14.57"/><rect class="cls-5" x="708.08" y="105.43" width="0.5" height="14.57"/><rect class="cls-5" x="713.58" y="105.43" width="0.5" height="14.57"/><rect class="cls-5" x="724.57" y="105.43" width="0.5" height="14.57"/><rect class="cls-5" x="730.07" y="105.43" width="0.5" height="14.57"/><rect class="cls-5" x="735.56" y="105.43" width="0.5" height="14.57"/><rect class="cls-5" x="741.06" y="105.43" width="0.5" height="14.57"/><rect class="cls-5" x="752.05" y="105.43" width="0.5" height="14.57"/><rect class="cls-5" x="757.54" y="105.43" width="0.5" height="14.57"/><rect class="cls-5" x="763.04" y="105.43" width="0.5" height="14.57"/><rect class="cls-5" x="768.54" y="105.43" width="0.5" height="14.57"/><rect class="cls-5" x="779.53" y="105.43" width="0.5" height="14.57"/><rect class="cls-5" x="785.02" y="105.43" width="0.5" height="14.57"/><rect class="cls-5" x="790.52" y="105.43" width="0.5" height="14.57"/><rect class="cls-5" x="796.01" y="105.43" width="0.5" height="14.57"/><rect class="cls-5" x="477.27" y="105.43" width="0.5" height="14.57"/><rect class="cls-5" x="482.76" y="105.43" width="0.5" height="14.57"/><rect class="cls-5" x="488.26" y="105.43" width="0.5" height="14.57"/><rect class="cls-5" x="493.75" y="105.43" width="0.5" height="14.57"/><rect class="cls-5" x="504.75" y="105.43" width="0.5" height="14.57"/><rect class="cls-5" x="510.24" y="105.43" width="0.5" height="14.57"/><rect class="cls-5" x="515.74" y="105.43" width="0.5" height="14.57"/><rect class="cls-5" x="521.23" y="105.43" width="0.5" height="14.57"/><rect class="cls-5" x="532.22" y="105.43" width="0.5" height="14.57"/><rect class="cls-5" x="537.72" y="105.43" width="0.5" height="14.57"/><rect class="cls-5" x="543.21" y="105.43" width="0.5" height="14.57"/><rect class="cls-5" x="548.71" y="105.43" width="0.5" height="14.57"/><rect class="cls-5" x="559.7" y="105.43" width="0.5" height="14.57"/><rect class="cls-5" x="565.2" y="105.43" width="0.5" height="14.57"/><rect class="cls-5" x="570.69" y="105.43" width="0.5" height="14.57"/><rect class="cls-5" x="576.19" y="105.43" width="0.5" height="14.57"/><rect class="cls-5" x="587.18" y="105.43" width="0.5" height="14.57"/><rect class="cls-5" x="592.68" y="105.43" width="0.5" height="14.57"/><rect class="cls-5" x="598.17" y="105.43" width="0.5" height="14.57"/><rect class="cls-5" x="603.67" y="105.43" width="0.5" height="14.57"/><rect class="cls-5" x="614.66" y="105.43" width="0.5" height="14.57"/><rect class="cls-5" x="620.15" y="105.43" width="0.5" height="14.57"/><rect class="cls-5" x="625.65" y="105.43" width="0.5" height="14.57"/><rect class="cls-5" x="631.14" y="105.43" width="0.5" height="14.57"/><rect class="cls-5" x="642.14" y="105.43" width="0.5" height="14.57"/><rect class="cls-5" x="647.63" y="105.43" width="0.5" height="14.57"/><rect class="cls-5" x="653.13" y="105.43" width="0.5" height="14.57"/><rect class="cls-5" x="658.62" y="105.43" width="0.5" height="14.57"/><rect class="cls-5" x="669.61" y="105.43" width="0.5" height="14.57"/><rect class="cls-5" x="675.11" y="105.43" width="0.5" height="14.57"/><rect class="cls-5" x="680.61" y="105.43" width="0.5" height="14.57"/><rect class="cls-5" x="686.1" y="105.43" width="0.5" height="14.57"/><rect class="cls-5" x="422.31" y="105.43" width="0.5" height="14.57"/><rect class="cls-5" x="427.81" y="105.43" width="0.5" height="14.57"/><rect class="cls-5" x="433.3" y="105.43" width="0.5" height="14.57"/><rect class="cls-5" x="438.8" y="105.43" width="0.5" height="14.57"/><rect class="cls-5" x="449.79" y="105.43" width="0.5" height="14.57"/><rect class="cls-5" x="455.28" y="105.43" width="0.5" height="14.57"/><rect class="cls-5" x="460.78" y="105.43" width="0.5" height="14.57"/><rect class="cls-5" x="466.28" y="105.43" width="0.5" height="14.57"/><rect class="cls-5" x="807.01" y="105.43" width="0.5" height="14.57"/><rect class="cls-5" x="812.5" y="105.43" width="0.5" height="14.57"/><rect class="cls-5" x="818" y="105.43" width="0.5" height="14.57"/><rect class="cls-5" x="823.49" y="105.43" width="0.5" height="14.57"/><rect class="cls-5" x="834.48" y="105.43" width="0.5" height="14.57"/><rect class="cls-5" x="839.98" y="105.43" width="0.5" height="14.57"/><rect class="cls-5" x="845.48" y="105.43" width="0.5" height="14.57"/><rect class="cls-5" x="850.97" y="105.43" width="0.5" height="14.57"/><rect class="cls-5" x="828.74" y="95" width="1" height="25"/><rect class="cls-5" x="334.13" y="95" width="1" height="25"/><rect class="cls-6" x="361.46" y="95" width="1.3" height="25"/><rect class="cls-5" x="389.09" y="95" width="1" height="25"/><rect class="cls-6" x="416.41" y="95" width="1.3" height="25"/><rect class="cls-6" x="86.68" y="95" width="1.3" height="25"/><rect class="cls-5" x="114.3" y="95" width="1" height="25"/><rect class="cls-6" x="141.63" y="95" width="1.3" height="25"/><rect class="cls-5" x="169.26" y="95" width="1" height="25"/><rect class="cls-6" x="196.59" y="95" width="1.3" height="25"/><rect class="cls-5" x="224.22" y="95" width="1" height="25"/><rect class="cls-6" x="251.55" y="95" width="1.3" height="25"/><rect class="cls-5" x="279.17" y="95" width="1" height="25"/><rect class="cls-6" x="306.5" y="95" width="1.3" height="25"/><rect class="cls-5" x="59.35" y="95" width="1" height="25"/><rect class="cls-6" x="31.72" y="95.75" width="1.3" height="23.78"/><rect class="cls-5" x="718.83" y="95" width="1" height="25"/><rect class="cls-6" x="746.15" y="95" width="1.3" height="25"/><rect class="cls-5" x="773.78" y="95" width="1" height="25"/><rect class="cls-7" x="801.16" y="95" width="1.2" height="25"/><rect class="cls-6" x="471.37" y="95" width="1.3" height="25"/><rect class="cls-5" x="499" y="95" width="1" height="25"/><rect class="cls-6" x="526.33" y="95" width="1.3" height="25"/><rect class="cls-5" x="553.96" y="95" width="1" height="25"/><rect class="cls-6" x="581.28" y="95" width="1.3" height="25"/><rect class="cls-5" x="608.91" y="95" width="1" height="25"/><rect class="cls-6" x="636.24" y="95" width="1.3" height="25"/><rect class="cls-5" x="663.87" y="95" width="1" height="25"/><rect class="cls-6" x="691.2" y="95" width="1.3" height="25"/><rect class="cls-5" x="444.04" y="95" width="1" height="25"/><rect class="cls-6" x="801.11" y="95" width="1.3" height="25"/><rect class="cls-6" x="856.07" y="95" width="1.3" height="25"/><path class="cls-4" d="M365.25,31.93a3.71,3.71,0,0,0-1.67-.41,2.52,2.52,0,0,0-2.23,1.24,6,6,0,0,0-.81,3.32h0a2.43,2.43,0,0,1,2.36-1.48,2.77,2.77,0,0,1,2.14.88,3.24,3.24,0,0,1,.8,2.3,3.41,3.41,0,0,1-.9,2.43,3,3,0,0,1-2.3,1,2.75,2.75,0,0,1-2.44-1.25,6,6,0,0,1-.84-3.42,7.62,7.62,0,0,1,1.1-4.27,3.47,3.47,0,0,1,3.07-1.66,4,4,0,0,1,1.69.29Zm-4.63,5.72a2.89,2.89,0,0,0,.58,1.84,1.93,1.93,0,0,0,3,.09,2.49,2.49,0,0,0,.56-1.66,2.6,2.6,0,0,0-.55-1.75,1.89,1.89,0,0,0-1.49-.62,2.08,2.08,0,0,0-2.08,2.1Z" transform="translate(0 0)"/><path class="cls-4" d="M420.52,31.07,416.43,41h-1.14l3.86-9.25h-5.21v-1h6.58Z" transform="translate(0 0)"/><path class="cls-4" d="M28.69,36.09A7.81,7.81,0,0,1,29.58,32a2.84,2.84,0,0,1,2.55-1.39q3.19,0,3.2,5.26a7.39,7.39,0,0,1-.88,3.95,2.82,2.82,0,0,1-2.55,1.39,2.64,2.64,0,0,1-2.39-1.33A7.21,7.21,0,0,1,28.69,36.09ZM29.82,36q0,4.22,2.2,4.21T34.2,36c0-3-.71-4.45-2.13-4.45S29.82,33,29.82,36Z" transform="translate(0 0)"/><path class="cls-4" d="M91,41H85.22V40h2.33V32l-2.39.73V31.61l3.5-1.09V40H91Z" transform="translate(0 0)"/><path class="cls-4" d="M144.61,41h-6.14V40l3-3a10.93,10.93,0,0,0,1.83-2.17,3.06,3.06,0,0,0,.34-1.42,1.84,1.84,0,0,0-.51-1.4,2.07,2.07,0,0,0-1.48-.49A3.82,3.82,0,0,0,139,32.7V31.52a4.31,4.31,0,0,1,2.78-.94,3,3,0,0,1,2.12.73,2.6,2.6,0,0,1,.8,2,3.75,3.75,0,0,1-.53,1.9,11.84,11.84,0,0,1-2,2.4L139.79,40v0h4.82Z" transform="translate(0 0)"/><path class="cls-4" d="M193.84,39.41a3.68,3.68,0,0,0,2.37.83,2.72,2.72,0,0,0,1.73-.53,1.8,1.8,0,0,0,.66-1.48c0-1.37-1-2.06-2.89-2.06h-.85v-.94h.81c1.71,0,2.57-.64,2.57-1.92s-.66-1.79-2-1.79a3.22,3.22,0,0,0-2,.75v-1.1a4.33,4.33,0,0,1,2.32-.59,3,3,0,0,1,2,.66,2.19,2.19,0,0,1,.8,1.78,2.53,2.53,0,0,1-2.06,2.61v0a2.68,2.68,0,0,1,1.76.77,2.32,2.32,0,0,1,.67,1.68,2.77,2.77,0,0,1-1,2.24,3.93,3.93,0,0,1-2.59.83,4.19,4.19,0,0,1-2.3-.55Z" transform="translate(0 0)"/><path class="cls-4" d="M254.9,38.26h-1.33V41h-1.1V38.26h-4.85v-.73l4.59-6.78h1.36v6.59h1.33Zm-2.43-.92V32.82c0-.31,0-.67,0-1.06h0a7.22,7.22,0,0,1-.39.78l-3.22,4.8Z" transform="translate(0 0)"/><path class="cls-4" d="M303.64,39.56a3.8,3.8,0,0,0,2.13.68,2.56,2.56,0,0,0,1.77-.62,2.16,2.16,0,0,0,.68-1.66,2,2,0,0,0-.68-1.61,3,3,0,0,0-2-.57c-.27,0-.8,0-1.61.08V30.75h4.92v1H305v3.07l.88,0a3.68,3.68,0,0,1,2.53.81,2.86,2.86,0,0,1,.92,2.28,3.05,3.05,0,0,1-1,2.41,3.77,3.77,0,0,1-2.61.88,4.08,4.08,0,0,1-2.1-.42Z" transform="translate(0 0)"/><path class="cls-4" d="M746.32,41h-5.77V40h2.34V32l-2.4.73V31.61l3.5-1.09V40h2.33Z" transform="translate(0 0)"/><path class="cls-4" d="M748.09,39.41a3.68,3.68,0,0,0,2.37.83,2.72,2.72,0,0,0,1.73-.53,1.8,1.8,0,0,0,.66-1.48c0-1.37-1-2.06-2.89-2.06h-.85v-.94h.81c1.71,0,2.57-.64,2.57-1.92s-.66-1.79-2-1.79a3.22,3.22,0,0,0-2,.75v-1.1a4.32,4.32,0,0,1,2.31-.59,3.05,3.05,0,0,1,2,.66,2.22,2.22,0,0,1,.8,1.78,2.53,2.53,0,0,1-2.06,2.61v0a2.7,2.7,0,0,1,1.76.77,2.32,2.32,0,0,1,.67,1.68,2.75,2.75,0,0,1-1,2.24,3.88,3.88,0,0,1-2.58.83,4.19,4.19,0,0,1-2.3-.55Z" transform="translate(0 0)"/><path class="cls-4" d="M800.05,41h-5.76V40h2.33V32l-2.39.73V31.61l3.5-1.09V40h2.32Z" transform="translate(0 0)"/><path class="cls-4" d="M808.26,38.26h-1.33V41h-1.1V38.26H801v-.73l4.59-6.78h1.36v6.59h1.33Zm-2.43-.92V32.82c0-.31,0-.67,0-1.06h0a7.22,7.22,0,0,1-.39.78l-3.23,4.8Z" transform="translate(0 0)"/><path class="cls-4" d="M854.18,41h-5.76V40h2.33V32l-2.39.73V31.61l3.5-1.09V40h2.32Z" transform="translate(0 0)"/><path class="cls-4" d="M856.2,39.56a3.83,3.83,0,0,0,2.13.68,2.53,2.53,0,0,0,1.77-.62,2.13,2.13,0,0,0,.68-1.66,2,2,0,0,0-.68-1.61,3,3,0,0,0-2-.57c-.27,0-.8,0-1.61.08V30.75h4.92v1h-3.86v3.07l.87,0a3.72,3.72,0,0,1,2.54.81,2.88,2.88,0,0,1,.91,2.28,3.05,3.05,0,0,1-1,2.41,3.77,3.77,0,0,1-2.61.88,4.08,4.08,0,0,1-2.1-.42Z" transform="translate(0 0)"/><path class="cls-4" d="M470.61,35.6a2.72,2.72,0,0,1-1.86-2.5,2.27,2.27,0,0,1,.86-1.83,3.33,3.33,0,0,1,2.14-.69,2.91,2.91,0,0,1,1.93.65,2.11,2.11,0,0,1,.78,1.71,2.92,2.92,0,0,1-1.9,2.66v0a2.93,2.93,0,0,1,2.24,2.78,2.46,2.46,0,0,1-.93,2.05,4,4,0,0,1-2.5.72,3.19,3.19,0,0,1-2.14-.73,2.45,2.45,0,0,1-.85-1.94,3,3,0,0,1,2.23-2.88Zm.9.57c-1.33.53-2,1.29-2,2.29a1.55,1.55,0,0,0,.59,1.3,2.34,2.34,0,0,0,1.52.48,2.19,2.19,0,0,0,1.46-.48,1.51,1.51,0,0,0,.58-1.25C473.67,37.47,473,36.68,471.51,36.17Zm1.81-3.08a1.5,1.5,0,0,0-.46-1.15,1.8,1.8,0,0,0-1.22-.41,1.82,1.82,0,0,0-1.22.43,1.37,1.37,0,0,0-.52,1.1c0,.91.56,1.6,1.69,2.06C472.74,34.63,473.32,34,473.32,33.09Z" transform="translate(0 0)"/><path class="cls-4" d="M523.72,39.76a3.69,3.69,0,0,0,1.81.48,2.5,2.5,0,0,0,2.18-1.14,5.63,5.63,0,0,0,.79-3.25h0a2.38,2.38,0,0,1-2.31,1.34,2.82,2.82,0,0,1-2.17-.91,3.23,3.23,0,0,1-.84-2.29,3.47,3.47,0,0,1,.9-2.44,3.07,3.07,0,0,1,2.37-1,2.69,2.69,0,0,1,2.37,1.21,6.12,6.12,0,0,1,.82,3.47,7.57,7.57,0,0,1-1.08,4.36,3.48,3.48,0,0,1-3.06,1.56,4.12,4.12,0,0,1-1.76-.34Zm.57-5.93a2.5,2.5,0,0,0,.57,1.72,1.94,1.94,0,0,0,1.55.64,2,2,0,0,0,1.45-.58,1.91,1.91,0,0,0,.57-1.4,3.11,3.11,0,0,0-.57-1.91,1.91,1.91,0,0,0-3-.1A2.42,2.42,0,0,0,524.29,33.83Z" transform="translate(0 0)"/><path class="cls-4" d="M580.63,41h-5.77V40h2.34V32l-2.39.73V31.61l3.49-1.09V40h2.33Z" transform="translate(0 0)"/><path class="cls-4" d="M582.09,36.09A7.81,7.81,0,0,1,583,32a2.84,2.84,0,0,1,2.55-1.39c2.14,0,3.2,1.75,3.2,5.26a7.49,7.49,0,0,1-.87,3.95,2.84,2.84,0,0,1-2.56,1.39,2.62,2.62,0,0,1-2.38-1.33A7.2,7.2,0,0,1,582.09,36.09Zm1.13-.06q0,4.22,2.2,4.21T587.6,36c0-3-.71-4.45-2.13-4.45S583.22,33,583.22,36Z" transform="translate(0 0)"/><path class="cls-4" d="M635.26,41h-5.77V40h2.33V32l-2.39.73V31.61l3.5-1.09V40h2.33Z" transform="translate(0 0)"/><path class="cls-4" d="M643.12,41h-5.76V40h2.33V32l-2.39.73V31.61l3.5-1.09V40h2.32Z" transform="translate(0 0)"/><path class="cls-4" d="M691.18,41h-5.76V40h2.33V32l-2.39.73V31.61l3.5-1.09V40h2.32Z" transform="translate(0 0)"/><path class="cls-4" d="M698.85,41h-6.14V40l3-3a11.13,11.13,0,0,0,1.82-2.17,3.06,3.06,0,0,0,.34-1.42,1.84,1.84,0,0,0-.51-1.4,2.05,2.05,0,0,0-1.48-.49,3.82,3.82,0,0,0-2.63,1.18V31.52a4.31,4.31,0,0,1,2.78-.94,3,3,0,0,1,2.12.73,2.56,2.56,0,0,1,.8,2,3.83,3.83,0,0,1-.52,1.9,12.32,12.32,0,0,1-2,2.4L694,40v0h4.82Z" transform="translate(0 0)"/><circle class="cls-3" cx="921.88" cy="60" r="10"/></svg>