<svg id="圖層_1" data-name="圖層 1" xmlns="http://www.w3.org/2000/svg" viewBox="0 0 934 469.16"><defs><style>.cls-1,.cls-2{fill:#fff;}.cls-1{opacity:0;}.cls-2{opacity:0.8;}.cls-3{fill:none;stroke:#b2d6d8;stroke-miterlimit:10;stroke-width:0.84px;}.cls-4{fill:#edb218;}.cls-5{fill:#4cc0cc;}.cls-6{fill:#8fdfea;opacity:0.3;}.cls-7{fill:#9e9d9d;}.cls-8{fill:#231815;}.cls-9{fill:#060001;}.cls-10{fill:#009fe8;}</style></defs><title>Triangle-board</title><rect class="cls-1" width="934" height="469"/><polygon class="cls-2" points="467.4 0.52 467 0.12 1.26 468.04 0.3 469 933.7 469 467.4 0.52"/><line class="cls-3" x1="219.51" y1="468.74" x2="714.46" y2="468.74"/><path class="cls-4" d="M218.63,424.67l-24.76-4.37-.09.53,24.76,4.36Z"/><path class="cls-4" d="M230.06,382.21l-23.63-8.6-.18.5,23.63,8.6C229.94,382.54,230,382.37,230.06,382.21Z"/><path class="cls-4" d="M248.73,342.41,227,329.83l-.27.47,21.77,12.57Z"/><path class="cls-4" d="M274,306.46,254.77,290.3c-.11.14-.23.27-.35.41l19.26,16.16C273.79,306.73,273.91,306.59,274,306.46Z"/><path class="cls-4" d="M305.14,275.41,289,256.16l-.41.34,16.16,19.26Z"/><path class="cls-4" d="M341.13,250.19l-12.57-21.77-.46.27,12.57,21.77Z"/><path class="cls-4" d="M381,231.61,372.38,208l-.51.18,8.6,23.63Z"/><path class="cls-4" d="M423.46,220.27l-4.36-24.76-.53.09,4.36,24.76Z"/><path class="cls-4" d="M467.27,216.48V191.34h-.54v25.14Z"/><path class="cls-5" d="M718.24,446.48l25-2.19c0,.18,0,.36,0,.53l-25,2.2C718.28,446.84,718.26,446.66,718.24,446.48Z"/><path class="cls-5" d="M710.57,403.19l24.29-6.51c0,.17.09.35.14.52l-24.29,6.51C710.67,403.53,710.62,403.36,710.57,403.19Z"/><path class="cls-5" d="M695.47,361.9l22.78-10.62.23.48-22.79,10.63C695.62,362.22,695.54,362.06,695.47,361.9Z"/><path class="cls-5" d="M673.4,323.88,694,309.46l.3.44-20.59,14.42Z"/><path class="cls-5" d="M645.1,290.25l17.78-17.77.38.37-17.78,17.78Z"/><path class="cls-5" d="M611.41,262l14.42-20.59c.15.1.3.2.44.31l-14.42,20.59Z"/><path class="cls-5" d="M573.35,240,584,217.25l.49.23-10.63,22.79Z"/><path class="cls-5" d="M532,225l6.5-24.29.52.14-6.51,24.29Z"/><path class="cls-5" d="M488.72,217.44l2.19-25,.53,0-2.19,25.05Z"/><path class="cls-6" d="M246.27,469c0-126.33,94.4-220.73,220.73-220.73S687.73,342.67,687.73,469h31.52c0-139.31-112.94-252.25-252.25-252.25S214.75,329.69,214.75,469h31.52Z"/><path class="cls-5" d="M467.4.52l-.4-.4L1.26,468l-1,1H933.7ZM467,2.87,929,467.06H5Z"/><path class="cls-5" d="M215.76,446.48l-25-2.19c0,.18,0,.36,0,.53l25,2.2C215.72,446.84,215.74,446.66,215.76,446.48Z"/><path class="cls-5" d="M223.43,403.19l-24.29-6.51c0,.17-.09.35-.14.52l24.29,6.51C223.33,403.53,223.38,403.36,223.43,403.19Z"/><path class="cls-5" d="M238.53,361.9l-22.78-10.62-.23.48,22.79,10.63C238.38,362.22,238.46,362.06,238.53,361.9Z"/><path class="cls-5" d="M260.6,323.88,240,309.46l-.3.44,20.59,14.42Z"/><path class="cls-5" d="M288.9,290.25l-17.78-17.77-.38.37,17.78,17.78Z"/><path class="cls-5" d="M322.59,262l-14.42-20.59c-.15.1-.3.2-.44.31l14.42,20.59Z"/><path class="cls-5" d="M360.65,240,350,217.25l-.49.23,10.63,22.79Z"/><path class="cls-5" d="M402,225l-6.5-24.29-.52.14,6.51,24.29Z"/><path class="cls-5" d="M445.28,217.44l-2.19-25-.53,0,2.19,25.05Z"/><path class="cls-7" d="M454.07,216.82l-1.32-25.11-.53,0,1.31,25.1Z"/><path class="cls-7" d="M458.47,216.65l-.88-25.13-.54,0,.88,25.13Z"/><path class="cls-7" d="M462.87,216.53l-.44-25.13h-.54l.44,25.13Z"/><path class="cls-7" d="M216.17,442.1l-25-2.63-.06.53,25,2.63Z"/><path class="cls-7" d="M216.67,437.73l-24.95-3.07-.06.53,25,3.07Z"/><path class="cls-7" d="M217.26,433.36l-24.9-3.5-.07.53,24.89,3.5C217.21,433.72,217.23,433.54,217.26,433.36Z"/><path class="cls-7" d="M217.91,429l-24.83-3.93-.09.52,24.83,3.94Z"/><path class="cls-7" d="M219.45,420.34l-24.68-4.8c0,.18-.07.35-.1.53l24.68,4.8C219.38,420.69,219.41,420.51,219.45,420.34Z"/><path class="cls-7" d="M220.33,416l-24.59-5.23-.12.52,24.59,5.23Z"/><path class="cls-7" d="M221.27,411.73l-24.5-5.66-.12.52,24.5,5.66Z"/><path class="cls-7" d="M222.31,407.45l-24.39-6.08c0,.17-.09.34-.13.52l24.4,6.08Z"/><path class="cls-7" d="M224.6,399,200.43,392c-.05.18-.11.35-.15.52l24.17,6.93C224.49,399.29,224.55,399.12,224.6,399Z"/><path class="cls-7" d="M225.85,394.73l-24-7.36-.15.52,24,7.35Z"/><path class="cls-7" d="M227.19,390.53l-23.91-7.77c-.05.17-.11.34-.17.51L227,391C227.08,390.87,227.14,390.7,227.19,390.53Z"/><path class="cls-7" d="M228.59,386.36l-23.77-8.19-.18.51,23.78,8.18C228.47,386.7,228.54,386.53,228.59,386.36Z"/><path class="cls-7" d="M231.62,378.09l-23.47-9c-.07.17-.13.33-.19.5l23.47,9C231.49,378.43,231.56,378.26,231.62,378.09Z"/><path class="cls-7" d="M233.24,374l-23.31-9.42-.2.5L233,374.5C233.11,374.33,233.18,374.16,233.24,374Z"/><path class="cls-7" d="M234.93,369.93l-23.15-9.82-.21.49,23.14,9.82C234.78,370.26,234.86,370.1,234.93,369.93Z"/><path class="cls-7" d="M236.69,365.9l-23-10.23-.21.49,23,10.23Z"/><path class="cls-7" d="M240.44,357.93l-22.6-11-.24.48,22.6,11Z"/><path class="cls-7" d="M242.4,354,220,342.57l-.24.48,22.41,11.42C242.24,354.31,242.31,354.15,242.4,354Z"/><path class="cls-7" d="M244.45,350.1l-22.2-11.81-.25.48,22.2,11.8Z"/><path class="cls-7" d="M246.56,346.24l-22-12.19-.26.46,22,12.19Z"/><path class="cls-7" d="M251,338.62l-21.55-12.95-.27.46,21.55,12.95Z"/><path class="cls-7" d="M253.29,334.87,232,321.55c-.1.15-.19.31-.28.46L253,335.33Z"/><path class="cls-7" d="M255.66,331.17l-21.08-13.69-.3.44,21.09,13.7C255.46,331.47,255.56,331.32,255.66,331.17Z"/><path class="cls-7" d="M258.09,327.5l-20.84-14.06-.31.44,20.85,14.06Z"/><path class="cls-7" d="M263.16,320.31l-20.33-14.78-.32.43,20.34,14.78C263,320.59,263.06,320.45,263.16,320.31Z"/><path class="cls-7" d="M265.79,316.77l-20.08-15.13-.33.43,20.08,15.13Z"/><path class="cls-7" d="M268.46,313.28,248.65,297.8l-.32.43,19.81,15.47Z"/><path class="cls-7" d="M271.22,309.85,251.68,294l-.33.42,19.53,15.81C271,310.13,271.11,310,271.22,309.85Z"/><path class="cls-7" d="M276.88,303.11l-19-16.49c-.12.13-.24.26-.35.4l19,16.49C276.64,303.38,276.77,303.25,276.88,303.11Z"/><path class="cls-7" d="M279.8,299.82,261.12,283l-.35.4,18.68,16.82Z"/><path class="cls-7" d="M282.79,296.59,264.4,279.44l-.36.39L282.42,297Z"/><path class="cls-7" d="M285.82,293.4l-18.08-17.47-.38.39,18.09,17.46Z"/><path class="cls-7" d="M292.05,287.18,274.59,269.1l-.39.37,17.46,18.08Z"/><path class="cls-7" d="M295.25,284.15,278.1,265.77l-.39.37,17.14,18.38Z"/><path class="cls-7" d="M298.49,281.18,281.67,262.5l-.4.35,16.82,18.69Z"/><path class="cls-7" d="M301.78,278.26l-16.49-19c-.14.11-.27.24-.4.35l16.49,19Z"/><path class="cls-7" d="M308.53,272.62l-15.82-19.54c-.14.11-.28.22-.41.34L308.12,273Z"/><path class="cls-7" d="M312,269.87l-15.48-19.81-.42.33,15.48,19.81Z"/><path class="cls-7" d="M315.46,267.19l-15.12-20.07c-.15.1-.29.21-.43.32L315,267.52Z"/><path class="cls-7" d="M319,264.58l-14.78-20.34-.43.32,14.77,20.34Z"/><path class="cls-7" d="M326.21,259.52l-14.06-20.84-.44.3,14.05,20.84Z"/><path class="cls-7" d="M329.88,257.1,316.19,236l-.45.29,13.7,21.08Z"/><path class="cls-7" d="M333.6,254.74l-13.32-21.32-.46.28L333.14,255Z"/><path class="cls-7" d="M345,248l-12.19-22-.47.27,12.19,22Z"/><path class="cls-7" d="M348.84,245.93,337,223.73l-.48.25,11.8,22.2Z"/><path class="cls-7" d="M352.74,243.89l-11.42-22.4-.48.23,11.42,22.41Z"/><path class="cls-7" d="M356.68,241.93l-11-22.6-.48.24,11,22.6Z"/><path class="cls-7" d="M364.66,238.21l-10.23-23-.49.21,10.23,23Z"/><path class="cls-7" d="M368.69,236.44l-9.82-23.14-.49.21,9.82,23.15Z"/><path class="cls-7" d="M372.76,234.77l-9.42-23.31-.49.2L372.27,235Z"/><path class="cls-7" d="M376.86,233.16l-9-23.47-.5.19,9,23.47Z"/><path class="cls-7" d="M385.13,230.15,377,206.37l-.51.18,8.19,23.78Z"/><path class="cls-7" d="M389.31,228.76l-7.77-23.91L381,205l7.77,23.92Z"/><path class="cls-7" d="M393.51,227.43l-7.35-24-.52.15L393,227.59Z"/><path class="cls-7" d="M397.73,226.18,390.8,202l-.52.15,6.93,24.17Z"/><path class="cls-7" d="M406.24,223.92l-6.09-24.4-.52.13,6.09,24.4Z"/><path class="cls-7" d="M410.52,222.88l-5.66-24.5-.52.12L410,223Z"/><path class="cls-7" d="M414.82,222l-5.23-24.6-.52.12,5.22,24.59Z"/><path class="cls-7" d="M419.13,221.08l-4.79-24.68-.53.1,4.8,24.68Z"/><path class="cls-7" d="M427.81,219.55l-3.94-24.83-.53.09,3.94,24.83Z"/><path class="cls-7" d="M432.16,218.92l-3.5-24.9-.53.08,3.5,24.89Z"/><path class="cls-7" d="M436.53,218.34l-3.07-25-.53.06,3.06,25Z"/><path class="cls-7" d="M440.9,217.84l-2.63-25-.53.06,2.63,25Z"/><path class="cls-7" d="M449.67,217.1,447.92,192l-.54,0,1.76,25.08Z"/><path class="cls-7" d="M337.35,252.43l-13-21.55-.46.27,12.94,21.55Z"/><path class="cls-7" d="M479.93,216.82l1.32-25.11.53,0-1.31,25.1Z"/><path class="cls-7" d="M475.53,216.65l.88-25.13.54,0-.88,25.13Z"/><path class="cls-7" d="M471.13,216.53l.44-25.13h.54l-.44,25.13Z"/><path class="cls-7" d="M717.83,442.1l25-2.63.06.53-25,2.63Z"/><path class="cls-7" d="M717.33,437.73l24.95-3.07.06.53-25,3.07Z"/><path class="cls-7" d="M716.74,433.36l24.9-3.5.07.53-24.89,3.5C716.79,433.72,716.77,433.54,716.74,433.36Z"/><path class="cls-7" d="M716.09,429l24.83-3.93.09.52-24.83,3.94Z"/><path class="cls-7" d="M714.55,420.34l24.68-4.8c0,.18.07.35.1.53l-24.68,4.8C714.62,420.69,714.59,420.51,714.55,420.34Z"/><path class="cls-7" d="M713.67,416l24.59-5.23.12.52-24.59,5.23Z"/><path class="cls-7" d="M712.73,411.73l24.5-5.66.12.52-24.5,5.66Z"/><path class="cls-7" d="M711.69,407.45l24.39-6.08c0,.17.09.34.13.52L711.81,408Z"/><path class="cls-7" d="M709.4,399,733.57,392c0,.18.11.35.15.52l-24.17,6.93C709.51,399.29,709.45,399.12,709.4,399Z"/><path class="cls-7" d="M708.15,394.73l24-7.36.15.52-24,7.35Z"/><path class="cls-7" d="M706.81,390.53l23.91-7.77c0,.17.11.34.17.51L707,391C706.92,390.87,706.86,390.7,706.81,390.53Z"/><path class="cls-7" d="M705.41,386.36l23.77-8.19.18.51-23.78,8.18C705.53,386.7,705.46,386.53,705.41,386.36Z"/><path class="cls-7" d="M702.38,378.09l23.47-9c.07.17.13.33.19.5l-23.47,9C702.51,378.43,702.44,378.26,702.38,378.09Z"/><path class="cls-7" d="M700.76,374l23.31-9.42.2.5L701,374.5Z"/><path class="cls-7" d="M699.07,369.93l23.15-9.82.21.49-23.14,9.82C699.22,370.26,699.14,370.1,699.07,369.93Z"/><path class="cls-7" d="M697.31,365.9l23-10.23.21.49-23,10.23Z"/><path class="cls-7" d="M693.56,357.93l22.6-11,.24.48-22.6,11Z"/><path class="cls-7" d="M691.6,354,714,342.57c.08.16.16.33.24.48l-22.41,11.42C691.76,354.31,691.69,354.15,691.6,354Z"/><path class="cls-7" d="M689.55,350.1l22.2-11.81.25.48-22.2,11.8Z"/><path class="cls-7" d="M687.44,346.24l22-12.19.26.46-22,12.19Z"/><path class="cls-7" d="M683,338.62l21.55-12.95.27.46L683.3,339.08Z"/><path class="cls-7" d="M680.71,334.87,702,321.55c.1.15.19.31.28.46L681,335.33Z"/><path class="cls-7" d="M678.34,331.17l21.08-13.69.3.44-21.09,13.7C678.54,331.47,678.44,331.32,678.34,331.17Z"/><path class="cls-7" d="M675.91,327.5l20.84-14.06.31.44-20.85,14.06Z"/><path class="cls-7" d="M670.84,320.31l20.33-14.78.32.43-20.34,14.78C671.05,320.59,670.94,320.45,670.84,320.31Z"/><path class="cls-7" d="M668.21,316.77l20.08-15.13.33.43L668.54,317.2Z"/><path class="cls-7" d="M665.54,313.28l19.81-15.48.32.43L665.86,313.7Z"/><path class="cls-7" d="M662.78,309.85,682.32,294l.33.42-19.53,15.81C663,310.13,662.89,310,662.78,309.85Z"/><path class="cls-7" d="M657.12,303.11l19-16.49c.12.13.24.26.35.4l-19,16.49C657.36,303.38,657.23,303.25,657.12,303.11Z"/><path class="cls-7" d="M654.2,299.82,672.88,283l.35.4-18.68,16.82Z"/><path class="cls-7" d="M651.21,296.59l18.39-17.15.36.39L651.58,297Z"/><path class="cls-7" d="M648.18,293.4l18.08-17.47.38.39-18.09,17.46Z"/><path class="cls-7" d="M642,287.18l17.46-18.08.39.37-17.46,18.08Z"/><path class="cls-7" d="M638.75,284.15l17.15-18.38.39.37-17.14,18.38Z"/><path class="cls-7" d="M635.51,281.18l16.82-18.68.4.35-16.82,18.69Z"/><path class="cls-7" d="M632.22,278.26l16.49-19c.14.11.27.24.4.35l-16.49,19Z"/><path class="cls-7" d="M625.47,272.62l15.82-19.54c.14.11.28.22.41.34L625.88,273Z"/><path class="cls-7" d="M622,269.87l15.48-19.81.42.33L622.45,270.2Z"/><path class="cls-7" d="M618.54,267.19l15.12-20.07c.15.1.29.21.43.32L619,267.52Z"/><path class="cls-7" d="M615,264.58l14.78-20.34.43.32L615.43,264.9Z"/><path class="cls-7" d="M607.79,259.52l14.06-20.84.44.3-14,20.84Z"/><path class="cls-7" d="M604.12,257.1,617.81,236l.45.29-13.7,21.08Z"/><path class="cls-7" d="M600.4,254.74l13.32-21.32.46.28L600.86,255Z"/><path class="cls-7" d="M589,248l12.19-22,.47.27-12.19,22Z"/><path class="cls-7" d="M585.16,245.93l11.8-22.2.48.25-11.8,22.2Z"/><path class="cls-7" d="M581.26,243.89l11.42-22.4.48.23-11.42,22.41Z"/><path class="cls-7" d="M577.32,241.93l11-22.6.48.24-11,22.6Z"/><path class="cls-7" d="M569.34,238.21l10.23-23,.49.21-10.23,23Z"/><path class="cls-7" d="M565.31,236.44l9.82-23.14.49.21-9.82,23.15Z"/><path class="cls-7" d="M561.24,234.77l9.42-23.31.49.2L561.73,235Z"/><path class="cls-7" d="M557.14,233.16l9-23.47.5.19-9,23.47Z"/><path class="cls-7" d="M548.87,230.15l8.18-23.78.51.18-8.19,23.78Z"/><path class="cls-7" d="M544.69,228.76l7.77-23.91.51.16-7.77,23.92Z"/><path class="cls-7" d="M540.49,227.43l7.35-24,.52.15L541,227.59Z"/><path class="cls-7" d="M536.27,226.18,543.2,202l.52.15-6.93,24.17Z"/><path class="cls-7" d="M527.76,223.92l6.09-24.4.52.13-6.09,24.4Z"/><path class="cls-7" d="M523.48,222.88l5.66-24.5.52.12L524,223Z"/><path class="cls-7" d="M519.18,222l5.23-24.6.52.12-5.22,24.59Z"/><path class="cls-7" d="M514.87,221.08l4.79-24.68.53.1-4.8,24.68Z"/><path class="cls-7" d="M506.19,219.55l3.94-24.83.53.09-3.94,24.83Z"/><path class="cls-7" d="M501.84,218.92l3.5-24.9.53.08L502.37,219Z"/><path class="cls-7" d="M497.47,218.34l3.07-25,.53.06-3.06,25Z"/><path class="cls-7" d="M493.1,217.84l2.63-25,.53.06-2.63,25Z"/><path class="cls-7" d="M484.33,217.1,486.08,192l.54,0-1.76,25.08Z"/><path class="cls-7" d="M596.65,252.43l13-21.55.46.27L597.12,252.7Z"/><path class="cls-7" d="M715.37,424.67l24.76-4.37.09.53-24.76,4.36Z"/><path class="cls-7" d="M703.94,382.21l23.63-8.6.18.5-23.63,8.6C704.06,382.54,704,382.37,703.94,382.21Z"/><path class="cls-7" d="M685.27,342.41,707,329.83l.27.47-21.77,12.57Z"/><path class="cls-7" d="M660,306.46l19.26-16.16c.11.14.23.27.35.41l-19.26,16.16C660.21,306.73,660.09,306.59,660,306.46Z"/><path class="cls-7" d="M628.86,275.41,645,256.16l.41.34-16.16,19.26Z"/><path class="cls-7" d="M592.87,250.19l12.57-21.77.46.27-12.57,21.77Z"/><path class="cls-7" d="M553,231.61l8.6-23.63.51.18-8.6,23.63Z"/><path class="cls-7" d="M510.54,220.27l4.36-24.76.53.09-4.36,24.76Z"/><path class="cls-7" d="M466.73,216.48V191.34h.54v25.14Z"/><path class="cls-8" d="M233.86,432.5l-.82,4.92-.83-.14.33-2-6.83-1.13.27,2.14-.9-.15-.43-3.13,8,1.33.33-2Z"/><path class="cls-8" d="M229.93,430.5a6.59,6.59,0,0,1-3.32-1.42,2.46,2.46,0,0,1-.75-2.4q.52-2.71,5-1.85a6.36,6.36,0,0,1,3.18,1.39,2.46,2.46,0,0,1,.74,2.4,2.28,2.28,0,0,1-1.52,1.8A6,6,0,0,1,229.93,430.5Zm.13-1q3.56.69,3.91-1.18c.24-1.23-.83-2.08-3.23-2.55s-3.86-.13-4.09,1.07S227.54,429,230.06,429.54Z"/><path class="cls-8" d="M244,394.35l-1.74,5-.81-.27-1.59-3.29a9.44,9.44,0,0,0-1.24-2.1,2.72,2.72,0,0,0-1.06-.68,1.57,1.57,0,0,0-1.28,0,1.8,1.8,0,0,0-.82,1.06,3.39,3.39,0,0,0,.22,2.49l-1-.33a3.82,3.82,0,0,1,0-2.54,2.63,2.63,0,0,1,1.2-1.53,2.17,2.17,0,0,1,1.84-.09,3.33,3.33,0,0,1,1.4,1,11.11,11.11,0,0,1,1.38,2.3L241.8,398h0l1.36-3.94Z"/><path class="cls-8" d="M240.52,391.54a6.48,6.48,0,0,1-3-2,2.46,2.46,0,0,1-.34-2.49q1-2.59,5.2-1a6.28,6.28,0,0,1,2.89,1.91,2.45,2.45,0,0,1,.34,2.49,2.28,2.28,0,0,1-1.8,1.52A6.17,6.17,0,0,1,240.52,391.54Zm.3-.92q3.38,1.28,4.05-.5t-2.76-3.07c-2.37-.9-3.78-.77-4.21.38S238.41,389.7,240.82,390.62Z"/><path class="cls-8" d="M258.2,359.53a3.17,3.17,0,0,0,1.63-1.43,2.26,2.26,0,0,0,.34-1.53,1.53,1.53,0,0,0-.82-1.12c-1-.58-1.94-.14-2.77,1.31l-.36.64-.7-.4.34-.61c.73-1.29.62-2.2-.34-2.74s-1.61-.26-2.16.72a2.79,2.79,0,0,0-.31,1.86l-.83-.47a3.83,3.83,0,0,1,.55-2,2.62,2.62,0,0,1,1.35-1.23,1.84,1.84,0,0,1,1.67.15,2.16,2.16,0,0,1,1.07,2.65h0a2.36,2.36,0,0,1,1.32-1,1.91,1.91,0,0,1,1.54.21,2.31,2.31,0,0,1,1.24,1.7,3.44,3.44,0,0,1-.47,2.3,3.78,3.78,0,0,1-1.39,1.5Z"/><path class="cls-8" d="M259,352.38a6.56,6.56,0,0,1-2.62-2.47,2.46,2.46,0,0,1,.12-2.51c.95-1.59,2.71-1.6,5.29,0a6.42,6.42,0,0,1,2.51,2.41,2.46,2.46,0,0,1-.12,2.51,2.29,2.29,0,0,1-2.05,1.17A6.12,6.12,0,0,1,259,352.38Zm.46-.86c2.07,1.25,3.42,1.33,4.08.24s-.07-2.24-2.16-3.51-3.58-1.44-4.22-.39S257.25,350.19,259.45,351.52Z"/><path class="cls-8" d="M283,321.4l-.72.89,1.84,1.49-.6.74L281.71,323l-2.64,3.26-.49-.39-2-6.75.75-.91,4.38,3.56.73-.89Zm-1.93,1.14-3-2.44-.7-.6v0c0,.08.15.31.31.69l1.43,4.76Z"/><path class="cls-8" d="M282.27,319.42a6.52,6.52,0,0,1-2.17-2.88,2.44,2.44,0,0,1,.53-2.45q1.8-2.1,5.22.84a6.37,6.37,0,0,1,2.08,2.78,2.48,2.48,0,0,1-.54,2.46,2.29,2.29,0,0,1-2.21.81A6.06,6.06,0,0,1,282.27,319.42Zm.6-.77c1.82,1.57,3.15,1.88,4,.91s.3-2.22-1.55-3.81-3.29-2-4.09-1.09S280.91,317,282.87,318.65Z"/><path class="cls-8" d="M310,295.31a3.38,3.38,0,0,0,1.78-.75,2.24,2.24,0,0,0,.81-1.41,1.78,1.78,0,0,0-.48-1.46,1.74,1.74,0,0,0-1.35-.67,2.65,2.65,0,0,0-1.61.74l-1,1-2.85-3.32,3.22-2.77.57.65-2.54,2.18,1.72,2c.24-.23.42-.4.55-.51a3.21,3.21,0,0,1,2.12-.9,2.44,2.44,0,0,1,1.88,1,2.61,2.61,0,0,1,.69,2.13,3.26,3.26,0,0,1-1.22,2.05,3.54,3.54,0,0,1-1.61.9Z"/><path class="cls-8" d="M312.94,288.91a6.65,6.65,0,0,1-1.63-3.22,2.51,2.51,0,0,1,1-2.33c1.44-1.16,3.1-.57,5,1.76a6.34,6.34,0,0,1,1.54,3.11,2.45,2.45,0,0,1-1,2.32,2.28,2.28,0,0,1-2.33.41A6.17,6.17,0,0,1,312.94,288.91Zm.73-.66q2.26,2.81,3.75,1.61c1-.79.69-2.14-.84-4s-2.88-2.58-3.83-1.8S312,286.25,313.67,288.25Z"/><path class="cls-8" d="M345.37,262.06a3.2,3.2,0,0,0-1.43.44,2.2,2.2,0,0,0-1.12,1.88,5,5,0,0,0,.83,2.81h0a2.09,2.09,0,0,1,1.11-2.12,2.42,2.42,0,0,1,2-.29,2.72,2.72,0,0,1,1.59,1.35,2.92,2.92,0,0,1,.38,2.19,2.57,2.57,0,0,1-1.29,1.72,2.4,2.4,0,0,1-2.37.15A5.25,5.25,0,0,1,343,268a6.51,6.51,0,0,1-1-3.63,3,3,0,0,1,1.57-2.58,3.59,3.59,0,0,1,1.39-.52Zm-1,6.26a2.52,2.52,0,0,0,1.23,1.11,1.69,1.69,0,0,0,2.27-1.24,2.14,2.14,0,0,0-.31-1.47,2.18,2.18,0,0,0-1.16-1.05,1.61,1.61,0,0,0-1.38.19,1.73,1.73,0,0,0-.84,1.09A1.78,1.78,0,0,0,344.39,268.32Z"/><path class="cls-8" d="M348.6,264.32a6.61,6.61,0,0,1-1-3.46,2.47,2.47,0,0,1,1.36-2.11q2.43-1.33,4.6,2.62a6.34,6.34,0,0,1,1,3.34,2.46,2.46,0,0,1-1.36,2.11,2.27,2.27,0,0,1-2.36,0A6.1,6.1,0,0,1,348.6,264.32Zm.83-.51q1.74,3.17,3.4,2.25c1.11-.61,1.07-2-.1-4.12s-2.37-3.05-3.45-2.46S348.19,261.55,349.43,263.81Z"/><path class="cls-8" d="M382.64,243.91l-.29,9.22-.93.35.32-8.6-4.21,1.59-.31-.81,5.33-2Z"/><path class="cls-8" d="M385.3,247.52a6.59,6.59,0,0,1-.43-3.58,2.47,2.47,0,0,1,1.69-1.86q2.63-.9,4.09,3.36a6.28,6.28,0,0,1,.39,3.45,2.43,2.43,0,0,1-1.69,1.85,2.27,2.27,0,0,1-2.33-.41A6.07,6.07,0,0,1,385.3,247.52Zm.9-.37q1.19,3.42,3,2.79c1.19-.41,1.38-1.76.58-4.07s-1.82-3.4-3-3S385.36,244.72,386.2,247.15Z"/><path class="cls-8" d="M419.43,237.64a2.34,2.34,0,0,1-2-1.8,1.9,1.9,0,0,1,.43-1.68,2.81,2.81,0,0,1,1.69-.94,2.53,2.53,0,0,1,1.75.23,1.82,1.82,0,0,1,.95,1.31,2.52,2.52,0,0,1-1.18,2.56v0a2.5,2.5,0,0,1,2.36,2,2.06,2.06,0,0,1-.45,1.87,3.51,3.51,0,0,1-2,1,2.76,2.76,0,0,1-1.94-.27,2.06,2.06,0,0,1-1.05-1.48,2.62,2.62,0,0,1,1.43-2.8Zm1.89-2.57a1.22,1.22,0,0,0-.58-.88,1.57,1.57,0,0,0-1.11-.15,1.64,1.64,0,0,0-1,.57,1.19,1.19,0,0,0-.26,1c.15.76.74,1.25,1.77,1.45C421.08,236.47,421.46,235.8,421.32,235.07Zm-1,2.89c-1,.67-1.48,1.42-1.32,2.26a1.34,1.34,0,0,0,.72,1,2.08,2.08,0,0,0,1.37.15,1.93,1.93,0,0,0,1.16-.64,1.34,1.34,0,0,0,.29-1.16C422.34,238.7,421.6,238.16,420.29,238Z"/><path class="cls-8" d="M424.27,237.13a6.65,6.65,0,0,1,.18-3.6,2.49,2.49,0,0,1,2-1.55c1.82-.3,3,1,3.46,4a6.33,6.33,0,0,1-.19,3.47,2.46,2.46,0,0,1-2,1.54,2.27,2.27,0,0,1-2.22-.8A6.12,6.12,0,0,1,424.27,237.13Zm1-.21c.39,2.38,1.21,3.46,2.46,3.26s1.66-1.52,1.27-3.93-1.23-3.66-2.44-3.46S424.8,234.38,425.23,236.92Z"/><path class="cls-8" d="M461.12,236.63a3.23,3.23,0,0,0,1.57.39,2.19,2.19,0,0,0,1.87-1,4.81,4.81,0,0,0,.64-2.8h0a2.06,2.06,0,0,1-2,1.18,2.49,2.49,0,0,1-1.89-.75,2.8,2.8,0,0,1-.76-1.95,3,3,0,0,1,.75-2.1,2.65,2.65,0,0,1,2-.87,2.31,2.31,0,0,1,2.06,1,5.19,5.19,0,0,1,.76,3,6.4,6.4,0,0,1-.87,3.75,3,3,0,0,1-2.63,1.38,3.61,3.61,0,0,1-1.53-.27Zm.41-5.09A2.14,2.14,0,0,0,462,233a1.67,1.67,0,0,0,1.35.53,1.7,1.7,0,0,0,1.25-.51,1.65,1.65,0,0,0,.47-1.21,2.66,2.66,0,0,0-.52-1.64,1.66,1.66,0,0,0-2.59,0A2.09,2.09,0,0,0,461.53,231.54Z"/><path class="cls-8" d="M467.4,233.4a6.67,6.67,0,0,1,.82-3.51,2.5,2.5,0,0,1,2.23-1.17q2.78,0,2.7,4.56a6.36,6.36,0,0,1-.82,3.37,2.44,2.44,0,0,1-2.22,1.16,2.28,2.28,0,0,1-2.05-1.18A6.15,6.15,0,0,1,467.4,233.4Zm1,0c0,2.41.57,3.63,1.84,3.65s1.91-1.19,1.95-3.64-.56-3.82-1.78-3.84S468.42,230.79,468.38,233.36Z"/><path class="cls-8" d="M502.78,240.36l-4.94-.7.12-.84,2,.28,1-6.84-2.13.32.13-.91,3.12-.5-1.14,8.07,2,.28Z"/><path class="cls-8" d="M504.68,236.38A6.71,6.71,0,0,1,506,233a2.45,2.45,0,0,1,2.38-.8c1.82.31,2.48,1.94,2,4.91a6.21,6.21,0,0,1-1.32,3.21,2.46,2.46,0,0,1-2.38.81,2.31,2.31,0,0,1-1.84-1.48A6.15,6.15,0,0,1,504.68,236.38Zm1,.12q-.6,3.56,1.27,3.88t2.48-3.3c.42-2.5,0-3.86-1.18-4.06S506.09,234,505.65,236.5Z"/><path class="cls-8" d="M511.44,237.55a6.59,6.59,0,0,1,1.45-3.3,2.45,2.45,0,0,1,2.4-.75c1.81.37,2.42,2,1.83,5a6.37,6.37,0,0,1-1.41,3.17,2.45,2.45,0,0,1-2.4.74,2.28,2.28,0,0,1-1.8-1.53A6.08,6.08,0,0,1,511.44,237.55Zm1,.14c-.47,2.37-.09,3.67,1.16,3.92s2.09-.83,2.56-3.22.15-3.86-1-4.1S512.91,235.17,512.41,237.69Z"/><path class="cls-8" d="M544.94,250.87l-4.72-1.59.27-.81,1.91.65,2.21-6.56-2.15-.07.29-.87,3.16.08-2.6,7.73,1.9.64Z"/><path class="cls-8" d="M551.29,253.2l-4.67-1.73.29-.79,1.89.7,2.41-6.49-2.16-.14.32-.86,3.16.17-2.83,7.65,1.89.7Z"/><path class="cls-8" d="M554,249.71a6.6,6.6,0,0,1,2-3,2.45,2.45,0,0,1,2.49-.29c1.72.69,2,2.43.89,5.22a6.45,6.45,0,0,1-2,2.86,2.47,2.47,0,0,1-2.5.28,2.3,2.3,0,0,1-1.49-1.84A6.13,6.13,0,0,1,554,249.71Zm.92.32c-.9,2.23-.76,3.59.42,4.06s2.2-.43,3.12-2.69.85-3.77-.29-4.23S555.87,247.64,554.9,250Z"/><path class="cls-8" d="M581.92,267.54l-4.38-2.39.41-.74,1.77,1,3.3-6.07-2.11-.45.44-.8,3.1.62-3.89,7.16,1.77,1Z"/><path class="cls-8" d="M587.63,270.84,583,268.16l.43-.74,3.53-.93a9.67,9.67,0,0,0,2.3-.81,2.71,2.71,0,0,0,.87-.91,1.6,1.6,0,0,0,.22-1.26,1.77,1.77,0,0,0-.89-1,3.31,3.31,0,0,0-2.48-.27l.5-.88a3.79,3.79,0,0,1,2.49.51,2.63,2.63,0,0,1,1.27,1.47,2.21,2.21,0,0,1-.26,1.83,3.35,3.35,0,0,1-1.21,1.18,10.92,10.92,0,0,1-2.53.91l-2.81.71v0l3.6,2.1Z"/><path class="cls-8" d="M591,268a6.63,6.63,0,0,1,2.51-2.59,2.46,2.46,0,0,1,2.51.14q2.36,1.47,0,5.29a6.27,6.27,0,0,1-2.43,2.48,2.46,2.46,0,0,1-2.51-.15,2.26,2.26,0,0,1-1.14-2.06A6.08,6.08,0,0,1,591,268Zm.85.47c-1.26,2.05-1.36,3.4-.28,4.07s2.24,0,3.53-2.12,1.49-3.56.45-4.2S593.24,266.23,591.88,268.42Z"/><path class="cls-8" d="M615.51,290.29l-3.91-3.1.52-.66,1.59,1.25,4.29-5.42-2-.8.56-.71,3,1.14-5.06,6.39,1.57,1.25Z"/><path class="cls-8" d="M617.53,290.17a3.22,3.22,0,0,0,1.12,1.87,2.28,2.28,0,0,0,1.43.6,1.49,1.49,0,0,0,1.26-.6c.75-.9.49-1.88-.79-3l-.56-.48.52-.62.54.45c1.13.95,2.06,1,2.76.17a1.42,1.42,0,0,0-.32-2.26,2.79,2.79,0,0,0-1.76-.65l.61-.72a3.75,3.75,0,0,1,1.86.9,2.64,2.64,0,0,1,1,1.56,1.86,1.86,0,0,1-.45,1.61,2.18,2.18,0,0,1-2.81.57v0a2.29,2.29,0,0,1,.74,1.48,2,2,0,0,1-.48,1.48,2.36,2.36,0,0,1-1.91.9,3.38,3.38,0,0,1-2.17-.88,3.72,3.72,0,0,1-1.22-1.65Z"/><path class="cls-8" d="M624.41,292.24a6.63,6.63,0,0,1,2.91-2.13,2.49,2.49,0,0,1,2.45.58q2.07,1.83-.93,5.21a6.31,6.31,0,0,1-2.82,2,2.45,2.45,0,0,1-2.44-.57,2.26,2.26,0,0,1-.78-2.23A6.09,6.09,0,0,1,624.41,292.24Zm.76.61q-2.4,2.7-1,4c.94.83,2.22.34,3.84-1.49s2.08-3.26,1.16-4.07S626.88,290.93,625.17,292.85Z"/><path class="cls-8" d="M644.74,318.43l-3.33-3.72.63-.56,1.35,1.5,5.15-4.61-1.84-1.13.68-.61,2.72,1.63L644,316.37l1.35,1.49Z"/><path class="cls-8" d="M651.1,322.26l-.74-.87-1.81,1.52-.61-.72,1.8-1.53-2.71-3.2.48-.41,7-.72.76.9L651,320.88l.74.88Zm-.76-2.11,3-2.5.71-.57v0l-.74.18-4.94.53Z"/><path class="cls-8" d="M653.17,321.86a6.65,6.65,0,0,1,3.24-1.6,2.46,2.46,0,0,1,2.31,1q1.72,2.16-1.8,5a6.31,6.31,0,0,1-3.12,1.52,2.46,2.46,0,0,1-2.31-1,2.25,2.25,0,0,1-.39-2.33A6.14,6.14,0,0,1,653.17,321.86Zm.65.73c-1.88,1.51-2.43,2.75-1.64,3.74s2.13.72,4-.81,2.6-2.85,1.83-3.81S655.83,321,653.82,322.59Z"/><path class="cls-8" d="M668.74,351.11l-2.64-4.22.72-.45,1.07,1.71,5.86-3.67-1.62-1.43.77-.48,2.4,2.07L668.39,349l1.07,1.71Z"/><path class="cls-8" d="M670.69,351.94a3.34,3.34,0,0,0,.43,1.88,2.21,2.21,0,0,0,1.24,1.05,1.81,1.81,0,0,0,1.52-.21,1.66,1.66,0,0,0,.89-1.21,2.52,2.52,0,0,0-.44-1.71c-.11-.2-.37-.59-.76-1.17l3.78-2.22L679.5,352l-.75.44-1.69-2.88-2.27,1.33c.19.28.32.49.41.64a3.23,3.23,0,0,1,.51,2.24,2.47,2.47,0,0,1-1.29,1.68,2.62,2.62,0,0,1-2.22.3,3.3,3.3,0,0,1-1.79-1.56,3.62,3.62,0,0,1-.61-1.76Z"/><path class="cls-8" d="M676.48,355.94a6.58,6.58,0,0,1,3.46-1,2.45,2.45,0,0,1,2.11,1.36c.89,1.62,0,3.15-2.62,4.59a6.27,6.27,0,0,1-3.34,1,2.46,2.46,0,0,1-2.11-1.36,2.27,2.27,0,0,1,0-2.36A6,6,0,0,1,676.48,355.94Zm.51.83q-3.16,1.74-2.25,3.41c.6,1.1,2,1.07,4.12-.11s3-2.37,2.45-3.45S679.25,355.53,677,356.77Z"/><path class="cls-8" d="M686.82,387.42l-1.89-4.61.79-.32.76,1.86,6.41-2.6-1.36-1.69.85-.34,2,2.45-7.55,3.07.76,1.86Z"/><path class="cls-8" d="M696.38,390.7a3.36,3.36,0,0,0-.18-1.48,2.22,2.22,0,0,0-1.67-1.43,5.06,5.06,0,0,0-2.91.34v0a2.11,2.11,0,0,1,1.9,1.46,2.39,2.39,0,0,1-.06,2,2.79,2.79,0,0,1-1.6,1.35,3,3,0,0,1-2.23,0,2.6,2.6,0,0,1-1.47-1.57,2.39,2.39,0,0,1,.26-2.36,5.22,5.22,0,0,1,2.5-1.71,6.45,6.45,0,0,1,3.75-.39,3,3,0,0,1,2.27,2,3.52,3.52,0,0,1,.28,1.47Zm-6-2a2.5,2.5,0,0,0-1.3,1,1.61,1.61,0,0,0-.15,1.46,1.59,1.59,0,0,0,1,1,2.11,2.11,0,0,0,1.5-.05,2.19,2.19,0,0,0,1.24-1,1.66,1.66,0,0,0,.05-1.4,1.79,1.79,0,0,0-.94-1A1.74,1.74,0,0,0,690.38,388.67Z"/><path class="cls-8" d="M693.61,393.52a6.66,6.66,0,0,1,3.58-.42,2.49,2.49,0,0,1,1.85,1.71c.6,1.74-.53,3.1-3.37,4.08a6.25,6.25,0,0,1-3.45.37,2.46,2.46,0,0,1-1.85-1.7,2.28,2.28,0,0,1,.42-2.32A6.11,6.11,0,0,1,693.61,393.52Zm.36.91q-3.42,1.17-2.8,3c.41,1.19,1.76,1.39,4.08.6s3.4-1.82,3-3S696.41,393.6,694,394.43Z"/><path class="cls-8" d="M698.37,426.29l-1-4.87.82-.18.43,2,6.76-1.47-1-1.89.89-.19,1.56,2.76-8,1.73.43,2Z"/><path class="cls-8" d="M708,431.52l-9-1.92-.18-1,8.42,1.82-.83-4.42.85-.16,1,5.59Z"/><path class="cls-8" d="M704,433.46a6.61,6.61,0,0,1,3.6.21,2.46,2.46,0,0,1,1.53,2c.29,1.83-1.06,3-4,3.44a6.25,6.25,0,0,1-3.46-.22,2.46,2.46,0,0,1-1.53-2,2.26,2.26,0,0,1,.82-2.21A6.11,6.11,0,0,1,704,433.46Zm.2,1c-2.38.37-3.47,1.19-3.27,2.44s1.5,1.67,3.91,1.29,3.67-1.2,3.48-2.41S706.76,434,704.22,434.42Z"/><polygon class="cls-5" points="467 0.12 466.71 0.41 466.71 0.7 466.71 2.71 466.71 3.16 466.71 21.99 467 21.7 467.29 21.99 467.29 3.16 467.29 2.71 467.29 0.7 467.29 0.41 467 0.12"/><path class="cls-5" d="M467.4.52l-.4-.4L1.26,468l-1,1H933.7ZM467,2.87,929,467.06H5Z"/><polygon class="cls-9" points="613.91 182.6 613.91 182.6 613.91 182.6 613.91 182.6"/><rect class="cls-7" x="815.79" y="359.72" width="5.67" height="0.45" transform="translate(-14.75 684.28) rotate(-45)"/><rect class="cls-7" x="819.68" y="363.61" width="5.67" height="0.45" transform="translate(-16.36 688.17) rotate(-45)"/><rect class="cls-7" x="823.56" y="367.49" width="5.67" height="0.45" transform="translate(-17.97 692.06) rotate(-45)"/><rect class="cls-7" x="827.45" y="371.38" width="5.67" height="0.45" transform="translate(-19.58 695.94) rotate(-45)"/><rect class="cls-7" x="835.22" y="379.15" width="5.67" height="0.45" transform="translate(-22.8 703.71) rotate(-45)"/><rect class="cls-7" x="839.11" y="383.04" width="5.67" height="0.45" transform="translate(-24.41 707.6) rotate(-45)"/><rect class="cls-7" x="842.99" y="386.92" width="5.67" height="0.45" transform="translate(-26.02 711.49) rotate(-45)"/><rect class="cls-7" x="846.88" y="390.81" width="5.67" height="0.45" transform="translate(-27.62 715.37) rotate(-45)"/><rect class="cls-7" x="854.65" y="398.58" width="5.67" height="0.45" transform="translate(-30.84 723.14) rotate(-45)"/><rect class="cls-7" x="858.54" y="402.46" width="5.67" height="0.45" transform="translate(-32.45 727.03) rotate(-45)"/><rect class="cls-7" x="862.42" y="406.35" width="5.67" height="0.45" transform="translate(-34.06 730.92) rotate(-45)"/><rect class="cls-7" x="866.31" y="410.24" width="5.67" height="0.45" transform="translate(-35.67 734.8) rotate(-45)"/><rect class="cls-7" x="874.08" y="418.01" width="5.67" height="0.45" transform="translate(-38.89 742.59) rotate(-45)"/><rect class="cls-7" x="877.97" y="421.9" width="5.67" height="0.45" transform="translate(-40.5 746.46) rotate(-45)"/><rect class="cls-7" x="881.85" y="425.78" width="5.67" height="0.45" transform="translate(-42.11 750.35) rotate(-45)"/><rect class="cls-7" x="885.74" y="429.67" width="5.67" height="0.45" transform="translate(-43.72 754.23) rotate(-45)"/><rect class="cls-7" x="660.35" y="204.28" width="5.67" height="0.45" transform="translate(49.64 528.84) rotate(-45)"/><rect class="cls-7" x="664.24" y="208.16" width="5.67" height="0.45" transform="translate(48.03 532.73) rotate(-45)"/><rect class="cls-7" x="668.12" y="212.05" width="5.67" height="0.45" transform="translate(46.42 536.62) rotate(-45)"/><rect class="cls-7" x="672.01" y="215.94" width="5.67" height="0.45" transform="translate(44.81 540.5) rotate(-45)"/><rect class="cls-7" x="679.78" y="223.71" width="5.67" height="0.45" transform="translate(41.59 548.27) rotate(-45)"/><rect class="cls-7" x="683.67" y="227.59" width="5.67" height="0.45" transform="translate(39.98 552.16) rotate(-45)"/><rect class="cls-7" x="687.55" y="231.48" width="5.67" height="0.45" transform="translate(38.37 556.05) rotate(-45)"/><rect class="cls-7" x="691.44" y="235.37" width="5.67" height="0.45" transform="translate(36.76 559.93) rotate(-45)"/><rect class="cls-7" x="699.21" y="243.14" width="5.67" height="0.45" transform="translate(33.54 567.7) rotate(-45)"/><rect class="cls-7" x="703.1" y="247.02" width="5.67" height="0.45" transform="translate(31.93 571.59) rotate(-45)"/><rect class="cls-7" x="706.98" y="250.91" width="5.67" height="0.45" transform="translate(30.32 575.48) rotate(-45)"/><rect class="cls-7" x="710.87" y="254.8" width="5.67" height="0.45" transform="translate(28.71 579.36) rotate(-45)"/><rect class="cls-7" x="718.64" y="262.57" width="5.67" height="0.45" transform="translate(25.49 587.13) rotate(-45)"/><rect class="cls-7" x="722.53" y="266.45" width="5.67" height="0.45" transform="translate(23.88 591.02) rotate(-45)"/><rect class="cls-7" x="726.41" y="270.34" width="5.67" height="0.45" transform="translate(22.27 594.91) rotate(-45)"/><rect class="cls-7" x="730.3" y="274.23" width="5.67" height="0.45" transform="translate(20.66 598.79) rotate(-45)"/><rect class="cls-7" x="738.07" y="282" width="5.67" height="0.45" transform="translate(17.44 606.56) rotate(-45)"/><rect class="cls-7" x="741.96" y="285.88" width="5.67" height="0.45" transform="translate(15.84 610.46) rotate(-45)"/><rect class="cls-7" x="745.84" y="289.77" width="5.67" height="0.45" transform="translate(14.23 614.34) rotate(-45)"/><rect class="cls-7" x="749.73" y="293.66" width="5.67" height="0.45" transform="translate(12.62 618.22) rotate(-45)"/><rect class="cls-7" x="757.5" y="301.43" width="5.67" height="0.45" transform="translate(9.4 625.99) rotate(-45)"/><rect class="cls-7" x="761.39" y="305.31" width="5.67" height="0.45" transform="translate(7.79 629.88) rotate(-45)"/><rect class="cls-7" x="765.27" y="309.2" width="5.67" height="0.45" transform="translate(6.18 633.77) rotate(-45)"/><rect class="cls-7" x="769.16" y="313.09" width="5.67" height="0.45" transform="translate(4.57 637.65) rotate(-45)"/><rect class="cls-7" x="776.93" y="320.86" width="5.67" height="0.45" transform="translate(1.35 645.42) rotate(-45)"/><rect class="cls-7" x="780.82" y="324.75" width="5.67" height="0.45" transform="translate(-0.26 649.31) rotate(-45)"/><rect class="cls-7" x="784.7" y="328.63" width="5.67" height="0.45" transform="translate(-1.87 653.2) rotate(-45)"/><rect class="cls-7" x="788.59" y="332.52" width="5.67" height="0.45" transform="translate(-3.48 657.08) rotate(-45)"/><rect class="cls-7" x="796.36" y="340.29" width="5.67" height="0.45" transform="translate(-6.7 664.85) rotate(-45)"/><rect class="cls-7" x="800.25" y="344.17" width="5.67" height="0.45" transform="translate(-8.31 668.74) rotate(-45)"/><rect class="cls-7" x="804.13" y="348.06" width="5.67" height="0.45" transform="translate(-9.92 672.63) rotate(-45)"/><rect class="cls-7" x="808.02" y="351.95" width="5.67" height="0.45" transform="translate(-11.53 676.51) rotate(-45)"/><rect class="cls-7" x="621.49" y="165.42" width="5.67" height="0.45" transform="translate(65.73 489.98) rotate(-45)"/><rect class="cls-7" x="625.38" y="169.3" width="5.67" height="0.45" transform="translate(64.12 493.87) rotate(-45)"/><rect class="cls-7" x="629.26" y="173.19" width="5.67" height="0.45" transform="translate(62.51 497.76) rotate(-45)"/><rect class="cls-7" x="633.15" y="177.08" width="5.67" height="0.45" transform="translate(60.91 501.64) rotate(-45)"/><rect class="cls-7" x="640.92" y="184.85" width="5.67" height="0.45" transform="translate(57.69 509.41) rotate(-45)"/><rect class="cls-7" x="644.81" y="188.73" width="5.67" height="0.45" transform="translate(56.08 513.3) rotate(-45)"/><rect class="cls-7" x="648.69" y="192.62" width="5.67" height="0.45" transform="translate(54.47 517.18) rotate(-45)"/><rect class="cls-7" x="652.58" y="196.51" width="5.67" height="0.45" transform="translate(52.86 521.07) rotate(-45)"/><rect class="cls-7" x="826.87" y="376.87" width="11.35" height="0.5" transform="translate(-22.82 699.15) rotate(-45)"/><rect class="cls-5" x="846.3" y="396" width="11.35" height="1.1" transform="translate(-30.87 718.58) rotate(-45)"/><rect class="cls-7" x="865.73" y="415.73" width="11.35" height="0.5" transform="translate(-38.91 738.01) rotate(-45)"/><rect class="cls-5" x="885.16" y="434.86" width="11.35" height="1.1" transform="translate(-46.96 757.44) rotate(-45)"/><rect class="cls-5" x="652" y="201.7" width="11.35" height="1.1" transform="translate(49.62 524.28) rotate(-45)"/><rect class="cls-7" x="671.43" y="221.43" width="11.35" height="0.5" transform="translate(41.57 543.71) rotate(-45)"/><rect class="cls-5" x="690.86" y="240.56" width="11.35" height="1.1" transform="translate(33.52 563.14) rotate(-45)"/><rect class="cls-7" x="710.29" y="260.29" width="11.35" height="0.5" transform="translate(25.47 582.57) rotate(-45)"/><rect class="cls-5" x="729.72" y="279.42" width="11.35" height="1.1" transform="translate(17.42 602) rotate(-45)"/><rect class="cls-7" x="749.15" y="299.15" width="11.35" height="0.5" transform="translate(9.38 621.43) rotate(-45)"/><rect class="cls-5" x="768.58" y="318.28" width="11.35" height="1.1" transform="translate(1.53 641.35) rotate(-45.04)"/><rect class="cls-7" x="788.01" y="338.01" width="11.35" height="0.5" transform="translate(-6.72 660.29) rotate(-45)"/><rect class="cls-5" x="807.44" y="357.14" width="11.35" height="1.1" transform="translate(-14.77 679.72) rotate(-45)"/><rect class="cls-7" x="632.57" y="182.57" width="11.35" height="0.5" transform="translate(57.66 504.85) rotate(-45)"/><rect class="cls-5" x="613.94" y="162.73" width="9.97" height="1.1" transform="translate(65.83 485.47) rotate(-45)"/><rect class="cls-7" x="543.77" y="87.7" width="5.67" height="0.45" transform="translate(97.93 412.26) rotate(-45)"/><rect class="cls-7" x="547.66" y="91.58" width="5.67" height="0.45" transform="translate(96.32 416.15) rotate(-45)"/><rect class="cls-7" x="551.54" y="95.47" width="5.67" height="0.45" transform="translate(94.71 420.04) rotate(-45)"/><rect class="cls-7" x="555.43" y="99.36" width="5.67" height="0.45" transform="translate(93.1 423.92) rotate(-45)"/><rect class="cls-7" x="563.2" y="107.13" width="5.67" height="0.45" transform="translate(89.88 431.69) rotate(-45)"/><rect class="cls-7" x="567.09" y="111.01" width="5.67" height="0.45" transform="translate(88.27 435.58) rotate(-45)"/><rect class="cls-7" x="570.97" y="114.9" width="5.67" height="0.45" transform="translate(86.66 439.46) rotate(-45)"/><rect class="cls-7" x="574.86" y="118.79" width="5.67" height="0.45" transform="translate(85.05 443.35) rotate(-45)"/><rect class="cls-7" x="582.63" y="126.56" width="5.67" height="0.45" transform="translate(81.83 451.12) rotate(-45)"/><rect class="cls-7" x="586.52" y="130.44" width="5.67" height="0.45" transform="translate(80.22 455.01) rotate(-45)"/><rect class="cls-7" x="590.4" y="134.33" width="5.67" height="0.45" transform="translate(78.61 458.89) rotate(-45)"/><rect class="cls-7" x="594.29" y="138.22" width="5.67" height="0.45" transform="translate(77 462.78) rotate(-45)"/><rect class="cls-7" x="602.06" y="145.99" width="5.67" height="0.45" transform="translate(73.78 470.55) rotate(-45)"/><rect class="cls-7" x="605.95" y="149.87" width="5.67" height="0.45" transform="translate(72.17 474.44) rotate(-45)"/><rect class="cls-7" x="609.83" y="153.76" width="5.67" height="0.45" transform="translate(70.56 478.33) rotate(-45)"/><rect class="cls-7" x="613.72" y="157.65" width="5.67" height="0.45" transform="translate(68.95 482.21) rotate(-45)"/><rect class="cls-7" x="504.91" y="48.84" width="5.67" height="0.45" transform="translate(114.02 373.4) rotate(-45)"/><rect class="cls-7" x="508.8" y="52.72" width="5.67" height="0.45" transform="translate(112.41 377.29) rotate(-45)"/><rect class="cls-7" x="512.68" y="56.61" width="5.67" height="0.45" transform="translate(110.8 381.17) rotate(-45)"/><rect class="cls-7" x="516.57" y="60.5" width="5.67" height="0.45" transform="translate(109.19 385.06) rotate(-45)"/><rect class="cls-7" x="524.34" y="68.27" width="5.67" height="0.45" transform="translate(105.97 392.83) rotate(-45)"/><rect class="cls-7" x="528.23" y="72.15" width="5.67" height="0.45" transform="translate(104.37 396.72) rotate(-45)"/><rect class="cls-7" x="532.11" y="76.04" width="5.67" height="0.45" transform="translate(102.76 400.6) rotate(-45)"/><rect class="cls-7" x="536" y="79.93" width="5.67" height="0.45" transform="translate(101.15 404.49) rotate(-45)"/><rect class="cls-7" x="554.85" y="104.85" width="11.35" height="0.5" transform="translate(89.86 427.13) rotate(-45)"/><rect class="cls-5" x="574.28" y="123.98" width="11.35" height="1.1" transform="translate(81.81 446.56) rotate(-45)"/><rect class="cls-7" x="593.71" y="143.71" width="11.35" height="0.5" transform="translate(73.76 465.99) rotate(-45)"/><rect class="cls-5" x="613.14" y="162.84" width="11.35" height="1.1" transform="translate(65.71 485.42) rotate(-45)"/><rect class="cls-5" x="496.56" y="46.26" width="11.35" height="1.1" transform="translate(114 368.84) rotate(-45)"/><rect class="cls-7" x="515.99" y="65.99" width="11.35" height="0.5" transform="translate(105.95 388.27) rotate(-45)"/><rect class="cls-5" x="535.42" y="85.12" width="11.35" height="1.1" transform="translate(97.91 407.7) rotate(-45)"/><path class="cls-8" d="M613.25,169.94l-9.49,3.68,4,4-.67.67-4.9-4.9.24-.24,10.06-4Z"/><path class="cls-8" d="M883.65,447.31a7.88,7.88,0,0,1-3.53,2.29,2.87,2.87,0,0,1-2.8-.82q-2.27-2.26,1.46-6a7.42,7.42,0,0,1,3.42-2.17,2.84,2.84,0,0,1,2.79.82,2.63,2.63,0,0,1,.74,2.63A7.18,7.18,0,0,1,883.65,447.31Zm-.84-.75q3-3,1.43-4.54c-1-1-2.55-.53-4.57,1.48s-2.64,3.65-1.64,4.65S880.69,448.68,882.81,446.56Z"/><path class="cls-8" d="M570.73,135l0,0a2.76,2.76,0,0,1-.38,3.17,2.18,2.18,0,0,1-1.9.65,3.49,3.49,0,0,1-2.11-1.1,3.19,3.19,0,0,1-1-1.94,2,2,0,0,1,.62-1.76,2.92,2.92,0,0,1,3.33-.44l0,0a3.78,3.78,0,0,1-.48-2,2.49,2.49,0,0,1,.74-1.62,2.44,2.44,0,0,1,2.09-.75,4.18,4.18,0,0,1,2.43,1.35,3.42,3.42,0,0,1,1.08,2.14,2.39,2.39,0,0,1-.74,2C573.5,135.58,572.27,135.69,570.73,135Zm-1.1-.38c-1.24-.55-2.17-.52-2.8.11a1.45,1.45,0,0,0-.46,1.17,2,2,0,0,0,.67,1.26,2.11,2.11,0,0,0,1.28.65,1.39,1.39,0,0,0,1.18-.39C570.13,136.8,570.17,135.87,569.63,134.63Zm.79-.66c1.42.64,2.48.62,3.17-.08a1.57,1.57,0,0,0,.46-1.35,2.61,2.61,0,0,0-.82-1.54,2.46,2.46,0,0,0-1.51-.79,1.6,1.6,0,0,0-1.32.46C569.67,131.4,569.68,132.5,570.42,134Z"/><path class="cls-8" d="M642.56,213.61l.75-.75a4.24,4.24,0,0,0,.94,1.53,2.82,2.82,0,0,0,2.59.81,5.47,5.47,0,0,0,3-1.71l0,0a2.79,2.79,0,0,1-2.9-.78,3,3,0,0,1-1-2.2,3.13,3.13,0,0,1,1-2.21,3.39,3.39,0,0,1,2.43-1.07,3.3,3.3,0,0,1,2.4,1,3,3,0,0,1,.92,2.65,5.62,5.62,0,0,1-1.79,3.1,7,7,0,0,1-3.91,2.19,3.86,3.86,0,0,1-3.39-1.13A5.6,5.6,0,0,1,642.56,213.61Zm5.2-1.39a2.23,2.23,0,0,0,1.62.71,2,2,0,0,0,1.52-.6,2.8,2.8,0,0,0,.83-1.73,2.06,2.06,0,0,0-.64-1.73,2,2,0,0,0-1.6-.67,2.39,2.39,0,0,0-1.63.76,2.45,2.45,0,0,0-.81,1.65A2.11,2.11,0,0,0,647.76,212.22Z"/><path class="cls-8" d="M536.92,93.87l-.74.74a4.19,4.19,0,0,0-1-1.66,2.79,2.79,0,0,0-2.49-.87,5.4,5.4,0,0,0-2.92,1.72l0,0a2.6,2.6,0,0,1,2.74.81,3,3,0,0,1,1,2.23,3.11,3.11,0,0,1-1,2.25,3.32,3.32,0,0,1-2.43,1,3.45,3.45,0,0,1-2.43-1.09,2.92,2.92,0,0,1-.9-2.58,5.7,5.7,0,0,1,1.84-3.09,7.13,7.13,0,0,1,3.91-2.28,3.82,3.82,0,0,1,3.38,1.2A4.69,4.69,0,0,1,536.92,93.87Zm-8.55,4.63a2.13,2.13,0,0,0,1.6.66,2.38,2.38,0,0,0,1.63-.73,2.41,2.41,0,0,0,.79-1.69,2.16,2.16,0,0,0-.71-1.64,2.12,2.12,0,0,0-1.52-.66,1.94,1.94,0,0,0-1.47.58,2.87,2.87,0,0,0-.93,1.82A2,2,0,0,0,528.37,98.5Z"/><path class="cls-8" d="M692.51,249.55l-.82.83a4.71,4.71,0,0,0-1.14-2.06,2.83,2.83,0,0,0-1.82-.92,2.12,2.12,0,0,0-1.7.67,1.91,1.91,0,0,0-.6,1.66,3.45,3.45,0,0,0,1.11,1.92c.21.21.44.42.69.64l.57.49-3.61,3.61-3.68-3.68.66-.66L685.1,255l2.23-2.22-.73-.69a4,4,0,0,1-1.31-2.48,2.79,2.79,0,0,1,.91-2.26,3,3,0,0,1,2.39-1,4,4,0,0,1,2.64,1.33A5.19,5.19,0,0,1,692.51,249.55Z"/><path class="cls-8" d="M496.73,53.43l4.08,4.08-.7.69-1.65-1.65-5.71,5.71L495,63.44l-.76.76L491,62.49l6.72-6.72L496,54.13Z"/><path class="cls-8" d="M492.22,55.87a7.77,7.77,0,0,1-3.54,2.29,2.83,2.83,0,0,1-2.79-.82q-2.26-2.27,1.45-6a7.51,7.51,0,0,1,3.42-2.18,2.84,2.84,0,0,1,2.79.82,2.63,2.63,0,0,1,.74,2.64A7.17,7.17,0,0,1,492.22,55.87Zm-.84-.75c2-2,2.46-3.5,1.42-4.54s-2.55-.53-4.56,1.48-2.65,3.65-1.64,4.65S489.25,57.24,491.38,55.12Z"/><path class="cls-8" d="M725.8,286.4l2-1.95.77.77-1.95,1.95,3.63,3.62-.51.51-8.25,1.34-.94-.94,4.67-4.67-1-1,.64-.63ZM722,291.74a56.89,56.89,0,0,1,6.69-1.18l-2.77-2.76-3.55,3.55-.38.37Z"/><path class="cls-8" d="M769.9,327.15l-.83.83a4.42,4.42,0,0,0-1.2-2.34,2.9,2.9,0,0,0-1.73-.93,1.78,1.78,0,0,0-1.53.55,1.7,1.7,0,0,0-.5,1.65,4.22,4.22,0,0,0,1.26,2l.61.62-.66.66-.58-.58a3.49,3.49,0,0,0-1.83-1.1,1.8,1.8,0,0,0-2,1.82,2.4,2.4,0,0,0,.77,1.44,3.87,3.87,0,0,0,2,1l-.76.76a5.36,5.36,0,0,1-2.13-1.32,3.32,3.32,0,0,1-1.06-2,2.17,2.17,0,0,1,.66-1.8,2.56,2.56,0,0,1,3.39-.33l0,0a3,3,0,0,1-.76-1.89,2.21,2.21,0,0,1,.69-1.64,2.73,2.73,0,0,1,2.3-.83,4.21,4.21,0,0,1,2.55,1.34A5,5,0,0,1,769.9,327.15Z"/><path class="cls-8" d="M809.29,366l-.7.71-4.8-.12a11.06,11.06,0,0,0-2.23.13,2.79,2.79,0,0,0-1.5.78,1.8,1.8,0,0,0-.6,1.4,2.28,2.28,0,0,0,.75,1.46,4.17,4.17,0,0,0,2.78,1.15l-.82.83a5.06,5.06,0,0,1-2.73-1.44,3.28,3.28,0,0,1-1.07-2.12,2.5,2.5,0,0,1,.82-2,3.57,3.57,0,0,1,1.72-.95,9.92,9.92,0,0,1,2.36-.22l4.4.13,0,0L804,362.06l.67-.67Z"/><path class="cls-8" d="M847.91,404.6l-.67.67-1.76-1.75-5.79,5.78,2.35,1.3-.72.73L838,409.5l6.75-6.75L843,401l.66-.67Z"/><rect class="cls-7" x="358.47" y="113.1" width="0.45" height="5.67" transform="translate(23.08 287.59) rotate(-45)"/><rect class="cls-7" x="362.35" y="109.21" width="0.45" height="5.67" transform="translate(26.98 289.22) rotate(-45)"/><rect class="cls-7" x="366.24" y="105.33" width="0.45" height="5.67" transform="translate(30.85 290.81) rotate(-45)"/><rect class="cls-7" x="370.12" y="101.44" width="0.45" height="5.67" transform="translate(34.71 292.38) rotate(-44.99)"/><rect class="cls-7" x="377.9" y="93.67" width="0.45" height="5.67" transform="translate(42.51 295.64) rotate(-45)"/><rect class="cls-7" x="381.78" y="89.78" width="0.45" height="5.67" transform="translate(46.39 297.25) rotate(-45)"/><rect class="cls-7" x="385.67" y="85.9" width="0.45" height="5.67" transform="translate(50.28 298.86) rotate(-45)"/><rect class="cls-7" x="389.55" y="82.01" width="0.45" height="5.67" transform="translate(54.17 300.47) rotate(-45)"/><rect class="cls-7" x="397.33" y="74.24" width="0.45" height="5.67" transform="translate(61.94 303.69) rotate(-45)"/><rect class="cls-7" x="401.21" y="70.35" width="0.45" height="5.67" transform="translate(65.82 305.3) rotate(-45)"/><rect class="cls-7" x="405.1" y="66.47" width="0.45" height="5.67" transform="translate(69.73 306.93) rotate(-45)"/><rect class="cls-7" x="408.98" y="62.58" width="0.45" height="5.67" transform="translate(73.6 308.51) rotate(-45)"/><rect class="cls-7" x="416.76" y="54.81" width="0.45" height="5.67" transform="translate(81.37 311.73) rotate(-45)"/><rect class="cls-7" x="420.64" y="50.92" width="0.45" height="5.67" transform="translate(85.25 313.34) rotate(-45)"/><rect class="cls-7" x="424.53" y="47.04" width="0.45" height="5.67" transform="translate(89.14 314.95) rotate(-45)"/><rect class="cls-7" x="428.41" y="43.15" width="0.45" height="5.67" transform="translate(93.03 316.56) rotate(-45)"/><rect class="cls-7" x="203.02" y="268.54" width="0.45" height="5.67" transform="translate(-132.36 223.2) rotate(-45)"/><rect class="cls-7" x="206.91" y="264.65" width="0.45" height="5.67" transform="translate(-128.48 224.81) rotate(-45)"/><rect class="cls-7" x="210.8" y="260.77" width="0.45" height="5.67" transform="translate(-124.59 226.42) rotate(-45)"/><rect class="cls-7" x="214.68" y="256.88" width="0.45" height="5.67" transform="translate(-120.7 228.03) rotate(-45)"/><rect class="cls-7" x="222.46" y="249.11" width="0.45" height="5.67" transform="translate(-112.93 231.25) rotate(-45)"/><rect class="cls-7" x="226.34" y="245.22" width="0.45" height="5.67" transform="translate(-109.05 232.88) rotate(-45)"/><rect class="cls-7" x="230.23" y="241.34" width="0.45" height="5.67" transform="translate(-105.16 234.47) rotate(-45)"/><rect class="cls-7" x="234.11" y="237.45" width="0.45" height="5.67" transform="translate(-101.27 236.08) rotate(-45)"/><rect class="cls-7" x="241.88" y="229.68" width="0.45" height="5.67" transform="translate(-93.5 239.32) rotate(-45)"/><rect class="cls-7" x="245.77" y="225.79" width="0.45" height="5.67" transform="translate(-89.62 240.91) rotate(-45)"/><rect class="cls-7" x="249.66" y="221.91" width="0.45" height="5.67" transform="translate(-85.73 242.52) rotate(-45)"/><rect class="cls-7" x="253.54" y="218.02" width="0.45" height="5.67" transform="translate(-81.84 244.13) rotate(-45)"/><rect class="cls-7" x="261.31" y="210.25" width="0.45" height="5.67" transform="translate(-74.07 247.35) rotate(-45)"/><rect class="cls-7" x="265.2" y="206.36" width="0.45" height="5.67" transform="translate(-70.19 248.96) rotate(-45)"/><rect class="cls-7" x="269.09" y="202.48" width="0.45" height="5.67" transform="translate(-66.3 250.57) rotate(-45)"/><rect class="cls-7" x="272.97" y="198.59" width="0.45" height="5.67" transform="translate(-62.41 252.18) rotate(-45)"/><rect class="cls-7" x="280.75" y="190.82" width="0.45" height="5.67" transform="translate(-54.64 255.4) rotate(-45)"/><rect class="cls-7" x="284.63" y="186.93" width="0.45" height="5.67" transform="translate(-50.75 257.03) rotate(-45)"/><rect class="cls-7" x="288.52" y="183.05" width="0.45" height="5.67" transform="translate(-46.87 258.62) rotate(-45)"/><rect class="cls-7" x="292.4" y="179.16" width="0.45" height="5.67" transform="translate(-42.98 260.23) rotate(-45)"/><rect class="cls-7" x="300.18" y="171.39" width="0.45" height="5.67" transform="translate(-35.21 263.44) rotate(-45)"/><rect class="cls-7" x="304.06" y="167.5" width="0.45" height="5.67" transform="translate(-31.33 265.05) rotate(-45)"/><rect class="cls-7" x="307.95" y="163.62" width="0.45" height="5.67" transform="translate(-27.44 266.66) rotate(-45)"/><rect class="cls-7" x="311.83" y="159.73" width="0.45" height="5.67" transform="translate(-23.55 268.27) rotate(-45)"/><rect class="cls-7" x="319.61" y="151.96" width="0.45" height="5.67" transform="translate(-15.77 271.51) rotate(-45)"/><rect class="cls-7" x="323.49" y="148.07" width="0.45" height="5.67" transform="translate(-11.9 273.1) rotate(-45)"/><rect class="cls-7" x="327.38" y="144.19" width="0.45" height="5.67" transform="translate(-8.02 274.67) rotate(-44.99)"/><rect class="cls-7" x="331.26" y="140.3" width="0.45" height="5.67" transform="translate(-4.12 276.32) rotate(-45)"/><rect class="cls-7" x="339.04" y="132.53" width="0.45" height="5.67" transform="translate(3.65 279.54) rotate(-45)"/><rect class="cls-7" x="342.92" y="128.64" width="0.45" height="5.67" transform="translate(7.53 281.15) rotate(-45)"/><rect class="cls-7" x="346.81" y="124.76" width="0.45" height="5.67" transform="translate(11.42 282.76) rotate(-45)"/><rect class="cls-7" x="350.69" y="120.87" width="0.45" height="5.67" transform="translate(15.31 284.37) rotate(-45)"/><rect class="cls-7" x="164.16" y="307.4" width="0.45" height="5.67" transform="translate(-171.23 207.13) rotate(-45)"/><rect class="cls-7" x="168.05" y="303.51" width="0.45" height="5.67" transform="translate(-167.34 208.72) rotate(-45)"/><rect class="cls-7" x="171.94" y="299.63" width="0.45" height="5.67" transform="translate(-163.44 210.29) rotate(-44.99)"/><rect class="cls-7" x="175.82" y="295.74" width="0.45" height="5.67" transform="translate(-159.56 211.94) rotate(-45)"/><rect class="cls-7" x="183.59" y="287.97" width="0.45" height="5.67" transform="translate(-151.79 215.16) rotate(-45)"/><rect class="cls-7" x="187.48" y="284.08" width="0.45" height="5.67" transform="translate(-147.91 216.77) rotate(-45)"/><rect class="cls-7" x="191.37" y="280.2" width="0.45" height="5.67" transform="translate(-144.02 218.37) rotate(-45)"/><rect class="cls-7" x="195.25" y="276.31" width="0.45" height="5.67" transform="translate(-140.13 219.98) rotate(-45)"/><rect class="cls-7" x="375.62" y="96.35" width="0.5" height="11.35" transform="translate(37.95 295.67) rotate(-45)"/><rect class="cls-5" x="394.75" y="76.92" width="1.1" height="11.35" transform="translate(57.38 303.71) rotate(-45)"/><rect class="cls-7" x="414.48" y="57.49" width="0.5" height="11.35" transform="translate(76.81 311.76) rotate(-45)"/><rect class="cls-5" x="433.61" y="38.06" width="1.1" height="11.35" transform="translate(96.24 319.8) rotate(-45)"/><rect class="cls-5" x="200.45" y="271.22" width="1.1" height="11.35" transform="translate(-136.92 223.23) rotate(-45)"/><rect class="cls-7" x="220.18" y="251.79" width="0.5" height="11.35" transform="translate(-117.49 231.27) rotate(-45)"/><rect class="cls-5" x="239.31" y="232.36" width="1.1" height="11.35" transform="translate(-98.06 239.33) rotate(-45)"/><rect class="cls-7" x="259.04" y="212.93" width="0.5" height="11.35" transform="translate(-78.63 247.37) rotate(-45)"/><rect class="cls-5" x="278.17" y="193.5" width="1.1" height="11.35" transform="translate(-59.2 255.42) rotate(-45)"/><rect class="cls-7" x="297.9" y="174.07" width="0.5" height="11.35" transform="translate(-39.77 263.48) rotate(-45)"/><rect class="cls-5" x="317.03" y="154.64" width="1.1" height="11.35" transform="translate(-20.35 271.49) rotate(-45)"/><rect class="cls-7" x="336.76" y="135.21" width="0.5" height="11.35" transform="translate(-0.91 279.56) rotate(-45)"/><rect class="cls-5" x="355.89" y="115.78" width="1.1" height="11.35" transform="translate(18.52 287.61) rotate(-45)"/><rect class="cls-7" x="181.31" y="290.65" width="0.5" height="11.35" transform="translate(-156.35 215.18) rotate(-45)"/><rect class="cls-5" x="161.47" y="310.66" width="1.1" height="9.97" transform="translate(-175.73 206.99) rotate(-45)"/><rect class="cls-7" x="86.44" y="385.12" width="0.45" height="5.67" transform="translate(-248.96 174.94) rotate(-45)"/><rect class="cls-7" x="90.33" y="381.23" width="0.45" height="5.67" transform="translate(-245.06 176.52) rotate(-45)"/><rect class="cls-7" x="94.22" y="377.35" width="0.45" height="5.67" transform="translate(-241.17 178.13) rotate(-45)"/><rect class="cls-7" x="98.1" y="373.46" width="0.45" height="5.67" transform="translate(-237.28 179.74) rotate(-45)"/><rect class="cls-7" x="105.87" y="365.69" width="0.45" height="5.67" transform="translate(-229.51 182.96) rotate(-45)"/><rect class="cls-7" x="109.76" y="361.8" width="0.45" height="5.67" transform="translate(-225.63 184.57) rotate(-45)"/><rect class="cls-7" x="113.65" y="357.92" width="0.45" height="5.67" transform="translate(-221.74 186.18) rotate(-45)"/><rect class="cls-7" x="117.53" y="354.03" width="0.45" height="5.67" transform="translate(-217.85 187.79) rotate(-45)"/><rect class="cls-7" x="125.3" y="346.26" width="0.45" height="5.67" transform="translate(-210.08 191.01) rotate(-45)"/><rect class="cls-7" x="129.19" y="342.37" width="0.45" height="5.67" transform="translate(-206.21 192.64) rotate(-45)"/><rect class="cls-7" x="133.08" y="338.49" width="0.45" height="5.67" transform="translate(-202.31 194.23) rotate(-45)"/><rect class="cls-7" x="136.96" y="334.6" width="0.45" height="5.67" transform="translate(-198.42 195.84) rotate(-45)"/><rect class="cls-7" x="144.73" y="326.83" width="0.45" height="5.67" transform="translate(-190.65 199.06) rotate(-45)"/><rect class="cls-7" x="148.62" y="322.94" width="0.45" height="5.67" transform="translate(-186.77 200.67) rotate(-45)"/><rect class="cls-7" x="152.51" y="319.06" width="0.45" height="5.67" transform="translate(-182.88 202.28) rotate(-45)"/><rect class="cls-7" x="156.39" y="315.17" width="0.45" height="5.67" transform="translate(-178.99 203.89) rotate(-45)"/><rect class="cls-7" x="47.58" y="423.98" width="0.45" height="5.67" transform="translate(-287.8 158.82) rotate(-45)"/><rect class="cls-7" x="51.47" y="420.09" width="0.45" height="5.67" transform="translate(-283.92 160.43) rotate(-45)"/><rect class="cls-7" x="55.36" y="416.21" width="0.45" height="5.67" transform="translate(-280.03 162.04) rotate(-45)"/><rect class="cls-7" x="59.24" y="412.32" width="0.45" height="5.67" transform="translate(-276.14 163.65) rotate(-45)"/><rect class="cls-7" x="67.01" y="404.55" width="0.45" height="5.67" transform="translate(-268.37 166.87) rotate(-45)"/><rect class="cls-7" x="70.9" y="400.66" width="0.45" height="5.67" transform="translate(-264.49 168.48) rotate(-45)"/><rect class="cls-7" x="74.79" y="396.78" width="0.45" height="5.67" transform="translate(-260.6 170.09) rotate(-45)"/><rect class="cls-7" x="78.67" y="392.89" width="0.45" height="5.67" transform="translate(-256.71 171.7) rotate(-45)"/><rect class="cls-7" x="103.59" y="368.37" width="0.5" height="11.35" transform="translate(-234.07 182.98) rotate(-45)"/><rect class="cls-5" x="122.73" y="348.94" width="1.1" height="11.35" transform="translate(-214.64 191.03) rotate(-45)"/><rect class="cls-7" x="142.45" y="329.51" width="0.5" height="11.35" transform="translate(-195.22 199.09) rotate(-45)"/><rect class="cls-5" x="161.58" y="310.08" width="1.1" height="11.35" transform="translate(-175.78 207.11) rotate(-45)"/><rect class="cls-5" x="45" y="426.66" width="1.1" height="11.35" transform="translate(-292.36 158.84) rotate(-45)"/><rect class="cls-7" x="64.73" y="407.23" width="0.5" height="11.35" transform="translate(-272.93 166.89) rotate(-45)"/><rect class="cls-5" x="83.87" y="387.8" width="1.1" height="11.35" transform="translate(-253.51 174.95) rotate(-45)"/><path class="cls-8" d="M168.69,321.32l3.67,9.49,4-4,.67.67-4.9,4.9-.24-.24-4-10.07Z"/><path class="cls-8" d="M446.05,50.91a7.77,7.77,0,0,1,2.29,3.54,2.84,2.84,0,0,1-.82,2.79c-1.51,1.51-3.5,1-6-1.46a7.43,7.43,0,0,1-2.18-3.41,2.84,2.84,0,0,1,.82-2.79,2.63,2.63,0,0,1,2.64-.74A7.17,7.17,0,0,1,446.05,50.91Zm-.75.84c-2-2-3.5-2.46-4.54-1.42s-.53,2.55,1.49,4.56,3.64,2.64,4.64,1.64S447.42,53.87,445.3,51.75Z"/><path class="cls-8" d="M133.75,363.83l0,0a2.77,2.77,0,0,1,3.18.38,2.21,2.21,0,0,1,.65,1.89,3.48,3.48,0,0,1-1.11,2.11,3.18,3.18,0,0,1-1.93,1,2.11,2.11,0,0,1-1.77-.62,2.92,2.92,0,0,1-.43-3.33l0,0a4,4,0,0,1-2,.48,2.5,2.5,0,0,1-1.62-.75,2.45,2.45,0,0,1-.75-2.09,4.14,4.14,0,0,1,1.36-2.43,3.36,3.36,0,0,1,2.13-1.07,2.4,2.4,0,0,1,2,.73C134.32,361.07,134.44,362.3,133.75,363.83Zm-1,.31c.64-1.42.62-2.47-.07-3.16a1.56,1.56,0,0,0-1.35-.46,2.55,2.55,0,0,0-1.55.82,2.44,2.44,0,0,0-.78,1.51,1.56,1.56,0,0,0,.45,1.31C130.15,364.9,131.25,364.89,132.71,364.14Zm.67.8c-.56,1.24-.52,2.17.1,2.79a1.39,1.39,0,0,0,1.17.46,2.05,2.05,0,0,0,1.26-.66,2.12,2.12,0,0,0,.66-1.29,1.37,1.37,0,0,0-.4-1.18Q135.24,364.13,133.38,364.94Z"/><path class="cls-8" d="M212.35,292l-.75-.75a4.1,4.1,0,0,0,1.53-.95,2.84,2.84,0,0,0,.82-2.59,5.67,5.67,0,0,0-1.71-3l0,0a2.81,2.81,0,0,1-.79,2.91,3,3,0,0,1-2.2,1,3.16,3.16,0,0,1-2.2-1,3.29,3.29,0,0,1,0-4.83,3,3,0,0,1,2.64-.91,5.67,5.67,0,0,1,3.11,1.79,6.92,6.92,0,0,1,2.18,3.91,3.81,3.81,0,0,1-1.13,3.38A5.48,5.48,0,0,1,212.35,292Zm-1.38-5.2a2.27,2.27,0,0,0,.7-1.63,2.06,2.06,0,0,0-.59-1.51,2.75,2.75,0,0,0-1.74-.83,2,2,0,0,0-1.73.63,2.08,2.08,0,0,0-.67,1.61,2.38,2.38,0,0,0,.77,1.63,2.45,2.45,0,0,0,1.65.81A2.16,2.16,0,0,0,211,286.81Z"/><path class="cls-8" d="M92.61,397.64l.75.75a4.21,4.21,0,0,0-1.67,1,2.8,2.8,0,0,0-.87,2.5,5.5,5.5,0,0,0,1.72,2.92l0,0a2.62,2.62,0,0,1,.81-2.74,3.07,3.07,0,0,1,2.24-1,3.12,3.12,0,0,1,2.24,1,3.22,3.22,0,0,1,1,2.43,3.44,3.44,0,0,1-1.08,2.42,2.91,2.91,0,0,1-2.59.91A5.84,5.84,0,0,1,92.15,406a7.22,7.22,0,0,1-2.28-3.92,3.86,3.86,0,0,1,1.21-3.38A4.76,4.76,0,0,1,92.61,397.64Zm4.64,8.55a2.12,2.12,0,0,0,.65-1.59,2.32,2.32,0,0,0-.73-1.63,2.46,2.46,0,0,0-1.69-.8,2.21,2.21,0,0,0-1.64.71,2.14,2.14,0,0,0-.66,1.52,2,2,0,0,0,.58,1.48,3,3,0,0,0,1.82.93A2,2,0,0,0,97.25,406.19Z"/><path class="cls-8" d="M248.3,242.06l.82.82a4.77,4.77,0,0,0-2.05,1.13,2.84,2.84,0,0,0-.93,1.83,2.1,2.1,0,0,0,.67,1.69,1.9,1.9,0,0,0,1.66.61,3.45,3.45,0,0,0,1.92-1.11c.21-.22.43-.45.65-.7l.49-.56,3.61,3.6-3.69,3.69-.66-.66,2.94-2.94-2.23-2.22q-.27.31-.69.72a3.92,3.92,0,0,1-2.48,1.31,2.77,2.77,0,0,1-2.26-.9,3.12,3.12,0,0,1-1-2.39,4,4,0,0,1,1.33-2.64A5,5,0,0,1,248.3,242.06Z"/><path class="cls-8" d="M52.17,437.83l4.08-4.07.7.69L55.3,436.1l5.7,5.71,1.18-2.2.76.75-1.7,3.25-6.73-6.72-1.64,1.64Z"/><path class="cls-8" d="M54.62,442.35a7.76,7.76,0,0,1,2.28,3.53,2.85,2.85,0,0,1-.82,2.8c-1.5,1.51-3.5,1-6-1.46a7.32,7.32,0,0,1-2.17-3.41,2.83,2.83,0,0,1,.82-2.8,2.65,2.65,0,0,1,2.63-.74A7.26,7.26,0,0,1,54.62,442.35Zm-.76.84c-2-2-3.49-2.46-4.53-1.43s-.54,2.55,1.48,4.57S54.45,449,55.46,448,56,445.31,53.86,443.19Z"/><path class="cls-8" d="M285.14,208.76l-1.95-1.95L284,206l2,2,3.63-3.62.5.5,1.35,8.25-.94.95-4.68-4.68-1,1-.64-.63Zm5.34,3.78a55.28,55.28,0,0,1-1.17-6.68l-2.77,2.76,3.55,3.56a4.27,4.27,0,0,1,.37.38Z"/><path class="cls-8" d="M325.89,164.67l.83.83a4.32,4.32,0,0,0-2.33,1.2,2.89,2.89,0,0,0-.94,1.72A1.82,1.82,0,0,0,324,170a1.71,1.71,0,0,0,1.65.49,4.25,4.25,0,0,0,2-1.25l.61-.62.66.67-.58.58a3.49,3.49,0,0,0-1.1,1.82,1.68,1.68,0,0,0,.5,1.52,1.65,1.65,0,0,0,1.32.53,2.32,2.32,0,0,0,1.44-.77,3.88,3.88,0,0,0,1-2l.76.76a5.42,5.42,0,0,1-1.33,2.14,3.27,3.27,0,0,1-2,1.05,2.17,2.17,0,0,1-1.8-.66,2.58,2.58,0,0,1-.33-3.39l0,0a2.93,2.93,0,0,1-1.88.76,2.27,2.27,0,0,1-1.65-.68,2.74,2.74,0,0,1-.83-2.31,4.21,4.21,0,0,1,1.34-2.54A4.88,4.88,0,0,1,325.89,164.67Z"/><path class="cls-8" d="M364.73,125.28l.7.7-.11,4.8a10.5,10.5,0,0,0,.12,2.23,2.81,2.81,0,0,0,.79,1.5,1.76,1.76,0,0,0,1.39.6,2.26,2.26,0,0,0,1.46-.75,4.2,4.2,0,0,0,1.16-2.79l.82.83a4.87,4.87,0,0,1-1.44,2.72,3.23,3.23,0,0,1-2.12,1.08,2.56,2.56,0,0,1-2-.82,3.6,3.6,0,0,1-.95-1.73,9.37,9.37,0,0,1-.21-2.35c0-.89.05-2.36.12-4.4l0,0-3.66,3.66-.67-.67Z"/><path class="cls-8" d="M403.35,86.66l.67.67-1.76,1.75,5.79,5.79,1.29-2.35.73.73-1.82,3.36-6.76-6.76-1.76,1.76-.67-.67Z"/><path class="cls-10" d="M218.65,424.6l-33-5.81-.09.53,33,5.81Z"/><path class="cls-10" d="M230.1,382.16l-31.54-11.48c-.07.16-.12.33-.18.5l31.54,11.48Z"/><path class="cls-10" d="M248.8,342.38l-29.13-16.82c-.08.16-.18.31-.27.47l29.13,16.81Z"/><path class="cls-10" d="M248.67,285.82l25.1,21.05.34-.4-25.06-21Z"/><path class="cls-10" d="M283.7,250.63l21.12,25.18.41-.35-21.15-25.21Z"/><path class="cls-10" d="M341.23,250.29l-16.86-29.2-.46.27,16.86,29.21Z"/><path class="cls-10" d="M381.06,231.78l-11.53-31.7-.51.18L380.56,232Z"/><path class="cls-10" d="M423.51,220.5l-5.85-33.2-.53.08L423,220.59Z"/><path class="cls-10" d="M467,216.75h.27V183.07h-.54v33.68Z"/><path class="cls-10" d="M715.44,425.13,748,419.39l-.09-.53-32.58,5.74Z"/><path class="cls-10" d="M704.08,382.66l31.18-11.35-.18-.5L703.9,382.16Z"/><path class="cls-10" d="M685.47,342.84l28.82-16.64-.27-.46L685.2,342.38Z"/><path class="cls-10" d="M685,285.44l-25.06,21,.34.4,25.1-21.05Z"/><path class="cls-10" d="M628.77,275.46l.41.35,21.12-25.18-.38-.38Z"/><path class="cls-10" d="M593.23,250.57l16.76-29-.46-.27-16.76,29Z"/><path class="cls-10" d="M553.44,232l11.49-31.57-.5-.18-11.49,31.57Z"/><path class="cls-10" d="M511,220.59l5.84-33.14-.53-.09-5.84,33.14Z"/><rect class="cls-10" x="466.72" y="248.27" width="0.58" height="189.18"/><polygon class="cls-10" points="436.89 438.89 309.15 311.16 309.56 310.75 437.3 438.48 436.89 438.89"/><rect class="cls-10" x="470.58" y="374.74" width="180.23" height="0.58" transform="translate(-101.12 505.53) rotate(-44.93)"/><rect class="cls-7" x="186.5" y="461.73" width="0.45" height="5.67"/><rect class="cls-7" x="181" y="461.73" width="0.45" height="5.67"/><rect class="cls-7" x="175.51" y="461.73" width="0.45" height="5.67"/><rect class="cls-7" x="170.01" y="461.73" width="0.45" height="5.67"/><rect class="cls-7" x="159.02" y="461.73" width="0.45" height="5.67"/><rect class="cls-7" x="153.52" y="461.73" width="0.45" height="5.67"/><rect class="cls-7" x="148.03" y="461.73" width="0.45" height="5.67"/><rect class="cls-7" x="142.53" y="461.73" width="0.45" height="5.67"/><rect class="cls-7" x="131.54" y="461.73" width="0.45" height="5.67"/><rect class="cls-7" x="126.04" y="461.73" width="0.45" height="5.67"/><rect class="cls-7" x="120.55" y="461.73" width="0.45" height="5.67"/><rect class="cls-7" x="115.05" y="461.73" width="0.45" height="5.67"/><rect class="cls-7" x="104.06" y="461.73" width="0.45" height="5.67"/><rect class="cls-7" x="98.57" y="461.73" width="0.45" height="5.67"/><rect class="cls-7" x="93.07" y="461.73" width="0.45" height="5.67"/><rect class="cls-7" x="87.58" y="461.73" width="0.45" height="5.67"/><rect class="cls-7" x="406.32" y="461.73" width="0.45" height="5.67"/><rect class="cls-7" x="400.83" y="461.73" width="0.45" height="5.67"/><rect class="cls-7" x="395.33" y="461.73" width="0.45" height="5.67"/><rect class="cls-7" x="389.84" y="461.73" width="0.45" height="5.67"/><rect class="cls-7" x="378.84" y="461.73" width="0.45" height="5.67"/><rect class="cls-7" x="373.35" y="461.73" width="0.45" height="5.67"/><rect class="cls-7" x="367.85" y="461.73" width="0.45" height="5.67"/><rect class="cls-7" x="362.36" y="461.73" width="0.45" height="5.67"/><rect class="cls-7" x="351.37" y="461.73" width="0.45" height="5.67"/><rect class="cls-7" x="345.87" y="461.73" width="0.45" height="5.67"/><rect class="cls-7" x="340.37" y="461.73" width="0.45" height="5.67"/><rect class="cls-7" x="334.88" y="461.73" width="0.45" height="5.67"/><rect class="cls-7" x="323.89" y="461.73" width="0.45" height="5.67"/><rect class="cls-7" x="318.39" y="461.73" width="0.45" height="5.67"/><rect class="cls-7" x="312.9" y="461.73" width="0.45" height="5.67"/><rect class="cls-7" x="307.4" y="461.73" width="0.45" height="5.67"/><rect class="cls-7" x="296.41" y="461.73" width="0.45" height="5.67"/><rect class="cls-7" x="290.91" y="461.73" width="0.45" height="5.67"/><rect class="cls-7" x="285.42" y="461.73" width="0.45" height="5.67"/><rect class="cls-7" x="279.92" y="461.73" width="0.45" height="5.67"/><rect class="cls-7" x="268.93" y="461.73" width="0.45" height="5.67"/><rect class="cls-7" x="263.44" y="461.73" width="0.45" height="5.67"/><rect class="cls-7" x="257.94" y="461.73" width="0.45" height="5.67"/><rect class="cls-7" x="252.44" y="461.73" width="0.45" height="5.67"/><rect class="cls-7" x="241.45" y="461.73" width="0.45" height="5.67"/><rect class="cls-7" x="235.96" y="461.73" width="0.45" height="5.67"/><rect class="cls-7" x="230.46" y="461.73" width="0.45" height="5.67"/><rect class="cls-7" x="224.97" y="461.73" width="0.45" height="5.67"/><rect class="cls-7" x="213.98" y="461.73" width="0.45" height="5.67"/><rect class="cls-7" x="208.48" y="461.73" width="0.45" height="5.67"/><rect class="cls-7" x="202.98" y="461.73" width="0.45" height="5.67"/><rect class="cls-7" x="197.49" y="461.73" width="0.45" height="5.67"/><rect class="cls-7" x="461.28" y="461.73" width="0.45" height="5.67"/><rect class="cls-7" x="455.78" y="461.73" width="0.45" height="5.67"/><rect class="cls-7" x="450.29" y="461.73" width="0.45" height="5.67"/><rect class="cls-7" x="444.79" y="461.73" width="0.45" height="5.67"/><rect class="cls-7" x="433.8" y="461.73" width="0.45" height="5.67"/><rect class="cls-7" x="428.31" y="461.73" width="0.45" height="5.67"/><rect class="cls-7" x="422.81" y="461.73" width="0.45" height="5.67"/><rect class="cls-7" x="417.31" y="461.73" width="0.45" height="5.67"/><rect class="cls-7" x="164.49" y="456.59" width="0.5" height="11.35"/><rect class="cls-5" x="136.71" y="456.59" width="1.1" height="11.35"/><rect class="cls-7" x="109.53" y="456.59" width="0.5" height="11.35"/><rect class="cls-5" x="81.75" y="456.59" width="1.1" height="11.35"/><rect class="cls-5" x="411.49" y="456.59" width="1.1" height="11.35"/><rect class="cls-7" x="384.31" y="456.59" width="0.5" height="11.35"/><rect class="cls-5" x="356.54" y="456.59" width="1.1" height="11.35"/><rect class="cls-7" x="329.36" y="456.59" width="0.5" height="11.35"/><rect class="cls-5" x="301.58" y="456.59" width="1.1" height="11.35"/><rect class="cls-7" x="274.4" y="456.59" width="0.5" height="11.35"/><rect class="cls-5" x="246.62" y="456.59" width="1.1" height="11.35"/><rect class="cls-7" x="219.45" y="456.59" width="0.5" height="11.35"/><rect class="cls-5" x="191.67" y="456.59" width="1.1" height="11.35"/><rect class="cls-7" x="439.27" y="456.59" width="0.5" height="11.35"/><rect class="cls-5" x="466.45" y="457.44" width="1.1" height="9.97"/><rect class="cls-7" x="571.19" y="461.73" width="0.45" height="5.67"/><rect class="cls-7" x="565.7" y="461.73" width="0.45" height="5.67"/><rect class="cls-7" x="560.2" y="461.73" width="0.45" height="5.67"/><rect class="cls-7" x="554.71" y="461.73" width="0.45" height="5.67"/><rect class="cls-7" x="543.71" y="461.73" width="0.45" height="5.67"/><rect class="cls-7" x="538.22" y="461.73" width="0.45" height="5.67"/><rect class="cls-7" x="532.72" y="461.73" width="0.45" height="5.67"/><rect class="cls-7" x="527.23" y="461.73" width="0.45" height="5.67"/><rect class="cls-7" x="516.24" y="461.73" width="0.45" height="5.67"/><rect class="cls-7" x="510.74" y="461.73" width="0.45" height="5.67"/><rect class="cls-7" x="505.24" y="461.73" width="0.45" height="5.67"/><rect class="cls-7" x="499.75" y="461.73" width="0.45" height="5.67"/><rect class="cls-7" x="488.76" y="461.73" width="0.45" height="5.67"/><rect class="cls-7" x="483.26" y="461.73" width="0.45" height="5.67"/><rect class="cls-7" x="477.77" y="461.73" width="0.45" height="5.67"/><rect class="cls-7" x="472.27" y="461.73" width="0.45" height="5.67"/><rect class="cls-7" x="791.02" y="461.73" width="0.45" height="5.67"/><rect class="cls-7" x="785.52" y="461.73" width="0.45" height="5.67"/><rect class="cls-7" x="780.03" y="461.73" width="0.45" height="5.67"/><rect class="cls-7" x="774.53" y="461.73" width="0.45" height="5.67"/><rect class="cls-7" x="763.54" y="461.73" width="0.45" height="5.67"/><rect class="cls-7" x="758.04" y="461.73" width="0.45" height="5.67"/><rect class="cls-7" x="752.55" y="461.73" width="0.45" height="5.67"/><rect class="cls-7" x="747.05" y="461.73" width="0.45" height="5.67"/><rect class="cls-7" x="736.06" y="461.73" width="0.45" height="5.67"/><rect class="cls-7" x="730.57" y="461.73" width="0.45" height="5.67"/><rect class="cls-7" x="725.07" y="461.73" width="0.45" height="5.67"/><rect class="cls-7" x="719.57" y="461.73" width="0.45" height="5.67"/><rect class="cls-7" x="708.58" y="461.73" width="0.45" height="5.67"/><rect class="cls-7" x="703.09" y="461.73" width="0.45" height="5.67"/><rect class="cls-7" x="697.59" y="461.73" width="0.45" height="5.67"/><rect class="cls-7" x="692.1" y="461.73" width="0.45" height="5.67"/><rect class="cls-7" x="681.1" y="461.73" width="0.45" height="5.67"/><rect class="cls-7" x="675.61" y="461.73" width="0.45" height="5.67"/><rect class="cls-7" x="670.11" y="461.73" width="0.45" height="5.67"/><rect class="cls-7" x="664.62" y="461.73" width="0.45" height="5.67"/><rect class="cls-7" x="653.63" y="461.73" width="0.45" height="5.67"/><rect class="cls-7" x="648.13" y="461.73" width="0.45" height="5.67"/><rect class="cls-7" x="642.64" y="461.73" width="0.45" height="5.67"/><rect class="cls-7" x="637.14" y="461.73" width="0.45" height="5.67"/><rect class="cls-7" x="626.15" y="461.73" width="0.45" height="5.67"/><rect class="cls-7" x="620.65" y="461.73" width="0.45" height="5.67"/><rect class="cls-7" x="615.16" y="461.73" width="0.45" height="5.67"/><rect class="cls-7" x="609.66" y="461.73" width="0.45" height="5.67"/><rect class="cls-7" x="598.67" y="461.73" width="0.45" height="5.67"/><rect class="cls-7" x="593.17" y="461.73" width="0.45" height="5.67"/><rect class="cls-7" x="587.68" y="461.73" width="0.45" height="5.67"/><rect class="cls-7" x="582.18" y="461.73" width="0.45" height="5.67"/><rect class="cls-7" x="845.97" y="461.73" width="0.45" height="5.67"/><rect class="cls-7" x="840.48" y="461.73" width="0.45" height="5.67"/><rect class="cls-7" x="834.98" y="461.73" width="0.45" height="5.67"/><rect class="cls-7" x="829.49" y="461.73" width="0.45" height="5.67"/><rect class="cls-7" x="818.5" y="461.73" width="0.45" height="5.67"/><rect class="cls-7" x="813" y="461.73" width="0.45" height="5.67"/><rect class="cls-7" x="807.51" y="461.73" width="0.45" height="5.67"/><rect class="cls-7" x="802.01" y="461.73" width="0.45" height="5.67"/><rect class="cls-7" x="549.18" y="456.59" width="0.5" height="11.35"/><rect class="cls-5" x="521.41" y="456.59" width="1.1" height="11.35"/><rect class="cls-7" x="494.23" y="456.59" width="0.5" height="11.35"/><rect class="cls-5" x="466.45" y="456.59" width="1.1" height="11.35"/><rect class="cls-5" x="796.19" y="456.59" width="1.1" height="11.35"/><rect class="cls-7" x="769.01" y="456.59" width="0.5" height="11.35"/><rect class="cls-5" x="741.23" y="456.59" width="1.1" height="11.35"/><rect class="cls-7" x="714.05" y="456.59" width="0.5" height="11.35"/><rect class="cls-5" x="686.28" y="456.59" width="1.1" height="11.35"/><rect class="cls-7" x="659.1" y="456.59" width="0.5" height="11.35"/><rect class="cls-5" x="631.32" y="456.59" width="1.1" height="11.35"/><rect class="cls-7" x="604.14" y="456.59" width="0.5" height="11.35"/><rect class="cls-5" x="576.36" y="456.59" width="1.1" height="11.35"/><rect class="cls-7" x="823.97" y="456.59" width="0.5" height="11.35"/><rect class="cls-5" x="851.15" y="457.44" width="1.1" height="9.97"/><path class="cls-8" d="M799.88,444.57a3.71,3.71,0,0,0-1.68-.4A2.53,2.53,0,0,0,796,445.4a5.83,5.83,0,0,0-.81,3.32h0a2.43,2.43,0,0,1,2.35-1.47,2.77,2.77,0,0,1,2.15.87,3.26,3.26,0,0,1,.8,2.3,3.45,3.45,0,0,1-.9,2.44,3,3,0,0,1-2.3,1,2.76,2.76,0,0,1-2.44-1.25,6.11,6.11,0,0,1-.84-3.43,7.62,7.62,0,0,1,1.1-4.27,3.45,3.45,0,0,1,3.06-1.66,4,4,0,0,1,1.7.3Zm-4.63,5.73a2.93,2.93,0,0,0,.58,1.84,1.92,1.92,0,0,0,3,.08,2.48,2.48,0,0,0,.55-1.66,2.57,2.57,0,0,0-.54-1.74,1.86,1.86,0,0,0-1.49-.62,2,2,0,0,0-1.48.61A2,2,0,0,0,795.25,450.3Z"/><path class="cls-8" d="M856.15,443.72l-4.09,9.94h-1.14l3.85-9.26h-5.2v-1h6.58Z"/><path class="cls-8" d="M87.14,443.72l-4.09,9.94H81.91l3.85-9.26h-5.2v-1h6.58Z"/><path class="cls-8" d="M463.32,448.73a7.75,7.75,0,0,1,.88-4.11,2.86,2.86,0,0,1,2.56-1.4q3.19,0,3.2,5.26a7.37,7.37,0,0,1-.88,3.95,2.84,2.84,0,0,1-2.55,1.4,2.64,2.64,0,0,1-2.39-1.34A7.16,7.16,0,0,1,463.32,448.73Zm1.13-.06q0,4.21,2.2,4.22t2.18-4.28q0-4.44-2.13-4.44T464.45,448.67Z"/><path class="cls-8" d="M524.61,453.66h-5.76v-1h2.33V444.6l-2.39.72v-1.07l3.5-1.09v9.51h2.32Z"/><path class="cls-8" d="M414.57,453.66H408.8v-1h2.34V444.6l-2.4.72v-1.07l3.5-1.09v9.51h2.33Z"/><path class="cls-8" d="M579.24,453.66h-6.15v-1l3-3a11.22,11.22,0,0,0,1.83-2.17,3.1,3.1,0,0,0,.34-1.43,1.85,1.85,0,0,0-.51-1.4,2.07,2.07,0,0,0-1.48-.49,3.88,3.88,0,0,0-2.64,1.19v-1.18a4.29,4.29,0,0,1,2.79-.95,3,3,0,0,1,2.12.73,2.6,2.6,0,0,1,.8,2,3.82,3.82,0,0,1-.53,1.9,12.11,12.11,0,0,1-2,2.41l-2.39,2.36v0h4.82Z"/><path class="cls-8" d="M359.87,453.66h-6.15v-1l3-3a11.22,11.22,0,0,0,1.83-2.17,3.1,3.1,0,0,0,.34-1.43,1.85,1.85,0,0,0-.51-1.4,2.07,2.07,0,0,0-1.48-.49,3.88,3.88,0,0,0-2.64,1.19v-1.18a4.29,4.29,0,0,1,2.79-.95,3,3,0,0,1,2.12.73,2.6,2.6,0,0,1,.8,2,3.82,3.82,0,0,1-.53,1.9,12.11,12.11,0,0,1-2,2.41l-2.39,2.36v0h4.82Z"/><path class="cls-8" d="M628.47,452.05a3.69,3.69,0,0,0,2.37.84,2.67,2.67,0,0,0,1.73-.54,1.8,1.8,0,0,0,.66-1.48c0-1.37-1-2.05-2.89-2.05h-.85v-.95h.81c1.71,0,2.57-.64,2.57-1.92s-.66-1.78-2-1.78a3.22,3.22,0,0,0-2,.75v-1.11a4.42,4.42,0,0,1,2.32-.59,3,3,0,0,1,2,.67,2.22,2.22,0,0,1,.8,1.78,2.52,2.52,0,0,1-2.06,2.6v0a2.68,2.68,0,0,1,1.76.77,2.32,2.32,0,0,1,.67,1.68,2.73,2.73,0,0,1-1,2.24,3.89,3.89,0,0,1-2.58.84,4.19,4.19,0,0,1-2.3-.55Z"/><path class="cls-8" d="M299.34,452.05a3.69,3.69,0,0,0,2.37.84,2.67,2.67,0,0,0,1.73-.54,1.8,1.8,0,0,0,.66-1.48c0-1.37-1-2.05-2.89-2.05h-.85v-.95h.81c1.71,0,2.57-.64,2.57-1.92s-.65-1.78-2-1.78a3.22,3.22,0,0,0-2,.75v-1.11a4.42,4.42,0,0,1,2.32-.59,3,3,0,0,1,2,.67,2.19,2.19,0,0,1,.8,1.78,2.51,2.51,0,0,1-2.06,2.6v0a2.68,2.68,0,0,1,1.76.77,2.28,2.28,0,0,1,.67,1.68,2.75,2.75,0,0,1-1,2.24,3.92,3.92,0,0,1-2.58.84,4.2,4.2,0,0,1-2.31-.55Z"/><path class="cls-8" d="M689.53,450.9H688.2v2.76h-1.1V450.9h-4.85v-.73l4.59-6.78h1.36V450h1.33ZM687.1,450v-4.52c0-.32,0-.67,0-1.07h0a7,7,0,0,1-.39.79l-3.22,4.8Z"/><path class="cls-8" d="M250.63,450.9h-1.32v2.76h-1.1V450.9h-4.86v-.73l4.59-6.78h1.37V450h1.32Zm-2.42-.91v-4.52c0-.32,0-.67,0-1.07h0c0,.1-.17.36-.4.79l-3.22,4.8Z"/><path class="cls-8" d="M188.93,452.2a3.84,3.84,0,0,0,2.13.69,2.49,2.49,0,0,0,1.77-.63,2.14,2.14,0,0,0,.69-1.66,2,2,0,0,0-.69-1.61,3,3,0,0,0-2-.57c-.26,0-.8,0-1.6.08v-5.11h4.91v1h-3.86v3.07l.87,0a3.71,3.71,0,0,1,2.54.81,2.89,2.89,0,0,1,.92,2.28,3.08,3.08,0,0,1-1,2.42,3.81,3.81,0,0,1-2.61.88,4,4,0,0,1-2.1-.43Z"/><path class="cls-8" d="M139.71,444.57a3.71,3.71,0,0,0-1.68-.4,2.53,2.53,0,0,0-2.22,1.23,6,6,0,0,0-.81,3.32h0a2.44,2.44,0,0,1,2.36-1.47,2.77,2.77,0,0,1,2.14.87,3.26,3.26,0,0,1,.8,2.3,3.45,3.45,0,0,1-.9,2.44,3,3,0,0,1-2.3,1,2.76,2.76,0,0,1-2.44-1.25,6.11,6.11,0,0,1-.84-3.43,7.62,7.62,0,0,1,1.1-4.27,3.47,3.47,0,0,1,3.07-1.66,3.94,3.94,0,0,1,1.69.3Zm-4.63,5.73a2.93,2.93,0,0,0,.58,1.84,1.83,1.83,0,0,0,1.51.75,1.8,1.8,0,0,0,1.47-.67,2.48,2.48,0,0,0,.55-1.66,2.57,2.57,0,0,0-.54-1.74,1.86,1.86,0,0,0-1.49-.62,2,2,0,0,0-1.47.61A2,2,0,0,0,135.08,450.3Z"/><path class="cls-8" d="M738.27,452.2a3.82,3.82,0,0,0,2.13.69,2.52,2.52,0,0,0,1.77-.63,2.16,2.16,0,0,0,.68-1.66,2,2,0,0,0-.68-1.61,3,3,0,0,0-2-.57c-.27,0-.81,0-1.61.08v-5.11h4.92v1h-3.87v3.07l.88,0a3.68,3.68,0,0,1,2.53.81,2.86,2.86,0,0,1,.92,2.28,3.07,3.07,0,0,1-1,2.42,3.85,3.85,0,0,1-2.61.88,4,4,0,0,1-2.1-.43Z"/></svg>