<svg width="60" height="60" viewBox="0 0 60 60" fill="none" xmlns="http://www.w3.org/2000/svg">
<path d="M39.7 51.6H22.7C21.8 51.6 21.1 50.9 20.9 50.1L18 29.1C17.9 28 18.7 27.1 19.8 27.1H42.6C43.7 27.1 44.5 28 44.4 29.1L41.5 50.1C41.4 50.9 40.6 51.6 39.7 51.6Z" stroke="#383C40" stroke-width="1.5" stroke-miterlimit="10"/>
<path d="M24.8 26.7L27.7 51.6" stroke="#383C40" stroke-width="1.5" stroke-miterlimit="10"/>
<path d="M34.3 51.6L37.1 26.7" stroke="#383C40" stroke-width="1.5" stroke-miterlimit="10"/>
<path d="M49.5999 28.4L32 10.7C31.6 10.3 31.6 9.69999 32 9.29999L33.0999 8.19999C33.4999 7.79999 34.1 7.79999 34.5 8.19999L52.0999 25.9C52.4999 26.3 52.4999 26.9 52.0999 27.3L51 28.4C50.6 28.8 49.9999 28.8 49.5999 28.4Z" stroke="#383C40" stroke-width="1.5" stroke-miterlimit="10"/>
<path d="M45.6999 19.6L40.7999 14.7C40.3999 14.3 40.3999 13.7 40.7999 13.3L40.9999 13.1C41.3999 12.7 41.9999 12.7 42.3999 13.1L47.1999 18C47.5999 18.4 47.5999 19 47.1999 19.4L46.9999 19.6C46.6999 19.9 45.9999 19.9 45.6999 19.6Z" stroke="#383C40" stroke-width="1.5" stroke-miterlimit="10"/>
<path d="M11.5 17.9C13.9 15.6 20.5 10.4 26.4 16.3C26.5 16.4 26.8 16.4 26.9 16.2L28.1 14C28.2 13.8 28.6 13.8 28.7 14.1L30.8 22.6C30.9 22.8 30.7 23 30.5 23L23.5 22C23.2 22 23.1 21.6 23.3 21.5L25 19.9C25.1 19.8 25.1 19.7 25.1 19.6C24.7 18.7 22.5 15.1 12 18.6C11.5 18.5 11.3 18.1 11.5 17.9Z" fill="#383C40"/>
</svg>
