<svg width="60" height="60" viewBox="0 0 60 60" fill="none" xmlns="http://www.w3.org/2000/svg">
<path d="M21 6.9C20.9448 6.9 20.9 6.94477 20.9 7V15.6C20.9 15.6552 20.9448 15.7 21 15.7H31.9V30.4C31.9 30.4265 31.9105 30.452 31.9293 30.4707L32.9293 31.4707C32.9579 31.4993 33.0009 31.5079 33.0383 31.4924C33.0756 31.4769 33.1 31.4404 33.1 31.4V14.6C33.1 14.5448 33.0552 14.5 33 14.5H22.1V8.1H50.2V14.5H39.4C39.3448 14.5 39.3 14.5448 39.3 14.6V37.3H37.6C37.5448 37.3 37.5 37.3448 37.5 37.4C37.5 37.6825 37.4047 38.0627 37.2168 38.3445C37.1963 38.3752 37.1944 38.4147 37.2118 38.4472C37.2292 38.4797 37.2631 38.5 37.3 38.5H40.4C40.4552 38.5 40.5 38.4552 40.5 38.4V15.7H51.3C51.3552 15.7 51.4 15.6552 51.4 15.6V7C51.4 6.94477 51.3552 6.9 51.3 6.9H21Z" fill="#383C40" stroke="#383C40" stroke-width="0.2" stroke-linejoin="round"/>
<path d="M10.2 46.1L15.2 51.1C16.8 52.7 19.5 52.5 21.3 50.7L33.3 38.7L22.6 28L10.6 40C8.80002 41.8 8.60002 44.5 10.2 46.1Z" stroke="#383C40" stroke-width="1.5" stroke-miterlimit="10" stroke-linejoin="round"/>
<path d="M15.8 38L23.3 45.5L20.6 48.2C19.3 49.5 17.3 49.7 16.2 48.6L12.7 45.1C11.6 44 11.8 42 13.1 40.7L15.8 38Z" fill="#383C40"/>
</svg>
