<svg width="60" height="60" viewBox="0 0 60 60" fill="none" xmlns="http://www.w3.org/2000/svg">
<path d="M36.5168 33.5555L36.6065 33.6901L36.6868 33.5496L41.4868 25.1496L41.5 25.1266V25.1V25.0994V25.0988V25.0983V25.0977V25.0971V25.0965V25.096V25.0954V25.0948V25.0943V25.0937V25.0931V25.0926V25.092V25.0915V25.0909V25.0904V25.0898V25.0893V25.0887V25.0882V25.0876V25.0871V25.0866V25.086V25.0855V25.085V25.0845V25.0839V25.0834V25.0829V25.0824V25.0819V25.0813V25.0808V25.0803V25.0798V25.0793V25.0788V25.0783V25.0778V25.0773V25.0768V25.0763V25.0758V25.0753V25.0748V25.0743V25.0739V25.0734V25.0729V25.0724V25.0719V25.0715V25.071V25.0705V25.07V25.0696V25.0691V25.0686V25.0682V25.0677V25.0673V25.0668V25.0663V25.0659V25.0654V25.065V25.0645V25.0641V25.0636V25.0632V25.0627V25.0623V25.0619V25.0614V25.061V25.0606V25.0601V25.0597V25.0593V25.0588V25.0584V25.058V25.0575V25.0571V25.0567V25.0563V25.0559V25.0554V25.055V25.0546V25.0542V25.0538V25.0534V25.053V25.0526V25.0522V25.0518V25.0514V25.051V25.0506V25.0502V25.0498V25.0494V25.049V25.0486V25.0482V25.0478V25.0474V25.047V25.0466V25.0463V25.0459V25.0455V25.0451V25.0447V25.0443V25.044V25.0436V25.0432V25.0428V25.0425V25.0421V25.0417V25.0414V25.041V25.0406V25.0403V25.0399V25.0395V25.0392V25.0388V25.0384V25.0381V25.0377V25.0374V25.037V25.0367V25.0363V25.036V25.0356V25.0353V25.0349V25.0346V25.0342V25.0339V25.0335V25.0332V25.0328V25.0325V25.0321V25.0318V25.0315V25.0311V25.0308V25.0305V25.0301V25.0298V25.0294V25.0291V25.0288V25.0284V25.0281V25.0278V25.0275V25.0271V25.0268V25.0265V25.0261V25.0258V25.0255V25.0252V25.0248V25.0245V25.0242V25.0239V25.0236V25.0232V25.0229V25.0226V25.0223V25.022V25.0217V25.0213V25.021V25.0207V25.0204V25.0201V25.0198V25.0195V25.0191V25.0188V25.0185V25.0182V25.0179V25.0176V25.0173V25.017V25.0167V25.0164V25.0161V25.0157V25.0154V25.0151V25.0148V25.0145V25.0142V25.0139V25.0136V25.0133V25.013V25.0127V25.0124V25.0121V25.0118V25.0115V25.0112V25.0109V25.0106V25.0103V25.01V25.0097V25.0094V25.0091V25.0088V25.0085V25.0082V25.0079V25.0076V25.0073V25.0071V25.0068V25.0065V25.0062V25.0059V25.0056V25.0053V25.005V25.0047V25.0044V25.0041V25.0038V25.0035V25.0032V25.0029V25.0026V25.0023V25.0021V25.0018V25.0015V25.0012V25.0009V25.0006V25.0003V25V24.9997V24.9994V24.9991V24.9988V24.9985V24.9982V24.9979V24.9977V24.9974V24.9971V24.9968V24.9965V24.9962V24.9959V24.9956V24.9953V24.995V24.9947V24.9944V24.9941V24.9938V24.9935V24.9932V24.9929V24.9927V24.9924V24.9921V24.9918V24.9915V24.9912V24.9909V24.9906V24.9903V24.99V24.9897V24.9894V24.9891V24.9888V24.9885V24.9882V24.9879V24.9876V24.9873V24.987V24.9867V24.9864V24.9861V24.9858V24.9855V24.9852V24.9849V24.9846V24.9843V24.9839V24.9836V24.9833V24.983V24.9827V24.9824V24.9821V24.9818V24.9815V24.9812V24.9809V24.9805V24.9802V24.9799V24.9796V24.9793V24.979V24.9787V24.9783V24.978V24.9777V24.9774V24.9771V24.9768V24.9764V24.9761V24.9758V24.9755V24.9752V24.9748V24.9745V24.9742V24.9739V24.9735V24.9732V24.9729V24.9725V24.9722V24.9719V24.9716V24.9712V24.9709V24.9706V24.9702V24.9699V24.9695V24.9692V24.9689V24.9685V24.9682V24.9679V24.9675V24.9672V24.9668V24.9665V24.9661V24.9658V24.9654V24.9651V24.9647V24.9644V24.964V24.9637V24.9633V24.963V24.9626V24.9623V24.9619V24.9616V24.9612V24.9608V24.9605V24.9601V24.9597V24.9594V24.959V24.9586V24.9583V24.9579V24.9575V24.9572V24.9568V24.9564V24.956V24.9557V24.9553V24.9549V24.9545V24.9541V24.9537V24.9534V24.953V24.9526V24.9522V24.9518V24.9514V24.951V24.9506V24.9502V24.9498V24.9494V24.949V24.9486V24.9482V24.9478V24.9474V24.947V24.9466V24.9462V24.9458V24.9454V24.945V24.9446V24.9441V24.9437V24.9433V24.9429V24.9425V24.942V24.9416V24.9412V24.9407V24.9403V24.9399V24.9394V24.939V24.9386V24.9381V24.9377V24.9373V24.9368V24.9364V24.9359V24.9355V24.935V24.9346V24.9341V24.9337V24.9332V24.9327V24.9323V24.9318V24.9314V24.9309V24.9304V24.93V24.9295V24.929V24.9285V24.9281V24.9276V24.9271V24.9266V24.9261V24.9257V24.9252V24.9247V24.9242V24.9237V24.9232V24.9227V24.9222V24.9217V24.9212V24.9207V24.9202V24.9197V24.9192V24.9187V24.9181V24.9176V24.9171V24.9166V24.9161V24.9155V24.915V24.9145V24.914V24.9134V24.9129V24.9124V24.9118V24.9113V24.9107V24.9102V24.9096V24.9091V24.9085V24.908V24.9074V24.9071C41.5665 24.4409 41.633 23.8862 41.6994 23.3328C41.7327 23.0552 41.766 22.778 41.7992 22.5124L41.6136 22.4496L35.7136 32.5496L35.6747 32.6162L35.7293 32.6707C36.1307 33.0721 36.3233 33.2652 36.5168 33.5555Z" fill="#383C40" stroke="#383C40" stroke-width="0.2"/>
<path d="M35.8865 7.84983L35.8576 7.79999H35.8H20.2H20.1423L20.1134 7.84997L12.3134 21.35L12.2844 21.4002L12.3135 21.4503L16.2135 28.1503L16.2789 28.2625L16.3707 28.1707L17.0707 27.4707L17.1245 27.4169L17.087 27.3507L13.7151 21.4004L20.8578 8.99999H35.1423L42.1134 21.0501L42.2371 21.2638L42.297 21.0242C42.3938 20.6369 42.5883 20.247 42.7894 19.8447L42.8135 19.7965L42.7865 19.7498L35.8865 7.84983Z" fill="#383C40" stroke="#383C40" stroke-width="0.2"/>
<path d="M9.29998 46.1L14.3 51.1C15.9 52.7 18.6 52.5 20.4 50.7L32.4 38.7L21.8 28.1L9.79998 40.1C7.89998 41.8 7.69998 44.5 9.29998 46.1Z" stroke="#383C40" stroke-width="1.5" stroke-miterlimit="10"/>
<path d="M14.8999 38L22.3999 45.5L19.7 48.2C18.4 49.5 16.4 49.7 15.3 48.6L11.8 45.1C10.7 44 10.9 42 12.2 40.7L14.8999 38Z" fill="#383C40"/>
<path d="M52.5941 34.1255L52.6 34.1251V34.1253C52.7137 34.1253 52.8583 34.1532 52.978 34.228C53.1021 34.3055 53.2 34.4351 53.2 34.6253C53.2 34.798 53.142 34.9497 53.0332 35.0585C52.925 35.1667 52.7744 35.2247 52.6029 35.2253C50.7853 35.3258 49.0699 34.9216 47.5577 34.2159L47.5553 34.2148L47.5553 34.2147C47.4497 34.162 47.3704 34.1091 47.2958 34.0593L47.2945 34.0585C47.2422 34.0236 47.1922 33.9903 47.1348 33.9574C46.6405 34.7318 46.0539 35.4104 45.4648 35.9015C43.9469 37.2167 42.024 37.9253 40.1 37.9253H40.092C39.4983 37.9253 38.7866 37.9253 38.172 37.7214C35.7424 37.1126 33.5198 35.1915 32.5083 32.8652L32.5071 32.8624L32.5072 32.8624C32.4241 32.6548 32.3238 32.3955 32.2067 32.0926C32.1824 32.0299 32.1574 31.9653 32.1317 31.8989C31.9949 31.5454 31.8374 31.1402 31.6591 30.6925C31.5744 30.7564 31.4829 30.8082 31.3947 30.8522C31.3301 30.8846 31.2658 30.9135 31.2065 30.94L31.1973 30.9441C31.1409 30.9693 31.0899 30.9921 31.0447 31.0147L31.039 31.0176C30.6431 31.2156 30.2349 31.4196 29.8243 31.5223L29.7693 31.536L29.7293 31.496L28.9293 30.696L28.8312 30.5979L28.9553 30.5358C29.1288 30.4491 29.3382 30.3805 29.552 30.3104C29.5949 30.2964 29.6379 30.2822 29.6809 30.2679C29.9426 30.1807 30.2086 30.0835 30.4486 29.9395L30.4551 29.9356L30.4553 29.9359C30.5045 29.9112 30.5591 29.8868 30.6142 29.8622L30.6248 29.8574C30.6842 29.8309 30.7449 29.8035 30.8053 29.7733C30.9067 29.7226 31.003 29.6658 31.0838 29.5966C30.4919 27.9145 29.9004 26.0339 29.8003 24.8336C29.6989 23.6159 29.902 22.3952 30.6131 21.1758C30.8694 20.7148 31.2573 20.2471 31.8186 19.9729C32.3823 19.6977 33.1086 19.6236 34.028 19.9292C34.8742 20.1426 35.6972 20.9831 35.7997 22.4182L35.7998 22.4191C35.9011 24.0399 35.3958 26.0592 34.5868 27.4749L34.5858 27.4768L34.5857 27.4767C33.9973 28.4574 33.3107 29.347 32.6175 29.9557C33.0096 31.0303 33.3962 31.9941 33.5894 32.3806L33.5903 32.3823L33.5903 32.3823C34.5785 34.4576 36.4553 36.0357 38.5232 36.528L38.5263 36.5288L38.5263 36.5288C40.6926 37.1196 43.0581 36.5289 44.7338 35.0503L44.7375 35.0471L44.7375 35.0472C45.2102 34.6691 45.6874 34.104 46.168 33.3472C45.1892 32.5478 44.4044 31.5566 43.909 30.4667L43.9078 30.4641L43.9078 30.4641C43.0976 28.5399 43.2003 26.5176 43.3002 24.9191L43.3003 24.9176C43.4004 23.6164 43.6012 21.7969 44.5128 20.1763L44.5182 20.1668L44.5186 20.1672C44.5275 20.1547 44.5365 20.1421 44.5456 20.1294C45.0419 19.4341 45.7553 18.4348 46.9684 18.0304C48.2135 17.6154 49.6662 18.2341 50.1894 19.2806C50.395 19.6916 50.4994 20.1057 50.5 20.5218C50.5 20.5229 50.5 20.5241 50.5 20.5253H50.4C50.7 24.8253 49.8 29.2253 47.8 32.9253L52.5941 34.1255ZM52.5941 34.1255C50.9207 34.2239 49.4422 33.8323 48.1572 33.2416C48.0985 33.1866 48.02 33.136 47.9447 33.0984C47.9161 33.084 47.8855 33.0704 47.8546 33.0588C47.8737 33.034 47.8927 33 47.8983 32.9537L52.5941 34.1255ZM31.7878 21.6732L31.7878 21.6732L31.7894 21.67C32.075 21.0989 32.5431 20.8253 33 20.8253C33.1992 20.8253 33.4812 20.8259 33.7618 20.918C33.7681 20.9211 33.7747 20.9244 33.7817 20.9278C33.8904 20.9812 34.0821 21.0755 34.2648 21.269C34.4616 21.4773 34.6521 21.8059 34.7003 22.3331C34.7983 23.808 34.3063 25.4873 33.6135 26.775C33.1504 27.5157 32.6904 28.1652 32.2334 28.6476C31.6619 27.2806 31.1949 25.6689 31.0995 24.7153C31.0017 23.7376 31.1963 22.7576 31.7878 21.6732ZM46.7126 32.2767L46.7028 32.2944C45.9351 31.613 45.2729 30.8429 44.8915 29.9849C44.2022 28.4093 44.2002 26.5307 44.3991 25.0385L44.3993 25.0385L44.3997 25.033C44.4998 23.7322 44.6992 22.0548 45.4852 20.7777L45.4855 20.7779L45.4894 20.77C45.7841 20.1807 46.3679 19.4081 47.2316 19.1202L47.2384 19.1179L47.2447 19.1147C47.3382 19.068 47.4036 19.0469 47.4664 19.0364C47.5317 19.0255 47.598 19.0253 47.7 19.0253C48.2753 19.0253 48.7354 19.2149 49.0122 19.6733C49.0537 19.758 49.0765 19.8676 49.1016 20.0057C49.1037 20.0172 49.1058 20.0288 49.1079 20.0406C49.1302 20.1642 49.1554 20.3042 49.2012 20.4448C49.4974 24.5236 48.7002 28.6991 46.7126 32.2767Z" fill="#383C40" stroke="#383C40" stroke-width="0.2"/>
</svg>
