<svg width="42" height="42" viewBox="0 0 42 42" fill="none" xmlns="http://www.w3.org/2000/svg">
<path d="M19.9171 11.2589C17.4442 11.2589 15.5208 13.1822 15.5208 15.6551C15.5208 18.128 17.4442 20.0514 19.9171 20.0514C22.39 20.0514 24.3133 18.128 24.3133 15.6551C24.4507 13.3196 22.39 11.2589 19.9171 11.2589ZM19.9171 18.2654C18.4059 18.2654 17.1694 17.029 17.1694 15.6551C17.1694 14.1439 18.4059 13.0449 19.9171 13.0449C21.4283 13.0449 22.6647 14.2813 22.6647 15.6551C22.6647 17.1664 21.4283 18.2654 19.9171 18.2654Z" fill="#ACACAD"/>
<path d="M20.1918 7H19.7796C19.3675 7 18.9553 7.41214 18.9553 7.82429V11.671H21.0161V7.82429C21.0161 7.41214 20.6039 7 20.1918 7Z" fill="#ACACAD"/>
<path d="M7.96466 36.4L8.23943 35.9878L19.3675 21.8374C17.9936 21.7 16.6198 21.1505 15.6581 20.1888L7.96466 36.4Z" fill="#ACACAD"/>
<path d="M32.0068 36.4L24.3133 20.0514C23.3517 21.0131 22.1152 21.5626 20.604 21.7L31.732 35.9879L32.0068 36.4Z" fill="#ACACAD"/>
</svg>
