<svg width="26" height="12" viewBox="0 0 26 12" fill="none" xmlns="http://www.w3.org/2000/svg">
<path fill-rule="evenodd" clip-rule="evenodd" d="M14.7661 1.27909C12.8784 0.740985 10.8831 0.682912 8.96647 1.11029C7.04982 1.53766 5.27425 2.43656 3.80546 3.7231C2.33666 5.00964 1.22251 6.6419 0.566957 8.46756C0.352631 9.06445 0.66988 9.71955 1.27556 9.93077C1.88123 10.142 2.54598 9.82934 2.76031 9.23245C3.28475 7.77192 4.17608 6.46612 5.35111 5.43689C6.52615 4.40766 7.9466 3.68854 9.47993 3.34664C11.0133 3.00474 12.6095 3.0512 14.1197 3.48168C15.6298 3.91216 17.0047 4.71264 18.1161 5.80842C18.1247 5.81689 18.1334 5.82523 18.1423 5.83344L21.4318 8.87958H17.3351C16.6927 8.87958 16.1718 9.39286 16.1718 10.026C16.1718 10.6592 16.6927 11.1725 17.3351 11.1725L24.315 11.1725C24.71 11.1725 25.0591 10.9784 25.2693 10.6818C25.4709 10.4161 25.5397 10.0856 25.4784 9.77589L25.4784 3.14738C25.4784 2.51422 24.9575 2.00094 24.315 2.00094C23.6726 2.00094 23.1517 2.51422 23.1517 3.14738V7.32599L19.7484 4.17448C18.3616 2.81144 16.6479 1.81549 14.7661 1.27909Z" fill="#5F5F5F"/>
</svg>
