<svg width="26" height="26" viewBox="0 0 26 26" fill="none" xmlns="http://www.w3.org/2000/svg">
<path d="M11.7165 7.32288L7.50183 18H9.85365L10.6658 15.9427H15.3339L16.1461 18H18.4979L14.2832 7.32288H11.7165ZM11.5293 13.7552L12.9999 10.0295L14.4704 13.7552H11.5293Z" fill="#5F5F5F"/>
<path d="M19.6667 2.58333H6.33333V0.5H0.5V6.33333H2.58333V19.6667H0.5V25.5H6.33333V23.4167H19.6667V25.5H25.5V19.6667H23.4167V6.33333H25.5V0.5H19.6667V2.58333ZM2.16667 4.66667V2.16667H4.66667V4.66667H2.16667ZM4.66667 23.8333H2.16667V21.3333H4.66667V23.8333ZM19.6667 21.75H6.33333V19.6667H4.25V6.33333H6.33333V4.25H19.6667V6.33333H21.75V19.6667H19.6667V21.75ZM23.8333 21.3333V23.8333H21.3333V21.3333H23.8333ZM21.3333 2.16667H23.8333V4.66667H21.3333V2.16667Z" fill="#5F5F5F"/>
</svg>
