<?xml version="1.0" encoding="utf-8"?>
<!-- Generator: Adobe Illustrator 24.0.0, SVG Export Plug-In . SVG Version: 6.00 Build 0)  -->
<svg version="1.1" id="圖層_1" xmlns="http://www.w3.org/2000/svg" xmlns:xlink="http://www.w3.org/1999/xlink" x="0px" y="0px"
	 viewBox="0 0 24 24" style="enable-background:new 0 0 24 24;" xml:space="preserve">
<style type="text/css">
	.st0{opacity:0;fill:#5F5F5F;}
	.st1{fill:#5F5F5F;}
</style>
<g>
	<rect class="st0" width="24" height="24"/>
	<g>
		<g>
			<g>
				<g>
					<path class="st1" d="M9.29,20.43c-0.92,0-1.75-0.33-2.37-0.95l-3.85-3.85C2.39,14.94,2.05,14,2.13,12.97
						c0.07-1,0.53-1.97,1.28-2.73L13,0.66l8.89,8.89l-9.59,9.58c-0.75,0.76-1.72,1.21-2.73,1.28C9.48,20.43,9.38,20.43,9.29,20.43z
						 M13,2.01l-8.91,8.91c-0.59,0.59-0.95,1.35-1.01,2.12c-0.05,0.75,0.18,1.43,0.67,1.91v0l3.85,3.85
						c0.48,0.48,1.16,0.72,1.91,0.67c0.77-0.06,1.53-0.41,2.12-1.01l8.91-8.91L13,2.01z"/>
					<rect x="2.59" y="21.26" class="st1" width="3.23" height="2.07"/>
					<rect x="11.9" y="21.26" class="st1" width="9.31" height="2.07"/>
				</g>
			</g>
		</g>
		<path class="st1" d="M7.73,9.02l5.79,5.79l-2.13,2.13c-1.03,1.03-2.55,1.18-3.4,0.33l-2.72-2.72c-0.85-0.85-0.7-2.37,0.33-3.4
			L7.73,9.02z"/>
	</g>
</g>
</svg>
