<svg width="26" height="26" viewBox="0 0 26 26" fill="none" xmlns="http://www.w3.org/2000/svg">
<path d="M4.40625 0.500061C2.24889 0.500061 0.5 2.24895 0.5 4.40631V13.7813C0.5 15.9387 2.24889 17.6876 4.40625 17.6876H6.75V15.0204L5.64527 16.1251H4.40625C4.04445 16.1251 3.7018 16.043 3.39584 15.8966L6.75 12.5425V12.2188C6.75 11.3266 6.96367 10.4842 7.34264 9.74017L2.29095 14.7919C2.14452 14.4858 2.0625 14.1432 2.0625 13.7813V12.314L12.314 2.06256H13.7812C14.1431 2.06256 14.4858 2.14458 14.7919 2.29101L9.74011 7.3427C10.4842 6.96373 11.3265 6.75006 12.2188 6.75006H12.5425L15.8966 3.3959C16.043 3.70186 16.125 4.04451 16.125 4.40631V5.64533L15.0203 6.75006H17.6875V4.40631C17.6875 2.24895 15.9386 0.500061 13.7812 0.500061H4.40625ZM2.0625 4.40631C2.0625 3.11189 3.11183 2.06256 4.40625 2.06256H5.41677L2.0625 5.41683V4.40631ZM2.0625 7.62653L7.62647 2.06256H10.1043L2.0625 10.1043V7.62653Z" fill="#5F5F5F"/>
<path d="M8.3125 12.2188C8.3125 10.0615 10.0614 8.31256 12.2188 8.31256H21.5938C23.7511 8.31256 25.5 10.0615 25.5 12.2188V21.5938C25.5 23.7512 23.7511 25.5001 21.5938 25.5001H12.2188C10.0614 25.5001 8.3125 23.7512 8.3125 21.5938V12.2188ZM12.2188 9.87506C10.9243 9.87506 9.875 10.9244 9.875 12.2188V21.5938C9.875 22.8882 10.9243 23.9376 12.2188 23.9376H21.5938C22.8881 23.9376 23.9375 22.8882 23.9375 21.5938V12.2188C23.9375 10.9244 22.8881 9.87506 21.5938 9.87506H12.2188Z" fill="#5F5F5F"/>
</svg>
