<svg width="22" height="22" viewBox="0 0 22 22" fill="none" xmlns="http://www.w3.org/2000/svg">
<path d="M1.83333 5.49992H0V10.0833H0.00916667L0 18.3333C0 19.3416 0.825 20.1666 1.83333 20.1666H18.3333V18.3333H1.83333V5.49992ZM6.41667 13.7499H19.25L16.0417 9.62492L13.75 12.3841L10.5417 8.24992L6.41667 13.7499ZM20.1667 3.66659H12.8333L11 1.83325H5.5C4.49167 1.83325 3.67583 2.65825 3.67583 3.66659L3.66667 14.6666C3.66667 15.6749 4.49167 16.4999 5.5 16.4999H20.1667C21.175 16.4999 22 15.6749 22 14.6666V5.49992C22 4.49159 21.175 3.66659 20.1667 3.66659ZM20.1667 14.6666H5.5V3.66659H10.2392L11.5317 4.95909L12.0725 5.49992H20.1667V14.6666Z" fill="#5F5F5F"/>
</svg>
