<svg width="25" height="25" viewBox="0 0 25 25" fill="none" xmlns="http://www.w3.org/2000/svg">
<path fill-rule="evenodd" clip-rule="evenodd" d="M17.0037 15.9526C18.2139 14.7251 19.6956 13.2188 21.0303 11.8545C22.8159 10.0293 24.3893 8.40716 24.6434 8.09403C25.0625 7.57738 25.0419 6.96934 24.9341 6.53543C24.8261 6.10067 24.6059 5.71906 24.4304 5.48724C24.4151 5.46699 24.3986 5.44759 24.3812 5.42915C23.058 4.03102 20.2649 1.08383 19.715 0.518912C19.2482 0.0393892 18.6647 -0.0430583 18.1998 0.0171756C17.7533 0.0750306 17.3614 0.26607 17.1214 0.430456C17.0835 0.456392 17.0483 0.486022 17.0163 0.518912L7.81111 9.97507C7.27837 10.5223 7.07568 11.1211 7.095 11.6739C7.11335 12.1987 7.32977 12.6314 7.5528 12.8933C7.55848 12.8999 7.56429 12.9065 7.57022 12.913L11.4341 17.1157C11.5655 17.2586 11.7507 17.3399 11.9447 17.3399H15.7637L17.0037 15.9526ZM8.80511 10.9427L12.5328 7.11335L18.1896 12.7701C17.0346 13.9457 15.9081 15.0886 15.0549 15.9526H12.2492L8.60329 11.987C8.56013 11.9324 8.48738 11.7974 8.48137 11.6254C8.47607 11.4738 8.51961 11.236 8.80511 10.9427Z" fill="#5F5F5F"/>
<path fill-rule="evenodd" clip-rule="evenodd" d="M9.86244 15.4064H9.69687V24.4334H11.4272V17.1083L9.86244 15.4064ZM12.8851 17.3399V24.4334H14.6154V17.3399H12.8851ZM7.0751 24.4334H9.05786L5.44333 15.4064H3.516L0 24.4334H1.93349L2.67856 22.383H6.28693L7.0751 24.4334ZM4.45812 17.5123L5.70195 20.862H3.23891L4.45812 17.5123Z" fill="#5F5F5F"/>
</svg>
