<svg width="21" height="17" viewBox="0 0 21 17" fill="none" xmlns="http://www.w3.org/2000/svg">
<path d="M19.0909 9.15527e-05H1.90909C0.859091 9.15527e-05 0 0.850092 0 1.88898V15.1112C0 16.1501 0.859091 17.0001 1.90909 17.0001H19.0909C20.1409 17.0001 21 16.1501 21 15.1112V1.88898C21 0.850092 20.1409 9.15527e-05 19.0909 9.15527e-05ZM19.0909 15.1112H1.90909V1.88898H19.0909V15.1112ZM6.68182 11.3334C6.68182 9.76565 7.96091 8.50009 9.54545 8.50009C9.87955 8.50009 10.2041 8.5662 10.5 8.67009V2.83342H15.2727V4.72231H12.4091V11.3618C12.39 12.9106 11.1205 14.1668 9.54545 14.1668C7.96091 14.1668 6.68182 12.9012 6.68182 11.3334Z" fill="#5F5F5F"/>
</svg>
