<svg width="40" height="40" viewBox="0 0 40 40" fill="none" xmlns="http://www.w3.org/2000/svg">
<path d="M39.25 20C39.25 30.6315 30.6315 39.25 20 39.25C9.36852 39.25 0.75 30.6315 0.75 20C0.75 9.36852 9.36852 0.75 20 0.75C30.6315 0.75 39.25 9.36852 39.25 20Z" fill="white" fill-opacity="0.8" stroke="#14A028" stroke-width="1.5" stroke-miterlimit="10"/>
<path d="M19.3237 28.2149C17.6708 28.2181 16.052 27.7449 14.6611 26.852C13.2701 25.9591 12.166 24.6842 11.4808 23.18C10.7956 21.6759 10.5584 20.0061 10.7975 18.3706C11.0367 16.7351 11.7421 15.2032 12.8294 13.9582C13.9166 12.7132 15.3396 11.8079 16.928 11.3507C18.5164 10.8935 20.2029 10.9037 21.7856 11.3801C23.3684 11.8565 24.7803 12.7789 25.8524 14.037C26.9245 15.295 27.6113 16.8354 27.8307 18.4736" stroke="#14A028" stroke-width="1.5" stroke-linecap="round" stroke-linejoin="round"/>
<path d="M24 16.875L28.0526 20L30.5 15.5" stroke="#14A028" stroke-width="1.5" stroke-linecap="round" stroke-linejoin="round"/>
</svg>
