<svg width="26" height="12" viewBox="0 0 26 12" fill="none" xmlns="http://www.w3.org/2000/svg">
<path fill-rule="evenodd" clip-rule="evenodd" d="M11.2339 1.27909C13.1216 0.740985 15.1169 0.682912 17.0335 1.11029C18.9502 1.53766 20.7257 2.43656 22.1945 3.7231C23.6633 5.00964 24.7775 6.6419 25.433 8.46756C25.6474 9.06445 25.3301 9.71955 24.7244 9.93077C24.1188 10.142 23.454 9.82934 23.2397 9.23245C22.7152 7.77192 21.8239 6.46612 20.6489 5.43689C19.4739 4.40766 18.0534 3.68854 16.5201 3.34664C14.9867 3.00474 13.3905 3.0512 11.8803 3.48168C10.3702 3.91216 8.99526 4.71264 7.88391 5.80842C7.87531 5.81689 7.86658 5.82523 7.85772 5.83344L4.56823 8.87958H8.66486C9.30734 8.87958 9.82818 9.39286 9.82818 10.026C9.82818 10.6592 9.30734 11.1725 8.66486 11.1725H1.68496C1.28996 11.1725 0.940933 10.9784 0.73066 10.6818C0.52909 10.4161 0.460321 10.0856 0.521645 9.77589V3.14738C0.521645 2.51422 1.04248 2.00094 1.68496 2.00094C2.32744 2.00094 2.84828 2.51422 2.84828 3.14738V7.32599L6.25156 4.17448C7.63842 2.81144 9.35214 1.81549 11.2339 1.27909Z" fill="#5F5F5F"/>
</svg>
