<svg width="26" height="26" viewBox="0 0 26 26" fill="none" xmlns="http://www.w3.org/2000/svg">
<path d="M6.43407 16.5393L3.71281 13.8181H12.1819V22.2872L9.46074 19.566L8.2739 20.7528L13.0211 25.5L17.7684 20.7528L16.5815 19.566L13.8603 22.2872V13.8181H22.2873L19.566 16.5393L20.7529 17.7261L25.5001 12.9789L20.7529 8.23168L19.566 9.41846L22.2873 12.1397H13.8603V3.71281L16.5815 6.43396L17.7684 5.24723L13.0211 0.5L8.2739 5.24723L9.46074 6.43396L12.1819 3.71281V12.1397H3.71281L6.43407 9.41846L5.24723 8.23168L0.5 12.9789L5.24729 17.7261L6.43407 16.5393Z" fill="#5F5F5F"/>
</svg>
