<svg width="22" height="14" viewBox="0 0 22 14" fill="none" xmlns="http://www.w3.org/2000/svg">
<path d="M6.6 4.15385H15.4V6.23077H6.6V4.15385ZM19.91 5.19231H22C22 2.32615 19.536 0 16.5 0H12.1V1.97308H16.5C18.381 1.97308 19.91 3.41654 19.91 5.19231ZM2.09 5.19231C2.09 3.41654 3.619 1.97308 5.5 1.97308H9.9V0H5.5C2.464 0 0 2.32615 0 5.19231C0 8.05846 2.464 10.3846 5.5 10.3846H9.9V8.41154H5.5C3.619 8.41154 2.09 6.96808 2.09 5.19231ZM18.7 5.19231H16.5V8.30769H13.2V10.3846H16.5V13.5H18.7V10.3846H22V8.30769H18.7V5.19231Z" fill="black"/>
</svg>
