<svg width="25" height="23" viewBox="0 0 25 23" fill="none" xmlns="http://www.w3.org/2000/svg">
<path fill-rule="evenodd" clip-rule="evenodd" d="M17.559 14.8446C18.6851 13.7023 20.0639 12.3006 21.3059 11.0311C22.9674 9.33269 24.4316 7.8232 24.668 7.53181C25.058 7.05105 25.0389 6.48525 24.9385 6.08147C24.838 5.67691 24.6332 5.32181 24.4698 5.10609C24.4556 5.08725 24.4403 5.0692 24.424 5.05204C23.1927 3.75103 20.5937 1.00855 20.082 0.482868C19.6476 0.0366532 19.1046 -0.0400675 18.672 0.0159826C18.2565 0.069819 17.8919 0.247589 17.6685 0.400556C17.6333 0.42469 17.6005 0.452263 17.5707 0.482868L9.00493 9.2822C8.50919 9.79145 8.32059 10.3487 8.33857 10.863C8.35564 11.3514 8.55703 11.754 8.76456 11.9977C8.76985 12.0039 8.77526 12.01 8.78078 12.016L12.3763 15.9268C12.4985 16.0598 12.6708 16.1354 12.8514 16.1354H16.4051L17.559 14.8446ZM9.92989 10.1826L13.3987 6.61925L18.6625 11.8831C17.5878 12.977 16.5395 14.0405 15.7456 14.8446H13.1348L9.74209 11.1544C9.70192 11.1036 9.63423 10.9779 9.62864 10.8179C9.62371 10.6769 9.66422 10.4555 9.92989 10.1826Z" fill="#5F5F5F"/>
<path fill-rule="evenodd" clip-rule="evenodd" d="M7.32217 9.53457H3.93682V13.9718C4.09622 13.9549 4.25423 13.9435 4.40991 13.9388C5.14175 13.9166 5.88839 14.0033 6.56898 14.0824L6.56899 14.0824C6.7936 14.1085 7.01101 14.1337 7.21832 14.1539C8.13039 14.2429 9.09196 14.8169 9.50957 15.7126C9.65522 15.6963 9.80075 15.6824 9.94596 15.6706L11.1387 17.0802C10.8423 17.0864 10.5462 17.0983 10.2497 17.1187C10.0911 17.1296 9.93417 17.1429 9.77881 17.159C9.78189 17.46 9.76409 17.7416 9.74964 17.97L9.74602 18.0274C9.71286 18.5581 9.3266 18.8935 9.13463 19.0433C9.01792 19.1343 8.89818 19.212 8.80441 19.2714C8.77263 19.2915 8.74532 19.3087 8.72138 19.3237L8.72093 19.324C8.66392 19.3597 8.62605 19.3835 8.59244 19.407C8.20713 19.6768 7.75368 19.7676 7.37685 19.7937C6.99041 19.8205 6.60859 19.7839 6.30531 19.7372C5.91643 19.6774 5.65621 19.4322 5.51011 19.2478C5.35758 19.0552 5.25617 18.8391 5.19689 18.6612C5.05546 18.2369 5.07153 17.8064 5.30524 17.4232C5.50849 17.09 5.82678 16.8813 6.07493 16.7417C6.67167 16.4061 7.29473 16.1685 7.92835 16.0009C7.71005 15.7986 7.40219 15.6457 7.07589 15.6139C6.80915 15.5878 6.55523 15.5584 6.30963 15.53L6.30948 15.5299L6.30946 15.5299C5.66066 15.4548 5.06991 15.3863 4.45434 15.405C4.2861 15.4101 4.11325 15.4251 3.93682 15.4482V20.536H14.9382V17.7215H16.3144H16.3144L16.8783 17.1576L18.2261 15.8097C18.4398 15.8367 18.6543 15.8678 18.8697 15.9037C18.9072 15.9099 18.9617 15.9153 19.0581 15.9248L19.1307 15.932C19.2556 15.9444 19.4157 15.9615 19.5772 15.9902C19.7338 16.0181 19.9277 16.063 20.1109 16.1448C20.2843 16.2223 20.5446 16.3756 20.6949 16.6761C20.876 17.0384 20.7292 17.4789 20.3669 17.6601C20.0545 17.8162 19.684 17.7286 19.4717 17.4693C19.4383 17.459 19.3887 17.4466 19.3199 17.4344C19.218 17.4162 19.1057 17.4036 18.9854 17.3916L18.9343 17.3866L18.9343 17.3866C18.8383 17.3773 18.72 17.3658 18.6285 17.3506C18.1304 17.2676 17.6358 17.2122 17.1385 17.1753V20.536V22.7363H14.9382H3.93682H1.73654V20.536V15.9935C1.57839 16.0433 1.4206 16.0938 1.26375 16.1441L1.26359 16.1441C1.16055 16.1771 1.05791 16.21 0.955855 16.2425C0.569836 16.3652 0.15741 16.1518 0.0346755 15.7657C-0.0880589 15.3797 0.125376 14.9673 0.511395 14.8446C0.615143 14.8116 0.722709 14.7769 0.833575 14.7412L0.834115 14.7411L0.834719 14.7409C1.11681 14.65 1.42025 14.5523 1.73654 14.4574V9.53457V7.33429H3.93682H9.28808L8.11324 8.50911H8.11323C7.77458 8.84776 7.51463 9.19299 7.32217 9.53457ZM8.30819 17.4177C7.77536 17.5583 7.26907 17.753 6.79407 18.0202C6.70312 18.0714 6.64192 18.1126 6.60108 18.146C6.59215 18.1533 6.58484 18.1597 6.57893 18.1651C6.58115 18.1739 6.58422 18.1846 6.58847 18.1973C6.59611 18.2203 6.60746 18.248 6.62175 18.2757C6.62692 18.2857 6.63199 18.2947 6.63683 18.3028C6.84909 18.3305 7.07176 18.3445 7.27558 18.3304C7.5241 18.3132 7.67473 18.2589 7.75126 18.2053C7.81796 18.1587 7.90163 18.1062 7.96902 18.064L8.01962 18.0321C8.10495 17.9781 8.17479 17.9316 8.23255 17.8866C8.25652 17.8679 8.27458 17.8523 8.28791 17.84C8.29666 17.6942 8.30407 17.553 8.30819 17.4177ZM19.5149 17.4852C19.5183 17.4871 19.5202 17.488 19.5203 17.4879C19.5204 17.4879 19.5198 17.4875 19.5185 17.4869C19.5177 17.4864 19.5165 17.4859 19.5149 17.4852Z" fill="#5F5F5F"/>
</svg>
