<svg width="24" height="22" viewBox="0 0 24 22" fill="none" xmlns="http://www.w3.org/2000/svg">
<path d="M15.1838 19.2262C15.781 19.2262 16.2651 19.7752 16.2651 20.4524C16.2651 21.0731 15.8583 21.5862 15.3305 21.6674L15.1838 21.6786H1.5813C0.984115 21.6786 0.5 21.1296 0.5 20.4524C0.5 19.8316 0.906791 19.3186 1.43457 19.2374L1.5813 19.2262H15.1838ZM22.4187 10.2027C23.0159 10.2027 23.5 10.7517 23.5 11.4289C23.5 12.0497 23.0932 12.5627 22.5654 12.6439L22.4187 12.6551H1.5813C0.984115 12.6551 0.5 12.1061 0.5 11.4289C0.5 10.8081 0.906791 10.2951 1.43457 10.2139L1.5813 10.2027H22.4187ZM16.6176 0.321411C17.2148 0.321411 17.6989 0.870388 17.6989 1.54759C17.6989 2.16835 17.2921 2.68137 16.7643 2.76257L16.6176 2.77376H1.5813C0.984115 2.77376 0.5 2.22478 0.5 1.54759C0.5 0.926821 0.906791 0.413798 1.43457 0.332605L1.5813 0.321411H16.6176Z" fill="#616161 "/>
</svg>
