<svg width="25" height="24" viewBox="0 0 25 24" fill="none" xmlns="http://www.w3.org/2000/svg">
<path fill-rule="evenodd" clip-rule="evenodd" d="M17.0035 15.9526C18.2138 14.7251 19.6955 13.2188 21.0301 11.8545C22.8157 10.0293 24.3892 8.40716 24.6432 8.09403C25.0623 7.57738 25.0418 6.96934 24.934 6.53543C24.8259 6.10067 24.6058 5.71906 24.4303 5.48724C24.4149 5.46699 24.3985 5.44759 24.3811 5.42915C23.0578 4.03102 20.2648 1.08383 19.7149 0.518912C19.2481 0.0393892 18.6646 -0.0430583 18.1997 0.0171756C17.7532 0.0750306 17.3613 0.26607 17.1213 0.430456C17.0834 0.456392 17.0482 0.486022 17.0162 0.518912L7.81098 9.97507C7.27824 10.5223 7.07556 11.1211 7.09488 11.6739C7.11323 12.1987 7.32965 12.6314 7.55268 12.8933C7.55836 12.8999 7.56417 12.9065 7.5701 12.913L11.434 17.1157C11.5654 17.2586 11.7505 17.3399 11.9446 17.3399H15.7636L17.0035 15.9526ZM8.80499 10.9427L12.5327 7.11335L18.1895 12.7701C17.0345 13.9457 15.908 15.0886 15.0548 15.9526H12.2491L8.60317 11.987C8.56 11.9324 8.48726 11.7974 8.48125 11.6254C8.47595 11.4738 8.51949 11.236 8.80499 10.9427Z" fill="#5F5F5F"/>
<path fill-rule="evenodd" clip-rule="evenodd" d="M9.54261 17.6916L10.6871 19.0443H13.9072L15.7635 23.6453H12.392L11.2278 20.7598H4.53573L3.37148 23.6453H0L6.04194 8.66992H7.32705L6.8527 9.14427C5.26714 10.7298 5.28684 12.4497 5.91681 13.3947L5.95431 13.4509L6.99044 14.6754L5.77359 17.6916H9.54261Z" fill="#5F5F5F"/>
</svg>
