<svg width="26" height="26" viewBox="0 0 26 26" fill="none" xmlns="http://www.w3.org/2000/svg">
<path d="M2.58333 6.75004H0.5V11.9584H0.510417L0.5 21.3334C0.5 22.4792 1.4375 23.4167 2.58333 23.4167H21.3333V21.3334H2.58333V6.75004ZM7.79167 16.125H22.375L18.7292 11.4375L16.125 14.573L12.4792 9.87504L7.79167 16.125ZM23.4167 4.66671H15.0833L13 2.58337H6.75C5.60417 2.58337 4.67708 3.52087 4.67708 4.66671L4.66667 17.1667C4.66667 18.3125 5.60417 19.25 6.75 19.25H23.4167C24.5625 19.25 25.5 18.3125 25.5 17.1667V6.75004C25.5 5.60421 24.5625 4.66671 23.4167 4.66671ZM23.4167 17.1667H6.75V4.66671H12.1354L13.6042 6.13546L14.2188 6.75004H23.4167V17.1667Z" fill="#5F5F5F"/>
</svg>
