<svg width="22" height="26" viewBox="0 0 22 26" fill="none" xmlns="http://www.w3.org/2000/svg">
<path fill-rule="evenodd" clip-rule="evenodd" d="M10.9397 0.500076C11.492 0.500076 11.9397 0.947792 11.9397 1.50008V4.62609C13.6649 5.07014 14.9397 6.63624 14.9397 8.50008C14.9397 10.7092 13.1488 12.5001 10.9397 12.5001C8.73056 12.5001 6.9397 10.7092 6.9397 8.50008C6.9397 6.63624 8.21447 5.07014 9.9397 4.62609V1.50008C9.9397 0.947792 10.3874 0.500076 10.9397 0.500076ZM8.9397 8.50008C8.9397 7.39551 9.83513 6.50008 10.9397 6.50008C12.0443 6.50008 12.9397 7.39551 12.9397 8.50008C12.9397 9.60465 12.0443 10.5001 10.9397 10.5001C9.83513 10.5001 8.9397 9.60465 8.9397 8.50008ZM21.0603 25.5001L14.6218 11.8182C13.817 12.623 12.7646 13.3851 11.4999 13.5001L20.8304 25.1552L21.0603 25.5001ZM0.939697 25.5L1.16965 25.1551L10.5 13.5001C9.35026 13.3851 8.18307 12.7379 7.37825 11.9331L0.939697 25.5Z" fill="#5F5F5F"/>
</svg>
