<svg width="20" height="10" viewBox="0 0 20 10" fill="none" xmlns="http://www.w3.org/2000/svg">
<path d="M1.9 5.00009C1.9 3.29009 3.29 1.90009 5 1.90009H9V9.15527e-05H5C2.24 9.15527e-05 0 2.24009 0 5.00009C0 7.76009 2.24 10.0001 5 10.0001H9V8.10009H5C3.29 8.10009 1.9 6.71009 1.9 5.00009ZM6 6.00009H14V4.00009H6V6.00009ZM15 9.15527e-05H11V1.90009H15C16.71 1.90009 18.1 3.29009 18.1 5.00009C18.1 6.71009 16.71 8.10009 15 8.10009H11V10.0001H15C17.76 10.0001 20 7.76009 20 5.00009C20 2.24009 17.76 9.15527e-05 15 9.15527e-05Z" fill="#5F5F5F"/>
</svg>
