<svg width="25" height="25" viewBox="0 0 25 25" fill="none" xmlns="http://www.w3.org/2000/svg">
<path d="M18.4211 22.6579H2.63158V6.57897H11.8421V3.94739H2.63158C1.18421 3.94739 0 5.1316 0 6.57897V22.3684C0 23.8158 1.18421 25 2.63158 25H18.4211C19.8684 25 21.0526 23.8158 21.0526 22.3684V13.1579H18.4211V22.6579Z" fill="#5F5F5F"/>
<path d="M21.0526 0H18.421V3.94737H14.4736C14.4868 3.96053 14.4736 6.57895 14.4736 6.57895H18.421V10.5132C18.4342 10.5263 21.0526 10.5132 21.0526 10.5132V6.57895H24.9999V3.94737H21.0526V0Z" fill="#5F5F5F"/>
<path d="M15.7895 9.21057H5.26318V11.8422H15.7895V9.21057Z" fill="#5F5F5F"/>
<path d="M5.26318 13.1578V15.7894H15.7895V13.1578H11.8421H5.26318Z" fill="#5F5F5F"/>
<path d="M15.7895 17.1052H5.26318V19.7368H15.7895V17.1052Z" fill="#5F5F5F"/>
</svg>
