<?xml version="1.0" encoding="utf-8"?>
<!-- Generator: Adobe Illustrator 24.0.0, SVG Export Plug-In . SVG Version: 6.00 Build 0)  -->
<svg version="1.1" id="圖層_1" xmlns="http://www.w3.org/2000/svg" xmlns:xlink="http://www.w3.org/1999/xlink" x="0px" y="0px"
	 viewBox="0 0 24 24" style="enable-background:new 0 0 24 24;" xml:space="preserve">
<style type="text/css">
	.st0{opacity:0;fill:#323A3F;}
	.st1{fill:#ACACAD;}
</style>
<g>
	<rect class="st0" width="24" height="24"/>
	<g>
		<polygon class="st1" points="3.69,17.96 4.95,18.81 1.5,23.9 7.17,23.49 8.65,21.31 10.27,22.42 12.29,19.44 5.72,14.98 		"/>
		<path class="st1" d="M22.44,4.99c-0.15-0.81-0.61-1.5-1.29-1.96l-3.53-2.4c-0.68-0.46-1.5-0.63-2.3-0.47
			c-0.81,0.15-1.5,0.61-1.96,1.29l-8,11.8l8.62,5.85l8-11.8C22.43,6.62,22.6,5.8,22.44,4.99z M21.11,6.71l-7.42,10.95l-6.91-4.68
			l7.42-10.95c0.31-0.45,0.77-0.75,1.3-0.86c0.54-0.1,1.08,0.01,1.53,0.32l3.53,2.4c0.45,0.31,0.76,0.77,0.86,1.3
			C21.53,5.72,21.42,6.26,21.11,6.71z"/>
	</g>
</g>
</svg>
