<?xml version="1.0" encoding="utf-8"?>
<!-- Generator: Adobe Illustrator 24.0.0, SVG Export Plug-In . SVG Version: 6.00 Build 0)  -->
<svg version="1.1" id="圖層_1" xmlns="http://www.w3.org/2000/svg" xmlns:xlink="http://www.w3.org/1999/xlink" x="0px" y="0px"
	 viewBox="0 0 24 24" style="enable-background:new 0 0 24 24;" xml:space="preserve">
<style type="text/css">
	.st0{opacity:0;fill:#323A3F;}
	.st1{fill:#ACACAD;}
</style>
<g>
	<rect class="st0" width="24" height="24"/>
	<g>
		<path class="st1" d="M15.14,0.92l-0.96,1.16l6.77,5.55c0.58-0.74,0.98-1.26,1.1-1.47c0.71-1.22-0.06-2.31-0.06-2.31
			s-2.95-2.63-4.24-3.48C16.46-0.47,15.14,0.92,15.14,0.92z"/>
		<path class="st1" d="M3.11,23.9c-0.22,0-0.67-0.04-1.03-0.37c-0.21-0.19-0.45-0.55-0.43-1.16c0.03-1.18,1.34-7.27,1.39-7.53
			l0.1-0.21l9.59-11.56l7.54,6.18l-0.3,0.37c-3.37,4.18-9.08,11-9.13,11.07l-0.18,0.14l-7.43,3.08C3.22,23.9,3.17,23.9,3.11,23.9z
			 M3.96,15.15c-0.39,1.82-1.33,6.35-1.35,7.24c-0.01,0.2,0.04,0.35,0.12,0.43c0.09,0.09,0.25,0.12,0.35,0.12l7.1-2.96
			c0.67-0.8,5.57-6.68,8.75-10.59l-6.06-4.97L3.96,15.15z"/>
	</g>
</g>
</svg>
