<?xml version="1.0" encoding="utf-8"?>
<!-- Generator: Adobe Illustrator 24.0.0, SVG Export Plug-In . SVG Version: 6.00 Build 0)  -->
<svg version="1.1" id="圖層_1" xmlns="http://www.w3.org/2000/svg" xmlns:xlink="http://www.w3.org/1999/xlink" x="0px" y="0px"
	 viewBox="0 0 24 24" style="enable-background:new 0 0 24 24;" xml:space="preserve">
<style type="text/css">
	.st0{opacity:0;fill:#323A3F;}
	.st1{fill:#ACACAD;}
</style>
<g>
	<rect class="st0" width="24" height="24"/>
	<g>
		<g>
			<g>
				<polygon class="st1" points="24,19.64 19.64,24 24,24 				"/>
			</g>
		</g>
		<g>
			<path class="st1" d="M10.89,4.14v-2.8c0-0.33-0.27-0.59-0.59-0.59H9.96c-0.33,0-0.59,0.27-0.59,0.59v2.8
				C7.86,4.49,6.74,5.8,6.74,7.38c0,1.84,1.52,3.33,3.39,3.33c1.87,0,3.39-1.49,3.39-3.33C13.51,5.8,12.39,4.49,10.89,4.14z
				 M10.13,9.42c-1.14,0-2.07-0.91-2.07-2.03c0-1.12,0.93-2.03,2.07-2.03s2.07,0.91,2.07,2.03C12.19,8.51,11.27,9.42,10.13,9.42z"/>
			<path class="st1" d="M0.96,23.25l0.18-0.31l8.53-10.87c-1.1-0.09-2.09-0.55-2.85-1.25L0.96,23.25z"/>
			<path class="st1" d="M19.3,23.25l-5.89-12.49c-0.75,0.71-1.73,1.19-2.83,1.3l8.54,10.88L19.3,23.25z"/>
		</g>
	</g>
</g>
</svg>
