<?xml version="1.0" standalone="no"?><!DOCTYPE svg PUBLIC "-//W3C//DTD SVG 1.1//EN" "http://www.w3.org/Graphics/SVG/1.1/DTD/svg11.dtd"><svg t="1661392304248" class="icon" viewBox="0 0 1024 1024" version="1.1" xmlns="http://www.w3.org/2000/svg" p-id="7719" xmlns:xlink="http://www.w3.org/1999/xlink" width="200" height="200"><defs><style type="text/css">@font-face { font-family: feedback-iconfont; src: url("//at.alicdn.com/t/font_1031158_u69w8yhxdu.woff2?t=1630033759944") format("woff2"), url("//at.alicdn.com/t/font_1031158_u69w8yhxdu.woff?t=1630033759944") format("woff"), url("//at.alicdn.com/t/font_1031158_u69w8yhxdu.ttf?t=1630033759944") format("truetype"); }
</style></defs><path d="M306.56 420.928H86.912a46.272 46.272 0 0 1-47.104-47.04V154.112c0-26.688 20.416-47.104 47.104-47.104s47.104 20.48 47.104 47.104v172.672H306.56c26.624 0 47.04 20.416 47.04 47.104a46.272 46.272 0 0 1-47.04 47.04zM932.864 916.992a46.272 46.272 0 0 1-47.04-47.104v-172.672h-172.672a46.272 46.272 0 0 1-47.104-47.104c0-26.688 20.416-47.104 47.104-47.104h219.712c26.688 0 47.104 20.48 47.104 47.104v219.776a46.272 46.272 0 0 1-47.104 47.104z" fill="#172B4D" p-id="7720"></path><path d="M932.864 559.104A46.272 46.272 0 0 1 885.824 512 375.168 375.168 0 0 0 155.904 389.568c-7.872 25.088-36.096 37.696-59.648 29.824-25.088-7.872-37.696-36.096-29.824-59.648A471.296 471.296 0 0 1 510.592 42.688 469.632 469.632 0 0 1 980.032 512a46.272 46.272 0 0 1-47.104 47.104zM510.656 981.312A469.632 469.632 0 0 1 41.344 512c0-26.688 20.352-47.104 47.04-47.104s47.104 20.48 47.104 47.104a375.168 375.168 0 0 0 729.92 122.432c7.872-25.088 36.096-37.696 59.648-29.824 25.088 7.872 37.632 36.096 29.824 59.648a471.296 471.296 0 0 1-444.224 317.056z" fill="#172B4D" p-id="7721"></path></svg>