<svg width="446" height="34" viewBox="0 0 446 34" fill="none" xmlns="http://www.w3.org/2000/svg">
<path d="M208.4 28.3966V8.26001H214.207L220.434 25.5158H220.883V8.26001H224.206V28.3966H218.518L212.142 11.1115H211.723V28.3966H208.4Z" fill="white"/>
<path d="M229.165 15.2858C230.203 14.0119 231.919 13.375 234.314 13.375C236.709 13.375 238.415 14.0119 239.433 15.2858C240.471 16.5596 240.99 18.4704 240.99 21.0181C240.99 23.5658 240.491 25.4864 239.493 26.7798C238.495 28.0733 236.769 28.72 234.314 28.72C231.859 28.72 230.133 28.0733 229.135 26.7798C228.138 25.4864 227.639 23.5658 227.639 21.0181C227.639 18.4704 228.148 16.5596 229.165 15.2858ZM231.62 24.8397C232.079 25.6236 232.977 26.0155 234.314 26.0155C235.651 26.0155 236.549 25.6236 237.008 24.8397C237.467 24.0558 237.697 22.7721 237.697 20.9887C237.697 19.2053 237.447 17.9413 236.948 17.1966C236.469 16.4518 235.591 16.0795 234.314 16.0795C233.037 16.0795 232.149 16.4518 231.65 17.1966C231.171 17.9413 230.932 19.2053 230.932 20.9887C230.932 22.7721 231.161 24.0558 231.62 24.8397Z" fill="white"/>
<path d="M242.59 13.6984H246.003L248.876 25.6628H249.834L252.828 13.6984H256.15L252.259 28.3966H246.452L242.59 13.6984Z" fill="white"/>
<path d="M259.276 15.2858C260.313 14.0119 262.03 13.375 264.424 13.375C266.819 13.375 268.526 14.0119 269.543 15.2858C270.581 16.5596 271.1 18.4704 271.1 21.0181C271.1 23.5658 270.601 25.4864 269.603 26.7798C268.605 28.0733 266.879 28.72 264.424 28.72C261.97 28.72 260.244 28.0733 259.246 26.7798C258.248 25.4864 257.749 23.5658 257.749 21.0181C257.749 18.4704 258.258 16.5596 259.276 15.2858ZM261.73 24.8397C262.189 25.6236 263.087 26.0155 264.424 26.0155C265.762 26.0155 266.66 25.6236 267.119 24.8397C267.578 24.0558 267.807 22.7721 267.807 20.9887C267.807 19.2053 267.558 17.9413 267.059 17.1966C266.58 16.4518 265.702 16.0795 264.424 16.0795C263.147 16.0795 262.259 16.4518 261.76 17.1966C261.281 17.9413 261.042 19.2053 261.042 20.9887C261.042 22.7721 261.271 24.0558 261.73 24.8397Z" fill="white"/>
<path d="M288.031 28.0832C286.038 28.4875 284.235 28.6897 282.621 28.6897C281.027 28.6897 279.732 28.4572 278.736 27.9922C277.76 27.5071 277.003 26.7692 276.465 25.7786C275.927 24.788 275.558 23.6761 275.359 22.4429C275.16 21.2097 275.06 19.7845 275.06 18.1672C275.06 16.5499 275.11 15.2257 275.209 14.1947C275.329 13.1637 275.538 12.1629 275.837 11.1926C276.156 10.2222 276.584 9.44387 277.122 8.8576C278.318 7.56376 280.111 6.91684 282.502 6.91684C284.255 6.91684 286.098 7.10889 288.031 7.493L287.941 8.55435C286.029 8.15003 284.365 7.94787 282.95 7.94787C281.555 7.94787 280.47 8.1096 279.693 8.43306C278.915 8.75652 278.298 9.18106 277.84 9.70668C277.401 10.2121 277.053 10.9197 276.793 11.8294C276.554 12.7189 276.395 13.6185 276.315 14.5282C276.236 15.438 276.196 16.56 276.196 17.8942C276.196 19.2285 276.236 20.3505 276.315 21.2602C276.395 22.17 276.564 23.0595 276.823 23.9288C277.082 24.7981 277.441 25.4854 277.899 25.9908C278.915 27.1027 280.45 27.6587 282.502 27.6587C284.056 27.6587 285.869 27.4565 287.941 27.0522L288.031 28.0832Z" fill="white"/>
<path d="M292.161 14.6799C293.078 13.5478 294.642 12.9817 296.854 12.9817C299.065 12.9817 300.629 13.5478 301.546 14.6799C302.462 15.812 302.921 17.8538 302.921 20.8054C302.921 23.757 302.512 25.8089 301.695 26.9612C300.878 28.1135 299.264 28.6897 296.854 28.6897C294.443 28.6897 292.829 28.1135 292.012 26.9612C291.195 25.8089 290.787 23.757 290.787 20.8054C290.787 17.8538 291.245 15.812 292.161 14.6799ZM294.194 27.3858C294.851 27.6081 295.738 27.7193 296.854 27.7193C297.969 27.7193 298.846 27.6081 299.484 27.3858C300.141 27.1432 300.639 26.7085 300.978 26.0818C301.337 25.4349 301.566 24.7172 301.665 23.9288C301.765 23.1201 301.815 21.9981 301.815 20.5628C301.815 18.0155 301.466 16.2769 300.769 15.347C300.071 14.4171 298.766 13.9521 296.854 13.9521C294.941 13.9521 293.636 14.4171 292.938 15.347C292.241 16.2769 291.892 18.0155 291.892 20.5628C291.892 21.9981 291.942 23.1201 292.042 23.9288C292.141 24.7172 292.361 25.4349 292.699 26.0818C293.058 26.7085 293.556 27.1432 294.194 27.3858Z" fill="white"/>
<path d="M308.132 28.4168H307.086V13.2546H308.132V14.4676C309.905 13.477 311.718 12.9817 313.571 12.9817C315.424 12.9817 316.67 13.4972 317.307 14.5282C317.945 15.5391 318.263 17.5405 318.263 20.5325V28.4168H317.217V20.5931C317.217 17.9246 316.978 16.1557 316.5 15.2864C316.022 14.3968 314.976 13.9521 313.362 13.9521C312.565 13.9521 311.728 14.0835 310.852 14.3463C309.995 14.5889 309.327 14.8315 308.849 15.0741L308.132 15.4683V28.4168Z" fill="white"/>
<path d="M323.892 28.4168H322.846V13.2546H323.892V14.4676C325.666 13.477 327.479 12.9817 329.332 12.9817C331.185 12.9817 332.43 13.4972 333.068 14.5282C333.705 15.5391 334.024 17.5405 334.024 20.5325V28.4168H332.978V20.5931C332.978 17.9246 332.739 16.1557 332.261 15.2864C331.783 14.3968 330.737 13.9521 329.123 13.9521C328.326 13.9521 327.489 14.0835 326.612 14.3463C325.755 14.5889 325.088 14.8315 324.61 15.0741L323.892 15.4683V28.4168Z" fill="white"/>
<path d="M348.171 27.5071L349.067 27.4464L349.127 28.4168C346.896 28.5987 345.053 28.6897 343.598 28.6897C341.486 28.6695 340.022 28.0226 339.205 26.749C338.388 25.4551 337.979 23.484 337.979 20.8357C337.979 15.5997 339.992 12.9817 344.017 12.9817C345.909 12.9817 347.324 13.5579 348.26 14.7102C349.217 15.8625 349.695 17.7123 349.695 20.2595V21.2602H339.085C339.085 23.4436 339.424 25.071 340.101 26.1425C340.779 27.1937 341.905 27.7193 343.479 27.7193C345.053 27.7193 346.617 27.6486 348.171 27.5071ZM339.085 20.2899H348.589C348.589 18.0054 348.221 16.378 347.483 15.4076C346.766 14.4373 345.611 13.9521 344.017 13.9521C340.729 13.9521 339.085 16.0647 339.085 20.2899Z" fill="white"/>
<path d="M359.168 13.9521C357.275 13.9521 355.96 14.4373 355.223 15.4076C354.505 16.378 354.147 18.1571 354.147 20.7447C354.147 23.3122 354.476 25.1215 355.133 26.1728C355.791 27.2038 357.135 27.7193 359.168 27.7193L362.754 27.4464L362.814 28.4168C361.14 28.5987 359.925 28.6897 359.168 28.6897C356.737 28.6897 355.103 28.1135 354.266 26.9612C353.449 25.7887 353.041 23.7266 353.041 20.7751C353.041 17.8033 353.499 15.7614 354.416 14.6495C355.332 13.5377 356.916 12.9817 359.168 12.9817L362.754 13.2849L362.694 14.2553C361.1 14.0532 359.925 13.9521 359.168 13.9521Z" fill="white"/>
<path d="M373.774 14.225H368.334V22.17C368.334 24.4948 368.494 26.0111 368.813 26.7186C369.151 27.406 369.908 27.7497 371.084 27.7497L374.013 27.5071L374.103 28.4774C372.787 28.6392 371.781 28.72 371.084 28.72C369.669 28.72 368.683 28.3561 368.125 27.6284C367.567 26.8804 367.288 25.445 367.288 23.3223V14.225H364.927V13.2546H367.288V8.31176H368.334V13.2546H373.774V14.225Z" fill="white"/>
<path d="M376.517 28.4168V25.9908H377.713V28.4168H376.517Z" fill="white"/>
<path d="M394.386 28.0832C392.393 28.4875 390.59 28.6897 388.976 28.6897C387.382 28.6897 386.087 28.4572 385.091 27.9922C384.115 27.5071 383.358 26.7692 382.82 25.7786C382.282 24.788 381.913 23.6761 381.714 22.4429C381.515 21.2097 381.415 19.7845 381.415 18.1672C381.415 16.5499 381.465 15.2257 381.564 14.1947C381.684 13.1637 381.893 12.1629 382.192 11.1926C382.511 10.2222 382.939 9.44387 383.477 8.8576C384.673 7.56376 386.466 6.91684 388.857 6.91684C390.61 6.91684 392.453 7.10889 394.386 7.493L394.296 8.55435C392.383 8.15003 390.72 7.94787 389.305 7.94787C387.91 7.94787 386.824 8.1096 386.047 8.43306C385.27 8.75652 384.653 9.18106 384.194 9.70668C383.756 10.2121 383.407 10.9197 383.148 11.8294C382.909 12.7189 382.75 13.6185 382.67 14.5282C382.59 15.438 382.551 16.56 382.551 17.8942C382.551 19.2285 382.59 20.3505 382.67 21.2602C382.75 22.17 382.919 23.0595 383.178 23.9288C383.437 24.7981 383.796 25.4854 384.254 25.9908C385.27 27.1027 386.805 27.6587 388.857 27.6587C390.411 27.6587 392.224 27.4565 394.296 27.0522L394.386 28.0832Z" fill="white"/>
<path d="M398.239 28.4168V6.28003H399.285V28.4168H398.239Z" fill="white"/>
<path d="M404.996 14.6799C405.912 13.5478 407.476 12.9817 409.688 12.9817C411.899 12.9817 413.464 13.5478 414.38 14.6799C415.297 15.812 415.755 17.8538 415.755 20.8054C415.755 23.757 415.346 25.8089 414.53 26.9612C413.713 28.1135 412.099 28.6897 409.688 28.6897C407.277 28.6897 405.663 28.1135 404.846 26.9612C404.029 25.8089 403.621 23.757 403.621 20.8054C403.621 17.8538 404.079 15.812 404.996 14.6799ZM407.028 27.3858C407.685 27.6081 408.572 27.7193 409.688 27.7193C410.804 27.7193 411.68 27.6081 412.318 27.3858C412.975 27.1432 413.474 26.7085 413.812 26.0818C414.171 25.4349 414.4 24.7172 414.5 23.9288C414.599 23.1201 414.649 21.9981 414.649 20.5628C414.649 18.0155 414.3 16.2769 413.603 15.347C412.906 14.4171 411.601 13.9521 409.688 13.9521C407.775 13.9521 406.47 14.4171 405.773 15.347C405.075 16.2769 404.727 18.0155 404.727 20.5628C404.727 21.9981 404.776 23.1201 404.876 23.9288C404.976 24.7172 405.195 25.4349 405.534 26.0818C405.892 26.7085 406.39 27.1432 407.028 27.3858Z" fill="white"/>
<path d="M429.574 13.2546H430.62V28.4168H429.574V27.2038C429.394 27.3049 429.155 27.4464 428.856 27.6284C428.557 27.7901 427.97 28.0125 427.093 28.2955C426.236 28.5583 425.429 28.6897 424.672 28.6897C422.68 28.6897 421.365 28.1843 420.727 27.1735C420.089 26.1425 419.771 24.1309 419.771 21.1389V13.2546H420.817V21.0783C420.817 23.7468 421.056 25.5259 421.534 26.4154C422.012 27.2847 423.058 27.7193 424.672 27.7193C425.469 27.7193 426.276 27.598 427.093 27.3554C427.91 27.0926 428.527 26.8399 428.946 26.5973L429.574 26.2031V13.2546Z" fill="white"/>
<path d="M446 6.28003V28.4168H444.954V27.1432C444.376 27.5273 443.569 27.8811 442.533 28.2045C441.497 28.528 440.65 28.6897 439.993 28.6897C439.355 28.6897 438.857 28.6594 438.498 28.5987C438.16 28.5583 437.731 28.4067 437.213 28.1439C436.695 27.8608 436.267 27.4666 435.928 26.9612C435.609 26.4558 435.32 25.6977 435.061 24.6869C434.822 23.6761 434.703 22.4732 434.703 21.0783C434.703 18.3289 435.161 16.2972 436.078 14.9831C437.014 13.6488 438.658 12.9817 441.009 12.9817C442.145 12.9817 443.46 13.103 444.954 13.3456V6.28003H446ZM437.183 26.7186C437.622 27.1229 438.03 27.3959 438.409 27.5374C438.807 27.6587 439.325 27.7193 439.963 27.7193C440.601 27.7193 441.348 27.5879 442.204 27.3251C443.081 27.0623 443.759 26.7995 444.237 26.5367L444.954 26.1425V14.316C443.4 14.0734 442.085 13.9521 441.009 13.9521C438.997 13.9521 437.622 14.5282 436.885 15.6806C436.167 16.8329 435.809 18.6321 435.809 21.0783C435.809 23.9894 436.267 25.8695 437.183 26.7186Z" fill="white"/>
<path d="M186.334 0.06C186.024 0.02 185.704 0 185.334 0C181.664 0 175.014 2.25 164.044 7.58C176.844 1.87 180.784 2.88 180.904 5.63L181.024 18.24C181.044 20.66 184.444 22.3 189.694 22.54L189.734 5.46C189.704 3.87 190.284 0.57 186.334 0.06Z" fill="white"/>
<path d="M176.164 5.91C175.954 5.87999 175.734 5.87 175.494 5.87C173.074 5.87 168.644 7.33 161.384 10.86C169.874 7.05999 172.564 7.5 172.574 9.59L172.654 17.95C172.674 19.59 174.914 20.67 178.394 20.82L178.444 9.49C178.414 8.39999 179.024 6.31999 176.164 5.91Z" fill="white"/>
<path d="M169.874 10.39C169.744 10.37 169.614 10.36 169.464 10.36C167.964 10.36 165.274 11.25 160.854 13.41C166.044 11.09 167.674 11.36 167.684 12.63L167.724 17.73C167.724 18.72 169.094 19.37 171.234 19.48L171.254 12.58C171.164 12.02 171.624 10.62 169.884 10.38L169.874 10.39Z" fill="white"/>
<path d="M189.764 28.47L189.684 11.4C184.424 11.64 181.044 13.29 181.014 15.73L180.954 28.34C180.954 34.56 164.074 26.47 164.074 26.47C164.074 26.47 179.754 34.51 186.394 33.87C190.294 33.49 189.744 29.63 189.764 28.47Z" fill="white"/>
<path d="M178.454 24.83L178.394 13.49C174.904 13.68 172.664 14.77 172.644 16.38L172.594 24.75C172.594 26.85 169.914 27.31 161.394 23.52C169.404 27.38 173.954 28.78 176.204 28.42C178.844 28 178.444 25.77 178.454 24.83Z" fill="white"/>
<path d="M171.254 21.89L171.214 15C169.094 15.09 167.724 15.77 167.704 16.74L167.684 21.85C167.674 23.12 166.044 23.39 160.864 21.09C165.734 23.44 168.514 24.29 169.874 24.08C171.624 23.83 171.164 22.45 171.254 21.89Z" fill="white"/>
<path d="M156.524 14.32C156.444 14.32 156.374 14.32 156.324 14.35C155.834 14.56 155.904 20.39 156.504 20.89C156.904 21.23 163.064 18.1 163.004 17.45C162.954 16.83 157.814 14.32 156.514 14.32H156.524Z" fill="white"/>
<path fill-rule="evenodd" clip-rule="evenodd" d="M73.6557 17.3679C70.8837 10.8999 57.4197 13.2759 58.8717 21.7239C57.6837 30.3039 73.1277 31.8879 74.4477 23.9679H69.2997C68.2437 28.3239 63.2277 25.4199 64.0197 22.6479H74.5797C74.4477 20.0079 74.3157 18.6879 73.6557 17.3679ZM64.0197 19.6119C63.7557 15.7839 69.5637 15.3879 69.2997 19.6119H64.0197Z" fill="white"/>
<path fill-rule="evenodd" clip-rule="evenodd" d="M55.3077 29.1159C57.1557 29.1159 58.0797 28.9839 59.1357 28.8519V25.4199C56.6277 25.6839 55.0437 25.5519 55.3077 22.9119V17.1039H59.1357V14.1999H55.3077V7.86389L49.8957 9.97589C49.8957 13.6719 49.8957 21.0639 49.8957 24.7599C50.0277 27.5319 50.9517 29.1159 55.3077 29.1159Z" fill="white"/>
<path fill-rule="evenodd" clip-rule="evenodd" d="M80.652 28.7199V20.6679L85.8 28.7199H92.4L86.724 20.2719L92.004 14.1999H85.932L80.652 20.6679V8.39194H75.24V28.7199H80.652Z" fill="white"/>
<path fill-rule="evenodd" clip-rule="evenodd" d="M46.7281 12.484C43.9561 2.45196 21.3841 2.45196 18.6121 12.484H22.9681C26.5321 7.07196 38.9401 7.07196 42.5041 12.484H46.7281Z" fill="white"/>
<path d="M23.4961 14.068H17.9521V28.588H23.4961V14.068Z" fill="white"/>
<path fill-rule="evenodd" clip-rule="evenodd" d="M32.8683 24.232L29.9643 14.068H24.0243L29.5683 28.588H35.6403L41.3163 14.068H36.0363L32.8683 24.232Z" fill="white"/>
<path fill-rule="evenodd" clip-rule="evenodd" d="M8.976 24.232L6.072 14.068H0L5.676 28.588H11.748L17.424 14.068H12.144L8.976 24.232Z" fill="white"/>
<path d="M47.3882 14.068H41.8443V28.588H47.3882V14.068Z" fill="white"/>
<path d="M125 1V34" stroke="white" stroke-width="0.75"/>
</svg>
