<svg width="78" height="27" viewBox="0 0 78 27" fill="none" xmlns="http://www.w3.org/2000/svg">
<rect x="0.458239" y="0.458239" width="76.217" height="25.1665" rx="4.12415" fill="#5F5F5F"/>
<path d="M14.533 5.77348C11.8874 5.77348 10.5646 6.81389 10.5646 8.8947C10.5646 9.83107 10.7207 10.5073 11.0328 10.9235C11.2111 11.1464 11.3969 11.3397 11.5901 11.5031C11.7834 11.6518 12.0658 11.7855 12.4373 11.9044C13.0467 12.0828 13.8196 12.2463 14.7559 12.3949C16.376 12.6476 17.5353 13.0415 18.2339 13.5765C18.9473 14.0967 19.304 15.0182 19.304 16.341C19.304 18.0205 18.9101 19.2244 18.1224 19.9527C17.3495 20.6662 16.1679 21.0229 14.5776 21.0229C13.5966 21.0229 12.2813 20.9337 10.6315 20.7553L9.80658 20.6662L9.89576 19.8858C11.9468 20.1385 13.5669 20.2649 14.7559 20.2649C17.2232 20.2649 18.4568 18.9792 18.4568 16.4079C18.4568 15.3229 18.1744 14.5723 17.6096 14.1562C17.0448 13.74 16.1679 13.4428 14.9789 13.2644C13.8047 13.0861 12.965 12.93 12.4596 12.7962C11.9691 12.6476 11.4861 12.4246 11.0105 12.1274C10.5497 11.8301 10.2153 11.4288 10.0072 10.9235C9.81402 10.4033 9.71741 9.74189 9.71741 8.93929C9.71741 6.32341 11.3226 5.01547 14.533 5.01547C15.5585 5.01547 16.7922 5.10465 18.2339 5.283L18.9696 5.37218L18.8804 6.15249C16.8442 5.89982 15.3951 5.77348 14.533 5.77348Z" fill="white"/>
<path d="M29.4042 20.198L30.0731 20.1534L30.1177 20.8668C28.453 21.0006 27.0782 21.0675 25.9932 21.0675C24.4177 21.0526 23.3253 20.577 22.7159 19.6406C22.1065 18.6894 21.8019 17.2402 21.8019 15.2932C21.8019 11.4437 23.303 9.51894 26.3053 9.51894C27.7173 9.51894 28.7726 9.94254 29.4711 10.7897C30.1846 11.6369 30.5413 12.9969 30.5413 14.8696V15.6053H22.6267C22.6267 17.2105 22.8794 18.407 23.3848 19.1947C23.8901 19.9676 24.7299 20.354 25.904 20.354C27.0782 20.354 28.2449 20.302 29.4042 20.198ZM22.6267 14.8919H29.7164C29.7164 13.2124 29.4414 12.0159 28.8915 11.3025C28.3564 10.5891 27.4944 10.2324 26.3053 10.2324C23.8529 10.2324 22.6267 11.7855 22.6267 14.8919Z" fill="white"/>
<path d="M33.4608 20.8668V9.71959H34.2411V11.4586C34.687 11.1018 35.3484 10.7228 36.2253 10.3215C37.1171 9.90538 37.9271 9.63042 38.6554 9.49665V10.2992C38.0014 10.433 37.3029 10.656 36.5597 10.9681C35.8314 11.2802 35.2666 11.5626 34.8653 11.8153L34.2411 12.1943V20.8668H33.4608Z" fill="white"/>
<path d="M39.706 9.71959H40.6201L43.7636 20.1534H44.7445L47.9772 9.71959H48.8021L45.3465 20.8668H43.1616L39.706 9.71959Z" fill="white"/>
<path d="M58.1649 20.198L58.8337 20.1534L58.8783 20.8668C57.2137 21.0006 55.8389 21.0675 54.7539 21.0675C53.1784 21.0526 52.086 20.577 51.4766 19.6406C50.8672 18.6894 50.5625 17.2402 50.5625 15.2932C50.5625 11.4437 52.0637 9.51894 55.066 9.51894C56.478 9.51894 57.5332 9.94254 58.2318 10.7897C58.9452 11.6369 59.3019 12.9969 59.3019 14.8696V15.6053H51.3874C51.3874 17.2105 51.6401 18.407 52.1454 19.1947C52.6508 19.9676 53.4905 20.354 54.6647 20.354C55.8389 20.354 57.0056 20.302 58.1649 20.198ZM51.3874 14.8919H58.477C58.477 13.2124 58.2021 12.0159 57.6521 11.3025C57.1171 10.5891 56.255 10.2324 55.066 10.2324C52.6136 10.2324 51.3874 11.7855 51.3874 14.8919Z" fill="white"/>
<path d="M62.2215 20.8668V9.71959H63.0018V11.4586C63.4476 11.1018 64.109 10.7228 64.986 10.3215C65.8777 9.90538 66.6878 9.63042 67.416 9.49665V10.2992C66.7621 10.433 66.0635 10.656 65.3204 10.9681C64.5921 11.2802 64.0273 11.5626 63.626 11.8153L63.0018 12.1943V20.8668H62.2215Z" fill="white"/>
<rect x="0.458239" y="0.458239" width="76.217" height="25.1665" rx="4.12415" stroke="#5F5F5F" stroke-width="0.916477"/>
</svg>
