<svg width="218" height="34" viewBox="0 0 218 34" fill="none" xmlns="http://www.w3.org/2000/svg">
<path d="M3.84294 18.5346V25H3.04034V9.39391H8.63624C10.2117 9.39391 11.3785 9.75062 12.1365 10.464C12.8945 11.1775 13.2735 12.307 13.2735 13.8528C13.2735 16.4835 12.1959 18.007 10.0408 18.4231L13.5633 25H12.6492L9.17131 18.5346H3.84294ZM12.4263 13.8528C12.4263 12.5597 12.1216 11.6234 11.5122 11.0437C10.9028 10.4492 9.94418 10.1519 8.63624 10.1519H3.84294V17.7766H8.63624C11.1629 17.7766 12.4263 16.4687 12.4263 13.8528ZM23.3615 24.3312L24.0304 24.2866L24.075 25C22.4103 25.1338 21.0355 25.2006 19.9505 25.2006C18.375 25.1858 17.2826 24.7102 16.6732 23.7738C16.0638 22.8226 15.7591 21.3734 15.7591 19.4264C15.7591 15.5769 17.2603 13.6521 20.2626 13.6521C21.6746 13.6521 22.7299 14.0757 23.4284 14.9229C24.1418 15.7701 24.4985 17.1301 24.4985 19.0028V19.7385H16.584C16.584 21.3437 16.8367 22.5402 17.342 23.3279C17.8474 24.1008 18.6871 24.4872 19.8613 24.4872C21.0355 24.4872 22.2022 24.4352 23.3615 24.3312ZM16.584 19.0251H23.6737C23.6737 17.3456 23.3987 16.1491 22.8488 15.4357C22.3137 14.7223 21.4516 14.3656 20.2626 14.3656C17.8102 14.3656 16.584 15.9187 16.584 19.0251ZM28.1984 25H27.4181V13.8528H28.1984V14.7446C28.3321 14.6703 28.5105 14.5736 28.7334 14.4547C28.9564 14.321 29.3874 14.1575 30.0265 13.9643C30.6805 13.7562 31.3493 13.6521 32.033 13.6521C33.4004 13.6521 34.3368 14.0534 34.8421 14.856C35.3772 14.5439 36.0311 14.269 36.804 14.0311C37.5769 13.7785 38.2903 13.6521 38.9443 13.6521C40.4306 13.6521 41.4115 14.0311 41.8871 14.7892C42.3628 15.5323 42.6006 17.0037 42.6006 19.2035V25H41.8203V19.248C41.8203 17.2861 41.6419 15.9856 41.2852 15.3465C40.9285 14.6925 40.1482 14.3656 38.9443 14.3656C38.3052 14.3656 37.6661 14.4622 37.027 14.6554C36.3879 14.8337 35.9122 15.0121 35.6001 15.1905L35.1096 15.458C35.3772 16.1863 35.5109 17.4348 35.5109 19.2035V25H34.7306V19.248C34.7306 17.2861 34.5523 15.9856 34.1956 15.3465C33.8389 14.6925 33.0586 14.3656 31.8547 14.3656C31.2601 14.3656 30.6582 14.4622 30.0488 14.6554C29.4394 14.8337 28.9787 15.0121 28.6666 15.1905L28.1984 15.4803V25ZM46.6132 14.9006C47.2969 14.0683 48.4636 13.6521 50.1134 13.6521C51.7632 13.6521 52.93 14.0683 53.6137 14.9006C54.2973 15.733 54.6392 17.2341 54.6392 19.4041C54.6392 21.5741 54.3345 23.0827 53.7251 23.9299C53.1157 24.7771 51.9118 25.2006 50.1134 25.2006C48.315 25.2006 47.1111 24.7771 46.5017 23.9299C45.8924 23.0827 45.5877 21.5741 45.5877 19.4041C45.5877 17.2341 45.9295 15.733 46.6132 14.9006ZM48.1292 24.242C48.6197 24.4055 49.2811 24.4872 50.1134 24.4872C50.9458 24.4872 51.5997 24.4055 52.0753 24.242C52.5658 24.0636 52.9374 23.7441 53.1901 23.2833C53.4576 22.8077 53.6285 22.2801 53.7028 21.7004C53.7771 21.1059 53.8143 20.281 53.8143 19.2257C53.8143 17.353 53.5542 16.0748 53.034 15.3911C52.5138 14.7074 51.5403 14.3656 50.1134 14.3656C48.6866 14.3656 47.7131 14.7074 47.1929 15.3911C46.6727 16.0748 46.4126 17.353 46.4126 19.2257C46.4126 20.281 46.4497 21.1059 46.524 21.7004C46.5983 22.2801 46.7618 22.8077 47.0145 23.2833C47.282 23.7441 47.6536 24.0636 48.1292 24.242ZM63.1001 14.5662H59.0425V20.4074C59.0425 22.1166 59.1614 23.2313 59.3992 23.7515C59.6519 24.2569 60.2167 24.5095 61.0936 24.5095L63.2785 24.3312L63.3453 25.0446C62.3644 25.1635 61.6138 25.2229 61.0936 25.2229C60.0383 25.2229 59.3026 24.9554 58.8865 24.4203C58.4703 23.8704 58.2622 22.8151 58.2622 21.2545V14.5662H56.501V13.8528H58.2622V10.2188H59.0425V13.8528H63.1001V14.5662ZM72.3701 24.3312L73.0389 24.2866L73.0835 25C71.4188 25.1338 70.044 25.2006 68.959 25.2006C67.3835 25.1858 66.2911 24.7102 65.6817 23.7738C65.0723 22.8226 64.7677 21.3734 64.7677 19.4264C64.7677 15.5769 66.2688 13.6521 69.2711 13.6521C70.6831 13.6521 71.7384 14.0757 72.4369 14.9229C73.1504 15.7701 73.5071 17.1301 73.5071 19.0028V19.7385H65.5925C65.5925 21.3437 65.8452 22.5402 66.3506 23.3279C66.8559 24.1008 67.6957 24.4872 68.8698 24.4872C70.044 24.4872 71.2107 24.4352 72.3701 24.3312ZM65.5925 19.0251H72.6822C72.6822 17.3456 72.4072 16.1491 71.8573 15.4357C71.3222 14.7223 70.4602 14.3656 69.2711 14.3656C66.8187 14.3656 65.5925 15.9187 65.5925 19.0251ZM81.6151 25V9.39391H83.3095L88.7939 23.7738L94.2783 9.39391H95.9727V25H95.1701V10.1519H94.858L89.3735 24.5318H88.2142L82.7298 10.1519H82.4177V25H81.6151ZM107.19 17.1301V23.5509C107.249 24.0859 107.806 24.3981 108.862 24.4872L108.817 25.1784C107.732 25.1784 106.967 24.8662 106.521 24.242C105.005 24.8811 103.504 25.2006 102.017 25.2006C101.096 25.2006 100.375 24.9257 99.8547 24.3758C99.3494 23.8258 99.0967 23.0455 99.0967 22.0348C99.0967 21.0093 99.3419 20.229 99.8324 19.6939C100.323 19.1589 101.103 18.8393 102.173 18.7353L106.409 18.2894V17.1301C106.409 16.1788 106.201 15.4877 105.785 15.0567C105.384 14.6257 104.767 14.4102 103.935 14.4102C103.087 14.4102 101.913 14.5068 100.412 14.7L99.7209 14.7892L99.6541 14.0534C101.319 13.7859 102.746 13.6521 103.935 13.6521C106.105 13.6521 107.19 14.8115 107.19 17.1301ZM102.263 19.4264C101.415 19.5156 100.813 19.7608 100.457 20.1621C100.1 20.5634 99.9216 21.1654 99.9216 21.968C99.9216 22.7706 100.1 23.3948 100.457 23.8407C100.828 24.2717 101.341 24.4872 101.995 24.4872C102.649 24.4872 103.34 24.4129 104.068 24.2643C104.797 24.1008 105.369 23.9447 105.785 23.7961L106.409 23.5732V19.0028L102.263 19.4264ZM111.606 25H110.826V13.8528H111.606V14.7446C112.929 14.0163 114.282 13.6521 115.664 13.6521C117.046 13.6521 117.975 14.0311 118.451 14.7892C118.926 15.5323 119.164 17.0037 119.164 19.2035V25H118.384V19.248C118.384 17.2861 118.206 15.9856 117.849 15.3465C117.492 14.6925 116.712 14.3656 115.508 14.3656C114.913 14.3656 114.289 14.4622 113.635 14.6554C112.996 14.8337 112.498 15.0121 112.142 15.1905L111.606 15.4803V25ZM129.985 17.1301V23.5509C130.044 24.0859 130.602 24.3981 131.657 24.4872L131.612 25.1784C130.527 25.1784 129.762 24.8662 129.316 24.242C127.8 24.8811 126.299 25.2006 124.812 25.2006C123.891 25.2006 123.17 24.9257 122.65 24.3758C122.145 23.8258 121.892 23.0455 121.892 22.0348C121.892 21.0093 122.137 20.229 122.628 19.6939C123.118 19.1589 123.898 18.8393 124.968 18.7353L129.204 18.2894V17.1301C129.204 16.1788 128.996 15.4877 128.58 15.0567C128.179 14.6257 127.562 14.4102 126.73 14.4102C125.883 14.4102 124.708 14.5068 123.207 14.7L122.516 14.7892L122.449 14.0534C124.114 13.7859 125.541 13.6521 126.73 13.6521C128.9 13.6521 129.985 14.8115 129.985 17.1301ZM125.058 19.4264C124.21 19.5156 123.609 19.7608 123.252 20.1621C122.895 20.5634 122.717 21.1654 122.717 21.968C122.717 22.7706 122.895 23.3948 123.252 23.8407C123.623 24.2717 124.136 24.4872 124.79 24.4872C125.444 24.4872 126.135 24.4129 126.864 24.2643C127.592 24.1008 128.164 23.9447 128.58 23.7961L129.204 23.5732V19.0028L125.058 19.4264ZM142.316 26.8058C142.316 28.0692 141.937 28.9684 141.179 29.5035C140.436 30.0534 139.195 30.3284 137.456 30.3284C135.732 30.3284 134.58 30.0757 134 29.5704C133.436 29.0799 133.153 28.1509 133.153 26.7836C133.153 25.9364 133.436 25.2601 134 24.7548C134.208 24.5615 134.558 24.2866 135.048 23.9299C134.721 23.7218 134.558 23.2387 134.558 22.4807C134.558 22.2726 134.729 21.8119 135.07 21.0985L135.227 20.7418C133.948 20.3256 133.309 19.196 133.309 17.353C133.309 14.8709 134.58 13.6298 137.122 13.6298C137.894 13.6298 138.578 13.7042 139.173 13.8528L139.485 13.9197L142.606 13.8528V14.6331H140.198C140.793 15.183 141.09 16.112 141.09 17.4199C141.09 18.713 140.763 19.6345 140.109 20.1844C139.47 20.7343 138.444 21.0093 137.032 21.0093C136.586 21.0093 136.185 20.9796 135.828 20.9201C135.487 21.7673 135.316 22.3024 135.316 22.5253C135.316 22.7483 135.331 22.9192 135.36 23.0381C135.39 23.157 135.449 23.2685 135.539 23.3725C135.628 23.4765 135.799 23.5434 136.051 23.5732C136.512 23.6475 137.382 23.6846 138.66 23.6846C139.938 23.6846 140.867 23.8927 141.447 24.3089C142.026 24.7102 142.316 25.5425 142.316 26.8058ZM133.956 26.7613C133.956 27.8611 134.186 28.6117 134.647 29.013C135.122 29.4143 136.074 29.6149 137.501 29.6149C138.942 29.6149 139.968 29.3994 140.577 28.9684C141.187 28.5522 141.491 27.8314 141.491 26.8058C141.491 25.7952 141.268 25.1412 140.822 24.8439C140.377 24.5467 139.544 24.3981 138.325 24.3981L135.628 24.3312C134.959 24.7919 134.513 25.1784 134.29 25.4905C134.067 25.8175 133.956 26.2411 133.956 26.7613ZM134.112 17.353C134.112 18.4529 134.342 19.2183 134.803 19.6493C135.264 20.0804 136.051 20.2959 137.166 20.2959C138.296 20.2959 139.091 20.0878 139.552 19.6716C140.027 19.2406 140.265 18.4677 140.265 17.353C140.265 16.2383 140.027 15.458 139.552 15.0121C139.091 14.5662 138.296 14.3433 137.166 14.3433C136.051 14.3433 135.264 14.5736 134.803 15.0344C134.342 15.4803 134.112 16.2532 134.112 17.353ZM151.925 24.3312L152.593 24.2866L152.638 25C150.973 25.1338 149.598 25.2006 148.513 25.2006C146.938 25.1858 145.846 24.7102 145.236 23.7738C144.627 22.8226 144.322 21.3734 144.322 19.4264C144.322 15.5769 145.823 13.6521 148.826 13.6521C150.238 13.6521 151.293 14.0757 151.991 14.9229C152.705 15.7701 153.062 17.1301 153.062 19.0028V19.7385H145.147C145.147 21.3437 145.4 22.5402 145.905 23.3279C146.41 24.1008 147.25 24.4872 148.424 24.4872C149.598 24.4872 150.765 24.4352 151.925 24.3312ZM145.147 19.0251H152.237C152.237 17.3456 151.962 16.1491 151.412 15.4357C150.877 14.7223 150.015 14.3656 148.826 14.3656C146.373 14.3656 145.147 15.9187 145.147 19.0251ZM155.981 25V13.8528H156.761V15.5918C157.207 15.235 157.869 14.856 158.746 14.4547C159.637 14.0386 160.447 13.7636 161.176 13.6298V14.4324C160.522 14.5662 159.823 14.7892 159.08 15.1013C158.352 15.4134 157.787 15.6958 157.386 15.9485L156.761 16.3275V25H155.981ZM177.603 24.7548C176.117 25.052 174.772 25.2006 173.568 25.2006C172.379 25.2006 171.413 25.0297 170.67 24.6879C169.941 24.3312 169.377 23.7887 168.975 23.0604C168.574 22.3321 168.299 21.5146 168.151 20.608C168.002 19.7014 167.928 18.6535 167.928 17.4645C167.928 16.2755 167.965 15.3019 168.039 14.5439C168.128 13.7859 168.284 13.0502 168.507 12.3368C168.745 11.6234 169.065 11.0511 169.466 10.6201C170.358 9.66887 171.695 9.19326 173.479 9.19326C174.787 9.19326 176.162 9.33446 177.603 9.61685L177.536 10.3972C176.11 10.0999 174.869 9.95127 173.813 9.95127C172.773 9.95127 171.963 10.0702 171.383 10.308C170.804 10.5458 170.343 10.8579 170.001 11.2443C169.674 11.6159 169.414 12.1361 169.221 12.805C169.042 13.4589 168.923 14.1203 168.864 14.7892C168.804 15.458 168.775 16.2829 168.775 17.2638C168.775 18.2448 168.804 19.0697 168.864 19.7385C168.923 20.4074 169.05 21.0613 169.243 21.7004C169.436 22.3395 169.704 22.8449 170.046 23.2164C170.804 24.0339 171.948 24.4426 173.479 24.4426C174.638 24.4426 175.991 24.294 177.536 23.9968L177.603 24.7548ZM180.478 25V8.72508H181.258V25H180.478ZM185.518 14.9006C186.202 14.0683 187.368 13.6521 189.018 13.6521C190.668 13.6521 191.835 14.0683 192.518 14.9006C193.202 15.733 193.544 17.2341 193.544 19.4041C193.544 21.5741 193.239 23.0827 192.63 23.9299C192.02 24.7771 190.816 25.2006 189.018 25.2006C187.22 25.2006 186.016 24.7771 185.406 23.9299C184.797 23.0827 184.492 21.5741 184.492 19.4041C184.492 17.2341 184.834 15.733 185.518 14.9006ZM187.034 24.242C187.524 24.4055 188.186 24.4872 189.018 24.4872C189.85 24.4872 190.504 24.4055 190.98 24.242C191.47 24.0636 191.842 23.7441 192.095 23.2833C192.362 22.8077 192.533 22.2801 192.607 21.7004C192.682 21.1059 192.719 20.281 192.719 19.2257C192.719 17.353 192.459 16.0748 191.939 15.3911C191.418 14.7074 190.445 14.3656 189.018 14.3656C187.591 14.3656 186.618 14.7074 186.098 15.3911C185.577 16.0748 185.317 17.353 185.317 19.2257C185.317 20.281 185.354 21.1059 185.429 21.7004C185.503 22.2801 185.666 22.8077 185.919 23.2833C186.187 23.7441 186.558 24.0636 187.034 24.242ZM203.852 13.8528H204.632V25H203.852V24.1082C203.718 24.1825 203.54 24.2866 203.317 24.4203C203.094 24.5392 202.656 24.7027 202.002 24.9108C201.363 25.104 200.761 25.2006 200.196 25.2006C198.709 25.2006 197.729 24.8291 197.253 24.0859C196.777 23.3279 196.539 21.8491 196.539 19.6493V13.8528H197.32V19.6048C197.32 21.5667 197.498 22.8746 197.855 23.5286C198.212 24.1677 198.992 24.4872 200.196 24.4872C200.79 24.4872 201.392 24.3981 202.002 24.2197C202.611 24.0265 203.072 23.8407 203.384 23.6623L203.852 23.3725V13.8528ZM216.106 8.72508V25H215.325V24.0636C214.894 24.346 214.292 24.6061 213.519 24.8439C212.747 25.0817 212.115 25.2006 211.624 25.2006C211.149 25.2006 210.777 25.1784 210.51 25.1338C210.257 25.104 209.937 24.9926 209.551 24.7994C209.165 24.5913 208.845 24.3014 208.592 23.9299C208.355 23.5583 208.139 23.0009 207.946 22.2578C207.768 21.5146 207.678 20.6303 207.678 19.6048C207.678 17.5834 208.02 16.0897 208.704 15.1236C209.402 14.1426 210.629 13.6521 212.382 13.6521C213.23 13.6521 214.211 13.7413 215.325 13.9197V8.72508H216.106ZM209.529 23.7515C209.856 24.0488 210.16 24.2494 210.443 24.3535C210.74 24.4426 211.127 24.4872 211.602 24.4872C212.078 24.4872 212.635 24.3906 213.274 24.1974C213.928 24.0042 214.434 23.811 214.79 23.6177L215.325 23.3279V14.6331C214.166 14.4547 213.185 14.3656 212.382 14.3656C210.881 14.3656 209.856 14.7892 209.306 15.6363C208.771 16.4835 208.503 17.8063 208.503 19.6048C208.503 21.745 208.845 23.1273 209.529 23.7515Z" fill="#5F5F5F"/>
</svg>
