<svg width="200" height="19" viewBox="0 0 200 19" fill="none" xmlns="http://www.w3.org/2000/svg">
<path d="M0 18.6167V1.66666H4.88888L10.13 16.1918H10.5078V1.66666H13.3044V18.6167H8.51666L3.15 4.06688H2.79666V18.6167H0Z" fill="white"/>
<path d="M17.479 7.5807C18.3534 6.50839 19.7978 5.97226 21.8134 5.97226C23.829 5.97226 25.2656 6.50839 26.1223 7.5807C26.9956 8.65293 27.4323 10.2614 27.4323 12.4058C27.4323 14.5504 27.0123 16.167 26.1723 17.2558C25.3323 18.3446 23.8801 18.8889 21.8134 18.8889C19.7467 18.8889 18.2945 18.3446 17.4545 17.2558C16.6145 16.167 16.1945 14.5504 16.1945 12.4058C16.1945 10.2614 16.6223 8.65293 17.479 7.5807ZM19.5456 15.6226C19.9323 16.2825 20.6878 16.6124 21.8134 16.6124C22.939 16.6124 23.6945 16.2825 24.0812 15.6226C24.4678 14.9628 24.6612 13.8823 24.6612 12.3811C24.6612 10.8799 24.4512 9.81593 24.0312 9.18904C23.6278 8.56215 22.889 8.24881 21.8134 8.24881C20.7378 8.24881 19.9912 8.56215 19.5712 9.18904C19.1678 9.81593 18.9656 10.8799 18.9656 12.3811C18.9656 13.8823 19.159 14.9628 19.5456 15.6226Z" fill="white"/>
<path d="M28.78 6.24438H31.6523L34.0712 16.3154H34.8778L37.3967 6.24438H40.1945L36.9189 18.6166H32.03L28.78 6.24438Z" fill="white"/>
<path d="M42.8245 7.5807C43.6978 6.50839 45.1434 5.97226 47.1589 5.97226C49.1745 5.97226 50.6111 6.50839 51.4678 7.5807C52.3411 8.65293 52.7778 10.2614 52.7778 12.4058C52.7778 14.5504 52.3578 16.167 51.5178 17.2558C50.6778 18.3446 49.2245 18.8889 47.1589 18.8889C45.0923 18.8889 43.64 18.3446 42.8 17.2558C41.96 16.167 41.54 14.5504 41.54 12.4058C41.54 10.2614 41.9678 8.65293 42.8245 7.5807ZM44.8911 15.6226C45.2778 16.2825 46.0334 16.6124 47.1589 16.6124C48.2845 16.6124 49.04 16.2825 49.4267 15.6226C49.8134 14.9628 50.0056 13.8823 50.0056 12.3811C50.0056 10.8799 49.7956 9.81593 49.3767 9.18904C48.9734 8.56215 48.2334 8.24881 47.1589 8.24881C46.0834 8.24881 45.3356 8.56215 44.9167 9.18904C44.5134 9.81593 44.3111 10.8799 44.3111 12.3811C44.3111 13.8823 44.5045 14.9628 44.8911 15.6226Z" fill="white"/>
<path d="M67.029 18.3528C65.3523 18.6932 63.8345 18.8633 62.4756 18.8633C61.1345 18.8633 60.0445 18.6676 59.2056 18.2762C58.3834 17.8678 57.7467 17.2467 57.2934 16.4128C56.8412 15.5791 56.5301 14.6431 56.3623 13.6051C56.1956 12.5671 56.1112 11.3673 56.1112 10.0059C56.1112 8.64462 56.1534 7.52995 56.2367 6.66211C56.3378 5.79424 56.5134 4.9519 56.7656 4.13508C57.0334 3.31827 57.3945 2.66311 57.8467 2.16961C58.8534 1.08052 60.3623 0.53598 62.3756 0.53598C63.8512 0.53598 65.4023 0.697647 67.029 1.02097L66.9545 1.91436C65.3434 1.57402 63.9434 1.40385 62.7523 1.40385C61.5789 1.40385 60.6645 1.53999 60.0101 1.81226C59.3567 2.08454 58.8367 2.44189 58.4512 2.88434C58.0823 3.30976 57.7878 3.90535 57.5701 4.67111C57.369 5.41987 57.2345 6.17713 57.1678 6.94284C57.1012 7.70861 57.0667 8.65306 57.0667 9.77617C57.0667 10.8994 57.1012 11.8438 57.1678 12.6095C57.2345 13.3753 57.3778 14.1241 57.5956 14.8558C57.8134 15.5875 58.1156 16.1661 58.5012 16.5915C59.3567 17.5275 60.6478 17.9954 62.3756 17.9954C63.6834 17.9954 65.2101 17.8253 66.9545 17.4849L67.029 18.3528Z" fill="white"/>
<path d="M70.5066 7.07052C71.2778 6.11759 72.5944 5.64111 74.4555 5.64111C76.3178 5.64111 77.6344 6.11759 78.4055 7.07052C79.1767 8.02352 79.5633 9.74219 79.5633 12.2267C79.5633 14.7112 79.2189 16.4384 78.5311 17.4084C77.8433 18.3783 76.4855 18.8633 74.4555 18.8633C72.4266 18.8633 71.0678 18.3783 70.38 17.4084C69.6933 16.4384 69.3489 14.7112 69.3489 12.2267C69.3489 9.74219 69.7344 8.02352 70.5066 7.07052ZM72.2166 17.7657C72.77 17.953 73.5166 18.0465 74.4555 18.0465C75.3955 18.0465 76.1333 17.953 76.67 17.7657C77.2233 17.5615 77.6422 17.1956 77.9278 16.6682C78.23 16.1236 78.4222 15.5195 78.5066 14.8559C78.59 14.1752 78.6322 13.2307 78.6322 12.0225C78.6322 9.8783 78.3389 8.41486 77.7511 7.63208C77.1644 6.8493 76.0655 6.45792 74.4555 6.45792C72.8455 6.45792 71.7478 6.8493 71.16 7.63208C70.5733 8.41486 70.28 9.8783 70.28 12.0225C70.28 13.2307 70.3222 14.1752 70.4055 14.8559C70.4889 15.5195 70.6744 16.1236 70.9589 16.6682C71.2611 17.1956 71.68 17.5615 72.2166 17.7657Z" fill="white"/>
<path d="M83.9489 18.6336H83.0689V5.87084H83.9489V6.89186C85.4423 6.05802 86.9678 5.64111 88.5278 5.64111C90.0878 5.64111 91.1356 6.07505 91.6723 6.94286C92.2089 7.79375 92.4778 9.47841 92.4778 11.997V18.6336H91.5967V12.048C91.5967 9.80175 91.3956 8.31275 90.9934 7.58108C90.5912 6.8323 89.7101 6.45792 88.3523 6.45792C87.6812 6.45792 86.9767 6.56854 86.2389 6.78975C85.5178 6.99397 84.9556 7.19819 84.5534 7.40241L83.9489 7.73419V18.6336Z" fill="white"/>
<path d="M97.2156 18.6336H96.3356V5.87084H97.2156V6.89186C98.7089 6.05802 100.234 5.64111 101.794 5.64111C103.354 5.64111 104.402 6.07505 104.939 6.94286C105.476 7.79375 105.744 9.47841 105.744 11.997V18.6336H104.863V12.048C104.863 9.80175 104.662 8.31275 104.26 7.58108C103.858 6.8323 102.977 6.45792 101.619 6.45792C100.948 6.45792 100.243 6.56854 99.5056 6.78975C98.7845 6.99397 98.2223 7.19819 97.82 7.40241L97.2156 7.73419V18.6336Z" fill="white"/>
<path d="M117.652 17.8679L118.407 17.8167L118.458 18.6336C116.579 18.7867 115.028 18.8633 113.803 18.8633C112.026 18.8463 110.792 18.3017 110.106 17.2297C109.418 16.1406 109.073 14.4814 109.073 12.2522C109.073 7.84486 110.768 5.64111 114.156 5.64111C115.749 5.64111 116.939 6.12609 117.728 7.09608C118.532 8.06608 118.936 9.62308 118.936 11.7672V12.6095H110.005C110.005 14.4474 110.29 15.8173 110.86 16.7192C111.43 17.6041 112.378 18.0465 113.702 18.0465C115.028 18.0465 116.344 17.987 117.652 17.8679ZM110.005 11.7927H118.005C118.005 9.86986 117.695 8.49997 117.073 7.68319C116.47 6.8663 115.497 6.45792 114.156 6.45792C111.388 6.45792 110.005 8.23619 110.005 11.7927Z" fill="white"/>
<path d="M126.909 6.45792C125.316 6.45792 124.209 6.8663 123.588 7.68319C122.984 8.49997 122.682 9.99741 122.682 12.1756C122.682 14.3369 122.959 15.8599 123.512 16.7447C124.067 17.6126 125.198 18.0465 126.909 18.0465L129.928 17.8167L129.978 18.6336C128.569 18.7867 127.547 18.8633 126.909 18.8633C124.862 18.8633 123.488 18.3783 122.783 17.4084C122.096 16.4214 121.751 14.6856 121.751 12.2012C121.751 9.69964 122.138 7.98097 122.909 7.04497C123.68 6.10908 125.013 5.64111 126.909 5.64111L129.928 5.89637L129.878 6.71319C128.536 6.54301 127.547 6.45792 126.909 6.45792Z" fill="white"/>
<path d="M139.203 6.68766H134.624V13.3753C134.624 15.3323 134.759 16.6086 135.028 17.2042C135.312 17.7828 135.95 18.0721 136.939 18.0721L139.404 17.8679L139.48 18.6847C138.373 18.8208 137.527 18.8889 136.939 18.8889C135.749 18.8889 134.919 18.5826 134.449 17.97C133.979 17.3403 133.744 16.1321 133.744 14.3453V6.68766H131.757V5.87086H133.744V1.71021H134.624V5.87086H139.203V6.68766Z" fill="white"/>
<path d="M141.513 18.6337V16.5916H142.519V18.6337H141.513Z" fill="white"/>
<path d="M156.553 18.3528C154.877 18.6932 153.359 18.8633 152 18.8633C150.659 18.8633 149.569 18.6676 148.73 18.2762C147.908 17.8678 147.271 17.2467 146.818 16.4128C146.366 15.5791 146.055 14.6431 145.887 13.6051C145.719 12.5671 145.636 11.3673 145.636 10.0059C145.636 8.64462 145.678 7.52995 145.761 6.66211C145.862 5.79424 146.038 4.9519 146.29 4.13508C146.558 3.31827 146.919 2.66311 147.371 2.16961C148.378 1.08052 149.887 0.53598 151.9 0.53598C153.376 0.53598 154.927 0.697647 156.553 1.02097L156.478 1.91436C154.868 1.57402 153.468 1.40385 152.277 1.40385C151.103 1.40385 150.189 1.53999 149.535 1.81226C148.881 2.08454 148.361 2.44189 147.976 2.88434C147.607 3.30976 147.312 3.90535 147.095 4.67111C146.893 5.41987 146.759 6.17713 146.692 6.94284C146.626 7.70861 146.591 8.65306 146.591 9.77617C146.591 10.8994 146.626 11.8438 146.692 12.6095C146.759 13.3753 146.902 14.1241 147.12 14.8558C147.338 15.5875 147.64 16.1661 148.026 16.5915C148.881 17.5275 150.172 17.9954 151.9 17.9954C153.208 17.9954 154.735 17.8253 156.478 17.4849L156.553 18.3528Z" fill="white"/>
<path d="M159.797 18.6337V0H160.678V18.6337H159.797Z" fill="white"/>
<path d="M165.485 7.07052C166.256 6.11759 167.572 5.64111 169.435 5.64111C171.296 5.64111 172.612 6.11759 173.385 7.07052C174.156 8.02352 174.541 9.74219 174.541 12.2267C174.541 14.7112 174.198 16.4384 173.51 17.4084C172.822 18.3783 171.463 18.8633 169.435 18.8633C167.405 18.8633 166.047 18.3783 165.359 17.4084C164.671 16.4384 164.328 14.7112 164.328 12.2267C164.328 9.74219 164.713 8.02352 165.485 7.07052ZM167.196 17.7657C167.749 17.953 168.496 18.0465 169.435 18.0465C170.373 18.0465 171.111 17.953 171.648 17.7657C172.201 17.5615 172.621 17.1956 172.906 16.6682C173.208 16.1236 173.401 15.5195 173.485 14.8559C173.569 14.1752 173.61 13.2307 173.61 12.0225C173.61 9.8783 173.317 8.41486 172.73 7.63208C172.143 6.8493 171.045 6.45792 169.435 6.45792C167.825 6.45792 166.726 6.8493 166.139 7.63208C165.551 8.41486 165.258 9.8783 165.258 12.0225C165.258 13.2307 165.3 14.1752 165.385 14.8559C165.468 15.5195 165.652 16.1236 165.938 16.6682C166.239 17.1956 166.659 17.5615 167.196 17.7657Z" fill="white"/>
<path d="M186.173 5.87085H187.053V18.6336H186.173V17.6127C186.022 17.6977 185.821 17.8168 185.569 17.97C185.318 18.1061 184.823 18.2933 184.085 18.5315C183.363 18.7528 182.684 18.8633 182.048 18.8633C180.37 18.8633 179.263 18.4379 178.727 17.5871C178.19 16.7192 177.921 15.026 177.921 12.5075V5.87085H178.802V12.4564C178.802 14.7027 179.003 16.2002 179.406 16.949C179.808 17.6807 180.689 18.0465 182.048 18.0465C182.718 18.0465 183.398 17.9444 184.085 17.7402C184.772 17.519 185.292 17.3063 185.644 17.1021L186.173 16.7702V5.87085Z" fill="white"/>
<path d="M200 0V18.6337H199.12V17.5616C198.633 17.8849 197.954 18.1827 197.082 18.455C196.21 18.7272 195.497 18.8633 194.943 18.8633C194.407 18.8633 193.988 18.8379 193.686 18.7868C193.4 18.7528 193.04 18.6251 192.603 18.4039C192.168 18.1657 191.807 17.8339 191.522 17.4084C191.253 16.983 191.01 16.3449 190.792 15.494C190.591 14.6431 190.491 13.6307 190.491 12.4564C190.491 10.1421 190.877 8.43189 191.648 7.32578C192.437 6.2027 193.82 5.64114 195.799 5.64114C196.754 5.64114 197.862 5.74325 199.12 5.94744V0H200ZM192.579 17.2042C192.948 17.5446 193.291 17.7742 193.61 17.8934C193.946 17.9954 194.381 18.0466 194.918 18.0466C195.454 18.0466 196.084 17.9359 196.806 17.7147C197.543 17.4934 198.113 17.2722 198.516 17.051L199.12 16.7192V6.76422C197.811 6.56006 196.704 6.45796 195.799 6.45796C194.104 6.45796 192.948 6.94289 192.327 7.91289C191.723 8.88289 191.421 10.3974 191.421 12.4564C191.421 14.9069 191.807 16.4894 192.579 17.2042Z" fill="white"/>
</svg>
