<svg width="710" height="68" viewBox="0 0 710 68" fill="none" xmlns="http://www.w3.org/2000/svg">
<path d="M0 66.089V5.9165H17.3555L35.9615 57.4806H37.3026V5.9165H47.2308V66.089H30.2341L11.1825 14.4373H9.92816V66.089H0Z" fill="#5F5F5F"/>
<path d="M62.0495 26.9111C65.1538 23.1044 70.2816 21.2012 77.4368 21.2012C84.592 21.2012 89.6922 23.1044 92.7333 26.9111C95.8337 30.7175 97.3838 36.4275 97.3838 44.0403C97.3838 51.6535 95.8928 57.3926 92.9108 61.2578C89.9288 65.1229 84.7735 67.0553 77.4368 67.0553C70.1002 67.0553 64.9448 65.1229 61.9628 61.2578C58.9808 57.3926 57.4897 51.6535 57.4897 44.0403C57.4897 36.4275 59.0084 30.7175 62.0495 26.9111ZM69.3862 55.4598C70.7589 57.8024 73.4411 58.9735 77.4368 58.9735C81.4325 58.9735 84.1148 57.8024 85.4874 55.4598C86.8601 53.1176 87.5464 49.2817 87.5464 43.9527C87.5464 38.6234 86.8009 34.8462 85.3099 32.6207C83.878 30.3953 81.255 29.2829 77.4368 29.2829C73.6186 29.2829 70.9679 30.3953 69.4769 32.6207C68.0451 34.8462 67.3272 38.6234 67.3272 43.9527C67.3272 49.2817 68.0135 53.1176 69.3862 55.4598Z" fill="#5F5F5F"/>
<path d="M102.168 22.1678H112.365L120.952 57.92H123.815L132.757 22.1678H142.69L131.061 66.0893H113.706L102.168 22.1678Z" fill="#5F5F5F"/>
<path d="M152.027 26.9111C155.127 23.1044 160.259 21.2012 167.414 21.2012C174.57 21.2012 179.67 23.1044 182.711 26.9111C185.811 30.7175 187.361 36.4275 187.361 44.0403C187.361 51.6535 185.87 57.3926 182.888 61.2578C179.906 65.1229 174.747 67.0553 167.414 67.0553C160.078 67.0553 154.922 65.1229 151.94 61.2578C148.958 57.3926 147.467 51.6535 147.467 44.0403C147.467 36.4275 148.986 30.7175 152.027 26.9111ZM159.364 55.4598C160.736 57.8024 163.419 58.9735 167.414 58.9735C171.41 58.9735 174.092 57.8024 175.465 55.4598C176.838 53.1176 177.52 49.2817 177.52 43.9527C177.52 38.6234 176.774 34.8462 175.287 32.6207C173.856 30.3953 171.229 29.2829 167.414 29.2829C163.596 29.2829 160.942 30.3953 159.454 32.6207C158.023 34.8462 157.305 38.6234 157.305 43.9527C157.305 49.2817 157.991 53.1176 159.364 55.4598Z" fill="#5F5F5F"/>
<path d="M237.952 65.1531C232 66.3613 226.611 66.9652 221.787 66.9652C217.026 66.9652 213.157 66.2706 210.179 64.881C207.26 63.4314 205 61.2265 203.39 58.2661C201.785 55.3062 200.681 51.9834 200.085 48.2985C199.493 44.6136 199.194 40.3544 199.194 35.5217C199.194 30.689 199.343 26.7319 199.639 23.6511C199.998 20.5701 200.622 17.5798 201.517 14.6801C202.468 11.7804 203.749 9.45464 205.355 7.70272C208.928 3.83645 214.285 1.90332 221.432 1.90332C226.671 1.90332 232.177 2.47724 237.952 3.62503L237.687 6.79656C231.968 5.58838 226.998 4.98425 222.77 4.98425C218.604 4.98425 215.358 5.46756 213.035 6.43411C210.715 7.40069 208.869 8.6693 207.501 10.24C206.191 11.7502 205.146 13.8646 204.373 16.583C203.659 19.2411 203.181 21.9294 202.945 24.6477C202.708 27.3662 202.586 30.7189 202.586 34.706C202.586 38.6934 202.708 42.0462 202.945 44.7643C203.181 47.4828 203.69 50.141 204.463 52.7388C205.236 55.3362 206.309 57.3901 207.678 58.9004C210.715 62.2232 215.299 63.8842 221.432 63.8842C226.075 63.8842 231.495 63.2803 237.687 62.0721L237.952 65.1531Z" fill="#14A028"/>
<path d="M250.299 25.101C253.036 21.7181 257.71 20.0266 264.317 20.0266C270.928 20.0266 275.602 21.7181 278.34 25.101C281.077 28.4842 282.45 34.5854 282.45 43.4056C282.45 52.2254 281.227 58.357 278.785 61.8005C276.344 65.2436 271.524 66.9654 264.317 66.9654C257.115 66.9654 252.291 65.2436 249.849 61.8005C247.411 58.357 246.188 52.2254 246.188 43.4056C246.188 34.5854 247.557 28.4842 250.299 25.101ZM256.369 63.069C258.333 63.7337 260.984 64.0658 264.317 64.0658C267.654 64.0658 270.273 63.7337 272.178 63.069C274.143 62.3441 275.63 61.0451 276.643 59.1727C277.716 57.2395 278.399 55.095 278.699 52.7389C278.994 50.3226 279.144 46.9698 279.144 42.6806C279.144 35.0686 278.103 29.8734 276.016 27.0945C273.934 24.3157 270.033 22.9263 264.317 22.9263C258.602 22.9263 254.704 24.3157 252.618 27.0945C250.535 29.8734 249.494 35.0686 249.494 42.6806C249.494 46.9698 249.644 50.3226 249.94 52.7389C250.235 55.095 250.894 57.2395 251.904 59.1727C252.977 61.0451 254.464 62.3441 256.369 63.069Z" fill="#14A028"/>
<path d="M298.019 66.15H294.895V20.8421H298.019V24.4668C303.32 21.5066 308.736 20.0266 314.274 20.0266C319.812 20.0266 323.531 21.5671 325.437 24.6478C327.342 27.6685 328.296 33.649 328.296 42.5899V66.15H325.168V42.7709C325.168 34.7969 324.454 29.5109 323.027 26.9135C321.599 24.2553 318.471 22.9263 313.651 22.9263C311.268 22.9263 308.767 23.319 306.148 24.1043C303.588 24.8292 301.592 25.5542 300.165 26.2792L298.019 27.457V66.15Z" fill="#14A028"/>
<path d="M345.116 66.15H341.992V20.8421H345.116V24.4668C350.418 21.5066 355.833 20.0266 361.371 20.0266C366.909 20.0266 370.629 21.5671 372.534 24.6478C374.439 27.6685 375.394 33.649 375.394 42.5899V66.15H372.266V42.7709C372.266 34.7969 371.552 29.5109 370.124 26.9135C368.696 24.2553 365.568 22.9263 360.748 22.9263C358.366 22.9263 355.865 23.319 353.246 24.1043C350.686 24.8292 348.69 25.5542 347.262 26.2792L345.116 27.457V66.15Z" fill="#14A028"/>
<path d="M417.665 63.4315L420.343 63.2501L420.525 66.15C413.855 66.6936 408.348 66.9654 404.002 66.9654C397.691 66.905 393.312 64.9718 390.875 61.1662C388.433 57.2999 387.21 51.4097 387.21 43.4959C387.21 27.8499 393.225 20.0266 405.252 20.0266C410.908 20.0266 415.133 21.7483 417.933 25.1917C420.789 28.6352 422.221 34.1626 422.221 41.7742V44.7645H390.516C390.516 51.289 391.529 56.1521 393.553 59.3538C395.576 62.4951 398.941 64.0658 403.643 64.0658C408.348 64.0658 413.023 63.8544 417.665 63.4315ZM390.516 41.8649H418.916C418.916 35.0386 417.815 30.1755 415.61 27.276C413.468 24.376 410.013 22.9263 405.252 22.9263C395.426 22.9263 390.516 29.2391 390.516 41.8649Z" fill="#14A028"/>
<path d="M450.527 22.9263C444.871 22.9263 440.942 24.376 438.737 27.276C436.595 30.1755 435.522 35.4915 435.522 43.2242C435.522 50.8965 436.505 56.3031 438.469 59.4445C440.437 62.5255 444.453 64.0658 450.527 64.0658L461.244 63.2501L461.422 66.15C456.42 66.6936 452.791 66.9654 450.527 66.9654C443.261 66.9654 438.382 65.2436 435.881 61.8005C433.44 58.2967 432.217 52.1347 432.217 43.3149C432.217 34.4344 433.59 28.3331 436.327 25.0103C439.065 21.6879 443.798 20.0266 450.527 20.0266L461.244 20.9328L461.067 23.8325C456.302 23.2284 452.791 22.9263 450.527 22.9263Z" fill="#14A028"/>
<path d="M494.172 23.7408H477.917V47.482C477.917 54.4293 478.394 58.9599 479.349 61.0745C480.359 63.1284 482.623 64.1555 486.133 64.1555L494.886 63.4305L495.154 66.3301C491.226 66.8133 488.22 67.0551 486.133 67.0551C481.909 67.0551 478.962 65.9676 477.294 63.793C475.625 61.5577 474.793 57.2685 474.793 50.9255V23.7408H467.737V20.8411H474.793V6.0708H477.917V20.8411H494.172V23.7408Z" fill="#14A028"/>
<path d="M502.373 66.1498V58.9003H505.942V66.1498H502.373Z" fill="#14A028"/>
<path d="M555.765 65.1531C549.813 66.3613 544.425 66.9652 539.601 66.9652C534.84 66.9652 530.97 66.2706 527.992 64.881C525.073 63.4314 522.813 61.2265 521.204 58.2661C519.598 55.3062 518.494 51.9834 517.898 48.2985C517.303 44.6136 517.007 40.3544 517.007 35.5217C517.007 30.689 517.157 26.7319 517.453 23.6511C517.812 20.5701 518.435 17.5798 519.33 14.6801C520.281 11.7804 521.563 9.45464 523.168 7.70272C526.742 3.83645 532.098 1.90332 539.246 1.90332C544.484 1.90332 549.99 2.47724 555.765 3.62503L555.497 6.79656C549.781 5.58838 544.811 4.98425 540.583 4.98425C536.417 4.98425 533.171 5.46756 530.848 6.43411C528.529 7.40069 526.683 8.6693 525.314 10.24C524.004 11.7502 522.959 13.8646 522.186 16.583C521.472 19.2411 520.995 21.9294 520.758 24.6477C520.521 27.3662 520.399 30.7189 520.399 34.706C520.399 38.6934 520.521 42.0462 520.758 44.7643C520.995 47.4828 521.503 50.141 522.277 52.7388C523.05 55.3362 524.123 57.3901 525.491 58.9004C528.529 62.2232 533.112 63.8842 539.246 63.8842C543.888 63.8842 549.308 63.2803 555.497 62.0721L555.765 65.1531Z" fill="#14A028"/>
<path d="M567.279 66.1495V0H570.407V66.1495H567.279Z" fill="#14A028"/>
<path d="M587.469 25.101C590.207 21.7181 594.881 20.0266 601.492 20.0266C608.099 20.0266 612.773 21.7181 615.514 25.101C618.252 28.4842 619.621 34.5854 619.621 43.4056C619.621 52.2254 618.402 58.357 615.96 61.8005C613.519 65.2436 608.694 66.9654 601.492 66.9654C594.285 66.9654 589.465 65.2436 587.024 61.8005C584.582 58.357 583.363 52.2254 583.363 43.4056C583.363 34.5854 584.732 28.4842 587.469 25.101ZM593.544 63.069C595.508 63.7337 598.159 64.0658 601.492 64.0658C604.825 64.0658 607.444 63.7337 609.349 63.069C611.314 62.3441 612.805 61.0451 613.814 59.1727C614.887 57.2395 615.574 55.095 615.869 52.7389C616.169 50.3226 616.315 46.9698 616.315 42.6806C616.315 35.0686 615.274 29.8734 613.191 27.0945C611.108 24.3157 607.207 22.9263 601.492 22.9263C595.776 22.9263 591.875 24.3157 589.793 27.0945C587.706 29.8734 586.665 35.0686 586.665 42.6806C586.665 46.9698 586.815 50.3226 587.114 52.7389C587.41 55.095 588.065 57.2395 589.079 59.1727C590.148 61.0451 591.639 62.3441 593.544 63.069Z" fill="#14A028"/>
<path d="M660.915 20.8413H664.039V66.1492H660.915V62.5247C660.379 62.8264 659.665 63.2493 658.77 63.7932C657.878 64.2764 656.123 64.941 653.5 65.7867C650.94 66.5721 648.53 66.9645 646.27 66.9645C640.314 66.9645 636.385 65.4542 634.48 62.434C632.574 59.353 631.62 53.342 631.62 44.4015V20.8413H634.748V44.2201C634.748 52.1942 635.462 57.5105 636.89 60.1687C638.318 62.7661 641.446 64.065 646.27 64.065C648.648 64.065 651.062 63.7025 653.5 62.9775C655.941 62.1922 657.787 61.4372 659.038 60.7122L660.915 59.534V20.8413Z" fill="#14A028"/>
<path d="M710 0V66.1495H706.876V62.3435C705.148 63.4913 702.739 64.5484 699.642 65.5152C696.546 66.4816 694.013 66.9648 692.049 66.9648C690.144 66.9648 688.657 66.8745 687.584 66.693C686.57 66.5723 685.292 66.1191 683.742 65.3338C682.196 64.4881 680.914 63.3103 679.904 61.8C678.95 60.2896 678.086 58.0243 677.313 55.0037C676.599 51.983 676.244 48.3889 676.244 44.2204C676.244 36.0045 677.612 29.9332 680.35 26.0065C683.15 22.0196 688.061 20.0261 695.086 20.0261C698.479 20.0261 702.411 20.3885 706.876 21.1134V0H710ZM683.655 61.075C684.965 62.2832 686.184 63.0985 687.316 63.5217C688.507 63.8838 690.053 64.0652 691.958 64.0652C693.864 64.0652 696.1 63.6724 698.66 62.887C701.279 62.1017 703.302 61.3164 704.73 60.531L706.876 59.3532V24.013C702.23 23.2882 698.301 22.9257 695.086 22.9257C689.071 22.9257 684.965 24.6472 682.76 28.0907C680.618 31.5342 679.545 36.9109 679.545 44.2204C679.545 52.9194 680.914 58.5375 683.655 61.075Z" fill="#14A028"/>
</svg>
