<svg width="26" height="26" viewBox="0 0 26 26" fill="none" xmlns="http://www.w3.org/2000/svg">
<path d="M17.3285 16.0069C17.6617 16.3427 18.0731 16.5893 18.5252 16.7244C18.9773 16.8594 19.4558 16.8786 19.9171 16.7802L19.8734 16.7938H19.8682C19.7854 16.8256 19.7011 16.8532 19.6155 16.8765C18.9544 17.1109 18.3543 17.492 17.8595 17.9916C17.3648 18.4912 16.9882 19.0964 16.7576 19.7623C16.7378 19.8387 16.7129 19.9141 16.6869 19.9873C16.7807 19.4937 16.7432 18.984 16.5783 18.5097C16.4134 18.0354 16.1268 17.6133 15.7477 17.2862C15.3685 16.9591 14.9102 16.7386 14.4192 16.647C13.9281 16.5554 13.4217 16.5959 12.9512 16.7645C14.5373 15.9238 15.8327 14.6187 16.6661 13.0217C16.483 13.5311 16.448 14.0826 16.5654 14.6113C16.6827 15.1401 16.9474 15.6242 17.3285 16.0069Z" fill="url(#paint0_linear_3406_142)"/>
<path d="M24.214 17.7502C24.8381 18.2922 25.3082 18.9909 25.5767 19.7751C25.8451 20.5594 25.9022 21.4012 25.7421 22.2148C25.582 23.0285 25.2105 23.785 24.6654 24.4072C24.1203 25.0295 23.421 25.4953 22.6388 25.7572C21.8566 26.0191 21.0193 26.0679 20.2123 25.8984C19.4053 25.7289 18.6573 25.3474 18.0445 24.7925C17.4317 24.2377 16.976 23.5293 16.7238 22.7397C16.4715 21.95 16.4317 21.1072 16.6085 20.297C16.6376 20.2039 16.6615 20.1076 16.6813 20.0124C16.6802 20.0069 16.6802 20.0012 16.6813 19.9957C16.7073 19.9224 16.7323 19.8471 16.752 19.7707C16.9826 19.1047 17.3593 18.4995 17.854 18C18.3487 17.5004 18.9489 17.1193 19.6099 16.8848C19.6955 16.8615 19.7798 16.834 19.8627 16.8022H19.8679L19.9115 16.7886C19.9867 16.7746 20.061 16.7565 20.1341 16.7342H20.1466C20.8563 16.5718 21.594 16.5791 22.3004 16.7556C23.0068 16.932 23.6622 17.2727 24.214 17.7502Z" fill="url(#paint1_linear_3406_142)"/>
<path d="M20.0718 5.53704C20.0672 5.55389 20.0638 5.57102 20.0614 5.58832C19.9787 5.98289 19.9761 6.39022 20.0538 6.78582C20.1316 7.18142 20.288 7.55712 20.5138 7.89031C20.5481 7.94263 20.5866 7.99495 20.6261 8.04413C20.4022 7.83332 20.1271 7.68538 19.8284 7.61512C19.7167 7.60616 19.6056 7.59079 19.4956 7.56908C19.4731 7.56751 19.4506 7.56751 19.428 7.56908C18.9616 7.56908 18.5143 7.7555 18.1845 8.08732C17.8547 8.41915 17.6694 8.8692 17.6694 9.33848C17.6746 9.23384 17.6777 9.11769 17.6798 9.00887V8.99632C17.6945 7.82544 17.4786 6.66323 17.0444 5.57681C17.0319 5.54852 17.0212 5.51952 17.0121 5.48996L16.9414 5.33405C17.1204 5.67826 17.4048 5.95529 17.7526 6.12405C17.7823 6.14069 17.8133 6.15503 17.8452 6.16695C18.2749 6.34628 18.7572 6.3496 19.1893 6.17621C19.6214 6.00283 19.969 5.66645 20.1581 5.23883C20.1529 5.25139 20.1498 5.2629 20.1456 5.27441C20.1415 5.28592 20.1456 5.27441 20.1456 5.27441C20.1163 5.36054 20.0917 5.44822 20.0718 5.53704Z" fill="url(#paint2_linear_3406_142)"/>
<path d="M22.7766 3.19423C23.2776 3.15751 23.7797 3.24815 24.2368 3.45781C24.6938 3.66748 25.0911 3.98943 25.3921 4.39406C25.6931 4.79868 25.8882 5.27297 25.9593 5.77329C26.0304 6.2736 25.9752 6.78388 25.799 7.25715C25.6227 7.73042 25.331 8.15149 24.9506 8.48161C24.5703 8.81174 24.1135 9.04031 23.6223 9.1463C23.1312 9.25229 22.6214 9.23229 22.1399 9.08814C21.6585 8.94399 21.2208 8.68033 20.8671 8.32141C20.798 8.21926 20.717 8.12581 20.6258 8.04307C20.5863 7.99285 20.5478 7.93844 20.5135 7.88926C20.2877 7.55606 20.1313 7.18037 20.0535 6.78477C19.9758 6.38917 19.9784 5.98183 20.0611 5.58726C20.0635 5.56996 20.0669 5.55284 20.0715 5.53599C20.101 5.45333 20.1232 5.36826 20.1381 5.28172C20.1381 5.28172 20.1454 5.2587 20.1506 5.24615C20.1558 5.23359 20.1506 5.24615 20.1506 5.23987C20.1786 5.17804 20.2026 5.11443 20.2223 5.04943C20.4347 4.53194 20.7862 4.08423 21.2373 3.75653C21.6885 3.42884 22.2215 3.23412 22.7766 3.19423Z" fill="url(#paint3_linear_3406_142)"/>
<path d="M16.6646 13.0291C15.8312 14.6261 14.5359 15.9312 12.9497 16.7719C12.7618 16.8384 12.5818 16.9258 12.4131 17.0325C10.8373 17.733 9.09246 17.9551 7.39297 17.6714C5.69347 17.3877 4.11341 16.6105 2.847 15.4354C1.58059 14.2604 0.683033 12.7386 0.264654 11.0573C-0.153725 9.37589 -0.0746906 7.60815 0.492042 5.97136C1.05877 4.33456 2.08851 2.90004 3.45466 1.84413C4.82081 0.788219 6.46385 0.156936 8.1818 0.0278818C9.89975 -0.101173 11.6177 0.277625 13.1246 1.11771C14.6315 1.9578 15.8615 3.22256 16.6635 4.75653C16.7322 4.88733 16.7967 5.01917 16.858 5.15206C16.8818 5.2145 16.9096 5.27532 16.9412 5.33413L17.0099 5.49527C17.0189 5.52483 17.0297 5.55383 17.0421 5.58211C17.4746 6.66713 17.6895 7.82748 17.6744 8.99639V9.00476C17.6744 9.1094 17.6692 9.2245 17.664 9.33437C17.6118 10.4258 17.3586 11.498 16.9173 12.4965C16.8144 12.6644 16.7296 12.843 16.6646 13.0291ZM16.4909 13.1002C16.5419 13.0029 16.5949 12.9056 16.6355 12.8072C16.5823 12.9023 16.5341 13.0001 16.4909 13.1002Z" fill="url(#paint4_linear_3406_142)"/>
<g opacity="0.35">
<path d="M16.6818 20.0103C16.6725 20.0564 16.6621 20.1034 16.6506 20.1495C19.5815 21.2401 22.7289 21.6103 25.8307 21.2293C25.8199 20.5325 25.6551 19.8469 25.3481 19.2222C25.0412 18.5975 24.5998 18.0494 24.0561 17.6177C23.5124 17.186 22.88 16.8815 22.2048 16.7263C21.5295 16.5711 20.8284 16.5692 20.1523 16.7206L20.1398 16.7258C20.067 16.7478 19.9922 16.7666 19.9173 16.7812C19.4243 16.8857 18.9125 16.856 18.4346 16.6952C17.9568 16.5344 17.5302 16.2484 17.1988 15.8666C16.8674 15.4847 16.6432 15.0209 16.5492 14.5229C16.4552 14.0249 16.4949 13.5106 16.6642 13.0332C16.7295 12.8485 16.8142 12.6714 16.9169 12.5048C17.361 11.5059 17.616 10.4325 17.6688 9.33952C17.674 9.23489 17.6782 9.11769 17.6792 9.00887V9.00155C17.6943 7.8304 17.4787 6.66784 17.0448 5.58099C17.0318 5.5528 17.0207 5.52379 17.0115 5.49414L16.9408 5.33405C16.9107 5.27565 16.884 5.21556 16.8607 5.15407C16.7994 5.02014 16.7349 4.88934 16.6662 4.75855C16.1009 3.67861 15.321 2.7271 14.3749 1.96309C13.4288 1.19908 12.3367 0.638871 11.1665 0.317237C9.99619 -0.00439825 8.7727 -0.0805933 7.57194 0.0933808C6.37117 0.267355 5.21877 0.687785 4.18625 1.32857C4.01777 6.54678 5.88353 11.7796 9.80225 15.7192C10.3774 16.2978 10.9884 16.8391 11.6316 17.34C11.8978 17.25 12.162 17.1496 12.421 17.0334C12.5902 16.9278 12.7701 16.8405 12.9576 16.7729H12.9638C13.4341 16.6055 13.94 16.566 14.4304 16.6583C14.9207 16.7507 15.3781 16.9716 15.7564 17.2988C16.1347 17.626 16.4204 18.0479 16.5848 18.5218C16.7491 18.9957 16.7862 19.5048 16.6922 19.9978C16.688 20.0013 16.6845 20.0055 16.6818 20.0103Z" fill="url(#paint5_linear_3406_142)"/>
</g>
<defs>
<linearGradient id="paint0_linear_3406_142" x1="15.172" y1="15.2669" x2="17.7009" y2="17.7804" gradientUnits="userSpaceOnUse">
<stop stop-color="#007ABD"/>
<stop offset="0.16" stop-color="#3284A6"/>
<stop offset="0.38" stop-color="#739188"/>
<stop offset="0.59" stop-color="#A79B70"/>
<stop offset="0.77" stop-color="#CDA35E"/>
<stop offset="0.91" stop-color="#E4A754"/>
<stop offset="1" stop-color="#ECA950"/>
</linearGradient>
<linearGradient id="paint1_linear_3406_142" x1="24.4553" y1="24.6133" x2="19.1556" y2="19.3458" gradientUnits="userSpaceOnUse">
<stop stop-color="#F6E765"/>
<stop offset="0.34" stop-color="#F2CD5C"/>
<stop offset="0.75" stop-color="#EEB353"/>
<stop offset="1" stop-color="#ECA950"/>
</linearGradient>
<linearGradient id="paint2_linear_3406_142" x1="17.5816" y1="7.28129" x2="19.3274" y2="6.94565" gradientUnits="userSpaceOnUse">
<stop stop-color="#007ABD"/>
<stop offset="1" stop-color="#A7CC5B"/>
</linearGradient>
<linearGradient id="paint3_linear_3406_142" x1="20.9663" y1="6.62944" x2="25.7724" y2="5.62318" gradientUnits="userSpaceOnUse">
<stop stop-color="#A7CC5B"/>
<stop offset="1" stop-color="#6AB249"/>
</linearGradient>
<linearGradient id="paint4_linear_3406_142" x1="15.5539" y1="10.0715" x2="1.08731" y2="7.57012" gradientUnits="userSpaceOnUse">
<stop stop-color="#007ABD"/>
<stop offset="0.05" stop-color="#027EC0"/>
<stop offset="0.44" stop-color="#149DD6"/>
<stop offset="0.77" stop-color="#1EAFE4"/>
<stop offset="1" stop-color="#22B6E9"/>
</linearGradient>
<linearGradient id="paint5_linear_3406_142" x1="23.3358" y1="3.20575" x2="11.3192" y2="14.7126" gradientUnits="userSpaceOnUse">
<stop stop-color="white" stop-opacity="0"/>
<stop offset="0.21" stop-color="white" stop-opacity="0.01"/>
<stop offset="0.35" stop-color="white" stop-opacity="0.04"/>
<stop offset="0.46" stop-color="white" stop-opacity="0.1"/>
<stop offset="0.56" stop-color="white" stop-opacity="0.18"/>
<stop offset="0.66" stop-color="white" stop-opacity="0.29"/>
<stop offset="0.75" stop-color="white" stop-opacity="0.42"/>
<stop offset="0.83" stop-color="white" stop-opacity="0.57"/>
<stop offset="0.91" stop-color="white" stop-opacity="0.75"/>
<stop offset="0.98" stop-color="white" stop-opacity="0.95"/>
<stop offset="1" stop-color="white"/>
</linearGradient>
</defs>
</svg>
