<svg width="260" height="25" viewBox="0 0 260 25" fill="none" xmlns="http://www.w3.org/2000/svg">
<path d="M0 24.1816V2.21497H6.36847L13.1984 21.1358H13.6599V2.21497H17.2595V24.2739H11.0756L4.06105 5.35305H3.59957V24.2739H0V24.1816Z" fill="#5F5F5F"/>
<path d="M22.7053 9.87551C23.8128 8.49106 25.7511 7.75269 28.3354 7.75269C30.9197 7.75269 32.8579 8.49106 33.9655 9.87551C35.073 11.26 35.6268 13.3828 35.6268 16.1517C35.6268 18.9206 35.073 21.0434 33.9655 22.4279C32.8579 23.8123 31.012 24.5507 28.3354 24.5507C25.6588 24.5507 23.7206 23.8123 22.7053 22.4279C21.5977 21.0434 21.0439 18.9206 21.0439 16.1517C21.0439 13.3828 21.5977 11.26 22.7053 9.87551ZM25.3819 20.305C25.8434 21.1357 26.8586 21.5972 28.3354 21.5972C29.8121 21.5972 30.7351 21.1357 31.2889 20.305C31.7504 19.4744 32.0272 17.9976 32.0272 16.0594C32.0272 14.1212 31.7504 12.7367 31.1966 11.906C30.6428 11.0754 29.7198 10.7062 28.3354 10.7062C26.9509 10.7062 25.9357 11.0754 25.3819 11.906C24.8281 12.7367 24.5512 14.1212 24.5512 16.0594C24.6435 18.0899 24.8281 19.4744 25.3819 20.305Z" fill="#5F5F5F"/>
<path d="M37.3798 8.12207H41.0716L44.2097 21.2282H45.225L48.4554 8.12207H52.0549L47.8093 24.1817H41.4408L37.3798 8.12207Z" fill="#5F5F5F"/>
<path d="M55.6544 9.87551C56.7619 8.49106 58.7002 7.75269 61.2845 7.75269C63.8688 7.75269 65.807 8.49106 66.9146 9.87551C68.0221 11.26 68.5759 13.3828 68.5759 16.1517C68.5759 18.9206 68.0221 21.0434 66.9146 22.4279C65.807 23.8123 63.9611 24.5507 61.2845 24.5507C58.6079 24.5507 56.6696 23.8123 55.6544 22.4279C54.5468 21.0434 53.993 18.9206 53.993 16.1517C53.993 13.3828 54.5468 11.26 55.6544 9.87551ZM58.331 20.305C58.7925 21.1357 59.8077 21.5972 61.2845 21.5972C62.7612 21.5972 63.6842 21.1357 64.238 20.305C64.6994 19.4744 64.9763 17.9976 64.9763 16.0594C64.9763 14.1212 64.6995 12.7367 64.1457 11.906C63.5919 11.0754 62.6689 10.7062 61.2845 10.7062C59.9 10.7062 58.8848 11.0754 58.331 11.906C57.7772 12.7367 57.5003 14.1212 57.5003 16.0594C57.5926 18.0899 57.7772 19.4744 58.331 20.305Z" fill="#5F5F5F"/>
<path d="M87.1281 23.9046C84.913 24.3661 82.9748 24.5507 81.2211 24.5507C79.4675 24.5507 78.083 24.2738 76.9755 23.8123C75.8679 23.2586 75.0372 22.4279 74.4835 21.4126C73.9297 20.3051 73.4682 19.1052 73.2836 17.7208C73.099 16.3363 72.9144 14.7673 72.9144 13.0136C72.9144 11.26 73.0067 9.78324 73.099 8.67568C73.1913 7.56812 73.4682 6.46056 73.7451 5.353C74.1143 4.24544 74.5758 3.41477 75.1295 2.7687C76.4217 1.38425 78.3599 0.645874 81.0365 0.645874C82.9748 0.645874 85.0053 0.830466 87.1281 1.29195L87.0358 2.49181C84.913 2.03032 83.1594 1.84573 81.5903 1.84573C80.0213 1.84573 78.9137 2.03032 77.9907 2.39951C77.1601 2.7687 76.4217 3.23018 75.9602 3.78396C75.4987 4.33774 75.1295 5.07611 74.8526 6.09138C74.5758 7.10664 74.3912 8.02961 74.2989 9.04487C74.2066 10.0601 74.2066 11.26 74.2066 12.7367C74.2066 14.2135 74.2066 15.4133 74.2989 16.4286C74.3912 17.4439 74.5758 18.3668 74.8526 19.3821C75.1295 20.3051 75.4987 21.0434 76.0525 21.5972C77.1601 22.7971 78.8214 23.4431 81.1288 23.4431C82.7902 23.4431 84.8207 23.2586 87.1281 22.7971V23.9046Z" fill="#14A028"/>
<path d="M91.6506 9.22972C92.6659 8.02987 94.3272 7.38379 96.8193 7.38379C99.219 7.38379 100.973 8.02987 101.988 9.22972C103.003 10.4296 103.465 12.737 103.465 15.9674C103.465 19.1978 103.003 21.4129 102.08 22.705C101.157 23.9972 99.4036 24.551 96.8193 24.551C94.1427 24.551 92.389 23.9049 91.5583 22.705C90.6354 21.4129 90.1739 19.1978 90.1739 15.9674C90.0816 12.6447 90.6354 10.4296 91.6506 9.22972ZM93.8658 23.0742C94.6041 23.3511 95.5271 23.4434 96.8193 23.4434C98.0191 23.4434 99.0344 23.3511 99.6805 23.0742C100.419 22.7973 100.973 22.3358 101.342 21.6898C101.711 20.9514 101.988 20.213 102.08 19.2901C102.172 18.3671 102.265 17.1672 102.265 15.5982C102.265 12.8293 101.896 10.8911 101.157 9.8758C100.419 8.86054 98.9421 8.30676 96.9116 8.30676C94.7887 8.30676 93.4043 8.86054 92.6659 9.8758C91.9275 10.8911 91.5583 12.8293 91.5583 15.5982C91.5583 17.1672 91.6506 18.3671 91.7429 19.2901C91.8352 20.1207 92.1121 20.9514 92.4813 21.6898C92.5736 22.3358 93.1274 22.7973 93.8658 23.0742Z" fill="#14A028"/>
<path d="M109.095 24.2738H107.988V7.66045H109.095V8.9526C111.034 7.84504 113.064 7.29126 115.095 7.29126C117.125 7.29126 118.51 7.84504 119.156 8.9526C119.894 10.0602 120.171 12.2753 120.171 15.5057V24.0893H119.064V15.5057C119.064 12.5522 118.787 10.6139 118.325 9.69097C117.771 8.67571 116.664 8.21423 114.91 8.21423C114.079 8.21423 113.157 8.39882 112.141 8.67571C111.218 8.9526 110.48 9.22949 109.926 9.50638L109.095 9.96786V24.2738Z" fill="#14A028"/>
<path d="M126.354 24.2738H125.246V7.66045H126.354V8.9526C128.292 7.84504 130.322 7.29126 132.353 7.29126C134.383 7.29126 135.768 7.84504 136.414 8.9526C137.152 10.0602 137.429 12.2753 137.429 15.5057V24.0893H136.322V15.5057C136.322 12.5522 136.045 10.6139 135.583 9.69097C135.029 8.67571 133.922 8.21423 132.168 8.21423C131.338 8.21423 130.415 8.39882 129.399 8.67571C128.476 8.9526 127.738 9.22949 127.184 9.50638L126.354 9.96786V24.2738Z" fill="#14A028"/>
<path d="M152.936 23.2588L153.859 23.1665L153.951 24.2741C151.551 24.4587 149.521 24.551 147.859 24.551C145.552 24.551 143.983 23.8126 143.06 22.4281C142.137 21.0437 141.675 18.8286 141.675 15.9674C141.675 10.245 143.891 7.38379 148.321 7.38379C150.351 7.38379 151.92 8.02987 152.936 9.22972C153.951 10.5219 154.505 12.5524 154.505 15.3213V16.4289H142.875C142.875 18.8286 143.244 20.5822 143.983 21.7821C144.721 22.8896 145.921 23.5357 147.675 23.5357C149.521 23.4434 151.182 23.3511 152.936 23.2588ZM142.968 15.3213H153.397C153.397 12.8293 153.028 11.0757 152.197 9.9681C151.459 8.86054 150.167 8.39905 148.413 8.39905C144.814 8.39905 142.968 10.7065 142.968 15.3213Z" fill="#14A028"/>
<path d="M164.934 8.39882C162.904 8.39882 161.427 8.9526 160.596 9.96786C159.858 11.0754 159.396 13.0137 159.396 15.7826C159.396 18.5515 159.765 20.582 160.504 21.6895C161.242 22.7971 162.719 23.3509 164.934 23.3509L168.903 23.074L168.995 24.1815C167.149 24.3661 165.857 24.4584 165.026 24.4584C162.35 24.4584 160.596 23.8124 159.673 22.6125C158.75 21.3204 158.289 19.1052 158.289 15.8748C158.289 12.6445 158.75 10.4293 159.765 9.13719C160.781 7.93734 162.534 7.29126 164.934 7.29126L168.903 7.66045L168.811 8.76801C167.057 8.49112 165.765 8.39882 164.934 8.39882Z" fill="#14A028"/>
<path d="M180.902 8.67586H174.902V17.3518C174.902 19.9361 175.087 21.5974 175.456 22.3358C175.825 23.0741 176.656 23.4433 177.948 23.4433L181.179 23.1664L181.271 24.274C179.794 24.4586 178.687 24.5509 177.948 24.5509C176.379 24.5509 175.364 24.1817 174.718 23.351C174.072 22.5204 173.795 20.9513 173.795 18.6439V8.67586H171.211V7.56831H173.795V2.1228H174.902V7.56831H180.902V8.67586Z" fill="#14A028"/>
<path d="M183.947 24.2739V21.5973H185.239V24.2739H183.947Z" fill="#14A028"/>
<path d="M203.514 23.9046C201.298 24.3661 199.36 24.5507 197.607 24.5507C195.853 24.5507 194.469 24.2738 193.361 23.8123C192.253 23.2586 191.423 22.4279 190.869 21.4126C190.315 20.3051 189.854 19.1052 189.669 17.7208C189.485 16.3363 189.3 14.7673 189.3 13.0136C189.3 11.26 189.392 9.78324 189.485 8.67568C189.577 7.56812 189.854 6.46056 190.131 5.353C190.5 4.24544 190.961 3.41477 191.515 2.7687C192.807 1.38425 194.745 0.645874 197.422 0.645874C199.36 0.645874 201.391 0.830466 203.514 1.29195L203.421 2.49181C201.299 2.03032 199.545 1.84573 197.976 1.84573C196.407 1.84573 195.299 2.03032 194.376 2.39951C193.546 2.7687 192.807 3.23018 192.346 3.78396C191.884 4.33774 191.515 5.07611 191.238 6.09138C190.961 7.10664 190.777 8.02961 190.684 9.04487C190.592 10.0601 190.592 11.26 190.592 12.7367C190.592 14.2135 190.592 15.4133 190.684 16.4286C190.777 17.4439 190.961 18.3668 191.238 19.3821C191.515 20.3051 191.884 21.0434 192.438 21.5972C193.546 22.7971 195.207 23.4431 197.514 23.4431C199.176 23.4431 201.206 23.2586 203.421 22.7971L203.514 23.9046Z" fill="#14A028"/>
<path d="M207.668 24.274V0H208.776V24.1817H207.668V24.274Z" fill="#14A028"/>
<path d="M215.143 9.22972C216.158 8.02987 217.82 7.38379 220.312 7.38379C222.712 7.38379 224.465 8.02987 225.48 9.22972C226.496 10.4296 226.957 12.737 226.957 15.9674C226.957 19.1978 226.496 21.4129 225.573 22.705C224.65 23.9972 222.896 24.551 220.312 24.551C217.635 24.551 215.882 23.9049 215.051 22.705C214.128 21.4129 213.666 19.1978 213.666 15.9674C213.574 12.6447 214.128 10.4296 215.143 9.22972ZM217.358 23.0742C218.097 23.3511 219.02 23.4434 220.312 23.4434C221.604 23.4434 222.527 23.3511 223.173 23.0742C223.911 22.7973 224.465 22.3358 224.834 21.6898C225.204 20.9514 225.48 20.213 225.573 19.2901C225.665 18.3671 225.757 17.1672 225.757 15.5982C225.757 12.8293 225.388 10.8911 224.65 9.8758C223.911 8.86054 222.435 8.30676 220.404 8.30676C218.374 8.30676 216.897 8.86054 216.158 9.8758C215.42 10.8911 215.051 12.8293 215.051 15.5982C215.051 17.1672 215.143 18.3671 215.236 19.2901C215.328 20.1207 215.605 20.9514 215.974 21.6898C216.066 22.3358 216.62 22.7973 217.358 23.0742Z" fill="#14A028"/>
<path d="M242.002 7.66064H243.109V24.274H242.002V22.9819C241.817 23.0742 241.54 23.2588 241.171 23.4434C240.802 23.628 240.156 23.9049 239.233 24.1817C238.31 24.4586 237.387 24.6432 236.556 24.6432C234.341 24.6432 232.957 24.0894 232.218 22.9819C231.48 21.8743 231.203 19.6592 231.203 16.3365V7.75294H232.311V16.3365C232.311 19.29 232.588 21.2283 233.049 22.1512C233.603 23.0742 234.71 23.5357 236.464 23.5357C237.295 23.5357 238.218 23.4434 239.141 23.1665C240.064 22.8896 240.71 22.6127 241.171 22.3358L241.817 21.8743V7.66064H242.002Z" fill="#14A028"/>
<path d="M260 0V24.1817H258.892V22.7973C258.246 23.2588 257.416 23.6279 256.216 23.9971C255.108 24.3663 254.185 24.5509 253.447 24.5509C252.708 24.5509 252.247 24.5509 251.786 24.4586C251.416 24.4586 250.955 24.274 250.401 23.9971C249.847 23.7202 249.386 23.2588 249.017 22.705C248.647 22.1512 248.371 21.3205 248.094 20.213C247.817 19.1054 247.724 17.8133 247.724 16.2442C247.724 13.1984 248.186 10.9833 249.201 9.59885C250.216 8.1221 252.062 7.38373 254.554 7.38373C255.754 7.38373 257.231 7.47603 258.892 7.75292V0H260ZM250.309 22.3358C250.77 22.7973 251.232 23.0742 251.693 23.2588C252.155 23.351 252.708 23.4433 253.355 23.4433C254.001 23.4433 254.831 23.2588 255.847 22.9819C256.77 22.705 257.508 22.4281 258.062 22.1512L258.892 21.6897V8.76818C257.231 8.49129 255.754 8.39899 254.554 8.39899C252.339 8.39899 250.863 9.04507 250.032 10.2449C249.294 11.5371 248.832 13.4753 248.832 16.1519C248.832 19.3823 249.294 21.4128 250.309 22.3358Z" fill="#14A028"/>
</svg>
