<svg width="100" height="100" viewBox="0 0 100 100" fill="none" xmlns="http://www.w3.org/2000/svg">
<path d="M78.5275 67.2803V88.1392C78.5275 92.6382 74.8465 96.3192 70.3476 96.3192H11.8609C7.36195 96.3192 3.68098 92.6382 3.68098 88.1392V29.4481C3.68098 24.9491 7.36195 21.2681 11.8609 21.2681H32.5153C35.7873 21.2681 38.8548 20.0411 41.1042 17.5872H11.8609C5.31697 17.5872 0 22.9041 0 29.4481V88.1392C0 94.6832 5.31697 100 11.8609 100H70.5521C77.096 100 82.413 94.6832 82.413 88.1392V58.6914C79.959 60.9409 78.5275 64.0084 78.5275 67.2803Z" fill="url(#paint0_linear_566178_7869)"/>
<path d="M64.6222 34.7645L40.9004 58.4863C45.8084 63.3943 53.9883 64.2123 63.5997 61.7583C67.2807 60.7358 70.7572 59.0998 73.6202 56.6458C74.0292 56.2368 74.6427 55.8278 75.0517 55.4188L99.387 31.0835C82.2091 41.7174 71.1662 41.3084 64.6222 34.7645Z" fill="url(#paint1_linear_566178_7869)"/>
<path d="M68.3043 0L43.969 24.3353C43.56 24.7443 43.151 25.1533 42.742 25.7668C40.4925 28.4253 38.652 31.6973 37.834 34.9693C35.1755 44.9897 35.789 53.3742 40.9015 58.4866L64.6233 34.7648C58.0794 28.0163 57.4659 17.1779 68.3043 0Z" fill="url(#paint2_linear_566178_7869)"/>
<path d="M22.4956 76.6869C25.154 79.3454 30.062 79.3454 35.9925 77.5049L23.3135 81.7994C21.0641 82.6174 19.2236 82.2084 17.9966 81.1859L22.4956 76.6869Z" fill="url(#paint3_linear_566178_7869)"/>
<path d="M22.4965 76.687C19.838 74.0285 19.838 69.1205 21.6785 63.1901L17.384 75.869C16.566 78.1185 16.7705 79.959 17.9975 81.186L22.4965 76.687Z" fill="url(#paint4_linear_566178_7869)"/>
<path d="M38.6528 60.532C43.7653 65.6444 51.7407 66.8714 61.1477 65.031L45.8103 72.5974C36.6078 76.4829 28.6324 77.9144 25.1559 74.2334L38.6528 60.532Z" fill="url(#paint5_linear_566178_7869)"/>
<path d="M38.6506 60.5322C33.5381 55.4197 32.3111 47.4443 34.1516 38.0374L26.5852 53.3748C22.6997 62.5772 21.8831 71.1659 25.5641 74.6424L38.6506 60.5322Z" fill="url(#paint6_linear_566178_7869)"/>
<defs>
<linearGradient id="paint0_linear_566178_7869" x1="13.2701" y1="47.9691" x2="71.4007" y2="106.1" gradientUnits="userSpaceOnUse">
<stop stop-color="#0865A8"/>
<stop offset="1" stop-color="#59BFE5"/>
</linearGradient>
<linearGradient id="paint1_linear_566178_7869" x1="40.892" y1="47.008" x2="99.2772" y2="47.008" gradientUnits="userSpaceOnUse">
<stop stop-color="#ECA950"/>
<stop offset="1" stop-color="#F6E765"/>
</linearGradient>
<linearGradient id="paint2_linear_566178_7869" x1="36.2299" y1="29.1928" x2="68.3111" y2="29.1928" gradientUnits="userSpaceOnUse">
<stop stop-color="#ECA950"/>
<stop offset="1" stop-color="#F6E765"/>
</linearGradient>
<linearGradient id="paint3_linear_566178_7869" x1="17.9997" y1="79.569" x2="36.0698" y2="79.569" gradientUnits="userSpaceOnUse">
<stop stop-color="#007ABD"/>
<stop offset="1" stop-color="#22B6E9"/>
</linearGradient>
<linearGradient id="paint4_linear_566178_7869" x1="16.8889" y1="72.2579" x2="22.5879" y2="72.2579" gradientUnits="userSpaceOnUse">
<stop stop-color="#007ABD"/>
<stop offset="1" stop-color="#22B6E9"/>
</linearGradient>
<linearGradient id="paint5_linear_566178_7869" x1="25.1295" y1="68.408" x2="61.2843" y2="68.408" gradientUnits="userSpaceOnUse">
<stop stop-color="#A3C54B"/>
<stop offset="1" stop-color="#74A24A"/>
</linearGradient>
<linearGradient id="paint6_linear_566178_7869" x1="23.0223" y1="56.073" x2="38.7178" y2="56.073" gradientUnits="userSpaceOnUse">
<stop stop-color="#A3C54B"/>
<stop offset="1" stop-color="#74A24A"/>
</linearGradient>
</defs>
</svg>
