<svg width="215" height="32" viewBox="0 0 215 32" fill="none" xmlns="http://www.w3.org/2000/svg">
<path d="M37.9077 26.4121V11.4502H42.2454L46.8975 24.3376H47.2118V11.4502H49.6635V26.475H45.4516L40.6738 13.5876H40.3595V26.475H37.9077V26.4121Z" fill="#F1F1F1"/>
<path d="M53.3724 16.6679C54.1268 15.725 55.447 15.222 57.2072 15.222C58.9674 15.222 60.2876 15.725 61.042 16.6679C61.7964 17.6109 62.1736 19.0568 62.1736 20.9428C62.1736 22.8288 61.7964 24.2747 61.042 25.2176C60.2876 26.1606 59.0303 26.6635 57.2072 26.6635C55.3841 26.6635 54.0639 26.1606 53.3724 25.2176C52.618 24.2747 52.2408 22.8288 52.2408 20.9428C52.2408 19.0568 52.618 17.6109 53.3724 16.6679ZM55.1955 23.7717C55.5098 24.3375 56.2014 24.6518 57.2072 24.6518C58.2131 24.6518 58.8417 24.3375 59.2189 23.7717C59.5332 23.2059 59.7218 22.2001 59.7218 20.8799C59.7218 19.5598 59.5332 18.6168 59.156 18.051C58.7788 17.4852 58.1502 17.2337 57.2072 17.2337C56.2642 17.2337 55.5727 17.4852 55.1955 18.051C54.8183 18.6168 54.6297 19.5598 54.6297 20.8799C54.6926 22.263 54.8183 23.2059 55.1955 23.7717Z" fill="#F1F1F1"/>
<path d="M63.3678 15.4735H65.8824L68.0198 24.4004H68.7114L70.9116 15.4735H73.3634L70.4716 26.4121H66.1339L63.3678 15.4735Z" fill="#F1F1F1"/>
<path d="M75.8154 16.6679C76.5698 15.725 77.89 15.222 79.6502 15.222C81.4104 15.222 82.7306 15.725 83.485 16.6679C84.2394 17.6109 84.6166 19.0568 84.6166 20.9428C84.6166 22.8288 84.2394 24.2747 83.485 25.2176C82.7306 26.1606 81.4733 26.6635 79.6502 26.6635C77.8271 26.6635 76.5069 26.1606 75.8154 25.2176C75.061 24.2747 74.6838 22.8288 74.6838 20.9428C74.6838 19.0568 75.061 17.6109 75.8154 16.6679ZM77.6385 23.7717C77.9528 24.3375 78.6443 24.6518 79.6502 24.6518C80.656 24.6518 81.2847 24.3375 81.6619 23.7717C81.9762 23.2059 82.1648 22.2001 82.1648 20.8799C82.1648 19.5598 81.9762 18.6168 81.599 18.051C81.2218 17.4852 80.5932 17.2337 79.6502 17.2337C78.7072 17.2337 78.0157 17.4852 77.6385 18.051C77.2613 18.6168 77.0727 19.5598 77.0727 20.8799C77.1356 22.263 77.2613 23.2059 77.6385 23.7717Z" fill="#F1F1F1"/>
<path d="M97.2522 26.2235C95.7434 26.5378 94.4232 26.6636 93.2288 26.6636C92.0344 26.6636 91.0914 26.475 90.337 26.1606C89.5826 25.7834 89.0168 25.2177 88.6396 24.5261C88.2624 23.7718 87.9481 22.9545 87.8224 22.0115C87.6966 21.0685 87.5709 19.9998 87.5709 18.8054C87.5709 17.611 87.6338 16.6051 87.6967 15.8507C87.7595 15.0963 87.9481 14.342 88.1367 13.5876C88.3882 12.8332 88.7025 12.2674 89.0797 11.8273C89.9598 10.8844 91.28 10.3814 93.1031 10.3814C94.4232 10.3814 95.8063 10.5072 97.2522 10.8215L97.1893 11.6387C95.7434 11.3244 94.549 11.1987 93.4803 11.1987C92.4116 11.1987 91.6572 11.3244 91.0285 11.5759C90.4627 11.8273 89.9598 12.1417 89.6455 12.5189C89.3312 12.8961 89.0797 13.399 88.8911 14.0905C88.7025 14.782 88.5768 15.4107 88.5139 16.1022C88.451 16.7937 88.451 17.611 88.451 18.6168C88.451 19.6226 88.451 20.4399 88.5139 21.1314C88.5768 21.8229 88.7025 22.4516 88.8911 23.1431C89.0797 23.7718 89.3311 24.2747 89.7083 24.6519C90.4627 25.4691 91.5943 25.9092 93.1659 25.9092C94.2975 25.9092 95.6805 25.7834 97.2522 25.4691V26.2235Z" fill="#F1F1F1"/>
<path d="M100.333 16.228C101.025 15.4107 102.156 14.9707 103.854 14.9707C105.488 14.9707 106.682 15.4107 107.374 16.228C108.066 17.0452 108.38 18.6169 108.38 20.8171C108.38 23.0174 108.065 24.5262 107.437 25.4063C106.808 26.2864 105.614 26.6636 103.854 26.6636C102.03 26.6636 100.836 26.2236 100.27 25.4063C99.6415 24.5262 99.3272 23.0174 99.3272 20.8171C99.2644 18.554 99.6415 17.0452 100.333 16.228ZM101.842 25.6578C102.345 25.8464 102.973 25.9092 103.854 25.9092C104.671 25.9092 105.362 25.8464 105.802 25.6578C106.305 25.4692 106.682 25.1549 106.934 24.7148C107.185 24.2119 107.374 23.709 107.437 23.0803C107.5 22.4516 107.563 21.6344 107.563 20.5657C107.563 18.6797 107.311 17.3596 106.808 16.668C106.305 15.9765 105.299 15.5993 103.916 15.5993C102.47 15.5993 101.528 15.9765 101.025 16.668C100.522 17.3596 100.27 18.6797 100.27 20.5657C100.27 21.6344 100.333 22.4516 100.396 23.0803C100.459 23.6461 100.647 24.2119 100.899 24.7148C100.962 25.1549 101.339 25.4692 101.842 25.6578Z" fill="#F1F1F1"/>
<path d="M112.215 26.4749H111.461V15.1591H112.215V16.0393C113.535 15.2849 114.918 14.9077 116.301 14.9077C117.684 14.9077 118.627 15.2849 119.068 16.0393C119.57 16.7936 119.759 18.3024 119.759 20.5027V26.3492H119.005V20.5027C119.005 18.491 118.816 17.1708 118.502 16.5422C118.125 15.8507 117.37 15.5363 116.176 15.5363C115.61 15.5363 114.981 15.6621 114.29 15.8507C113.661 16.0393 113.158 16.2279 112.781 16.4165L112.215 16.7308V26.4749Z" fill="#F1F1F1"/>
<path d="M123.97 26.4749H123.216V15.1591H123.97V16.0393C125.29 15.2849 126.673 14.9077 128.056 14.9077C129.439 14.9077 130.382 15.2849 130.823 16.0393C131.325 16.7936 131.514 18.3024 131.514 20.5027V26.3492H130.76V20.5027C130.76 18.491 130.571 17.1708 130.257 16.5422C129.88 15.8507 129.125 15.5363 127.931 15.5363C127.365 15.5363 126.736 15.6621 126.045 15.8507C125.416 16.0393 124.913 16.2279 124.536 16.4165L123.97 16.7308V26.4749Z" fill="#F1F1F1"/>
<path d="M142.076 25.7835L142.705 25.7206L142.768 26.475C141.133 26.6008 139.75 26.6636 138.619 26.6636C137.047 26.6636 135.978 26.1607 135.35 25.2177C134.721 24.2747 134.407 22.766 134.407 20.8171C134.407 16.9195 135.916 14.9707 138.933 14.9707C140.316 14.9707 141.385 15.4107 142.076 16.228C142.768 17.1081 143.145 18.4911 143.145 20.3771V21.1315H135.224C135.224 22.766 135.475 23.9604 135.978 24.7777C136.481 25.532 137.299 25.9721 138.493 25.9721C139.75 25.9092 140.882 25.8464 142.076 25.7835ZM135.287 20.3771H142.391C142.391 18.6797 142.139 17.4853 141.573 16.7309C141.07 15.9765 140.19 15.6622 138.996 15.6622C136.544 15.6622 135.287 17.2338 135.287 20.3771Z" fill="#F1F1F1"/>
<path d="M150.248 15.6621C148.865 15.6621 147.859 16.0393 147.294 16.7308C146.791 17.4852 146.476 18.8053 146.476 20.6913C146.476 22.5773 146.728 23.9603 147.231 24.7147C147.734 25.4691 148.739 25.8463 150.248 25.8463L152.951 25.6577L153.014 26.412C151.757 26.5378 150.877 26.6006 150.311 26.6006C148.488 26.6006 147.294 26.1606 146.665 25.3433C146.036 24.4632 145.722 22.9544 145.722 20.7542C145.722 18.5539 146.036 17.0451 146.728 16.165C147.419 15.3477 148.614 14.9077 150.248 14.9077L152.951 15.1591L152.889 15.9135C151.694 15.7249 150.814 15.6621 150.248 15.6621Z" fill="#F1F1F1"/>
<path d="M161.124 15.8509H157.038V21.7602C157.038 23.5204 157.163 24.652 157.415 25.1549C157.666 25.6579 158.232 25.9093 159.112 25.9093L161.312 25.7207L161.375 26.4751C160.369 26.6008 159.615 26.6637 159.112 26.6637C158.043 26.6637 157.352 26.4122 156.912 25.8464C156.472 25.2807 156.283 24.2119 156.283 22.6403V15.8509H154.523V15.0965H156.283V11.3874H157.038V15.0965H161.124V15.8509Z" fill="#F1F1F1"/>
<path d="M163.198 26.4749V24.6518H164.078V26.4749H163.198Z" fill="#F1F1F1"/>
<path d="M176.525 26.2235C175.016 26.5378 173.696 26.6636 172.502 26.6636C171.307 26.6636 170.364 26.475 169.61 26.1606C168.856 25.7834 168.29 25.2177 167.913 24.5261C167.536 23.7718 167.221 22.9545 167.095 22.0115C166.97 21.0685 166.844 19.9998 166.844 18.8054C166.844 17.611 166.907 16.6051 166.97 15.8507C167.033 15.0963 167.221 14.342 167.41 13.5876C167.661 12.8332 167.976 12.2674 168.353 11.8273C169.233 10.8844 170.553 10.3814 172.376 10.3814C173.696 10.3814 175.079 10.5072 176.525 10.8215L176.462 11.6387C175.016 11.3244 173.822 11.1987 172.753 11.1987C171.685 11.1987 170.93 11.3244 170.302 11.5759C169.736 11.8273 169.233 12.1417 168.919 12.5189C168.604 12.8961 168.353 13.399 168.164 14.0905C167.976 14.782 167.85 15.4107 167.787 16.1022C167.724 16.7937 167.724 17.611 167.724 18.6168C167.724 19.6226 167.724 20.4399 167.787 21.1314C167.85 21.8229 167.976 22.4516 168.164 23.1431C168.353 23.7718 168.604 24.2747 168.981 24.6519C169.736 25.4691 170.867 25.9092 172.439 25.9092C173.571 25.9092 174.954 25.7834 176.462 25.4691L176.525 26.2235Z" fill="#F1F1F1"/>
<path d="M179.355 26.475V9.94141H180.109V26.4121H179.355V26.475Z" fill="#F1F1F1"/>
<path d="M184.447 16.228C185.139 15.4107 186.27 14.9707 187.968 14.9707C189.602 14.9707 190.797 15.4107 191.488 16.228C192.18 17.0452 192.494 18.6169 192.494 20.8171C192.494 23.0174 192.18 24.5262 191.551 25.4063C190.922 26.2864 189.728 26.6636 187.968 26.6636C186.145 26.6636 184.95 26.2236 184.384 25.4063C183.756 24.5262 183.441 23.0174 183.441 20.8171C183.378 18.554 183.756 17.0452 184.447 16.228ZM185.956 25.6578C186.459 25.8464 187.088 25.9092 187.968 25.9092C188.848 25.9092 189.476 25.8464 189.916 25.6578C190.419 25.4692 190.797 25.1549 191.048 24.7148C191.3 24.2119 191.488 23.709 191.551 23.0803C191.614 22.4516 191.677 21.6344 191.677 20.5657C191.677 18.6797 191.425 17.3596 190.922 16.668C190.419 15.9765 189.414 15.5993 188.031 15.5993C186.647 15.5993 185.642 15.9765 185.139 16.668C184.636 17.3596 184.384 18.6797 184.384 20.5657C184.384 21.6344 184.447 22.4516 184.51 23.0803C184.573 23.6461 184.762 24.2119 185.013 24.7148C185.076 25.1549 185.453 25.4692 185.956 25.6578Z" fill="#F1F1F1"/>
<path d="M202.741 15.1593H203.496V26.4751H202.741V25.5949C202.615 25.6578 202.427 25.7835 202.175 25.9093C201.924 26.035 201.484 26.2236 200.855 26.4122C200.227 26.6008 199.598 26.7265 199.032 26.7265C197.523 26.7265 196.58 26.3493 196.077 25.5949C195.574 24.8406 195.386 23.3318 195.386 21.0686V15.2222H196.14V21.0686C196.14 23.0803 196.329 24.4005 196.643 25.0292C197.02 25.6578 197.775 25.9721 198.969 25.9721C199.535 25.9721 200.164 25.9093 200.792 25.7207C201.421 25.5321 201.861 25.3435 202.175 25.1549L202.615 24.8406V15.1593H202.741Z" fill="#F1F1F1"/>
<path d="M215 9.94141V26.4121H214.246V25.4691C213.806 25.7835 213.24 26.0349 212.423 26.2864C211.668 26.5379 211.039 26.6636 210.537 26.6636C210.034 26.6636 209.719 26.6636 209.405 26.6007C209.154 26.6007 208.839 26.475 208.462 26.2864C208.085 26.0978 207.77 25.7835 207.519 25.4063C207.268 25.0291 207.079 24.4633 206.89 23.7089C206.702 22.9545 206.639 22.0744 206.639 21.0057C206.639 18.9311 206.953 17.4224 207.645 16.4794C208.336 15.4736 209.594 14.9706 211.291 14.9706C212.108 14.9706 213.114 15.0335 214.246 15.2221V9.94141H215ZM208.399 25.1548C208.713 25.4691 209.028 25.6577 209.342 25.7835C209.656 25.8463 210.034 25.9092 210.474 25.9092C210.914 25.9092 211.48 25.7835 212.171 25.5949C212.8 25.4063 213.303 25.2177 213.68 25.0291L214.246 24.7148V15.9136C213.114 15.725 212.108 15.6622 211.291 15.6622C209.782 15.6622 208.776 16.1022 208.211 16.9195C207.708 17.7996 207.393 19.1197 207.393 20.9428C207.393 23.1431 207.708 24.5262 208.399 25.1548Z" fill="#F1F1F1"/>
<path d="M24.1403 21.2575V27.6697C24.1403 29.0528 23.0087 30.1844 21.6257 30.1844H3.64619C2.26315 30.1844 1.13158 29.0528 1.13158 27.6697V9.62739C1.13158 8.24435 2.26315 7.11278 3.64619 7.11278H9.99559C11.0014 7.11278 11.9444 6.73559 12.6359 5.9812H3.64619C1.6345 5.9812 0 7.6157 0 9.62739V27.6697C0 29.6814 1.6345 31.3159 3.64619 31.3159H21.6885C23.7002 31.3159 25.3347 29.6814 25.3347 27.6697V18.6171C24.5803 19.3087 24.1403 20.2516 24.1403 21.2575Z" fill="#F1F1F1"/>
<path d="M19.8646 11.2618L12.5723 18.5542C14.081 20.0629 16.5956 20.3144 19.5503 19.56C20.6819 19.2457 21.7506 18.7428 22.6307 17.9884C22.7564 17.8627 22.945 17.7369 23.0708 17.6112L30.5518 10.1302C25.2711 13.3992 21.8763 13.2735 19.8646 11.2618Z" fill="#F1F1F1"/>
<path d="M20.9966 0.574707L13.5156 8.05568C13.3899 8.18141 13.2642 8.30714 13.1384 8.49574C12.4469 9.31299 11.8811 10.3188 11.6297 11.3247C10.8124 14.4051 11.001 16.9826 12.5726 18.5542L19.865 11.2618C17.8533 9.18726 17.6647 5.85539 20.9966 0.574707Z" fill="#F1F1F1"/>
<path d="M6.91502 24.1492C7.73227 24.9665 9.24104 24.9665 11.0641 24.4007L7.16648 25.7209C6.47496 25.9723 5.90917 25.8466 5.53198 25.5323L6.91502 24.1492Z" fill="#F1F1F1"/>
<path d="M6.91489 24.1492C6.09764 23.332 6.09764 21.8232 6.66343 20.0001L5.34326 23.8977C5.0918 24.5893 5.15466 25.155 5.53186 25.5322L6.91489 24.1492Z" fill="#F1F1F1"/>
<path d="M11.882 19.183C13.4537 20.7546 15.9054 21.1318 18.7972 20.566L14.0823 22.892C11.2534 24.0864 8.80162 24.5265 7.73291 23.3949L11.882 19.183Z" fill="#F1F1F1"/>
<path d="M11.8806 19.1829C10.3089 17.6113 9.93175 15.1595 10.4975 12.2677L8.17152 16.9826C6.97708 19.8115 6.72605 22.4518 7.85762 23.5205L11.8806 19.1829Z" fill="#F1F1F1"/>
</svg>
