<svg width="778" height="143" viewBox="0 0 778 143" fill="none" xmlns="http://www.w3.org/2000/svg">
<path d="M166 113.123V61.4275H180.987L197.061 105.955H198.147V61.4275H206.618V113.34H192.065L175.557 68.8126H174.471V113.34H166V113.123Z" fill="#5F5F5F"/>
<path d="M219.433 79.4556C222.04 76.1975 226.601 74.4598 232.683 74.4598C238.765 74.4598 243.326 76.1975 245.933 79.4556C248.539 82.7137 249.842 87.7094 249.842 94.2257C249.842 100.742 248.539 105.738 245.933 108.996C243.326 112.254 238.982 113.992 232.683 113.992C226.384 113.992 221.823 112.254 219.433 108.996C216.827 105.738 215.524 100.742 215.524 94.2257C215.524 87.7094 216.827 82.7137 219.433 79.4556ZM225.732 104C226.818 105.955 229.208 107.041 232.683 107.041C236.158 107.041 238.33 105.955 239.634 104C240.72 102.045 241.371 98.5698 241.371 94.0085C241.371 89.4471 240.72 86.189 239.416 84.2341C238.113 82.2793 235.941 81.4104 232.683 81.4104C229.425 81.4104 227.036 82.2793 225.732 84.2341C224.429 86.189 223.777 89.4471 223.777 94.0085C223.995 98.787 224.429 102.045 225.732 104Z" fill="#5F5F5F"/>
<path d="M253.968 75.3289H262.656L270.041 106.172H272.431L280.033 75.3289H288.504L278.513 113.123H263.525L253.968 75.3289Z" fill="#5F5F5F"/>
<path d="M296.975 79.4556C299.581 76.1975 304.143 74.4598 310.225 74.4598C316.306 74.4598 320.868 76.1975 323.474 79.4556C326.081 82.7137 327.384 87.7094 327.384 94.2257C327.384 100.742 326.081 105.738 323.474 108.996C320.868 112.254 316.524 113.992 310.225 113.992C303.926 113.992 299.364 112.254 296.975 108.996C294.368 105.738 293.065 100.742 293.065 94.2257C293.065 87.7094 294.368 82.7137 296.975 79.4556ZM303.274 104C304.36 105.955 306.749 107.041 310.225 107.041C313.7 107.041 315.872 105.955 317.175 104C318.261 102.045 318.913 98.5698 318.913 94.0085C318.913 89.4471 318.261 86.189 316.958 84.2341C315.655 82.2793 313.483 81.4104 310.225 81.4104C306.966 81.4104 304.577 82.2793 303.274 84.2341C301.971 86.189 301.319 89.4471 301.319 94.0085C301.536 98.787 301.971 102.045 303.274 104Z" fill="#5F5F5F"/>
<path d="M371.043 112.471C365.83 113.557 361.269 113.992 357.142 113.992C353.015 113.992 349.757 113.34 347.15 112.254C344.544 110.951 342.589 108.996 341.286 106.607C339.983 104 338.897 101.177 338.462 97.9184C338.028 94.6603 337.593 90.9678 337.593 86.8409C337.593 82.7139 337.811 79.2386 338.028 76.6321C338.245 74.0256 338.897 71.4191 339.548 68.8127C340.417 66.2062 341.503 64.2513 342.806 62.7308C345.847 59.4727 350.409 57.7351 356.708 57.7351C361.269 57.7351 366.048 58.1695 371.043 59.2555L370.826 62.0792C365.83 60.9932 361.703 60.5588 358.011 60.5588C354.318 60.5588 351.712 60.9932 349.54 61.862C347.585 62.7308 345.847 63.8169 344.761 65.1201C343.675 66.4234 342.806 68.161 342.155 70.5503C341.503 72.9396 341.069 75.1117 340.851 77.501C340.634 79.8902 340.634 82.7139 340.634 86.1892C340.634 89.6646 340.634 92.4883 340.851 94.8775C341.069 97.2668 341.503 99.4389 342.155 101.828C342.806 104 343.675 105.738 344.978 107.041C347.585 109.865 351.495 111.385 356.925 111.385C360.835 111.385 365.613 110.951 371.043 109.865V112.471Z" fill="#14A028"/>
<path d="M381.688 77.9355C384.077 75.1118 387.987 73.5914 393.852 73.5914C399.499 73.5914 403.626 75.1118 406.015 77.9355C408.404 80.7592 409.49 86.1894 409.49 93.7917C409.49 101.394 408.404 106.607 406.232 109.648C404.06 112.689 399.933 113.992 393.852 113.992C387.553 113.992 383.426 112.471 381.471 109.648C379.299 106.607 378.213 101.394 378.213 93.7917C377.995 85.9722 379.299 80.7592 381.688 77.9355ZM386.901 110.517C388.639 111.168 390.811 111.385 393.852 111.385C396.675 111.385 399.065 111.168 400.585 110.517C402.323 109.865 403.626 108.779 404.495 107.259C405.364 105.521 406.015 103.783 406.232 101.611C406.45 99.4391 406.667 96.6154 406.667 92.9228C406.667 86.4066 405.798 81.8453 404.06 79.456C402.323 77.0667 398.847 75.7634 394.069 75.7634C389.073 75.7634 385.815 77.0667 384.077 79.456C382.34 81.8453 381.471 86.4066 381.471 92.9228C381.471 96.6154 381.688 99.4391 381.905 101.611C382.122 103.566 382.774 105.521 383.643 107.259C383.86 108.779 385.163 109.865 386.901 110.517Z" fill="#14A028"/>
<path d="M422.74 113.34H420.134V74.2427H422.74V77.2836C427.302 74.6771 432.08 73.3738 436.859 73.3738C441.637 73.3738 444.895 74.6771 446.416 77.2836C448.154 79.89 448.805 85.103 448.805 92.7053V112.906H446.199V92.7053C446.199 85.7546 445.547 81.1933 444.461 79.0212C443.158 76.6319 440.551 75.5459 436.424 75.5459C434.469 75.5459 432.297 75.9803 429.908 76.6319C427.736 77.2836 425.998 77.9352 424.695 78.5868L422.74 79.6728V113.34Z" fill="#14A028"/>
<path d="M463.357 113.34H460.75V74.2427H463.357V77.2836C467.918 74.6771 472.697 73.3738 477.475 73.3738C482.254 73.3738 485.512 74.6771 487.032 77.2836C488.77 79.89 489.422 85.103 489.422 92.7053V112.906H486.815V92.7053C486.815 85.7546 486.164 81.1933 485.077 79.0212C483.774 76.6319 481.168 75.5459 477.041 75.5459C475.086 75.5459 472.914 75.9803 470.525 76.6319C468.353 77.2836 466.615 77.9352 465.312 78.5868L463.357 79.6728V113.34Z" fill="#14A028"/>
<path d="M525.914 110.951L528.086 110.734L528.304 113.34C522.656 113.775 517.878 113.992 513.968 113.992C508.538 113.992 504.845 112.254 502.673 108.996C500.501 105.738 499.415 100.525 499.415 93.7917C499.415 80.3248 504.628 73.5914 515.054 73.5914C519.833 73.5914 523.525 75.1118 525.914 77.9355C528.304 80.9764 529.607 85.755 529.607 92.2712V94.8777H502.239C502.239 100.525 503.108 104.652 504.845 107.476C506.583 110.082 509.407 111.603 513.534 111.603C517.878 111.385 521.787 111.168 525.914 110.951ZM502.456 92.2712H527C527 86.4066 526.132 82.2797 524.177 79.6732C522.439 77.0667 519.398 75.9807 515.271 75.9807C506.8 75.9807 502.456 81.4108 502.456 92.2712Z" fill="#14A028"/>
<path d="M554.15 75.9803C549.371 75.9803 545.896 77.2836 543.941 79.6728C542.203 82.2793 541.117 86.8407 541.117 93.3569C541.117 99.8731 541.986 104.652 543.724 107.258C545.461 109.865 548.937 111.168 554.15 111.168L563.49 110.516L563.707 113.123C559.363 113.557 556.322 113.774 554.367 113.774C548.068 113.774 543.941 112.254 541.769 109.43C539.597 106.389 538.511 101.176 538.511 93.5741C538.511 85.9719 539.597 80.7589 541.986 77.718C544.375 74.8943 548.502 73.3738 554.15 73.3738L563.49 74.2427L563.272 76.8491C559.146 76.1975 556.105 75.9803 554.15 75.9803Z" fill="#14A028"/>
<path d="M591.727 76.6323H577.608V97.0498C577.608 103.132 578.043 107.041 578.911 108.779C579.78 110.517 581.735 111.385 584.776 111.385L592.378 110.734L592.596 113.34C589.12 113.775 586.514 113.992 584.776 113.992C581.084 113.992 578.694 113.123 577.174 111.168C575.653 109.213 575.002 105.521 575.002 100.091V76.6323H568.92V74.0258H575.002V61.2105H577.608V74.0258H591.727V76.6323Z" fill="#14A028"/>
<path d="M598.894 113.34V107.041H601.934V113.34H598.894Z" fill="#14A028"/>
<path d="M644.941 112.471C639.728 113.557 635.166 113.992 631.04 113.992C626.913 113.992 623.654 113.34 621.048 112.254C618.441 110.951 616.487 108.996 615.183 106.607C613.88 104 612.794 101.177 612.36 97.9184C611.925 94.6603 611.491 90.9678 611.491 86.8409C611.491 82.7139 611.708 79.2386 611.925 76.6321C612.142 74.0256 612.794 71.4191 613.446 68.8127C614.315 66.2062 615.401 64.2513 616.704 62.7308C619.745 59.4727 624.306 57.7351 630.605 57.7351C635.166 57.7351 639.945 58.1695 644.941 59.2555L644.724 62.0792C639.728 60.9932 635.601 60.5588 631.908 60.5588C628.216 60.5588 625.609 60.9932 623.437 61.862C621.482 62.7308 619.745 63.8169 618.659 65.1201C617.573 66.4234 616.704 68.161 616.052 70.5503C615.401 72.9396 614.966 75.1117 614.749 77.501C614.532 79.8902 614.532 82.7139 614.532 86.1892C614.532 89.6646 614.532 92.4883 614.749 94.8775C614.966 97.2668 615.401 99.4389 616.052 101.828C616.704 104 617.573 105.738 618.876 107.041C621.482 109.865 625.392 111.385 630.822 111.385C634.732 111.385 639.511 110.951 644.724 109.865L644.941 112.471Z" fill="#14A028"/>
<path d="M654.718 113.34V56.2146H657.325V113.123H654.718V113.34Z" fill="#14A028"/>
<path d="M672.31 77.9355C674.699 75.1118 678.609 73.5914 684.474 73.5914C690.121 73.5914 694.248 75.1118 696.637 77.9355C699.027 80.7592 700.113 86.1894 700.113 93.7917C700.113 101.394 699.027 106.607 696.855 109.648C694.683 112.689 690.556 113.992 684.474 113.992C678.175 113.992 674.048 112.471 672.093 109.648C669.921 106.607 668.835 101.394 668.835 93.7917C668.618 85.9722 669.921 80.7592 672.31 77.9355ZM677.523 110.517C679.261 111.168 681.433 111.385 684.474 111.385C687.515 111.385 689.687 111.168 691.207 110.517C692.945 109.865 694.248 108.779 695.117 107.259C695.986 105.521 696.637 103.783 696.855 101.611C697.072 99.4391 697.289 96.6154 697.289 92.9228C697.289 86.4066 696.42 81.8453 694.683 79.456C692.945 77.0667 689.47 75.7634 684.691 75.7634C679.912 75.7634 676.437 77.0667 674.699 79.456C672.962 81.8453 672.093 86.4066 672.093 92.9228C672.093 96.6154 672.31 99.4391 672.527 101.611C672.745 103.566 673.396 105.521 674.265 107.259C674.482 108.779 675.785 109.865 677.523 110.517Z" fill="#14A028"/>
<path d="M735.518 74.2429H738.124V113.34H735.518V110.299C735.083 110.517 734.432 110.951 733.563 111.385C732.694 111.82 731.173 112.471 729.001 113.123C726.829 113.775 724.657 114.209 722.702 114.209C717.489 114.209 714.231 112.906 712.494 110.299C710.756 107.693 710.104 102.48 710.104 94.6604V74.4601H712.711V94.6604C712.711 101.611 713.362 106.172 714.448 108.344C715.752 110.517 718.358 111.603 722.485 111.603C724.44 111.603 726.612 111.385 728.784 110.734C730.956 110.082 732.477 109.431 733.563 108.779L735.083 107.693V74.2429H735.518Z" fill="#14A028"/>
<path d="M777.874 56.2146V113.123H775.268V109.865C773.747 110.951 771.792 111.82 768.969 112.688C766.362 113.557 764.19 113.992 762.452 113.992C760.715 113.992 759.629 113.992 758.543 113.775C757.674 113.775 756.588 113.34 755.285 112.688C753.981 112.037 752.895 110.951 752.026 109.648C751.158 108.344 750.506 106.389 749.854 103.783C749.203 101.176 748.986 98.1356 748.986 94.4431C748.986 87.2752 750.072 82.0622 752.461 78.8041C754.85 75.3288 759.194 73.5911 765.059 73.5911C767.883 73.5911 771.358 73.8084 775.268 74.46V56.2146H777.874ZM755.067 108.779C756.153 109.865 757.239 110.516 758.325 110.951C759.412 111.168 760.715 111.385 762.235 111.385C763.756 111.385 765.711 110.951 768.1 110.299C770.272 109.648 772.01 108.996 773.313 108.344L775.268 107.258V76.8493C771.358 76.1976 767.883 75.9804 765.059 75.9804C759.846 75.9804 756.371 77.5009 754.416 80.3246C752.678 83.3655 751.592 87.9268 751.592 94.2259C751.592 101.828 752.678 106.607 755.067 108.779Z" fill="#14A028"/>
<path d="M112.372 95.5679V125.197C112.372 131.587 107.144 136.816 100.753 136.816H17.6759C11.2854 136.816 6.05675 131.587 6.05675 125.197V41.8293C6.05675 35.4387 11.2854 30.2101 17.6759 30.2101H47.0143C51.662 30.2101 56.0192 28.4672 59.2145 24.9815H17.6759C8.38059 24.9815 0.828125 32.5339 0.828125 41.8293V125.197C0.828125 134.492 8.38059 142.045 17.6759 142.045H101.043C110.339 142.045 117.891 134.492 117.891 125.197V83.3678C114.406 86.5631 112.372 90.9203 112.372 95.5679Z" fill="url(#paint0_linear_566317_1012)"/>
<path d="M92.6186 49.3813L58.923 83.0769C65.8945 90.0484 77.5137 91.2103 91.1662 87.7246C96.3948 86.2722 101.333 83.9483 105.4 80.4626C105.981 79.8816 106.852 79.3007 107.433 78.7197L142 44.1527C117.6 59.2576 101.914 58.6766 92.6186 49.3813Z" fill="url(#paint1_linear_566317_1012)"/>
<path d="M97.8485 0L63.2815 34.567C62.7005 35.148 62.1196 35.729 61.5386 36.6004C58.3434 40.3766 55.729 45.0243 54.5671 49.672C50.7909 63.9055 51.6623 75.8151 58.9243 83.0771L92.6199 49.3815C83.3246 39.7957 82.4531 24.4003 97.8485 0Z" fill="url(#paint2_linear_566317_1012)"/>
<path d="M32.7804 108.93C36.5567 112.706 43.5282 112.706 51.9521 110.092L33.9424 116.192C30.7471 117.354 28.1328 116.773 26.3899 115.321L32.7804 108.93Z" fill="url(#paint3_linear_566317_1012)"/>
<path d="M32.7816 108.929C29.0054 105.153 29.0054 98.1817 31.6197 89.7578L25.5197 107.768C24.3577 110.963 24.6482 113.577 26.3911 115.32L32.7816 108.929Z" fill="url(#paint4_linear_566317_1012)"/>
<path d="M55.7308 85.9822C62.9928 93.2442 74.3215 94.9871 87.6836 92.3728L65.8976 103.12C52.826 108.64 41.4974 110.673 36.5592 105.444L55.7308 85.9822Z" fill="url(#paint5_linear_566317_1012)"/>
<path d="M55.7283 85.9825C48.4663 78.7205 46.7234 67.3918 49.3378 54.0298L38.59 75.8157C33.0709 88.8873 31.911 101.087 37.1396 106.025L55.7283 85.9825Z" fill="url(#paint6_linear_566317_1012)"/>
<defs>
<linearGradient id="paint0_linear_566317_1012" x1="19.6776" y1="68.1374" x2="102.249" y2="150.709" gradientUnits="userSpaceOnUse">
<stop stop-color="#0865A8"/>
<stop offset="1" stop-color="#59BFE5"/>
</linearGradient>
<linearGradient id="paint1_linear_566317_1012" x1="58.9111" y1="66.7726" x2="141.844" y2="66.7726" gradientUnits="userSpaceOnUse">
<stop stop-color="#ECA950"/>
<stop offset="1" stop-color="#F6E765"/>
</linearGradient>
<linearGradient id="paint2_linear_566317_1012" x1="52.2886" y1="41.4668" x2="97.8581" y2="41.4668" gradientUnits="userSpaceOnUse">
<stop stop-color="#ECA950"/>
<stop offset="1" stop-color="#F6E765"/>
</linearGradient>
<linearGradient id="paint3_linear_566317_1012" x1="26.3943" y1="113.024" x2="52.0619" y2="113.024" gradientUnits="userSpaceOnUse">
<stop stop-color="#007ABD"/>
<stop offset="1" stop-color="#22B6E9"/>
</linearGradient>
<linearGradient id="paint4_linear_566317_1012" x1="24.8165" y1="102.638" x2="32.9115" y2="102.638" gradientUnits="userSpaceOnUse">
<stop stop-color="#007ABD"/>
<stop offset="1" stop-color="#22B6E9"/>
</linearGradient>
<linearGradient id="paint5_linear_566317_1012" x1="36.5218" y1="97.1696" x2="87.8776" y2="97.1696" gradientUnits="userSpaceOnUse">
<stop stop-color="#A3C54B"/>
<stop offset="1" stop-color="#74A24A"/>
</linearGradient>
<linearGradient id="paint6_linear_566317_1012" x1="33.5292" y1="79.6485" x2="55.8238" y2="79.6485" gradientUnits="userSpaceOnUse">
<stop stop-color="#A3C54B"/>
<stop offset="1" stop-color="#74A24A"/>
</linearGradient>
</defs>
</svg>
