<svg xmlns="http://www.w3.org/2000/svg" viewBox="0 0 416.32 132.08"><defs><style>.cls-1,.cls-3{fill:#fff;}.cls-1,.cls-2{fill-rule:evenodd;}.cls-2{fill:#0eab4a;}</style></defs><g id="圖層_2" data-name="圖層 2"><g id="圖層_1-2" data-name="圖層 1"><path class="cls-1" d="M400.69,123.58a4.94,4.94,0,0,0-5.3-4.17,5.17,5.17,0,0,0-3.37,1.12,4.71,4.71,0,0,0-1.69,3Zm1.94,1.33H390.27a4.62,4.62,0,0,0,1.62,3.26,5.9,5.9,0,0,0,6.41.52,4.94,4.94,0,0,0,1.9-2h2A7.42,7.42,0,0,1,390.52,129a6.26,6.26,0,0,1,0-9.25,7.37,7.37,0,0,1,5.17-1.84,6.87,6.87,0,0,1,5,1.91,6.68,6.68,0,0,1,1.95,5Zm-18,5.66h-1.7V119.62H381.1v-1.37h1.76v-.34A3.6,3.6,0,0,1,384,115a5.15,5.15,0,0,1,3.38-.94h.16v1.43a3.64,3.64,0,0,0-2.24.56,2.3,2.3,0,0,0-.65,1.85v.34h2.89v1.37h-2.87Zm-7-12.32h1.75v12.32h-1.75Zm1.75-1.45h-1.75v-2.54h1.75Zm-3.85,13.77h-8.16V114.26h1.79V129h6.37Zm-18.6-10.37v-5.94h1.77v16.31h-1.77v-1.86a6.41,6.41,0,0,1-2.29,1.61,7.33,7.33,0,0,1-2.91.57,7.05,7.05,0,0,1-5-1.87,6,6,0,0,1-2-4.62,6,6,0,0,1,2-4.57,7.13,7.13,0,0,1,5-1.85,7.39,7.39,0,0,1,3,.57,6,6,0,0,1,2.25,1.65m0,4.33a4.81,4.81,0,0,0-1.55-3.59,5.1,5.1,0,0,0-3.64-1.49,5.25,5.25,0,0,0-3.71,1.42,4.49,4.49,0,0,0-1.54,3.46,4.8,4.8,0,0,0,1.55,3.63,5.24,5.24,0,0,0,3.75,1.47A5.06,5.06,0,0,0,355.4,128a4.57,4.57,0,0,0,1.56-3.43m-16.16-6.28h1.76v12.32H340.8Zm1.76-1.45H340.8v-2.54h1.76ZM334,130.57h-1.61L327,118.25h1.86l4.38,9.94,4.41-9.94h1.91Zm-10-12.32h1.76v12.32H324Zm1.76-1.45H324v-2.54h1.76Zm-17.88-2.54h1.78l5.74,13.91,5.76-13.91H323l-6.82,16.31h-1.41Zm-5.81,17.82H300.6l1.61-4h1.48Zm-4.79-1.51h-1.78V118.25h1.66v1.42a4.12,4.12,0,0,1,1.41-1.2,4,4,0,0,1,1.79-.4v1.71a3.54,3.54,0,0,0-2.37.9,3.45,3.45,0,0,0-.72,2.45Zm-17.95-6.15a6.12,6.12,0,0,1,2.07-4.64,6.94,6.94,0,0,1,4.89-1.92,7.31,7.31,0,0,1,5.07,1.89,5.88,5.88,0,0,1,2.1,4.52,6.26,6.26,0,0,1-2.06,4.7,6.93,6.93,0,0,1-5,1.95,7.14,7.14,0,0,1-5-1.91,6,6,0,0,1-2.06-4.59m1.84,0A4.72,4.72,0,0,0,282.7,128a5.16,5.16,0,0,0,3.75,1.44,5.07,5.07,0,0,0,3.69-1.44,4.73,4.73,0,0,0,1.49-3.58,4.66,4.66,0,0,0-1.51-3.59,5.38,5.38,0,0,0-3.84-1.41,5,5,0,0,0-3.58,1.44,4.8,4.8,0,0,0-1.51,3.58m-5.68-10.14h1.75v16.31h-1.75Zm-16.22,10.16a6.15,6.15,0,0,1,2.06-4.64,6.94,6.94,0,0,1,4.9-1.92,7.27,7.27,0,0,1,5.06,1.89,5.88,5.88,0,0,1,2.1,4.52,6.28,6.28,0,0,1-2.05,4.7,7,7,0,0,1-5,1.95,7.12,7.12,0,0,1-5-1.91,6,6,0,0,1-2.06-4.59m1.84,0a4.71,4.71,0,0,0,1.5,3.56,5.19,5.19,0,0,0,3.75,1.44,5.11,5.11,0,0,0,3.7-1.44,4.77,4.77,0,0,0,1.49-3.58,4.7,4.7,0,0,0-1.51-3.59,5.42,5.42,0,0,0-3.84-1.41,5,5,0,0,0-3.59,1.44,4.79,4.79,0,0,0-1.5,3.58m-5.54-5.92a7.84,7.84,0,0,0-2.73-2.24,8,8,0,0,0-3.43-.72,7.32,7.32,0,0,0-5.18,2,6.36,6.36,0,0,0-2.14,4.8,6.61,6.61,0,0,0,2.14,5,7.27,7.27,0,0,0,5.18,2,8.14,8.14,0,0,0,3.4-.7,7.45,7.45,0,0,0,2.63-2.11h2.12a8.65,8.65,0,0,1-3.33,3.22,9.67,9.67,0,0,1-4.7,1.13,9.47,9.47,0,0,1-6.67-2.45,8,8,0,0,1-2.67-6.13,7.53,7.53,0,0,1,.73-3.24,8.42,8.42,0,0,1,2.11-2.77,9.07,9.07,0,0,1,2.91-1.76,10.54,10.54,0,0,1,8.35.58,8.76,8.76,0,0,1,3.42,3.36ZM230.7,120.2v-5.94h1.76v16.31H230.7v-1.86a6.29,6.29,0,0,1-2.29,1.61,7.46,7.46,0,0,1-2.9.57,7,7,0,0,1-5-1.87,6.08,6.08,0,0,1-2-4.62,6,6,0,0,1,2-4.57,7.12,7.12,0,0,1,5-1.85,7.38,7.38,0,0,1,2.94.57,6,6,0,0,1,2.25,1.65m.05,4.33a4.81,4.81,0,0,0-1.55-3.59,5.1,5.1,0,0,0-3.64-1.49,5.26,5.26,0,0,0-3.71,1.42,4.49,4.49,0,0,0-1.54,3.46,4.8,4.8,0,0,0,1.55,3.63,5.24,5.24,0,0,0,3.75,1.47A5.09,5.09,0,0,0,229.2,128a4.59,4.59,0,0,0,1.55-3.43m-16.16-6.28h1.76v12.32h-1.76Zm1.76-1.45h-1.76v-2.54h1.76Zm-8.59,13.77h-1.61l-5.35-12.32h1.86l4.38,9.94,4.42-9.94h1.9Zm-9.95-12.32h1.76v12.32h-1.76Zm1.76-1.45h-1.76v-2.54h1.76Zm-17.88-2.54h1.78l5.74,13.91L195,114.26h1.78l-6.82,16.31h-1.4Z"/><path class="cls-1" d="M278.37,64.72c.17-3,1.17-13.38,11.56-13.38,10.13,0,11,9.22,11.38,13.07,0,.11,0,.2,0,.31Zm45.42,13c0-11.23-.82-17.34-3.63-22.78-4.3-9.09-12.55-16.19-30.23-16.19-23.61,0-34,13.7-34,35.18,0,20.8,12,32,34.19,32,16.52,0,31.54-6.27,33.36-22.29h-22.3c-.65,6.12-4.62,9.42-10.89,9.42-12.22,0-12.22-12.06-12.22-15.37Z"/><path class="cls-1" d="M240.9,40.93V13.55l-23.3,9.09V87c0,12.21,3.79,18.66,22.79,18.66a127.52,127.52,0,0,0,16.76-1.16v-15c-4.54.34-5.37.34-7.2.34-9.22,0-9.22-3.48-9.22-11.25v-25h16.92V40.93Z"/><polygon class="cls-1" points="327.07 15.78 350.38 15.78 350.38 69.01 373.75 41.12 400.18 41.12 376.98 67.69 401.91 104.35 373.17 104.35 350.38 69.17 350.38 104.35 327.09 104.35 327.07 15.78"/><path class="cls-2" d="M142,0c29.77,0,54.81,15,61.25,33.63H184.7c-8.29-10.28-23.4-18.29-42.46-18.29s-34.17,8-42.47,18.29H80.69C87.13,15,112.18,0,142,0"/><rect class="cls-3" x="77.79" y="40.68" width="24.11" height="63.04"/><polygon class="cls-1" points="104.08 40.68 130.2 40.68 142.93 84.46 156.66 40.68 179.42 40.68 154.99 103.72 128.69 103.72 104.08 40.68"/><polygon class="cls-1" points="0 40.68 26.13 40.68 38.85 84.46 52.59 40.68 75.35 40.68 50.91 103.72 24.61 103.72 0 40.68"/><rect class="cls-3" x="181.78" y="40.68" width="24.27" height="63.04"/><path class="cls-1" d="M406.92,39.74h2.72a4.1,4.1,0,0,0,1.36-.18,1.46,1.46,0,0,0,.75-.57,1.65,1.65,0,0,0,.25-.86,1.39,1.39,0,0,0-.5-1.12,2.28,2.28,0,0,0-1.55-.43h-3Zm-1.27,5.35V35.52h4.25a5.69,5.69,0,0,1,1.94.25,2.2,2.2,0,0,1,1.07.91,2.71,2.71,0,0,1,.4,1.45,2.39,2.39,0,0,1-.67,1.71,3.28,3.28,0,0,1-2,.89,3.13,3.13,0,0,1,.76.48,6.92,6.92,0,0,1,1.06,1.27l1.66,2.61H412.5l-1.27-2c-.37-.56-.68-1-.91-1.31a2.73,2.73,0,0,0-.65-.64,2,2,0,0,0-.58-.26,5.11,5.11,0,0,0-.7,0h-1.47v4.25Z"/><path class="cls-1" d="M409.38,34.41a6,6,0,1,1-6,6,6,6,0,0,1,6-6m0-.91a6.94,6.94,0,1,1-6.95,6.94,7,7,0,0,1,6.95-6.94"/></g></g></svg>
