<svg xmlns="http://www.w3.org/2000/svg" viewBox="0 0 70 18.33"><defs><style>.cls-1,.cls-2{fill:#fff;}.cls-1{fill-rule:evenodd;}</style></defs><g id="圖層_2" data-name="圖層 2"><g id="Color"><path class="cls-1" d="M55.76,9.39C53.66,4.5,43.48,6.27,44.57,12.7c-.9,6.55,10.83,7.72,11.77,1.7H52.45c-.75,3.29-4.63,1.1-4-1h8A8.29,8.29,0,0,0,55.76,9.39Zm-7.28,1.7a2,2,0,1,1,4,0Z"/><path class="cls-1" d="M41.87,18.22a21.48,21.48,0,0,0,2.92-.2V15.41c-1.92.19-3.1.13-2.86-1.9V9.15h2.94V7H42V2.18L37.9,3.76V15C37.9,17.1,38.56,18.22,41.87,18.22Z"/><polygon class="cls-1" points="61.02 17.99 61.02 11.87 64.99 17.99 70 17.99 65.66 11.61 69.7 6.98 65.1 6.98 61.02 11.84 61.02 2.57 56.97 2.57 56.97 17.99 61.02 17.99"/><path class="cls-1" d="M35.39,5.68c-2.09-7.57-19.24-7.57-21.34,0h3.33c2.68-4.12,12.11-4.12,14.79,0Z"/><rect class="cls-2" x="13.55" y="6.9" width="4.2" height="10.98"/><polygon class="cls-1" points="24.89 14.53 22.68 6.91 18.13 6.91 22.41 17.88 26.99 17.88 31.25 6.91 27.29 6.91 24.89 14.53"/><polygon class="cls-1" points="6.77 14.53 4.55 6.91 0 6.91 4.29 17.88 8.87 17.88 13.12 6.91 9.16 6.91 6.77 14.53"/><rect class="cls-2" x="31.66" y="6.9" width="4.23" height="10.98"/></g></g></svg>