<svg xmlns="http://www.w3.org/2000/svg" viewBox="0 0 70 18.46"><defs><style>.cls-1,.cls-2{fill-rule:evenodd;}.cls-2{fill:#14a028;}</style></defs><g id="圖層_2" data-name="圖層 2"><g id="Color"><path class="cls-1" d="M55.76,9.57C55,8,53.58,6.76,50.5,6.76c-4.12,0-5.93,2.38-5.93,6.12s2.1,5.58,6,5.58c2.87,0,5.49-1.09,5.81-3.88H52.45a1.72,1.72,0,0,1-1.89,1.64c-2.13,0-2.13-2.1-2.13-2.68h8A8.29,8.29,0,0,0,55.76,9.57Zm-7.28,1.7c0-.52.21-2.33,2-2.33s1.92,1.61,2,2.28v0Z"/><path class="cls-1" d="M41.87,18.4a21.48,21.48,0,0,0,2.92-.2V15.59c-.79.05-.94.05-1.26.05-1.6,0-1.6-.6-1.6-2V9.33h2.94V7.13H42V2.36L37.9,3.94V15.16C37.9,17.28,38.56,18.4,41.87,18.4Z"/><polygon class="cls-1" points="61.02 18.17 61.02 12.05 64.99 18.17 70 18.17 65.66 11.79 69.7 7.16 65.1 7.16 61.02 12.02 61.02 2.75 56.97 2.75 56.97 18.17 61.02 18.17"/><path class="cls-2" d="M35.39,5.86C34.27,2.61,29.91,0,24.72,0S15.18,2.61,14.05,5.86h3.33a9.42,9.42,0,0,1,7.39-3.19,9.45,9.45,0,0,1,7.4,3.19Z"/><rect x="13.55" y="7.09" width="4.2" height="10.98"/><polygon class="cls-1" points="24.89 14.71 22.68 7.08 18.13 7.08 22.41 18.06 26.99 18.06 31.25 7.08 27.29 7.08 24.89 14.71"/><polygon class="cls-1" points="6.77 14.71 4.55 7.08 0 7.08 4.29 18.06 8.87 18.06 13.12 7.08 9.16 7.08 6.77 14.71"/><rect x="31.66" y="7.09" width="4.23" height="10.98"/></g></g></svg>