<svg width="463" height="248" viewBox="0 0 463 248" fill="none" xmlns="http://www.w3.org/2000/svg">
<path d="M42.8467 245.549C34.7952 245.653 26.7363 244.995 17.58 238.827C15.7016 237.564 13.7488 235.8 13.8167 233.541C13.8676 231.84 15.1335 230.354 16.6612 229.585C17.2321 229.305 17.8339 229.092 18.4545 228.951C18.4576 228.951 18.4611 228.951 18.4611 228.948C19.4192 228.744 20.3941 228.627 21.3735 228.6L21.6527 228.59C26.3149 228.42 30.9767 228.936 35.4875 230.121C35.896 230.227 36.3285 230.192 36.7145 230.022C37.1006 229.852 37.4175 229.557 37.6137 229.185C37.8098 228.813 37.8735 228.386 37.7946 227.973C37.7156 227.56 37.4985 227.187 37.1787 226.912C36.5962 226.416 35.9645 225.981 35.2934 225.612C34.3089 225.084 33.2769 224.648 32.2109 224.311C30.7888 223.847 29.3186 223.5 27.8694 223.122C22.4829 221.732 17.2169 219.915 12.1221 217.688C8.48502 216.096 4.82157 214.209 2.33318 211.124C1.19035 209.705 0.301859 207.93 0.52631 206.125C0.900655 203.159 4.10239 201.33 7.08627 200.957C12.3162 200.307 17.42 202.63 22.0756 205.085C25.9379 207.128 30.2522 209.376 34.4678 208.218C35.1978 208.056 35.8638 207.684 36.3834 207.148C37.3364 206.051 37.1014 204.297 36.251 203.118C35.4006 201.939 34.0799 201.204 32.8073 200.5C25.4136 196.412 18.0304 192.06 12.1302 186.031C6.23002 180.002 1.88933 172.036 1.88389 163.617C1.88389 161.155 2.26833 158.635 3.44224 156.466C4.61614 154.297 6.67116 152.514 9.1075 152.07C12.425 151.46 15.6915 153.36 18.2024 155.599C26.8279 163.281 30.2681 174.993 35.3629 185.337C36.7888 188.233 38.4388 191.142 41.0693 193.055C41.3152 193.242 41.5983 193.374 41.8996 193.442C43.6754 193.821 44.4512 191.65 44.5328 189.994C44.8493 183.444 43.2296 176.592 45.6251 170.483C46.5404 168.156 48.1838 165.927 50.5759 165.172C53.4988 164.25 56.7856 165.87 58.5412 168.372C60.2968 170.875 60.7698 174.055 60.7547 177.108C60.7275 182.768 59.1897 188.339 56.9304 193.531C55.7394 196.271 54.3104 199.113 54.6506 202.076C54.7854 203.077 55.1749 204.028 55.7823 204.837C56.3897 205.646 57.1948 206.287 58.121 206.699C58.5506 206.881 59.0126 206.976 59.4795 206.977C59.9464 206.978 60.4088 206.886 60.8393 206.706C61.7682 206.31 62.4761 205.546 63.1568 204.803C63.4422 204.491 63.7281 204.176 64.0174 203.864C65.1538 202.625 66.2903 201.384 67.4268 200.142C70.3156 196.986 73.9258 193.548 78.1834 194.09C80.358 194.368 82.1575 195.714 83.3893 197.524C84.4991 199.171 85.1249 201.093 85.1962 203.075C85.3255 207.204 81.8143 219.942 79.8373 223.572C77.5295 227.811 70.3948 245.192 42.8467 245.549Z" fill="#14A028" fill-opacity="0.36"/>
<path d="M419.96 245.549C428.011 245.653 436.07 244.995 445.226 238.827C447.104 237.564 449.057 235.8 448.989 233.541C448.938 231.84 447.672 230.354 446.145 229.585C445.574 229.305 444.972 229.092 444.351 228.951C444.348 228.951 444.345 228.951 444.345 228.948C443.387 228.744 442.412 228.627 441.432 228.6L441.153 228.59C436.491 228.42 431.829 228.936 427.318 230.121C426.91 230.227 426.477 230.192 426.091 230.022C425.706 229.852 425.389 229.557 425.193 229.185C424.997 228.813 424.933 228.386 425.012 227.973C425.091 227.56 425.308 227.187 425.628 226.912C426.21 226.416 426.841 225.981 427.512 225.612C428.497 225.084 429.529 224.648 430.595 224.311C432.017 223.847 433.487 223.5 434.937 223.122C440.323 221.733 445.589 219.917 450.684 217.69C454.321 216.098 457.984 214.211 460.473 211.126C461.616 209.707 462.504 207.932 462.28 206.127C461.905 203.161 458.703 201.331 455.72 200.959C450.49 200.309 445.386 202.632 440.73 205.087C436.868 207.13 432.554 209.378 428.338 208.22C427.608 208.058 426.942 207.686 426.422 207.15C425.47 206.053 425.704 204.299 426.555 203.12C427.406 201.941 428.726 201.206 429.998 200.502C437.392 196.414 444.776 192.062 450.676 186.033C456.575 180.004 460.914 172.038 460.921 163.619C460.921 161.157 460.536 158.637 459.362 156.468C458.188 154.299 456.133 152.516 453.697 152.072C450.38 151.462 447.113 153.362 444.602 155.601C435.977 163.282 432.537 174.994 427.443 185.337C426.017 188.233 424.367 191.142 421.737 193.056C421.491 193.243 421.208 193.374 420.907 193.443C419.131 193.822 418.355 191.651 418.273 189.995C417.957 183.445 419.577 176.593 417.181 170.483C416.266 168.156 414.622 165.928 412.23 165.173C409.307 164.251 406.021 165.87 404.265 168.373C402.509 170.876 402.036 174.055 402.052 177.109C402.079 182.769 403.616 188.34 405.876 193.532C407.067 196.272 408.496 199.114 408.156 202.077C408.021 203.078 407.631 204.028 407.024 204.837C406.416 205.647 405.611 206.288 404.685 206.7C404.256 206.882 403.794 206.977 403.327 206.978C402.86 206.979 402.397 206.887 401.967 206.707C401.038 206.31 400.33 205.547 399.65 204.803C399.364 204.492 399.078 204.177 398.789 203.865C397.652 202.626 396.516 201.385 395.379 200.143C392.491 196.986 388.881 193.549 384.623 194.091C382.448 194.368 380.649 195.714 379.417 197.525C378.307 199.172 377.681 201.094 377.61 203.076C377.481 207.204 380.992 219.942 382.969 223.573C385.274 227.811 392.409 245.192 419.96 245.549Z" fill="#14A028" fill-opacity="0.36"/>
<path d="M412.53 231.965H50.2736C45.7419 231.965 42.0683 235.621 42.0683 240.132V240.133C42.0683 244.643 45.7419 248.3 50.2736 248.3H412.53C417.062 248.3 420.735 244.643 420.735 240.133V240.132C420.735 235.621 417.062 231.965 412.53 231.965Z" fill="#5F5F5F"/>
<path d="M383.195 0.989258H78.3927C71.7181 0.989258 66.3073 6.37515 66.3073 13.019V222.589C66.3073 229.233 71.7181 234.619 78.3927 234.619H383.195C389.87 234.619 395.281 229.233 395.281 222.589V13.019C395.281 6.37515 389.87 0.989258 383.195 0.989258Z" fill="#5F5F5F"/>
<path d="M382.444 9.19373H79.1436C76.1926 9.19373 73.8003 11.575 73.8003 14.5124V220.837C73.8003 223.774 76.1926 226.155 79.1436 226.155H382.444C385.396 226.155 387.788 223.774 387.788 220.837V14.5124C387.788 11.575 385.396 9.19373 382.444 9.19373Z" fill="white"/>
<path d="M376.99 20.4341H83.8727V48.1134H376.99V20.4341Z" fill="#F0F0F0"/>
<path d="M376.99 57.3229H251.882V132.647H376.99V57.3229Z" fill="#F0F0F0"/>
<path d="M242.765 57.3229H83.8727V157.603H242.765V57.3229Z" fill="#F0F0F0"/>
<path d="M242.765 167.132H83.8727V185.736H242.765V167.132Z" fill="#F0F0F0"/>
<path d="M242.765 194.08H83.8727V200.433H242.765V194.08Z" fill="#F0F0F0"/>
<path d="M242.765 208.146H83.8727V214.499H242.765V208.146Z" fill="#F0F0F0"/>
<path d="M376.99 141.856H251.882V173.484H376.99V141.856Z" fill="#F0F0F0"/>
<path d="M376.99 183.014H251.882V214.5H376.99V183.014Z" fill="#F0F0F0"/>
<path d="M328.105 109.942L295.186 91.7189L305.449 127.794L328.105 109.942Z" fill="#14A028" fill-opacity="0.36"/>
<path d="M319.512 116.499L313.834 120.973L324.603 134.515L330.281 130.041L319.512 116.499Z" fill="#14A028" fill-opacity="0.36"/>
<path d="M366.605 123.504H332.871V137.169H366.605V123.504Z" fill="#14A028" fill-opacity="0.36"/>
<path d="M142.973 168.743L175.892 150.519L165.629 186.594L142.973 168.743Z" fill="#14A028"/>
<path d="M140.797 188.841L146.475 193.315L160.43 175.767L154.752 171.293L140.797 188.841Z" fill="#14A028"/>
<path d="M104.474 195.969H138.208V182.304H104.474V195.969Z" fill="#14A028"/>
<path d="M168.956 52.821L201.875 34.5974L191.612 70.6727L168.956 52.821Z" fill="#C9C9C9"/>
<path d="M166.781 72.9196L172.459 77.3937L186.414 59.8462L180.735 55.3721L166.781 72.9196Z" fill="#C9C9C9"/>
<path d="M130.457 80.0474H164.191V66.3826H130.457V80.0474Z" fill="#C9C9C9"/>
</svg>
