<svg width="24" height="24" viewBox="0 0 24 24" fill="none" xmlns="http://www.w3.org/2000/svg">
<path d="M9.55556 5.77778H7.77778C7.30628 5.77778 6.8541 5.96508 6.5207 6.29848C6.1873 6.63187 6 7.08406 6 7.55556V18.2222C6 18.6937 6.1873 19.1459 6.5207 19.4793C6.8541 19.8127 7.30628 20 7.77778 20H16.6667C17.1382 20 17.5903 19.8127 17.9237 19.4793C18.2571 19.1459 18.4444 18.6937 18.4444 18.2222V7.55556C18.4444 7.08406 18.2571 6.63187 17.9237 6.29848C17.5903 5.96508 17.1382 5.77778 16.6667 5.77778H14.8889M9.55556 5.77778C9.55556 6.24927 9.74286 6.70146 10.0763 7.03486C10.4097 7.36825 10.8618 7.55556 11.3333 7.55556H13.1111C13.5826 7.55556 14.0348 7.36825 14.3682 7.03486C14.7016 6.70146 14.8889 6.24927 14.8889 5.77778M9.55556 5.77778C9.55556 5.30628 9.74286 4.8541 10.0763 4.5207C10.4097 4.1873 10.8618 4 11.3333 4H13.1111C13.5826 4 14.0348 4.1873 14.3682 4.5207C14.7016 4.8541 14.8889 5.30628 14.8889 5.77778" stroke="#14A028" stroke-width="1.5" stroke-linecap="round" stroke-linejoin="round"/>
</svg>
