<svg width="24" height="24" viewBox="0 0 24 24" fill="none" xmlns="http://www.w3.org/2000/svg">
<path d="M10.3333 11.1111V16.4444M13.8889 11.1111V16.4444M5 7.55556H19.2222M18.3333 7.55556L17.5627 18.3484C17.5307 18.797 17.33 19.2167 17.001 19.5232C16.6719 19.8296 16.239 20 15.7893 20H8.43289C7.98324 20 7.55028 19.8296 7.22123 19.5232C6.89218 19.2167 6.69148 18.797 6.65956 18.3484L5.88889 7.55556H18.3333ZM14.7778 7.55556V4.88889C14.7778 4.65314 14.6841 4.42705 14.5174 4.26035C14.3507 4.09365 14.1246 4 13.8889 4H10.3333C10.0976 4 9.87149 4.09365 9.70479 4.26035C9.5381 4.42705 9.44444 4.65314 9.44444 4.88889V7.55556H14.7778Z" stroke="#E05252" stroke-width="1.5" stroke-linecap="round" stroke-linejoin="round"/>
</svg>
