<svg width="24" height="24" viewBox="0 0 24 24" fill="none" xmlns="http://www.w3.org/2000/svg">
<path d="M8.21118 15.1886C7.42132 15.1895 6.6589 14.8989 6.07 14.3725C5.4811 13.8462 5.10712 13.121 5.01971 12.336C4.9323 11.551 5.1376 10.7613 5.59629 10.1183C6.05498 9.47528 6.7348 9.0241 7.50551 8.85121C7.28251 7.81123 7.48179 6.72525 8.05949 5.83219C8.6372 4.93913 9.54601 4.31213 10.586 4.08914C11.626 3.86615 12.712 4.06543 13.605 4.64313C14.4981 5.22083 15.1251 6.12964 15.3481 7.16963H15.4283C16.4226 7.16863 17.3818 7.53713 18.1197 8.20358C18.8576 8.87003 19.3215 9.78689 19.4215 10.7762C19.5214 11.7655 19.2502 12.7566 18.6605 13.5571C18.0707 14.3577 17.2046 14.9106 16.2302 15.1084M9.81497 17.5943L12.2207 20M12.2207 20L14.6264 17.5943M12.2207 20V10.3772" stroke="#14A028" stroke-width="1.5" stroke-linecap="round" stroke-linejoin="round"/>
</svg>
