<svg width="24" height="24" viewBox="0 0 24 24" fill="none" xmlns="http://www.w3.org/2000/svg">
<path fill-rule="evenodd" clip-rule="evenodd" d="M15.5181 6.06819L14.5363 7.05003L16.96 9.47377L18.322 8.11177C18.4266 7.95479 18.5544 7.66116 18.5605 7.31124C18.5666 6.96178 18.4535 6.51252 17.9755 6.03452C17.5505 5.60945 17.0916 5.52613 16.6484 5.58913C16.1905 5.6542 15.7656 5.87919 15.5181 6.06819ZM15.8492 10.5846L13.4255 8.16083L6.6729 14.9134L5.88514 18.0644L9.47348 16.9603L15.8492 10.5846ZM16.4273 4.03385C17.2736 3.91357 18.2547 4.09207 19.0863 4.92372C19.8651 5.70246 20.1447 6.56229 20.1312 7.33864C20.1182 8.08403 19.8367 8.71268 19.552 9.09221C19.5297 9.12194 19.5054 9.15005 19.4791 9.17633L10.4463 18.2091C10.3557 18.2997 10.2444 18.3667 10.1219 18.4044L5.01647 19.9753C4.74559 20.0586 4.45082 19.9896 4.24513 19.7946C4.03944 19.5997 3.95473 19.309 4.02347 19.0341L5.20165 14.3214C5.23618 14.1833 5.30759 14.0571 5.40826 13.9565L14.441 4.92372C14.4615 4.90323 14.4831 4.88389 14.5057 4.86579C14.9184 4.53568 15.6155 4.14923 16.4273 4.03385Z" fill="#e18d24"/>
</svg>
