<svg width="24" height="24" viewBox="0 0 24 24" fill="none" xmlns="http://www.w3.org/2000/svg">
<g clip-path="url(#clip0_2831_26303)">
<path d="M12.4821 3.13126L2.4097 6.84772C1.55436 7.16332 1.53297 8.36532 2.37654 8.71116L12.448 12.8402C12.6973 12.9424 12.9772 12.9397 13.2245 12.8327L22.7667 8.70328C23.5868 8.34839 23.5652 7.17802 22.7325 6.85371L13.1912 3.13762C12.9635 3.04895 12.7113 3.04669 12.4821 3.13126Z" fill="#AAAAAA"/>
<path d="M12.3022 14.8118L6 12V17.7984C11.3793 23.5968 16.908 20.2144 19 17.7984V12L13.141 14.8008C12.8765 14.9272 12.5699 14.9312 12.3022 14.8118Z" fill="#AAAAAA"/>
<path fill-rule="evenodd" clip-rule="evenodd" d="M22.25 11L20.75 11.75V13.0757C20.3016 13.335 20 13.8198 20 14.375C20 14.9302 20.3016 15.415 20.75 15.6743V17.375C20.75 17.7892 21.0858 18.125 21.5 18.125C21.9142 18.125 22.25 17.7892 22.25 17.375V15.6743C22.6984 15.415 23 14.9302 23 14.375C23 13.8198 22.6984 13.335 22.25 13.0757V11Z" fill="#AAAAAA"/>
</g>
<defs>
<clipPath id="clip0_2831_26303">
<rect width="24" height="24" fill="white"/>
</clipPath>
</defs>
</svg>
