<svg width="217" height="70" viewBox="0 0 217 70" fill="none" xmlns="http://www.w3.org/2000/svg">
<rect width="217" height="70" rx="20" fill="#14A028"/>
<circle cx="45" cy="35" r="19.5" stroke="white"/>
<line x1="37.3811" y1="34.302" x2="52.2227" y2="34.302" stroke="white" stroke-linecap="round"/>
<line x1="44.302" y1="42.2228" x2="44.302" y2="27.3812" stroke="white" stroke-linecap="round"/>
<path d="M89.6705 42.1989C88.3778 42.1989 87.2486 41.8958 86.2827 41.2898C85.3026 40.6837 84.545 39.822 84.0099 38.7045C83.4654 37.5966 83.1932 36.2708 83.1932 34.7273C83.1932 33.572 83.3494 32.5374 83.6619 31.6236C83.965 30.7145 84.4029 29.9285 84.9759 29.2656C85.544 28.6217 86.2164 28.1245 86.9929 27.7741C87.7789 27.4285 88.6335 27.2557 89.5568 27.2557C90.3286 27.2557 91.0459 27.3717 91.7088 27.6037C92.367 27.831 92.9612 28.1553 93.4915 28.5767C94.0218 29.0076 94.4574 29.5071 94.7983 30.0753C95.054 30.492 95.2552 30.9583 95.402 31.4744C95.4115 31.5218 95.4162 31.5573 95.4162 31.581C95.4162 31.6946 95.3759 31.794 95.2955 31.8793C95.215 31.9598 95.1155 32 94.9972 32H93.9957C93.9105 32 93.8324 31.9763 93.7614 31.929C93.6951 31.8816 93.6454 31.8177 93.6122 31.7372C93.4654 31.3537 93.2926 31.0128 93.0938 30.7145C92.8333 30.3262 92.5327 29.9995 92.1918 29.7344C91.8461 29.4645 91.4508 29.2585 91.0057 29.1165C90.5653 28.9744 90.0824 28.9034 89.5568 28.9034C88.6998 28.9034 87.9162 29.1259 87.206 29.571C86.5005 30.0208 85.9394 30.6766 85.5227 31.5384C85.1061 32.4001 84.8977 33.4631 84.8977 34.7273C84.8977 35.982 85.1084 37.045 85.5298 37.9162C85.9512 38.7874 86.5218 39.4432 87.2415 39.8835C87.9564 40.3286 88.7661 40.5511 89.6705 40.5511C90.5038 40.5511 91.2401 40.3736 91.8793 40.0185C92.5137 39.6539 93.0109 39.1473 93.3707 38.4986C93.7116 37.8641 93.8892 37.1278 93.9034 36.2898H90.4872C90.3688 36.2898 90.2694 36.2495 90.1889 36.169C90.1084 36.0885 90.0682 35.9915 90.0682 35.8778V35.1463C90.0682 35.0279 90.1084 34.9285 90.1889 34.848C90.2694 34.7675 90.3688 34.7273 90.4872 34.7273H95.196C95.3097 34.7273 95.4067 34.7675 95.4872 34.848C95.5677 34.9285 95.608 35.0279 95.608 35.1463V36.2898C95.608 37.4877 95.3546 38.5294 94.848 39.4148C94.3414 40.2955 93.6406 40.982 92.7457 41.4744C91.8509 41.9574 90.8258 42.1989 89.6705 42.1989ZM102.971 42.2273C101.925 42.2273 101.02 41.9929 100.258 41.5241C99.5006 41.0649 98.9158 40.4115 98.5039 39.5639C98.1204 38.759 97.9144 37.7812 97.886 36.6307C97.886 35.5133 98.092 34.5284 98.5039 33.6761C98.9158 32.8144 99.4888 32.1468 100.223 31.6733C100.961 31.1903 101.821 30.9489 102.801 30.9489C103.374 30.9489 103.935 31.0436 104.484 31.233C105.038 31.4223 105.542 31.7277 105.997 32.1491C106.451 32.5753 106.814 33.1364 107.083 33.8324C107.353 34.5284 107.488 35.3854 107.488 36.4034V36.6946C107.488 36.813 107.448 36.9124 107.368 36.9929C107.287 37.0734 107.19 37.1136 107.076 37.1136H99.5692C99.5929 37.8428 99.735 38.4631 99.9954 38.9744C100.279 39.5473 100.677 39.9806 101.189 40.2741C101.7 40.5724 102.294 40.7216 102.971 40.7216C103.416 40.7216 103.816 40.6577 104.172 40.5298C104.531 40.4067 104.839 40.2173 105.095 39.9616C105.284 39.7865 105.443 39.5734 105.571 39.3224C105.604 39.2514 105.654 39.197 105.72 39.1591C105.786 39.1212 105.857 39.1023 105.933 39.1023C105.985 39.1023 106.023 39.107 106.047 39.1165L106.885 39.3509C106.975 39.3745 107.046 39.4242 107.098 39.5C107.154 39.5758 107.183 39.6586 107.183 39.7486C107.183 39.8149 107.171 39.8717 107.147 39.919C106.972 40.2978 106.743 40.6293 106.458 40.9134C106.065 41.33 105.568 41.652 104.967 41.8793C104.385 42.1113 103.719 42.2273 102.971 42.2273ZM105.784 35.6648C105.784 35.0492 105.663 34.5 105.422 34.017C105.18 33.5341 104.834 33.1529 104.385 32.8736C103.935 32.5942 103.407 32.4545 102.801 32.4545C102.133 32.4545 101.558 32.6179 101.075 32.9446C100.587 33.2808 100.213 33.7093 99.9528 34.2301C99.7302 34.6847 99.6048 35.1629 99.5763 35.6648H105.784ZM113.731 42.1562C113.253 42.1562 112.789 42.0545 112.339 41.8509C111.885 41.6425 111.511 41.3324 111.217 40.9205C110.923 40.4991 110.777 39.9735 110.777 39.3438V32.5185H109.541C109.427 32.5185 109.33 32.4782 109.25 32.3977C109.169 32.3172 109.129 32.2178 109.129 32.0994V31.5099C109.129 31.3916 109.169 31.2921 109.25 31.2116C109.33 31.1312 109.427 31.0909 109.541 31.0909H110.777V29.1804C110.777 29.0952 110.8 29.0194 110.848 28.9531C110.9 28.8821 110.966 28.83 111.047 28.7969L111.892 28.4773C111.958 28.4583 112.005 28.4489 112.034 28.4489C112.147 28.4489 112.244 28.4891 112.325 28.5696C112.41 28.6501 112.453 28.7519 112.453 28.875V31.0909H114.37C114.484 31.0909 114.581 31.1312 114.662 31.2116C114.742 31.2921 114.782 31.3916 114.782 31.5099V32.0994C114.782 32.2178 114.742 32.3172 114.662 32.3977C114.581 32.4782 114.484 32.5185 114.37 32.5185H112.453V38.8892C112.453 39.358 112.524 39.7131 112.666 39.9545C112.798 40.1818 112.976 40.3357 113.199 40.4162C113.431 40.4967 113.665 40.5369 113.902 40.5369C113.982 40.5369 114.084 40.5322 114.207 40.5227L114.257 40.5156C114.271 40.5109 114.292 40.5085 114.321 40.5085C114.42 40.5085 114.505 40.5393 114.576 40.6009C114.652 40.6624 114.702 40.7429 114.725 40.8423L114.889 41.5668C114.894 41.5857 114.896 41.6165 114.896 41.6591C114.896 41.7585 114.868 41.8461 114.811 41.9219C114.754 41.9976 114.678 42.045 114.583 42.0639L114.349 42.1207C114.15 42.1444 113.944 42.1562 113.731 42.1562ZM126.579 42.2273C125.462 42.2273 124.536 41.9858 123.802 41.5028C123.182 41.0909 122.756 40.5251 122.524 39.8054C122.51 39.7628 122.502 39.7178 122.502 39.6705C122.502 39.5758 122.531 39.4905 122.588 39.4148C122.649 39.339 122.727 39.2917 122.822 39.2727L123.632 39.0668C123.679 39.0573 123.712 39.0526 123.731 39.0526C123.812 39.0526 123.887 39.0786 123.958 39.1307C124.034 39.178 124.089 39.242 124.122 39.3224C124.288 39.7438 124.538 40.0705 124.875 40.3026C125.306 40.5961 125.864 40.7429 126.551 40.7429C127.332 40.7429 127.955 40.5748 128.419 40.2386C128.883 39.9072 129.115 39.5047 129.115 39.0312C129.115 38.6477 128.982 38.3281 128.717 38.0724C128.447 37.812 128.038 37.6179 127.488 37.4901L125.663 37.0639C124.654 36.8224 123.918 36.4508 123.454 35.9489C122.985 35.4517 122.751 34.8243 122.751 34.0668C122.751 33.4512 122.926 32.9044 123.277 32.4261C123.627 31.9432 124.105 31.5691 124.711 31.304C125.317 31.0341 126.006 30.8991 126.778 30.8991C127.862 30.8991 128.715 31.1359 129.335 31.6094C129.827 31.9882 130.208 32.4664 130.478 33.044C130.502 33.0914 130.514 33.1482 130.514 33.2145C130.514 33.3045 130.485 33.3873 130.429 33.4631C130.377 33.5388 130.306 33.5909 130.216 33.6193L129.491 33.8253C129.444 33.8348 129.408 33.8395 129.385 33.8395C129.309 33.8395 129.235 33.8205 129.164 33.7827C129.098 33.7401 129.046 33.6856 129.008 33.6193C128.928 33.4678 128.833 33.3234 128.724 33.1861C128.549 32.9446 128.3 32.7457 127.978 32.5895C127.666 32.4332 127.266 32.3551 126.778 32.3551C126.106 32.3551 125.547 32.5066 125.102 32.8097C124.657 33.1222 124.434 33.5128 124.434 33.9815C124.434 34.3935 124.586 34.7225 124.889 34.9688C125.197 35.215 125.672 35.4186 126.316 35.5795L127.943 35.9773C128.923 36.2093 129.654 36.5715 130.137 37.0639C130.616 37.5469 130.855 38.1742 130.855 38.946C130.855 39.5758 130.675 40.1368 130.315 40.6293C129.96 41.1217 129.46 41.5123 128.816 41.8011C128.177 42.0852 127.431 42.2273 126.579 42.2273ZM137.071 42.1562C136.593 42.1562 136.129 42.0545 135.679 41.8509C135.224 41.6425 134.85 41.3324 134.557 40.9205C134.263 40.4991 134.116 39.9735 134.116 39.3438V32.5185H132.881C132.767 32.5185 132.67 32.4782 132.589 32.3977C132.509 32.3172 132.469 32.2178 132.469 32.0994V31.5099C132.469 31.3916 132.509 31.2921 132.589 31.2116C132.67 31.1312 132.767 31.0909 132.881 31.0909H134.116V29.1804C134.116 29.0952 134.14 29.0194 134.188 28.9531C134.24 28.8821 134.306 28.83 134.386 28.7969L135.232 28.4773C135.298 28.4583 135.345 28.4489 135.374 28.4489C135.487 28.4489 135.584 28.4891 135.665 28.5696C135.75 28.6501 135.793 28.7519 135.793 28.875V31.0909H137.71C137.824 31.0909 137.921 31.1312 138.001 31.2116C138.082 31.2921 138.122 31.3916 138.122 31.5099V32.0994C138.122 32.2178 138.082 32.3172 138.001 32.3977C137.921 32.4782 137.824 32.5185 137.71 32.5185H135.793V38.8892C135.793 39.358 135.864 39.7131 136.006 39.9545C136.138 40.1818 136.316 40.3357 136.538 40.4162C136.77 40.4967 137.005 40.5369 137.241 40.5369C137.322 40.5369 137.424 40.5322 137.547 40.5227L137.597 40.5156C137.611 40.5109 137.632 40.5085 137.661 40.5085C137.76 40.5085 137.845 40.5393 137.916 40.6009C137.992 40.6624 138.042 40.7429 138.065 40.8423L138.229 41.5668C138.233 41.5857 138.236 41.6165 138.236 41.6591C138.236 41.7585 138.207 41.8461 138.151 41.9219C138.094 41.9976 138.018 42.045 137.923 42.0639L137.689 42.1207C137.49 42.1444 137.284 42.1562 137.071 42.1562ZM143.854 42.2557C143.167 42.2557 142.54 42.1231 141.972 41.858C141.399 41.5928 140.951 41.2116 140.629 40.7145C140.298 40.2221 140.132 39.6184 140.132 38.9034C140.132 38.2737 140.255 37.7647 140.501 37.3764C140.743 36.9882 141.072 36.6828 141.489 36.4602C141.915 36.233 142.369 36.0672 142.852 35.9631C143.373 35.8447 143.877 35.7547 144.365 35.6932L145.786 35.5156L145.977 35.4943C146.389 35.4517 146.692 35.3759 146.886 35.267C147.08 35.1581 147.178 34.9687 147.178 34.6989V34.642C147.178 33.9413 146.986 33.3968 146.602 33.0085C146.219 32.6203 145.643 32.4261 144.876 32.4261C144.081 32.4261 143.454 32.6013 142.994 32.9517C142.663 33.2027 142.395 33.482 142.192 33.7898C142.154 33.8513 142.104 33.8987 142.043 33.9318C141.981 33.965 141.917 33.9815 141.851 33.9815C141.794 33.9815 141.744 33.9721 141.702 33.9531L140.878 33.6619C140.793 33.6288 140.724 33.5767 140.672 33.5057C140.625 33.4347 140.601 33.3565 140.601 33.2713C140.601 33.205 140.62 33.1387 140.658 33.0724C140.899 32.6274 141.207 32.2533 141.581 31.9503C142.064 31.5762 142.585 31.3158 143.143 31.169C143.702 31.0223 144.261 30.9489 144.82 30.9489C145.156 30.9489 145.558 30.9891 146.027 31.0696C146.486 31.1548 146.929 31.3253 147.355 31.581C147.791 31.8414 148.148 32.2273 148.428 32.7386C148.712 33.2547 148.854 33.946 148.854 34.8125V41.581C148.854 41.6993 148.811 41.7988 148.726 41.8793C148.645 41.9598 148.548 42 148.435 42H147.589C147.476 42 147.379 41.9598 147.298 41.8793C147.218 41.7988 147.178 41.6993 147.178 41.581V40.5227H147.092C146.979 40.7547 146.789 41.008 146.524 41.2827C146.254 41.5526 145.902 41.7822 145.466 41.9716C145.03 42.161 144.493 42.2557 143.854 42.2557ZM141.808 38.9886C141.808 39.5758 142.024 40.0137 142.455 40.3026C142.89 40.6009 143.442 40.75 144.109 40.75C144.777 40.75 145.336 40.6198 145.786 40.3594C146.245 40.0942 146.59 39.758 146.822 39.3509C147.059 38.9342 147.178 38.5009 147.178 38.0511V36.517C147.107 36.6023 146.95 36.6804 146.709 36.7514C146.415 36.8272 146.141 36.8864 145.885 36.929C145.596 36.9716 145.411 36.9976 145.331 37.0071L144.983 37.0568L144.464 37.1207L144.28 37.142C143.854 37.1989 143.446 37.2888 143.058 37.4119C142.675 37.5398 142.372 37.7268 142.149 37.973C141.922 38.2287 141.808 38.5672 141.808 38.9886ZM152.332 42C152.214 42 152.114 41.9598 152.034 41.8793C151.953 41.7988 151.913 41.6993 151.913 41.581V31.2259C151.913 31.1406 151.937 31.0625 151.984 30.9915C152.036 30.9205 152.102 30.8707 152.183 30.8423L152.971 30.5369C153.014 30.518 153.064 30.5085 153.12 30.5085C153.234 30.5085 153.331 30.5488 153.412 30.6293C153.492 30.7098 153.532 30.8092 153.532 30.9276V32.7386H153.646C153.845 32.1989 154.205 31.7609 154.725 31.4247C155.246 31.0885 155.833 30.9205 156.487 30.9205C156.672 30.9205 156.825 30.9228 156.949 30.9276H156.963C157.076 30.9323 157.171 30.9749 157.247 31.0554C157.327 31.1359 157.368 31.233 157.368 31.3466V32.2557C157.368 32.3598 157.327 32.4451 157.247 32.5114C157.171 32.5777 157.083 32.6013 156.984 32.5824C156.78 32.554 156.567 32.5398 156.345 32.5398C155.81 32.5398 155.339 32.6487 154.931 32.8665C154.515 33.0843 154.188 33.3873 153.951 33.7756C153.71 34.1638 153.589 34.6042 153.589 35.0966V41.581C153.589 41.6993 153.549 41.7988 153.468 41.8793C153.388 41.9598 153.291 42 153.177 42H152.332ZM163.731 42.1562C163.253 42.1562 162.789 42.0545 162.339 41.8509C161.885 41.6425 161.511 41.3324 161.217 40.9205C160.923 40.4991 160.777 39.9735 160.777 39.3438V32.5185H159.541C159.427 32.5185 159.33 32.4782 159.25 32.3977C159.169 32.3172 159.129 32.2178 159.129 32.0994V31.5099C159.129 31.3916 159.169 31.2921 159.25 31.2116C159.33 31.1312 159.427 31.0909 159.541 31.0909H160.777V29.1804C160.777 29.0952 160.8 29.0194 160.848 28.9531C160.9 28.8821 160.966 28.83 161.047 28.7969L161.892 28.4773C161.958 28.4583 162.005 28.4489 162.034 28.4489C162.147 28.4489 162.244 28.4891 162.325 28.5696C162.41 28.6501 162.453 28.7519 162.453 28.875V31.0909H164.37C164.484 31.0909 164.581 31.1312 164.662 31.2116C164.742 31.2921 164.782 31.3916 164.782 31.5099V32.0994C164.782 32.2178 164.742 32.3172 164.662 32.3977C164.581 32.4782 164.484 32.5185 164.37 32.5185H162.453V38.8892C162.453 39.358 162.524 39.7131 162.666 39.9545C162.798 40.1818 162.976 40.3357 163.199 40.4162C163.431 40.4967 163.665 40.5369 163.902 40.5369C163.982 40.5369 164.084 40.5322 164.207 40.5227L164.257 40.5156C164.271 40.5109 164.292 40.5085 164.321 40.5085C164.42 40.5085 164.505 40.5393 164.576 40.6009C164.652 40.6624 164.702 40.7429 164.725 40.8423L164.889 41.5668C164.894 41.5857 164.896 41.6165 164.896 41.6591C164.896 41.7585 164.868 41.8461 164.811 41.9219C164.754 41.9976 164.678 42.045 164.583 42.0639L164.349 42.1207C164.15 42.1444 163.944 42.1562 163.731 42.1562ZM171.76 42.2273C170.714 42.2273 169.81 41.9929 169.047 41.5241C168.29 41.0649 167.705 40.4115 167.293 39.5639C166.909 38.759 166.703 37.7812 166.675 36.6307C166.675 35.5133 166.881 34.5284 167.293 33.6761C167.705 32.8144 168.278 32.1468 169.012 31.6733C169.75 31.1903 170.61 30.9489 171.59 30.9489C172.163 30.9489 172.724 31.0436 173.273 31.233C173.827 31.4223 174.331 31.7277 174.786 32.1491C175.24 32.5753 175.603 33.1364 175.873 33.8324C176.142 34.5284 176.277 35.3854 176.277 36.4034V36.6946C176.277 36.813 176.237 36.9124 176.157 36.9929C176.076 37.0734 175.979 37.1136 175.865 37.1136H168.358C168.382 37.8428 168.524 38.4631 168.784 38.9744C169.069 39.5473 169.466 39.9806 169.978 40.2741C170.489 40.5724 171.083 40.7216 171.76 40.7216C172.205 40.7216 172.605 40.6577 172.961 40.5298C173.32 40.4067 173.628 40.2173 173.884 39.9616C174.073 39.7865 174.232 39.5734 174.36 39.3224C174.393 39.2514 174.443 39.197 174.509 39.1591C174.575 39.1212 174.646 39.1023 174.722 39.1023C174.774 39.1023 174.812 39.107 174.836 39.1165L175.674 39.3509C175.764 39.3745 175.835 39.4242 175.887 39.5C175.944 39.5758 175.972 39.6586 175.972 39.7486C175.972 39.8149 175.96 39.8717 175.936 39.919C175.761 40.2978 175.532 40.6293 175.248 40.9134C174.855 41.33 174.357 41.652 173.756 41.8793C173.174 42.1113 172.508 42.2273 171.76 42.2273ZM174.573 35.6648C174.573 35.0492 174.452 34.5 174.211 34.017C173.969 33.5341 173.623 33.1529 173.174 32.8736C172.724 32.5942 172.196 32.4545 171.59 32.4545C170.922 32.4545 170.347 32.6179 169.864 32.9446C169.376 33.2808 169.002 33.7093 168.742 34.2301C168.519 34.6847 168.394 35.1629 168.365 35.6648H174.573ZM182.946 42.2273C182.047 42.2273 181.244 41.9976 180.539 41.5384C179.833 41.0649 179.289 40.4091 178.905 39.571C178.512 38.7424 178.316 37.7434 178.316 36.5739C178.316 35.4186 178.512 34.4242 178.905 33.5909C179.293 32.7528 179.84 32.1018 180.546 31.6378C181.237 31.1785 182.047 30.9489 182.975 30.9489C183.68 30.9489 184.241 31.0672 184.658 31.304C185.07 31.536 185.387 31.7988 185.61 32.0923C185.823 32.3812 185.996 32.625 186.128 32.8239H186.27V27.5256C186.27 27.4403 186.294 27.3622 186.341 27.2912C186.393 27.2202 186.46 27.1705 186.54 27.142L187.385 26.8224C187.452 26.8035 187.499 26.794 187.527 26.794C187.641 26.794 187.738 26.8343 187.819 26.9148C187.904 26.9953 187.946 27.0947 187.946 27.2131V41.581C187.946 41.6993 187.906 41.7988 187.826 41.8793C187.745 41.9598 187.646 42 187.527 42H186.739C186.625 42 186.528 41.9598 186.448 41.8793C186.367 41.7988 186.327 41.6993 186.327 41.581V40.3239H186.128C185.977 40.5606 185.801 40.8092 185.603 41.0696C185.375 41.3774 185.051 41.6449 184.63 41.8722C184.199 42.1089 183.638 42.2273 182.946 42.2273ZM179.992 36.5455C180.006 37.2841 180.124 37.9872 180.347 38.6548C180.588 39.2893 180.944 39.7912 181.412 40.1605C181.886 40.5346 182.473 40.7216 183.174 40.7216C183.841 40.7216 184.409 40.544 184.878 40.1889C185.342 39.8385 185.695 39.3509 185.936 38.7259C186.178 38.0914 186.299 37.3646 186.299 36.5455C186.299 35.7358 186.18 35.0232 185.944 34.4077C185.702 33.7921 185.352 33.3139 184.892 32.973C184.428 32.6274 183.855 32.4545 183.174 32.4545C182.468 32.4545 181.876 32.6368 181.398 33.0014C180.929 33.366 180.577 33.8537 180.34 34.4645C180.108 35.0753 179.992 35.7689 179.992 36.5455Z" fill="white"/>
</svg>
