<svg width="24" height="24" viewBox="0 0 24 24" fill="none" xmlns="http://www.w3.org/2000/svg">
<path d="M5.875 11.875H5.88375M12 11.875H12.0088M18.125 11.875H18.1338M6.75 11.875C6.75 12.1071 6.65781 12.3296 6.49372 12.4937C6.32962 12.6578 6.10706 12.75 5.875 12.75C5.64294 12.75 5.42038 12.6578 5.25628 12.4937C5.09219 12.3296 5 12.1071 5 11.875C5 11.6429 5.09219 11.4204 5.25628 11.2563C5.42038 11.0922 5.64294 11 5.875 11C6.10706 11 6.32962 11.0922 6.49372 11.2563C6.65781 11.4204 6.75 11.6429 6.75 11.875ZM12.875 11.875C12.875 12.1071 12.7828 12.3296 12.6187 12.4937C12.4546 12.6578 12.2321 12.75 12 12.75C11.7679 12.75 11.5454 12.6578 11.3813 12.4937C11.2172 12.3296 11.125 12.1071 11.125 11.875C11.125 11.6429 11.2172 11.4204 11.3813 11.2563C11.5454 11.0922 11.7679 11 12 11C12.2321 11 12.4546 11.0922 12.6187 11.2563C12.7828 11.4204 12.875 11.6429 12.875 11.875ZM19 11.875C19 12.1071 18.9078 12.3296 18.7437 12.4937C18.5796 12.6578 18.3571 12.75 18.125 12.75C17.8929 12.75 17.6704 12.6578 17.5063 12.4937C17.3422 12.3296 17.25 12.1071 17.25 11.875C17.25 11.6429 17.3422 11.4204 17.5063 11.2563C17.6704 11.0922 17.8929 11 18.125 11C18.3571 11 18.5796 11.0922 18.7437 11.2563C18.9078 11.4204 19 11.6429 19 11.875Z" stroke="#14A028" stroke-linecap="round" stroke-linejoin="round"/>
</svg>
