<svg width="24" height="24" viewBox="0 0 24 24" fill="none" xmlns="http://www.w3.org/2000/svg">
<path d="M4 16.4V18H14.8V16.4C14.5334 15.4666 13.2 14 9.20001 14C5.34669 14 4.13333 15.7333 4 16.4Z" stroke="#888888" stroke-width="1.5" stroke-linecap="round"/>
<circle cx="9.59991" cy="9.20001" r="2.45001" stroke="#888888" stroke-width="1.5"/>
<mask id="path-3-inside-1_880_18718" fill="white">
<path fill-rule="evenodd" clip-rule="evenodd" d="M12.8003 11.9719C13.7568 11.4186 14.4003 10.3844 14.4003 9.20001C14.4003 8.01556 13.7568 6.98142 12.8003 6.42812C13.271 6.15584 13.8175 6 14.4003 6C16.1676 6 17.6003 7.43269 17.6003 9.20001C17.6003 10.9673 16.1676 12.4 14.4003 12.4C13.8175 12.4 13.271 12.2442 12.8003 11.9719Z"/>
</mask>
<path fill-rule="evenodd" clip-rule="evenodd" d="M12.8003 11.9719C13.7568 11.4186 14.4003 10.3844 14.4003 9.20001C14.4003 8.01556 13.7568 6.98142 12.8003 6.42812C13.271 6.15584 13.8175 6 14.4003 6C16.1676 6 17.6003 7.43269 17.6003 9.20001C17.6003 10.9673 16.1676 12.4 14.4003 12.4C13.8175 12.4 13.271 12.2442 12.8003 11.9719Z" fill="#888888"/>
<path d="M12.8003 11.9719L12.2996 11.1063L10.8032 11.9719L12.2996 12.8375L12.8003 11.9719ZM12.8003 6.42812L12.2996 5.56252L10.8032 6.42812L12.2996 7.29372L12.8003 6.42812ZM13.4003 9.20001C13.4003 10.0131 12.9597 10.7244 12.2996 11.1063L13.301 12.8375C14.5538 12.1128 15.4003 10.7558 15.4003 9.20001H13.4003ZM12.2996 7.29372C12.9597 7.67562 13.4003 8.38696 13.4003 9.20001H15.4003C15.4003 7.64417 14.5538 6.28722 13.301 5.56252L12.2996 7.29372ZM13.301 7.29372C13.6236 7.10712 13.9979 7 14.4003 7V5C13.637 5 12.9184 5.20456 12.2996 5.56252L13.301 7.29372ZM14.4003 7C15.6154 7 16.6003 7.98498 16.6003 9.20001H18.6003C18.6003 6.88041 16.7199 5 14.4003 5V7ZM16.6003 9.20001C16.6003 10.415 15.6154 11.4 14.4003 11.4V13.4C16.7199 13.4 18.6003 11.5196 18.6003 9.20001H16.6003ZM14.4003 11.4C13.9979 11.4 13.6236 11.2929 13.301 11.1063L12.2996 12.8375C12.9184 13.1955 13.637 13.4 14.4003 13.4V11.4Z" fill="#888888" mask="url(#path-3-inside-1_880_18718)"/>
<path d="M17.2002 16C17.2002 15.04 15.7335 13.7333 15.2002 13.2C19.0402 13.52 20.0002 15.7334 20.0002 16.8V18.8H17.2002V16Z" fill="#888888" stroke="#888888"/>
</svg>
