<svg width="24" height="24" viewBox="0 0 24 24" fill="none" xmlns="http://www.w3.org/2000/svg">
<path d="M11.1111 6.56196V18.4366C11.1109 18.805 10.9806 19.1615 10.7432 19.4433C10.5059 19.7251 10.1767 19.9141 9.81367 19.977C9.45064 20.0399 9.07705 19.9727 8.75874 19.7872C8.44042 19.6016 8.19779 19.3097 8.0736 18.9628L6.16502 13.4958M6.16502 13.4958C5.4105 13.175 4.78998 12.6042 4.40848 11.8785C4.02698 11.1527 3.90794 10.3175 4.07148 9.51407C4.23503 8.71065 4.67113 7.98841 5.30598 7.46957C5.94083 6.95074 6.73544 6.66717 7.55534 6.66685H9.1839C12.8286 6.66685 15.9621 5.56989 17.3338 4V16.4453C15.9621 14.8754 12.8295 13.7785 9.1839 13.7785H7.55534C7.07765 13.7792 6.60474 13.6824 6.16502 13.4958ZM17.3338 12.8895C18.0411 12.8895 18.7194 12.6085 19.2195 12.1084C19.7197 11.6083 20.0006 10.9299 20.0006 10.2227C20.0006 9.51536 19.7197 8.83704 19.2195 8.33691C18.7194 7.83677 18.0411 7.5558 17.3338 7.5558V12.8895Z" stroke="#14A028" stroke-width="1.5" stroke-linecap="round" stroke-linejoin="round"/>
</svg>
