<svg width="24" height="24" viewBox="0 0 24 24" fill="none" xmlns="http://www.w3.org/2000/svg">
<path d="M13.4889 5.17067C13.1102 3.60978 10.8898 3.60978 10.5111 5.17067C10.2658 6.17956 9.11022 6.65778 8.22489 6.11733C6.85244 5.28178 5.28267 6.85244 6.11822 8.224C6.24382 8.43 6.31901 8.66275 6.33766 8.9033C6.35631 9.14385 6.3179 9.38541 6.22555 9.60831C6.1332 9.83121 5.98953 10.0292 5.80622 10.186C5.62291 10.3429 5.40515 10.4543 5.17067 10.5111C3.60978 10.8898 3.60978 13.1102 5.17067 13.4889C5.40495 13.5459 5.62248 13.6573 5.80558 13.8142C5.98868 13.971 6.13218 14.1689 6.22442 14.3917C6.31666 14.6144 6.35504 14.8558 6.33643 15.0962C6.31782 15.3366 6.24276 15.5692 6.11733 15.7751C5.28178 17.1476 6.85244 18.7173 8.224 17.8818C8.43 17.7562 8.66275 17.681 8.9033 17.6623C9.14385 17.6437 9.38541 17.6821 9.60831 17.7744C9.83121 17.8668 10.0292 18.0105 10.186 18.1938C10.3429 18.3771 10.4543 18.5948 10.5111 18.8293C10.8898 20.3902 13.1102 20.3902 13.4889 18.8293C13.5459 18.5951 13.6573 18.3775 13.8142 18.1944C13.971 18.0113 14.1689 17.8678 14.3917 17.7756C14.6144 17.6833 14.8558 17.645 15.0962 17.6636C15.3366 17.6822 15.5692 17.7572 15.7751 17.8827C17.1476 18.7182 18.7173 17.1476 17.8818 15.776C17.7562 15.57 17.681 15.3372 17.6623 15.0967C17.6437 14.8561 17.6821 14.6146 17.7744 14.3917C17.8668 14.1688 18.0105 13.9708 18.1938 13.814C18.3771 13.6571 18.5948 13.5457 18.8293 13.4889C20.3902 13.1102 20.3902 10.8898 18.8293 10.5111C18.5951 10.4541 18.3775 10.3427 18.1944 10.1858C18.0113 10.029 17.8678 9.8311 17.7756 9.60834C17.6833 9.38557 17.645 9.14419 17.6636 8.9038C17.6822 8.66341 17.7572 8.4308 17.8827 8.22489C18.7182 6.85244 17.1476 5.28267 15.776 6.11822C15.57 6.24382 15.3372 6.31901 15.0967 6.33766C14.8561 6.35631 14.6146 6.3179 14.3917 6.22555C14.1688 6.1332 13.9708 5.98953 13.814 5.80622C13.6571 5.62291 13.5457 5.40515 13.4889 5.17067Z" stroke="#14A028" stroke-width="1.5" stroke-linecap="round" stroke-linejoin="round"/>
<path d="M13.4142 13.4142C13.7893 13.0391 14 12.5304 14 12C14 11.4696 13.7893 10.9609 13.4142 10.5858C13.0391 10.2107 12.5304 10 12 10C11.4696 10 10.9609 10.2107 10.5858 10.5858C10.2107 10.9609 10 11.4696 10 12C10 12.5304 10.2107 13.0391 10.5858 13.4142C10.9609 13.7893 11.4696 14 12 14C12.5304 14 13.0391 13.7893 13.4142 13.4142Z" stroke="#14A028" stroke-width="1.5" stroke-linecap="round" stroke-linejoin="round"/>
</svg>
