<svg xmlns="http://www.w3.org/2000/svg" viewBox="0 0 112 71.33"><defs><style>.cls-1{fill:none;stroke:#afafaf;stroke-linecap:round;stroke-linejoin:round;stroke-width:2px;}.cls-2{fill:#cecece;}.cls-3{fill:#afafaf;}</style></defs><g id="圖層_2" data-name="圖層 2"><g id="Color"><path class="cls-1" d="M86.23,61.87H4.9A3.8,3.8,0,0,1,1,58.17V4.7A3.8,3.8,0,0,1,4.9,1H107.1A3.8,3.8,0,0,1,111,4.7V58.17a3.8,3.8,0,0,1-3.9,3.7H84.78"/><path class="cls-2" d="M72.85,49.36c2.89-6.87,5.85-13.69,8.54-20.64a.75.75,0,0,0-.83-1,32.2,32.2,0,0,0-4.46,1.54c-2.43.95-4.84,2-7.23,3-5.46,2.39-10.88,4.9-16.11,7.76a31.69,31.69,0,0,0-5.59,3.56.75.75,0,0,0,.22,1.27c4.58,1.19,9.18,2.34,13.84,3.17,3.61.65,7.24,1.15,10.85,1.79,1,.17,1.08-1.32.14-1.49-3.53-.62-7.08-1.12-10.61-1.74-4.62-.82-9.17-2-13.7-3.13l.23,1.27a26.87,26.87,0,0,1,4.64-3c2.4-1.34,4.86-2.58,7.33-3.78,5.13-2.49,10.34-4.84,15.63-7a33.08,33.08,0,0,1,5.08-1.82l-.83-1c-2.69,7-5.65,13.77-8.54,20.64-.37.89,1,1.4,1.4.52Z"/><path class="cls-2" d="M11.06,15.91l-.69,16.4c0,1,1.44,1.1,1.48.14l.69-16.39c0-1-1.44-1.11-1.48-.15Z"/><path class="cls-2" d="M11.93,16.72c-.41.06.21,0,.34,0h15.5a16.74,16.74,0,0,1,2.24,0c.95.12,1.09-1.36.14-1.49a13.82,13.82,0,0,0-1.82,0H14.05a18.9,18.9,0,0,0-2.38,0c-.95.13-.69,1.6.26,1.47Z"/><path class="cls-2" d="M29.33,16.46V32c0,1,1.49,1.1,1.49.14V16.6c0-1-1.49-1.1-1.49-.14Z"/><path class="cls-2" d="M11.59,33.38l18.42,0c.95,0,1.1-1.48.14-1.48l-18.42,0c-1,0-1.1,1.48-.14,1.48Z"/><path class="cls-2" d="M43.46,15.78c4,4.33,7.92,8.69,11.89,13,.65.71,1.79-.25,1.14-1q-6-6.51-11.89-13c-.64-.71-1.79.25-1.14,1Z"/><path class="cls-2" d="M44.33,15.52c1.29-1.21,2.51-2.51,3.85-3.67a.77.77,0,0,0,.08-1.06.75.75,0,0,0-1-.08c-1.33,1.16-2.55,2.46-3.85,3.67a.76.76,0,0,0-.08,1,.76.76,0,0,0,1,.09Z"/><path class="cls-2" d="M47.3,11.94,59.55,24.18c.67.68,1.82-.28,1.14-1L48.44,11c-.67-.67-1.82.28-1.14,1Z"/><path class="cls-2" d="M56.85,28.43l3.91-3.87a.75.75,0,0,0-1-1.14l-3.92,3.87a.75.75,0,1,0,1,1.14Z"/><path class="cls-2" d="M77.26,21.53a16.92,16.92,0,0,1,4.83-6.25,6.56,6.56,0,0,1,4.51-1.34,14.23,14.23,0,0,1,4,.51,9.56,9.56,0,0,1,5.35,4A17.54,17.54,0,0,1,98,26.66c0,1,1.52.69,1.46-.26a18,18,0,0,0-2.62-9.22,11.18,11.18,0,0,0-6.35-4.3,17.38,17.38,0,0,0-4.72-.43,7.55,7.55,0,0,0-4.26,1.39A18.09,18.09,0,0,0,75.86,21c-.41.87,1,1.38,1.4.52Z"/><path class="cls-2" d="M76.56,22.32c7.38,1.28,14.64,3.2,21.93,4.91.93.22,1.45-1.18.52-1.4-7.42-1.74-14.8-3.7-22.31-5-1-.17-1.09,1.32-.14,1.48Z"/><path class="cls-3" d="M38.44,49.91,34,50.82a21.47,21.47,0,0,1-8.6,0l-4.48-.91a2,2,0,0,0-1.95.68A44.48,44.48,0,0,0,10,68.86a2,2,0,0,0,2,2.47h35.4a2,2,0,0,0,2-2.47,44.48,44.48,0,0,0-9-18.27A2,2,0,0,0,38.44,49.91Z"/><path class="cls-3" d="M36.46,50.3C47.1,47,48.52,44.52,50.75,42.85a2.43,2.43,0,0,1,3.72,1.53c1,4.53-7.61,10.85-14.46,13.22Z"/><circle class="cls-3" cx="29.66" cy="35.44" r="11.55"/><circle class="cls-3" cx="90.59" cy="44.55" r="8.47"/><path class="cls-3" d="M84.15,55.16l3.28.67a16,16,0,0,0,6.31,0L97,55.16a1.47,1.47,0,0,1,1.43.5A32.61,32.61,0,0,1,105,69.06a1.49,1.49,0,0,1-1.45,1.82h-26a1.5,1.5,0,0,1-1.46-1.82,32.72,32.72,0,0,1,6.57-13.4A1.46,1.46,0,0,1,84.15,55.16Z"/><path class="cls-3" d="M85.17,55.62s-8.25-5.56-10.79-6.86c-2.7-1.4-6.29,1.37-.24,8.1,0,0,6,5.84,8.75,5.84Z"/></g></g></svg>