<svg width="24" height="24" viewBox="0 0 24 24" fill="none" xmlns="http://www.w3.org/2000/svg">
<path d="M12 4V4.88889M12 19.1111V20M20 12H19.1111M4.88889 12H4M17.6569 17.6569L17.0284 17.0284M6.97156 6.97156L6.34311 6.34311M17.6569 6.34311L17.0284 6.97156M6.97156 17.0284L6.34311 17.6569M15.5556 12C15.5556 12.943 15.181 13.8474 14.5142 14.5142C13.8474 15.181 12.943 15.5556 12 15.5556C11.057 15.5556 10.1526 15.181 9.48584 14.5142C8.81905 13.8474 8.44444 12.943 8.44444 12C8.44444 11.057 8.81905 10.1526 9.48584 9.48584C10.1526 8.81905 11.057 8.44444 12 8.44444C12.943 8.44444 13.8474 8.81905 14.5142 9.48584C15.181 10.1526 15.5556 11.057 15.5556 12Z" stroke="#14A028" stroke-width="1.5" stroke-linecap="round" stroke-linejoin="round"/>
</svg>
